<?xml version="1.0" encoding="UTF-8" standalone="no"?>
<!-- Created with Inkscape (http://www.inkscape.org/) -->

<svg
   width="167.09898mm"
   height="118.90297mm"
   viewBox="0 0 167.09898 118.90297"
   version="1.1"
   id="svg103880"
   inkscape:version="1.1 (c68e22c387, 2021-05-23)"
   sodipodi:docname="frutas-line.svg"
   xmlns:inkscape="http://www.inkscape.org/namespaces/inkscape"
   xmlns:sodipodi="http://sodipodi.sourceforge.net/DTD/sodipodi-0.dtd"
   xmlns="http://www.w3.org/2000/svg"
   xmlns:svg="http://www.w3.org/2000/svg">
  <sodipodi:namedview
     id="namedview103882"
     pagecolor="#ffffff"
     bordercolor="#666666"
     borderopacity="1.0"
     inkscape:pageshadow="2"
     inkscape:pageopacity="0.0"
     inkscape:pagecheckerboard="0"
     inkscape:document-units="mm"
     showgrid="false"
     fit-margin-top="0"
     fit-margin-left="0"
     fit-margin-right="0"
     fit-margin-bottom="0"
     inkscape:zoom="1.5554293"
     inkscape:cx="287.70192"
     inkscape:cy="151.40515"
     inkscape:window-width="2560"
     inkscape:window-height="1377"
     inkscape:window-x="-8"
     inkscape:window-y="-8"
     inkscape:window-maximized="1"
     inkscape:current-layer="layer1" />
  <defs
     id="defs103877" />
  <g
     inkscape:label="Layer 1"
     inkscape:groupmode="layer"
     id="layer1"
     transform="translate(-8.6463535,-124.94017)">
    <path
       id="path473035"
       style="color:#000000;fill:#000000;fill-opacity:0.0846774;stroke-width:1;stroke-linecap:round;stroke-linejoin:round;-inkscape-stroke:none"
       d="m 109.76006,124.94017 c 0.0349,1.2e-4 0.0698,8e-4 0.10439,0.002 0.55262,0.0144 1.0635,0.13029 1.51929,0.32608 0.91158,0.39158 1.58434,1.06719 2.06447,1.77353 0.2727,0.40118 0.48648,0.8143 0.64958,1.21078 0.25696,-0.3461 0.59177,-0.66788 1.02216,-0.94103 a 0.80493496,0.80493496 0 0 1 0.60771,-0.10541 0.80493496,0.80493496 0 0 1 0.50384,0.35501 0.80493496,0.80493496 0 0 1 -0.24804,1.10949 c -0.96378,0.61164 -1.06344,1.32267 -1.00407,2.05104 0.0505,0.61863 0.27705,1.13914 0.34468,1.28313 3.12145,-0.81931 6.53311,0.48836 8.24756,3.40703 l 2.10219,3.5791 c 2.0664,3.51783 0.88852,8.04927 -2.62929,10.11567 -3.51781,2.0664 -8.04772,0.88749 -10.11411,-2.63033 l -2.1022,-3.5786 c -2.0664,-3.5178 -0.89058,-8.04822 2.62723,-10.11463 0.11955,-0.0702 0.2405,-0.13671 0.36225,-0.19946 -0.11597,-0.26533 -0.30229,-0.75724 -0.39739,-1.36065 -1.71246,0.36494 -3.20987,-0.12734 -4.20233,-1.10122 -1.07851,-1.05835 -1.60821,-2.58121 -1.66812,-4.10518 l -0.0232,-0.60358 0.57206,-0.1912 c 0.58065,-0.1946 1.13856,-0.28278 1.66139,-0.28112 z m 0.51005,1.7229 c -0.29531,-0.003 -0.62892,0.0523 -0.94878,0.0858 0.17117,0.8746 0.48831,1.69566 1.02526,2.2226 0.59106,0.58002 1.40975,0.80045 2.49649,0.63304 -0.008,-0.0373 -0.005,-0.0501 -0.016,-0.0899 -0.11491,-0.44823 -0.35565,-1.04421 -0.71055,-1.56631 -0.35489,-0.52211 -0.8145,-0.96347 -1.36736,-1.20096 v -5.3e-4 c -0.1384,-0.0594 -0.30186,-0.0816 -0.47904,-0.0832 z m 7.01611,6.70191 c -1.02109,-0.0128 -2.06113,0.24678 -3.01429,0.80667 -2.77282,1.62877 -3.68499,5.1378 -2.0562,7.91063 l 2.1022,3.5786 c 1.62878,2.77282 5.13832,3.68652 7.91114,2.05775 2.77281,-1.62878 3.6855,-5.1404 2.05672,-7.91321 l -2.10219,-3.57859 c -1.06889,-1.81968 -2.94805,-2.83742 -4.89738,-2.86185 z m -3.03961,3.47834 a 0.60025499,0.60025499 0 0 1 0.33848,0.0832 0.60025499,0.60025499 0 0 1 0.21084,0.82218 c -0.21707,0.36716 -0.29073,1.09644 -0.13281,1.9761 0.15793,0.87966 0.51919,1.89096 0.99219,2.81534 0.47301,0.92437 1.06086,1.76608 1.62884,2.31975 0.56798,0.55369 1.07732,0.75689 1.36116,0.709 a 0.60025499,0.60025499 0 0 1 0.69143,0.49248 0.60025499,0.60025499 0 0 1 -0.49196,0.69091 c -0.88898,0.14999 -1.69645,-0.34834 -2.3983,-1.0325 -0.70185,-0.68418 -1.339,-1.61607 -1.85932,-2.63291 -0.52034,-1.01685 -0.92053,-2.11616 -1.10587,-3.14864 -0.18537,-1.03248 -0.18161,-2.01733 0.28163,-2.80087 a 0.60025499,0.60025499 0 0 1 0.48369,-0.29352 z m 38.02145,6.50865 c 1.35493,-0.002 2.7146,0.30993 3.97909,1.00769 3.07231,1.69537 5.36637,5.60869 5.74539,12.23388 1.17042,2.29385 2.75335,4.21416 3.55947,6.26112 0.40945,1.03972 0.60285,2.15747 0.32194,3.30109 -0.25735,1.04785 -0.89435,2.06705 -1.94665,3.08456 0.0281,0.27093 0.0948,0.67591 0.25787,1.08417 0.28377,0.71007 0.708,1.33017 1.896,1.45418 a 0.84228997,0.84228997 0 0 1 0.74983,0.92449 0.84228997,0.84228997 0 0 1 -0.81442,0.75603 v 5.3e-4 a 0.84228997,0.84228997 0 0 1 -0.11007,-0.005 c -1.81644,-0.18955 -2.85573,-1.43219 -3.28456,-2.50528 -0.10233,-0.25598 -0.17843,-0.50777 -0.23512,-0.7431 -0.68593,0.32085 -1.36646,0.55398 -2.04174,0.67024 -1.03758,0.17869 -2.06136,0.0842 -3.07216,-0.37672 -1.97589,-0.9012 -3.75903,-3.02776 -5.87871,-6.60683 -5.94927,-2.93148 -8.67447,-6.58947 -9.06767,-10.10533 -0.3988,-3.56595 1.56732,-6.76932 4.34289,-8.64702 1.64799,-1.11487 3.61835,-1.78629 5.59862,-1.78852 z m -0.0269,1.68414 c -1.60758,0.007 -3.2343,0.55725 -4.62814,1.50016 -2.34751,1.58813 -3.92964,4.22149 -3.61166,7.06469 0.31793,2.84324 2.53553,6.10522 8.34884,8.9054 l 0.23048,0.11058 0.13177,0.22273 c 2.11832,3.61832 3.82708,5.47516 5.25911,6.12831 0.5816,0.26527 1.14415,0.37049 1.7353,0.32608 h 5.3e-4 c 0.13629,-0.0103 0.27399,-0.0286 0.41392,-0.0548 0.72027,-0.13426 1.50839,-0.49645 2.42415,-1.03043 1.01376,-0.93133 1.51691,-1.73746 1.69292,-2.45411 0.18035,-0.73434 0.0746,-1.44594 -0.25477,-2.28203 -0.65854,-1.67225 -2.27502,-3.67183 -3.5543,-6.22185 l -0.0796,-0.16019 -0.008,-0.17777 c -0.31544,-6.43748 -2.44285,-9.71848 -4.90823,-11.07891 -1.00156,-0.55268 -2.09264,-0.80254 -3.19257,-0.79788 z m -2.03502,1.66243 a 0.62810998,0.62810998 0 0 1 0.19586,0.004 c 0,0 1.79254,0.33482 3.69538,1.91513 1.88407,1.56473 3.91301,4.38677 4.66638,9.21236 2.7672,3.99747 3.81476,7.51168 3.81476,7.51168 a 0.62810998,0.62810998 0 0 1 -0.42685,0.77722 0.62810998,0.62810998 0 0 1 -0.16227,0.0253 0.62810998,0.62810998 0 0 1 -0.61753,-0.45372 c 0,0 -0.98122,-3.38037 -3.7145,-7.27708 a 0.62817279,0.62817279 0 0 1 -0.10645,-0.26768 c -0.69515,-4.64858 -2.57656,-7.16751 -4.25659,-8.56278 -1.68002,-1.39524 -3.11454,-1.64538 -3.11454,-1.64538 a 0.62810998,0.62810998 0 0 1 -0.50643,-0.72864 0.62810998,0.62810998 0 0 1 0.53278,-0.51005 z m -2.68459,1.78748 a 0.62810998,0.62810998 0 0 1 0.19586,0.0129 0.62810998,0.62810998 0 0 1 0.47284,0.75085 c 0,0 -0.33372,1.41805 0.28835,3.51142 0.62209,2.0934 2.197,4.81538 6.19756,7.28276 a 0.62817279,0.62817279 0 0 1 0.20257,0.20257 c 2.50773,4.04556 5.23069,6.27765 5.23069,6.27765 a 0.62810998,0.62810998 0 0 1 0.0873,0.8847 0.62810998,0.62810998 0 0 1 -0.42426,0.22635 0.62810998,0.62810998 0 0 1 -0.45992,-0.14108 c 0,0 -2.81852,-2.34515 -5.40588,-6.46265 -4.13858,-2.59015 -5.93672,-5.56402 -6.63422,-7.91115 -0.70459,-2.37103 -0.30644,-4.14858 -0.30644,-4.14858 a 0.62810998,0.62810998 0 0 1 0.55552,-0.48576 z m -19.61792,9.833 0.6227,0.38085 c 1.65983,1.02317 2.64684,2.37301 3.06286,3.77083 0.30978,1.04084 0.31399,2.08548 0.15142,3.05666 1.81506,-0.80232 3.94367,-0.86308 5.92418,-0.37982 l 0.71003,0.17053 0.0331,0.73277 c 0.0873,1.94791 -0.47175,3.51772 -1.39371,4.64778 -0.39828,0.48816 -0.85444,0.89275 -1.34204,1.22732 1.07575,0.27926 2.16323,0.78251 3.06544,1.63711 1.05882,1.00296 1.8132,2.48918 1.9756,4.43228 l 0.0651,0.72916 -0.68833,0.26148 c -2.13098,0.82037 -4.53098,0.98925 -6.59702,0.1447 -0.50529,-0.20656 -0.98469,-0.47993 -1.42627,-0.81804 0.328,3.81307 -1.40822,7.67563 -4.8488,9.89655 l -9.73997,6.28747 c -4.95741,3.20003 -11.56598,1.77622 -14.76602,-3.1812 l -2.25723,-3.49643 c -3.20003,-4.95742 -1.776209,-11.56599 3.1812,-14.76602 l 9.73997,-6.28747 c 3.42966,-2.21385 7.649,-2.21346 10.98383,-0.36225 -0.12277,-0.58862 -0.15875,-1.18387 -0.1111,-1.77095 0.18056,-2.22467 1.41745,-4.29596 3.11247,-5.826 z m 0.26562,2.8453 c -0.95772,1.12487 -1.87217,2.35556 -1.97507,3.62355 -0.11446,1.41005 0.48443,2.74447 1.97972,3.961 0.0974,-0.11051 0.17124,-0.17607 0.28318,-0.33125 0.4322,-0.5992 0.91336,-1.49427 1.1896,-2.45928 0.27624,-0.96499 0.34986,-1.98518 0.0687,-2.92953 -0.1964,-0.65987 -0.89794,-1.26066 -1.54616,-1.86449 z m -9.13433,5.8291 c -1.57657,0.0268 -3.16872,0.48435 -4.6023,1.40974 l -9.73998,6.28695 c -4.07774,2.6322 -5.232555,7.99388 -2.60035,12.07161 l 2.25722,3.49695 c 2.63221,4.07775 7.99388,5.23256 12.07162,2.60036 l 9.73945,-6.28696 c 4.07774,-2.63221 5.23308,-7.99385 2.60088,-12.07161 l -2.25723,-3.49695 c -1.64513,-2.5486 -4.35639,-3.95541 -7.15408,-4.00957 -0.10491,-0.002 -0.21012,-0.002 -0.31523,-5.3e-4 z m 15.48123,0.0388 c -0.90457,-0.004 -1.76203,0.11705 -2.4536,0.50953 -1.23001,0.69805 -1.99668,1.9442 -2.16214,3.86385 0.14687,0.0186 0.24435,0.0437 0.43718,0.0491 0.73853,0.0205 1.74368,-0.0843 2.69699,-0.39843 0.95331,-0.31419 1.84519,-0.82973 2.46807,-1.59318 0.43484,-0.53296 0.53211,-1.44689 0.66714,-2.32131 -0.55083,-0.0598 -1.1109,-0.10725 -1.65364,-0.10955 z m -18.40457,2.84169 a 0.72738659,0.72738659 0 0 1 0.16072,0.0294 0.72738659,0.72738659 0 0 1 0.48576,0.90486 c -0.20548,0.68217 -0.38564,1.278 -0.57774,1.91461 l 3.51399,0.51883 0.81597,-2.60139 a 0.72738659,0.72738659 0 0 1 0.91364,-0.47904 0.72738659,0.72738659 0 0 1 0.47387,0.9126 l -0.74723,2.3828 3.27111,0.48318 0.23099,-0.80977 a 0.72738659,0.72738659 0 0 1 0.89814,-0.50281 0.72738659,0.72738659 0 0 1 0.4377,0.34778 0.72738659,0.72738659 0 0 1 0.062,0.5519 l -0.1788,0.62735 0.64183,0.0946 a 0.72738696,0.72738696 0 0 1 0.61339,0.82682 0.72738696,0.72738696 0 0 1 -0.82269,0.61082 l -0.83405,-0.12299 -0.90641,3.17965 2.47944,0.30024 a 0.72738696,0.72738696 0 0 1 0.6351,0.80719 0.72738696,0.72738696 0 0 1 -0.81132,0.63769 l -2.70681,-0.32763 -0.97358,3.41529 c 0.65846,0.087 1.2749,0.16796 1.98024,0.26149 a 0.72738696,0.72738696 0 0 1 0.48162,0.2775 0.72738696,0.72738696 0 0 1 0.14366,0.54105 0.72738696,0.72738696 0 0 1 -0.81442,0.62322 c -0.78144,-0.10361 -1.4697,-0.19431 -2.19366,-0.28991 l -0.71107,2.49442 a 0.72738659,0.72738659 0 0 1 -0.90021,0.49972 0.72738659,0.72738659 0 0 1 -0.49764,-0.89711 l 0.65267,-2.28978 c -1.28548,-0.16934 -2.48398,-0.3266 -3.58427,-0.47025 l -1.02061,3.25613 2.56366,0.40462 a 0.72738696,0.72738696 0 0 1 0.47233,0.28939 0.72738696,0.72738696 0 0 1 0.13332,0.5426 0.72738696,0.72738696 0 0 1 -0.83199,0.60513 l -2.77761,-0.43821 -0.68419,2.18281 a 0.72738659,0.72738659 0 0 1 -0.91571,0.47594 0.72738659,0.72738659 0 0 1 -0.47387,-0.91261 l 0.6196,-1.97558 -3.38998,-0.53486 c -0.0586,0.18531 -0.12314,0.39064 -0.17414,0.55087 -0.37678,1.18368 -0.55118,1.70345 -0.64338,1.95337 -0.0231,0.0625 -0.0427,0.10739 -0.061,0.15038 -0.0183,0.0428 -0.003,0.0542 -0.10594,0.19172 -0.0133,0.0166 -0.0523,0.0631 -0.0527,0.0636 -2.7e-4,5.3e-4 -0.10252,0.0918 -0.10284,0.092 -2.6e-4,2.1e-4 -0.2416,0.11361 -0.24184,0.11369 -1.1e-4,7e-5 -0.20969,0.0248 -0.20981,0.0248 -1.5e-4,1.1e-4 -0.23865,-0.0465 -0.23874,-0.0465 -5e-5,-8e-5 -0.19784,-0.11465 -0.19792,-0.11472 -1e-4,-1.4e-4 -0.12706,-0.13113 -0.12713,-0.13126 -1.3e-4,-1.9e-4 -0.10584,-0.20383 -0.10593,-0.20412 -2.1e-4,-8e-4 -0.0372,-0.18835 -0.0372,-0.18914 0,-0.002 0.001,-0.0981 0.003,-0.12144 0.003,-0.0222 0.008,-0.0475 0.008,-0.0475 a 0.72738659,0.72738659 0 0 1 0.0724,-0.19999 c 5.3e-4,-5.3e-4 0.002,-5.3e-4 0.002,-10e-4 1.4e-4,-2.6e-4 10e-4,-0.004 0.002,-0.004 a 0.72738659,0.72738659 0 0 1 0.0775,-0.12247 c -0.006,0.007 -0.0107,0.0118 -0.0139,0.0165 -0.0238,0.0318 -0.0399,0.0551 -0.0506,0.0718 0.005,-0.0143 0.007,-0.0193 0.0165,-0.046 0.0724,-0.19616 0.25057,-0.7147 0.62477,-1.89033 0.0313,-0.0985 0.0728,-0.23099 0.10697,-0.33899 l -3.12177,-0.493 a 0.72738659,0.72738659 0 0 1 -0.69815,0.18242 0.72738659,0.72738659 0 0 1 -0.50385,-0.49093 0.72738696,0.72738696 0 0 1 -0.23254,-0.65422 0.72738696,0.72738696 0 0 1 0.4501,-0.56017 l 0.83716,-3.04685 c -0.11195,-0.0132 -0.24923,-0.0299 -0.3514,-0.0419 -1.22542,-0.14306 -1.77115,-0.19295 -1.97973,-0.20774 -0.0397,-0.003 -0.0541,-0.004 -0.0677,-0.004 0.0168,-0.002 0.0439,-0.007 0.092,-0.0171 a 0.72738696,0.72738696 0 0 1 -0.1111,0.016 c 0.002,0 0.0153,0.001 0.0191,0.001 -0.0282,0.003 -0.0274,5.3e-4 -0.0227,-5.3e-4 a 0.72738696,0.72738696 0 0 1 -0.21394,-0.0155 c 0,0 -0.0212,-0.006 -0.0424,-0.0129 -0.0212,-0.007 -0.11637,-0.0488 -0.11782,-0.0496 -7.9e-4,-2.6e-4 -0.15251,-0.11223 -0.15296,-0.11265 -2.2e-4,-1.9e-4 -0.1425,-0.17652 -0.14263,-0.17674 -5e-5,-1e-4 -0.0708,-0.17145 -0.0708,-0.17156 -2e-5,-1e-4 -0.0233,-0.23037 -0.0233,-0.23048 0,-1e-4 0.0584,-0.2376 0.0584,-0.23771 4e-5,-1e-4 0.10741,-0.17767 0.10748,-0.17777 1.5e-4,-1.9e-4 0.20327,-0.17137 0.20361,-0.17156 2.6e-4,-1.8e-4 0.12718,-0.0591 0.12764,-0.0594 5.3e-4,-1.9e-4 0.0565,-0.0167 0.0775,-0.0212 0.16752,-0.0369 0.17611,-0.0191 0.22272,-0.0181 0.0466,0.001 0.0944,0.006 0.16071,0.0103 0.26568,0.0188 0.8069,0.0699 2.04071,0.21394 0.16752,0.0196 0.38198,0.0452 0.57567,0.0682 l 0.90847,-3.3073 -2.05569,-0.24908 a 0.72738696,0.72738696 0 0 1 -0.63768,-0.8108 0.72738696,0.72738696 0 0 1 0.81339,-0.63407 l 2.26962,0.27492 0.74518,-2.71301 a 0.72738659,0.72738659 0 0 1 0.89452,-0.50902 0.72738659,0.72738659 0 0 1 0.43873,0.34314 0.72738659,0.72738659 0 0 1 0.0703,0.55087 l -0.68833,2.50475 3.38739,0.41031 c 0.32219,-1.06196 0.67238,-2.21883 1.04748,-3.46025 l -2.35283,-0.34726 a 0.72738696,0.72738696 0 0 1 -0.61391,-0.82683 0.72738696,0.72738696 0 0 1 0.82268,-0.61081 l 2.56833,0.3793 c 0.21077,-0.6985 0.41156,-1.36253 0.63872,-2.11666 a 0.72738659,0.72738659 0 0 1 0.74672,-0.51729 z m -6.88433,20.42821 a 0.72738659,0.72738659 0 0 0 -0.004,0.005 c -0.004,0.004 -0.0102,0.003 0.0155,-0.0372 -0.004,0.01 -0.0105,0.0288 -0.0119,0.032 z m 24.05848,-16.72405 c -0.46778,-0.003 -0.90374,0.0315 -1.26866,0.0889 -0.18674,0.0293 -0.27652,0.0679 -0.41806,0.10438 0.41005,1.88007 1.32217,3.01801 2.63033,3.55276 1.17929,0.48207 2.69274,0.22342 4.13102,-0.12403 -0.24554,-0.8523 -0.46559,-1.7477 -0.96584,-2.22156 -0.71535,-0.67758 -1.66276,-1.07167 -2.64841,-1.26143 -0.49282,-0.0949 -0.99261,-0.136 -1.46038,-0.13901 z m -17.52968,0.55036 c -0.37009,1.22481 -0.71685,2.37034 -1.03611,3.42253 l 3.49022,0.42271 1.04387,-3.32848 z m 4.95474,0.73174 -1.03198,3.29127 3.4246,0.41496 0.91674,-3.21737 z m -11.23342,3.52226 -0.90848,3.30729 c 0.88114,0.10818 1.9606,0.24337 3.24683,0.4067 0.29831,-0.97454 0.63897,-2.09225 1.00873,-3.30833 z m 4.81262,0.58291 c -0.37154,1.22174 -0.71074,2.33428 -1.01182,3.31763 1.02051,0.13073 2.17422,0.27973 3.44113,0.44442 l 1.048,-3.34089 z m 4.94647,0.59893 -1.05162,3.35432 c 1.09033,0.1424 2.27702,0.29798 3.54552,0.46509 l 0.96894,-3.40031 z m -14.77378,1.69034 a 0.72738696,0.72738696 0 0 1 0.49455,0.86351 c 0.0144,-0.0615 0.0294,-0.12202 0.0294,-0.12195 -1e-5,7e-5 -0.0202,-0.22645 -0.0202,-0.22635 2e-5,1.1e-4 -0.0672,-0.17426 -0.0672,-0.17415 1.2e-4,2.1e-4 -0.14226,-0.17648 -0.14211,-0.17621 5.3e-4,5.2e-4 -0.15112,-0.10944 -0.15038,-0.10904 0.001,7.9e-4 -0.0861,-0.0404 -0.10438,-0.0465 -0.0183,-0.006 -0.0398,-0.009 -0.0398,-0.009 z m 0.48835,0.90847 a 0.72738696,0.72738696 0 0 1 -0.0651,0.14573 c 0.0229,-0.0379 0.0471,-0.077 0.047,-0.077 -2e-5,3e-5 0.0113,-0.0395 0.0181,-0.0687 z m -0.0889,0.18552 a 0.72738696,0.72738696 0 0 1 -0.0734,0.092 c 0.0106,-0.009 0.0362,-0.0305 0.0362,-0.0305 -3e-5,5e-5 0.0204,-0.0337 0.0372,-0.0615 z m -0.22531,0.22014 a 0.72738696,0.72738696 0 0 1 -0.0202,0.015 c 2.7e-4,-1.6e-4 0.005,-0.002 0.005,-0.002 -3e-5,0 0.0134,-0.0111 0.0155,-0.0129 z m -0.0248,0.017 a 0.72738696,0.72738696 0 0 1 -0.14573,0.061 c 0.0132,-0.004 0.0322,-0.008 0.032,-0.008 -5.3e-4,1.6e-4 0.098,-0.0455 0.11368,-0.0527 z m 3.56774,0.52038 -0.82372,2.99775 3.0732,0.48524 c 0.25917,-0.83024 0.57516,-1.85082 0.95395,-3.08301 -1.27952,-0.16232 -2.33985,-0.29422 -3.20343,-0.39998 z m 4.66587,0.58653 c -0.38085,1.23881 -0.70259,2.27773 -0.96687,3.12487 l 3.38998,0.53537 1.00872,-3.21686 c -1.26105,-0.16388 -2.42047,-0.31387 -3.43183,-0.44338 z m 44.71665,4.10466 0.27802,0.68161 c 0.8717,2.1105 1.09869,4.50546 0.30437,6.59133 -0.19426,0.51015 -0.45608,0.99627 -0.78341,1.4459 3.80402,-0.42016 7.70722,1.22216 10.01075,4.60799 l 6.52157,9.58495 c 3.31904,4.87852 2.05546,11.5193 -2.82308,14.83837 l -3.44062,2.34146 c -4.87854,3.31904 -11.51985,2.05544 -14.83889,-2.82309 l -6.52105,-9.58494 c -2.2962,-3.37507 -2.39783,-7.59329 -0.62787,-10.97194 -0.58547,0.13698 -1.17979,0.18742 -1.76785,0.15399 -2.22837,-0.12667 -4.32929,-1.31286 -5.89989,-2.97036 l -0.50023,-0.53071 0.36587,-0.63201 c 0.98271,-1.68411 2.30804,-2.70357 3.69538,-3.15329 1.03305,-0.33487 2.07718,-0.36434 3.05201,-0.22531 -0.84601,-1.79513 -0.95817,-3.92171 -0.52297,-5.91334 l 0.15348,-0.71365 0.73174,-0.0506 c 1.94523,-0.13441 3.52831,0.38619 4.68034,1.28054 0.49766,0.38634 0.91308,0.8327 1.25935,1.31207 0.25315,-1.08221 0.72966,-2.18158 1.56218,-3.10421 0.97704,-1.08278 2.44459,-1.87267 4.38319,-2.08204 z m -47.67358,2.11046 c 9e-5,5e-5 -0.0477,0.006 -0.0951,0.0119 a 0.72738659,0.72738659 0 0 1 0.16743,0.001 c -0.0303,-0.006 -0.0725,-0.0129 -0.0724,-0.0129 z m -0.12815,0.016 c -0.0359,0.005 -0.0765,0.01 -0.0765,0.01 5e-5,0 -0.0314,0.0148 -0.045,0.0212 a 0.72738659,0.72738659 0 0 1 0.12145,-0.031 z m 0.23616,0.007 a 0.72738659,0.72738659 0 0 1 0.58549,0.60719 c -0.01,-0.0533 -0.0255,-0.13734 -0.0253,-0.13694 0,2.7e-4 -0.10247,-0.19863 -0.10232,-0.19844 h -0.001 c 1e-4,1.6e-4 -0.12927,-0.13389 -0.12919,-0.13384 2.1e-4,0 -0.198,-0.11527 -0.19792,-0.11524 1.6e-4,-8e-5 -0.0657,-0.0101 -0.12971,-0.0227 z m -0.5023,0.0915 c -0.0179,0.008 -0.0528,0.0248 -0.0527,0.0248 2.7e-4,-2e-4 -0.1027,0.0919 -0.10232,0.0915 2e-4,-2.6e-4 -0.0177,0.021 -0.032,0.0377 a 0.72738659,0.72738659 0 0 1 0.18707,-0.154 z m 46.60232,0.22893 c -0.84612,0.26609 -1.73617,0.508 -2.1978,1.01958 -0.66006,0.73153 -1.03096,1.68843 -1.19682,2.67839 -0.0829,0.49497 -0.11166,0.99525 -0.10335,1.46295 0.008,0.46772 0.0532,0.90266 0.11937,1.26608 0.0338,0.18599 0.0742,0.27485 0.1142,0.41548 1.8696,-0.45543 2.98523,-1.39488 3.48816,-2.7156 0.45339,-1.19061 0.15848,-2.69742 -0.22376,-4.12688 z m -45.50988,0.31109 a 0.72738659,0.72738659 0 0 1 0,0.17673 c 0,0 0.003,-0.0184 0.006,-0.0377 0.002,-0.0192 -0.001,-0.11621 -0.001,-0.1142 2e-5,1.1e-4 -0.004,-0.0191 -0.005,-0.0248 z m 35.5074,2.12235 c -0.0465,0.55211 -0.0806,1.11307 -0.0698,1.65572 0.0179,0.9044 0.15987,1.7588 0.56896,2.44067 0.72762,1.21276 1.9919,1.94913 3.915,2.0681 0.0154,-0.14726 0.0381,-0.24532 0.0388,-0.43822 0.003,-0.73882 -0.12641,-1.74123 -0.46354,-2.68666 -0.33716,-0.94543 -0.87431,-1.82458 -1.65261,-2.42879 -0.54333,-0.42183 -1.45937,-0.49699 -2.3368,-0.61082 z m 12.41783,5.70043 c -1.67891,0.008 -3.37705,0.50377 -4.88187,1.52755 l -3.44114,2.34146 c -2.50804,1.70632 -3.84899,4.45099 -3.83542,7.24917 0.008,1.67891 0.50376,3.37705 1.52755,4.88187 l 6.52105,9.58495 c 2.73011,4.01286 8.11819,5.03745 12.13104,2.30735 l 3.44114,-2.34094 c 4.01286,-2.73012 5.03745,-8.11819 2.30735,-12.13104 l -6.52053,-9.58443 c -1.70632,-2.50804 -4.45099,-3.84941 -7.24917,-3.83594 z m -14.92106,0.64182 c -0.494,-0.006 -0.98347,0.058 -1.4521,0.2098 -0.65492,0.21231 -1.23881,0.92796 -1.82677,1.59061 v 5.2e-4 c 1.14771,0.93023 2.40047,1.81451 3.67058,1.88671 1.41241,0.0803 2.73192,-0.55103 3.91191,-2.07532 -0.11283,-0.0947 -0.18013,-0.16676 -0.33797,-0.27492 -0.60948,-0.41757 -1.51629,-0.87685 -2.4877,-1.12965 -0.48569,-0.1264 -0.98394,-0.20188 -1.47795,-0.20774 z m 15.41405,1.83916 a 0.72738696,0.72738696 0 0 1 0.65681,0.79582 l -0.262,2.71405 3.43803,0.89038 c 0.071,-0.66038 0.13701,-1.27852 0.21343,-1.98593 a 0.72738696,0.72738696 0 0 1 0.26561,-0.48782 0.72738696,0.72738696 0 0 1 0.53744,-0.1571 0.72738696,0.72738696 0 0 1 0.64285,0.79944 c -0.0847,0.78372 -0.15866,1.4738 -0.23668,2.19986 l 2.51096,0.65061 a 0.72738659,0.72738659 0 0 1 0.52142,0.8878 0.72738659,0.72738659 0 0 1 -0.88522,0.51935 l -2.30477,-0.59738 c -0.13814,1.2892 -0.26645,2.49116 -0.38344,3.59461 l 3.2799,0.94155 0.34262,-2.57246 a 0.72738696,0.72738696 0 0 1 0.27802,-0.47955 0.72738696,0.72738696 0 0 1 0.53898,-0.14625 0.72738696,0.72738696 0 0 1 0.62529,0.81701 l -0.37104,2.78742 2.19883,0.63149 a 0.72738659,0.72738659 0 0 1 0.49765,0.90382 0.72738659,0.72738659 0 0 1 -0.90072,0.49558 l -1.99006,-0.57154 -0.45269,3.40186 c 0.18668,0.0541 0.39359,0.1136 0.55501,0.16071 1.19244,0.34803 1.71627,0.50971 1.96835,0.59583 0.0631,0.0216 0.1085,0.0406 0.15193,0.0579 0.0432,0.0173 0.0544,0.002 0.19431,0.10077 0.0169,0.0129 0.064,0.0512 0.0646,0.0517 5.3e-4,2.7e-4 0.0943,0.0999 0.0946,0.10025 2.2e-4,2.7e-4 0.11929,0.23903 0.11937,0.23927 8e-5,1.1e-4 0.03,0.20865 0.03,0.20877 1.1e-4,1.4e-4 -0.0408,0.23969 -0.0408,0.23978 -8e-5,6e-5 -0.10944,0.20094 -0.10956,0.20102 -1.2e-4,1e-4 -0.12803,0.13014 -0.12815,0.13022 -1.9e-4,1.4e-4 -0.20125,0.1105 -0.20154,0.11059 -7.2e-4,2.2e-4 -0.18731,0.0419 -0.1881,0.0419 -0.002,4e-5 -0.0986,0.001 -0.12196,0 -0.0223,-0.002 -0.0475,-0.007 -0.0475,-0.007 a 0.72738659,0.72738659 0 0 1 -0.20154,-0.0677 c -6.1e-4,-5.3e-4 -6.1e-4,-0.002 -10e-4,-0.002 -3.2e-4,-1.2e-4 -0.004,-0.001 -0.004,-0.002 a 0.72738659,0.72738659 0 0 0 0.005,0.004 c 0.004,0.004 0.003,0.0103 -0.0372,-0.0145 0.0101,0.004 0.0288,0.01 0.032,0.0108 v -5.3e-4 a 0.72738659,0.72738659 0 0 1 -0.12351,-0.0744 c 0.007,0.005 0.0121,0.0106 0.0171,0.0134 0.0323,0.023 0.0559,0.0387 0.0729,0.0491 -0.0144,-0.005 -0.0196,-0.006 -0.0465,-0.0155 -0.19785,-0.0676 -0.72046,-0.23314 -1.9048,-0.57878 -0.0992,-0.0289 -0.23277,-0.0671 -0.34158,-0.0987 l -0.41703,3.13263 a 0.72738659,0.72738659 0 0 1 0.19896,0.6935 0.72738659,0.72738659 0 0 1 -0.47853,0.51573 0.72738696,0.72738696 0 0 1 -0.64853,0.24804 0.72738696,0.72738696 0 0 1 -0.57051,-0.43614 l -3.06648,-0.76327 c -0.0104,0.11225 -0.0245,0.24998 -0.0336,0.35244 -0.11333,1.22852 -0.14994,1.77497 -0.15968,1.98386 -0.002,0.0397 -0.003,0.0545 -0.002,0.0682 -0.002,-0.0167 -0.008,-0.0437 -0.0191,-0.0915 a 0.72738696,0.72738696 0 0 1 0.0186,0.11059 c -5e-5,-0.002 5e-4,-0.0153 5.3e-4,-0.0191 0.003,0.0281 10e-4,0.0274 0,0.0227 a 0.72738696,0.72738696 0 0 1 -0.0103,0.21394 c 0,0 -0.005,0.0215 -0.0114,0.0429 -0.006,0.0214 -0.0462,0.11738 -0.047,0.11885 -3.5e-4,8e-4 -0.10862,0.1551 -0.10904,0.15555 -1.9e-4,2.3e-4 -0.1729,0.14714 -0.17312,0.14728 -9e-5,6e-5 -0.1699,0.0749 -0.17001,0.0749 -1e-4,1e-5 -0.22934,0.0284 -0.22945,0.0284 -1e-4,0 -0.23915,-0.0527 -0.23926,-0.0527 -1.1e-4,-3e-5 -0.18024,-0.10273 -0.18035,-0.10283 -1.9e-4,-1.5e-4 -0.17602,-0.19915 -0.17622,-0.19948 -1.9e-4,-2.6e-4 -0.0621,-0.12563 -0.0625,-0.12609 -2.1e-4,-5.2e-4 -0.0183,-0.056 -0.0233,-0.077 -0.0409,-0.16658 -0.0233,-0.17559 -0.0233,-0.22221 -3.5e-4,-0.0466 0.003,-0.0949 0.006,-0.16123 0.0122,-0.26605 0.0501,-0.80792 0.16433,-2.04484 0.0156,-0.16795 0.036,-0.38304 0.0543,-0.57722 l -3.32848,-0.82838 -0.19895,2.06137 a 0.72738696,0.72738696 0 0 1 -0.7953,0.65681 0.72738696,0.72738696 0 0 1 -0.65371,-0.79788 l 0.22014,-2.27532 -2.73058,-0.67954 a 0.72738659,0.72738659 0 0 1 -0.5302,-0.8816 0.72738659,0.72738659 0 0 1 0.33228,-0.447 0.72738659,0.72738659 0 0 1 0.5488,-0.0837 l 2.52078,0.62735 0.32814,-3.39617 c -1.06944,-0.2964 -2.23441,-0.6183 -3.48454,-0.96325 l -0.2899,2.36058 a 0.72738696,0.72738696 0 0 1 -0.81184,0.63355 0.72738696,0.72738696 0 0 1 -0.63045,-0.8077 l 0.31678,-2.57659 c -0.7034,-0.19381 -1.37223,-0.37872 -2.13166,-0.58756 a 0.72738659,0.72738659 0 0 1 -0.53485,-0.7338 h -5.3e-4 a 0.72738659,0.72738659 0 0 1 0.0253,-0.16123 0.72738659,0.72738659 0 0 1 0.89297,-0.50747 c 0.68694,0.18891 1.28698,0.3546 1.92805,0.53124 l 0.43356,-3.52589 -2.62051,-0.7524 a 0.72738659,0.72738659 0 0 1 -0.50074,-0.90228 0.72738659,0.72738659 0 0 1 0.90072,-0.49557 l 2.40037,0.68936 0.40359,-3.28197 -0.81494,-0.21135 a 0.72738659,0.72738659 0 0 1 -0.52451,-0.88574 0.72738659,0.72738659 0 0 1 0.33744,-0.44597 0.72738659,0.72738659 0 0 1 0.54984,-0.0749 l 0.63149,0.1633 0.0791,-0.64389 a 0.72738696,0.72738696 0 0 1 0.81184,-0.63303 0.72738696,0.72738696 0 0 1 0.63045,0.8077 l -0.10283,0.83664 3.20083,0.82889 0.2403,-2.48564 a 0.72738696,0.72738696 0 0 1 0.79168,-0.65474 z m -34.95601,1.06919 c 2.37195,-0.0428 4.7224,1.05497 6.18826,3.14141 l 2.3859,3.39617 c 2.34537,3.33829 1.54151,7.9491 -1.79679,10.29447 -0.11345,0.0797 -0.22843,0.15597 -0.34468,0.22841 0.13714,0.25501 0.36313,0.73026 0.50694,1.32394 1.67715,-0.50285 3.20948,-0.134 4.27778,0.75603 1.16092,0.96723 1.81221,2.44176 1.99574,3.95583 l 0.0724,0.59997 -0.55449,0.23719 c -0.56292,0.24113 -1.11173,0.37414 -1.63297,0.41496 v 10e-4 c -0.0348,0.003 -0.0698,0.005 -0.10439,0.006 -0.55196,0.0305 -1.07028,-0.0435 -1.54048,-0.20154 -0.94037,-0.31623 -1.666,-0.93491 -2.20193,-1.5999 -0.30439,-0.3777 -0.55093,-0.77201 -0.74569,-1.15394 -0.228,0.36583 -0.5358,0.71392 -0.94258,1.02113 a 0.80493496,0.80493496 0 0 1 -0.59686,0.15451 0.80493496,0.80493496 0 0 1 -0.53123,-0.31315 0.80493496,0.80493496 0 0 1 0.15709,-1.12603 c 0.9109,-0.68793 0.9524,-1.40432 0.83406,-2.12546 -0.10059,-0.61249 -0.36841,-1.11306 -0.44752,-1.25108 -3.04457,1.0702 -6.55125,0.0438 -8.49715,-2.72594 l -2.3859,-3.39617 c -2.34537,-3.33831 -1.53945,-7.95064 1.79885,-10.29601 1.25186,-0.87951 2.68253,-1.31586 4.10569,-1.34152 z m 0.0362,1.59835 c -1.11086,0.0221 -2.23011,0.36767 -3.21686,1.06092 -2.63132,1.84866 -3.2553,5.42297 -1.40663,8.05429 l 2.3859,3.39565 c 1.21319,1.72683 3.16851,2.58867 5.11338,2.45464 1.01876,-0.0702 2.03432,-0.41357 2.93884,-1.04904 2.63133,-1.84866 3.25583,-5.42036 1.40715,-8.0517 l -2.38642,-3.39566 c -1.15542,-1.64459 -2.98393,-2.50589 -4.83536,-2.4691 z m 30.5077,1.09864 -0.40825,3.32021 3.31505,0.95188 0.33176,-3.43338 z m -29.78475,0.5917 c 0.69956,0.006 1.37291,0.38578 1.98644,0.89348 0.75512,0.62491 1.46585,1.50204 2.06706,2.47324 0.60123,0.97122 1.08944,2.03438 1.35806,3.04839 0.26862,1.01401 0.34482,1.99519 -0.0532,2.81378 a 0.60025499,0.60025499 0 0 1 -0.45837,0.33228 0.60025499,0.60025499 0 0 1 -0.34416,-0.0548 0.60025499,0.60025499 0 0 1 -0.27699,-0.80253 c 0.18653,-0.38358 0.20095,-1.11683 -0.0279,-1.98076 -0.22886,-0.86392 -0.67097,-1.84202 -1.2175,-2.7249 -0.54655,-0.8829 -1.20121,-1.67454 -1.81229,-2.18023 -0.61109,-0.50572 -1.13486,-0.66663 -1.41387,-0.59583 a 0.60025499,0.60025499 0 0 1 -0.72916,-0.43459 0.60025499,0.60025499 0 0 1 0.43409,-0.72864 c 0.16385,-0.0416 0.32639,-0.0602 0.48782,-0.0589 z m 34.45009,0.6165 -0.33538,3.47214 3.37861,0.96996 c 0.11593,-1.09345 0.24294,-2.28368 0.37931,-3.55585 z m -144.524504,2.21381 0.707967,0.20206 c 2.198719,0.61621 4.223464,1.91559 5.374864,3.82767 0.281591,0.46765 0.502862,0.9729 0.654741,1.50792 2.01645,-3.25284 5.71723,-5.31114 9.803019,-5.03483 l 11.566736,0.78186 c 5.887069,0.39814 10.33344,5.49 9.935311,11.37708 l -0.280604,4.1522 c -0.39814,5.88708 -5.490012,10.33397 -11.377083,9.93583 l -11.566734,-0.78186 c -4.0728,-0.27545 -7.454903,-2.79804 -9.021673,-6.27559 -0.253449,0.54526 -0.5803,1.04406 -0.969449,1.48622 -1.474621,1.67548 -3.704471,2.59633 -5.977929,2.80965 l -0.726054,0.0661 -0.27182,-0.67748 c -0.718979,-1.81246 -0.703109,-3.48471 -0.20102,-4.85396 0.373859,-1.01959 0.99495,-1.85956 1.705838,-2.54094 -1.934678,-0.44183 -3.67764,-1.66516 -4.9764395,-3.23649 l -0.4671563,-0.56121 0.4113451,-0.6072 c 1.0944407,-1.61373 2.4812567,-2.53805 3.8958867,-2.89284 0.611089,-0.15325 1.218303,-0.20517 1.809191,-0.1819 -0.695438,-0.86694 -1.266071,-1.92009 -1.478462,-3.14451 -0.249259,-1.43698 0.03416,-3.07931 1.065569,-4.73408 z m 69.703753,0.74208 0.237197,0.55449 c 0.241128,0.56292 0.374142,1.11225 0.414961,1.63349 h 0.0011 c 0.003,0.0348 0.0052,0.0693 0.0062,0.10387 0.0305,0.55196 -0.04348,1.0708 -0.201538,1.54099 -0.31623,0.94038 -0.934914,1.66549 -1.599901,2.20141 -0.377701,0.30439 -0.772533,0.55145 -1.154452,0.74621 0.365829,0.228 0.713915,0.53528 1.021125,0.94206 a 0.80493496,0.80493496 0 0 1 0.154514,0.59738 0.80493496,0.80493496 0 0 1 -0.31316,0.53072 0.80493496,0.80493496 0 0 1 -1.12603,-0.1571 c -0.687919,-0.9109 -1.40431,-0.95239 -2.125451,-0.83405 -0.612489,0.10059 -1.113067,0.36892 -1.251087,0.44803 1.070199,3.04457 0.0443,6.55126 -2.725415,8.49716 l -3.396692,2.3859 c -3.338308,2.34536 -7.950641,1.53944 -10.296011,-1.79886 -2.34536,-3.3383 -1.53842,-7.94909 1.799889,-10.29446 l 3.396175,-2.3859 c 3.338291,-2.34537 7.949102,-1.54151 10.294462,1.79679 0.0797,0.11345 0.155971,0.22843 0.228409,0.34468 0.255021,-0.13714 0.730261,-0.36262 1.323951,-0.50643 -0.502859,-1.67715 -0.134003,-3.20947 0.756026,-4.27777 0.967232,-1.16092 2.442279,-1.81274 3.956349,-1.99626 z m 69.567331,0.61753 -0.43202,3.50935 c 1.23341,0.34034 2.38721,0.65972 3.44682,0.95343 l 0.33797,-3.49953 z M 30.691478,210.482 c -4.645131,-0.0815 -8.532323,3.45101 -8.84959,8.14214 l -0.280604,4.15272 c -0.20469,3.02654 1.12789,5.77467 3.338298,7.4905 1.32624,1.02951 2.968284,1.68741 4.784204,1.81022 l 11.566736,0.78239 c 4.842431,0.32749 8.973236,-3.2806 9.300724,-8.12302 l 0.280603,-4.15272 C 51.15933,215.74178 47.551778,211.611 42.709348,211.2835 L 31.14316,210.50136 c -0.151326,-0.0102 -0.301811,-0.017 -0.451652,-0.0196 z m 52.561648,0.21188 c -0.857811,0.24165 -1.6506,0.62452 -2.132169,1.20251 -0.53009,0.63622 -0.683537,1.46984 -0.428397,2.53938 0.0365,-0.011 0.04956,-0.009 0.08837,-0.0233 0.437409,-0.15094 1.012245,-0.43895 1.503783,-0.83509 0.491551,-0.39613 0.893932,-0.89056 1.085723,-1.46089 h 5.29e-4 c 0.048,-0.14277 0.05673,-0.30748 0.04393,-0.48421 -0.02101,-0.29458 -0.102378,-0.62237 -0.161748,-0.93844 z m -67.492519,0.0279 c -0.31265,0.83003 -0.671216,1.67959 -0.553456,2.35852 0.168421,0.9708 0.69219,1.85282 1.36891,2.59415 0.338338,0.37068 0.714597,0.7024 1.087789,0.98444 0.3732,0.28203 0.743368,0.51516 1.070218,0.68729 0.16722,0.0881 0.262112,0.11051 0.397391,0.16589 0.79515,-1.75229 0.743987,-3.20973 0.01498,-4.42041 -0.65722,-1.09142 -2.025129,-1.78864 -3.385839,-2.36988 z m 143.020203,0.0636 -0.33693,3.48661 c 1.23038,0.34187 2.35054,0.65401 3.34089,0.93121 0.10601,-1.02338 0.22724,-2.18043 0.36121,-3.45095 z M 30.917332,212.047 a 0.72738696,0.72738696 0 0 1 0.401527,0.19792 c 0.56451,0.55019 1.062212,1.03417 1.585433,1.54358 l 2.061372,-1.57458 a 0.72738659,0.72738659 0 0 1 1.020093,0.13746 0.72738659,0.72738659 0 0 1 -0.137459,1.01647 l -1.891874,1.44539 c 0.92928,0.90419 1.79592,1.74685 2.592091,2.51975 l 2.764689,-1.99988 -1.813327,-1.85725 a 0.72738696,0.72738696 0 0 1 -0.205155,-0.51418 0.72738696,0.72738696 0 0 1 0.21704,-0.5147 0.72738696,0.72738696 0 0 1 1.028878,0.0124 l 1.964737,2.01176 1.853118,-1.341 a 0.72738659,0.72738659 0 0 1 1.019059,0.16588 0.72738659,0.72738659 0 0 1 -0.165881,1.01492 l -1.677934,1.21337 2.398305,2.45515 c 0.157749,-0.11353 0.332044,-0.23949 0.468704,-0.33745 1.009631,-0.72367 1.460309,-1.0361 1.683618,-1.18133 0.0559,-0.0363 0.09809,-0.0607 0.138493,-0.0842 0.0403,-0.0234 0.03473,-0.0417 0.199472,-0.0904 0.02061,-0.005 0.08002,-0.0195 0.08061,-0.0196 5.29e-4,-2e-4 0.137081,-0.0124 0.137459,-0.0124 2.65e-4,3e-5 0.261245,0.0537 0.261485,0.0537 1.38e-4,0 0.183359,0.10535 0.183452,0.10542 1.88e-4,0 0.163227,0.17978 0.163295,0.17983 -1e-5,9e-5 0.09043,0.21022 0.09043,0.21033 -1.1e-5,1.7e-4 0.02336,0.18124 0.02326,0.18138 -1.1e-5,2.3e-4 -0.03711,0.22658 -0.03721,0.22686 -2.64e-4,7.9e-4 -0.0828,0.17352 -0.0832,0.17415 -0.0011,0.002 -0.05943,0.0781 -0.07493,0.0956 -0.01569,0.016 -0.03462,0.0331 -0.03462,0.0331 a 0.72738659,0.72738659 0 0 1 -0.177768,0.11679 c -7.94e-4,8e-5 -0.0021,-5.3e-4 -0.0021,0 -2.65e-4,1.7e-4 -0.0031,0.003 -0.0041,0.002 a 0.72738659,0.72738659 0 0 0 0.0052,-0.002 c 0.006,-7.9e-4 0.01008,0.004 -0.03462,0.0202 0.009,-0.006 0.02585,-0.0164 0.02894,-0.0181 a 0.72738659,0.72738659 0 0 1 -0.134874,0.0512 c 0.009,-0.002 0.01569,-0.003 0.02119,-0.005 0.0381,-0.0113 0.06511,-0.0205 0.08371,-0.0274 -0.01259,0.008 -0.01733,0.0117 -0.04082,0.0274 -0.175303,0.11397 -0.628161,0.42277 -1.630911,1.14153 -0.084,0.0602 -0.196394,0.14158 -0.288353,0.20774 l 2.207617,2.26136 a 0.72738659,0.72738659 0 0 1 0.668692,0.2713 0.72738659,0.72738659 0 0 1 0.110588,0.69505 0.72738696,0.72738696 0 0 1 -0.204639,0.66301 0.72738696,0.72738696 0 0 1 -0.695563,0.18035 l -2.492354,1.942 c 0.0818,0.0775 0.181583,0.17269 0.256315,0.2434 0.89685,0.84722 1.304589,1.21375 1.462958,1.3503 0.03,0.0261 0.04129,0.0352 0.05219,0.0434 -0.01471,-0.008 -0.03963,-0.0206 -0.08423,-0.0413 a 0.72738696,0.72738696 0 0 1 0.0987,0.0537 c -5.29e-4,-1e-4 0.0038,0.002 0.0031,0.002 a 0.72738696,0.72738696 0 0 1 0.162264,0.14004 c 0,0 0.01344,0.0175 0.02635,0.0357 0.01281,0.0183 0.06389,0.10856 0.0646,0.11007 2.65e-4,7.9e-4 0.05519,0.1813 0.05529,0.1819 7.2e-5,2.6e-4 0.0093,0.2266 0.0093,0.22686 -2.1e-5,1.1e-4 -0.04589,0.17974 -0.04599,0.17983 -4e-5,9e-5 -0.118787,0.19888 -0.118856,0.19896 -6.1e-5,8e-5 -0.189066,0.15545 -0.189135,0.15554 -9e-5,5e-5 -0.192117,0.0784 -0.192238,0.0785 -2.38e-4,6e-5 -0.265742,0.0156 -0.266134,0.0155 -2.65e-4,-5e-5 -0.136909,-0.0283 -0.137459,-0.0284 -5.29e-4,-1.5e-4 -0.05543,-0.0206 -0.07493,-0.0295 -0.15635,-0.0706 -0.152882,-0.0902 -0.189653,-0.11886 -0.0367,-0.0287 -0.07189,-0.0613 -0.122473,-0.10438 -0.20174,-0.17389 -0.604928,-0.53811 -1.507919,-1.39113 -0.122579,-0.11585 -0.279125,-0.26472 -0.420645,-0.39894 l -2.705777,2.10839 1.499131,1.42834 a 0.72738696,0.72738696 0 0 1 0.02687,1.03146 0.72738696,0.72738696 0 0 1 -1.031462,0.0222 l -1.655196,-1.57717 -2.218987,1.72909 a 0.72738659,0.72738659 0 0 1 -1.021125,-0.1266 0.72738659,0.72738659 0 0 1 -0.146761,-0.53744 0.72738659,0.72738659 0 0 1 0.272851,-0.48369 l 2.04897,-1.59628 -2.470134,-2.35386 c -0.893109,0.65873 -1.86555,1.37671 -2.90835,2.14767 l 1.678969,1.68517 a 0.72738696,0.72738696 0 0 1 -0.0021,1.02939 0.72738696,0.72738696 0 0 1 -1.024742,-0.002 l -1.83193,-1.83968 c -0.586521,0.43396 -1.14476,0.8464 -1.777669,1.31517 a 0.72738659,0.72738659 0 0 1 -0.907955,-0.0315 h -0.0011 a 0.72738659,0.72738659 0 0 1 -0.111103,-0.11937 0.72738659,0.72738659 0 0 1 0.151413,-1.01596 c 0.572518,-0.42404 1.073102,-0.79408 1.607653,-1.18959 l -2.506824,-2.51664 -2.209167,1.59783 a 0.72738659,0.72738659 0 0 1 -1.019059,-0.16226 0.72738659,0.72738659 0 0 1 0.16588,-1.01493 l 2.023132,-1.46347 -2.333191,-2.34249 -0.669208,0.51108 a 0.72738659,0.72738659 0 0 1 -1.020609,-0.13385 0.72738659,0.72738659 0 0 1 -0.143145,-0.54053 0.72738659,0.72738659 0 0 1 0.280085,-0.47956 l 0.518316,-0.39584 -0.457853,-0.4594 a 0.72738696,0.72738696 0 0 1 0.0031,-1.02992 0.72738696,0.72738696 0 0 1 1.024742,0.002 l 0.594797,0.59738 2.627746,-2.00711 -1.808157,-1.72289 a 0.72738696,0.72738696 0 0 1 -0.02687,-1.02681 0.72738696,0.72738696 0 0 1 1.031978,-0.0264 l 1.974038,1.88103 2.822051,-2.15594 c -0.475861,-0.46337 -0.921907,-0.8971 -1.431439,-1.39372 a 0.72738696,0.72738696 0 0 1 -0.220141,-0.51004 0.72738696,0.72738696 0 0 1 0.208256,-0.51987 0.72738696,0.72738696 0 0 1 0.623734,-0.21032 z m 132.647718,0.11266 c -0.13333,1.26465 -0.25518,2.42745 -0.36019,3.44165 1.24767,0.35077 2.29382,0.6472 3.1471,0.8909 l 0.4532,-3.40186 z m -68.366369,0.5302 a 0.84228997,0.84228997 0 0 1 0.109037,0.0134 c 1.795039,0.3365 2.730384,1.65928 3.070614,2.76365 0.0812,0.26345 0.136252,0.52049 0.173633,0.75965 0.709729,-0.26406 1.407295,-0.44077 2.089795,-0.50178 1.04866,-0.0938 2.06133,0.0832 3.03134,0.62477 1.89614,1.05875 3.50024,3.32318 5.32215,7.06262 5.69143,3.40513 8.11081,7.27246 8.21707,10.80864 0.10778,3.58656 -2.11227,6.61965 -5.03122,8.26564 -2.91892,1.64598 -6.64648,1.96477 -9.60923,0 -2.924416,-1.93936 -4.893004,-6.02613 -4.732523,-12.6602 -0.980192,-2.38137 -2.401943,-4.42363 -3.039092,-6.52932 -0.32363,-1.06955 -0.425601,-2.19958 -0.05271,-3.3166 0.34163,-1.02348 1.059085,-1.98744 2.190565,-2.9161 -0.006,-0.27231 -0.0396,-0.68106 -0.168984,-1.10122 -0.22514,-0.73078 -0.597467,-1.38341 -1.771468,-1.60352 a 0.84228997,0.84228997 0 0 1 -0.672309,-0.98237 0.84228997,0.84228997 0 0 1 0.873332,-0.6873 z m -23.777361,1.07332 c -1.11075,0.0223 -2.229588,0.36766 -3.216341,1.06091 l -3.396176,2.3859 c -2.631339,1.84867 -3.25684,5.4209 -1.408181,8.05223 1.84866,2.63132 5.422969,3.25581 8.054287,1.40714 l 3.39566,-2.38589 c 1.726819,-1.2132 2.588659,-3.16904 2.454629,-5.11391 -0.0702,-1.01875 -0.413562,-2.03431 -1.04903,-2.93883 -1.155414,-1.64458 -2.983598,-2.50479 -4.834848,-2.46755 z m 0.503846,1.92443 c 0.474419,-0.003 0.924473,0.078 1.333768,0.27698 a 0.60025499,0.60025499 0 0 1 0.332798,0.45786 h -5.29e-4 a 0.60025499,0.60025499 0 0 1 -0.05478,0.34416 0.60025499,0.60025499 0 0 1 -0.802018,0.27699 c -0.38358,-0.18653 -1.117344,-0.20043 -1.981274,0.0284 -0.863921,0.22886 -1.842019,0.67096 -2.724899,1.2175 -0.882899,0.54655 -1.674537,1.20069 -2.180228,1.81177 -0.505722,0.61109 -0.666631,1.13537 -0.595831,1.41439 a 0.60025499,0.60025499 0 0 1 -0.43408,0.72915 0.60025499,0.60025499 0 0 1 -0.729155,-0.43408 c -0.22171,-0.87386 0.209703,-1.71915 0.834575,-2.47427 0.624909,-0.75511 1.502034,-1.46585 2.473233,-2.06706 0.971221,-0.60123 2.034383,-1.08943 3.048394,-1.35805 0.507005,-0.13431 1.005591,-0.22088 1.480013,-0.22376 z m -39.136629,0.0181 -2.809131,2.14664 2.525426,2.40605 2.848407,-2.06034 c -0.78894,-0.76594 -1.647701,-1.60009 -2.564702,-2.49235 z m 125.513783,0.0356 -0.32453,3.35587 3.32797,0.82786 c 0.0868,-0.88349 0.19601,-1.96581 0.32814,-3.25562 -0.98148,-0.27464 -2.10691,-0.58789 -3.33158,-0.92811 z m -117.960757,0.64493 -2.731614,1.97559 c 0.912969,0.8852 1.752812,1.69868 2.486152,2.40708 1.045851,-0.76543 1.924979,-1.40588 2.643249,-1.92701 z m 5.777426,0.0842 c 0,0 -0.01349,0.0128 -0.02739,0.0264 -0.0131,0.0142 -0.06838,0.0941 -0.06718,0.0925 5e-5,-1e-4 -0.008,0.0175 -0.01085,0.0227 a 0.72738659,0.72738659 0 0 1 0.10542,-0.14159 z m -0.116271,0.16381 c -0.02379,0.0487 -0.06211,0.1255 -0.06201,0.12506 2.01e-4,-2.6e-4 -0.03617,0.22038 -0.03617,0.22014 l 5.29e-4,5.3e-4 c 1.1e-5,-1.8e-4 0.02376,0.18458 0.02376,0.18449 -1.59e-4,-1.3e-4 0.08992,0.21091 0.08992,0.21084 -1.7e-4,-3e-5 0.04664,0.0473 0.09043,0.0956 a 0.72738659,0.72738659 0 0 1 -0.106452,-0.83664 z m 117.051252,0.43357 c -0.13128,1.28307 -0.23762,2.34631 -0.32246,3.21221 l 3.01687,0.75085 0.41031,-3.08405 c -0.83627,-0.23901 -1.86373,-0.53016 -3.10472,-0.87901 z m -61.90475,0.28628 h -5.3e-4 c -0.13668,-7.9e-4 -0.27544,0.006 -0.41703,0.0207 -0.7288,0.0753 -1.543983,0.37263 -2.500103,0.83044 -1.08607,0.84589 -1.653056,1.60841 -1.886707,2.30838 -0.239421,0.71726 -0.191529,1.43487 0.06873,2.29496 0.520499,1.72022 1.969143,3.84452 3.037023,6.49004 l 0.06615,0.1664 -0.0062,0.17776 c -0.2086,6.44183 1.645287,9.88493 3.991997,11.44116 2.34671,1.55625 5.38294,1.32751 7.85172,-0.0646 2.46878,-1.39216 4.25985,-3.88827 4.17391,-6.74791 -0.0859,-2.85967 -2.03139,-6.29124 -7.59799,-9.55445 l -0.22065,-0.1292 -0.11317,-0.23254 c -1.81736,-3.77846 -3.36967,-5.76766 -4.7439,-6.535 -0.55812,-0.31164 -1.11045,-0.46236 -1.70325,-0.46612 z m -55.017827,0.14625 c 0.02069,0.0229 0.05012,0.0537 0.05012,0.0537 h 5.29e-4 c -5e-5,-1e-4 0.0417,0.0234 0.0832,0.047 A 0.72738659,0.72738659 0 0 1 46.1314,217.50028 Z m 0.162779,0.11731 c 0.0318,0.0174 0.06718,0.0377 0.06718,0.0377 -4e-5,-3e-5 0.03387,0.007 0.04857,0.01 a 0.72738659,0.72738659 0 0 1 -0.115755,-0.0476 z m 123.971248,0.0667 c -0.0192,-0.002 -0.11569,0.004 -0.11369,0.004 9e-5,-2e-5 -0.0124,0.003 -0.0202,0.005 a 0.72738659,0.72738659 0 0 1 0.17209,-0.004 c 0,0 -0.0188,-0.003 -0.0382,-0.005 z m -123.457067,0.002 a 0.72738659,0.72738659 0 0 1 -0.241845,0.0114 c 0.0191,0.004 0.05684,0.012 0.05684,0.0119 -2.65e-4,-2e-5 0.137493,-0.0125 0.136943,-0.0124 -2.65e-4,9e-5 0.02656,-0.006 0.04806,-0.0109 z m 123.294277,0.0119 c -0.053,0.0113 -0.13683,0.0291 -0.13642,0.0289 3.4e-4,-1e-5 -0.19605,0.10712 -0.19586,0.10697 v 0.001 c 1.5e-4,-1e-4 -0.13079,0.13238 -0.13074,0.13229 0,-2.1e-4 -0.11008,0.20058 -0.11007,0.20051 -1e-4,-1.6e-4 -0.009,0.0659 -0.0196,0.13022 a 0.72738659,0.72738659 0 0 1 0.59272,-0.59996 z m -0.60151,0.63614 c -0.006,0.0304 -0.0114,0.0724 -0.0114,0.0723 6e-5,-9e-5 0.007,0.0479 0.014,0.0951 a 0.72738659,0.72738659 0 0 1 -0.003,-0.16743 z m -154.978135,0.17156 c -0.370054,-0.003 -0.738182,0.0362 -1.096574,0.12609 -0.667189,0.16731 -1.291394,0.84219 -1.922362,1.46245 0.405829,0.37722 0.826667,0.74961 1.260388,1.0759 0.72276,0.54394 1.482159,0.95955 2.271178,1.05833 1.403331,0.17568 2.762985,-0.36507 4.043164,-1.80505 -0.106619,-0.10272 -0.16955,-0.18065 -0.320911,-0.30025 -0.579789,-0.45792 -1.44835,-0.9749 -2.400368,-1.29294 -0.595027,-0.19875 -1.217756,-0.31998 -1.834515,-0.32453 z m 154.985885,0.0289 c 0.006,0.0358 0.0119,0.076 0.0119,0.076 0,-5e-5 0.0154,0.031 0.0222,0.0444 a 0.72738659,0.72738659 0 0 1 -0.0341,-0.1204 z m -140.700452,0.21135 -2.658234,2.03141 2.360578,2.37039 2.794661,-2.02158 z m 140.805362,0.0522 h -5.3e-4 c 0.008,0.0177 0.0264,0.0523 0.0264,0.0522 -2.2e-4,-2.6e-4 0.0943,0.10017 0.0941,0.0997 -2.6e-4,-1.9e-4 0.0212,0.0171 0.0382,0.031 a 0.72738659,0.72738659 0 0 1 -0.15813,-0.18293 z m -68.66506,0.2036 a 0.62810998,0.62810998 0 0 1 0.447,0.17777 c 0,0 2.61898,2.56661 4.86327,6.88072 3.91447,2.9178 5.46463,6.02773 5.96914,8.42377 0.50963,2.42044 -0.0315,4.15995 -0.0315,4.15995 a 0.62810998,0.62810998 0 0 1 -0.78703,0.41032 0.62810998,0.62810998 0 0 1 -0.41031,-0.78704 c 0,0 0.44787,-1.38632 -0.002,-3.52329 -0.44996,-2.13703 -1.79883,-4.97757 -5.58571,-7.7618 a 0.62817279,0.62817279 0 0 1 -0.18551,-0.2186 c -2.17078,-4.23593 -4.70308,-6.68176 -4.70308,-6.68176 a 0.62810998,0.62810998 0 0 1 -0.0155,-0.88883 0.62810998,0.62810998 0 0 1 0.44131,-0.19121 z m -64.535082,0.22531 -2.837037,2.05156 2.535764,2.41639 c 1.02819,-0.75731 1.964944,-1.44633 2.794146,-2.05466 -0.739952,-0.71485 -1.575692,-1.52393 -2.492873,-2.41329 z m 7.350972,0.66405 c -0.704069,0.51064 -1.567352,1.13981 -2.607593,1.90117 0.928711,0.89501 1.699988,1.6345 2.329058,2.23552 l 2.452047,-1.91099 z m 54.853501,0.41702 a 0.62810998,0.62810998 0 0 1 0.578776,0.5023 c 0,0 0.703249,3.44869 3.110923,7.55458 a 0.62817279,0.62817279 0 0 1 0.0842,0.27543 c 0.31519,4.68969 1.98595,7.35345 3.54707,8.8806 1.56111,1.52712 2.97036,1.8929 2.97036,1.8929 a 0.62810998,0.62810998 0 0 1 0.44545,0.7674 0.62810998,0.62810998 0 0 1 -0.76739,0.44545 c 0,0 -1.75928,-0.47949 -3.52744,-2.20917 -1.75072,-1.71262 -3.54376,-4.68981 -3.9026,-9.56065 -2.433281,-4.20907 -3.191538,-7.79694 -3.191538,-7.79694 a 0.62810998,0.62810998 0 0 1 0.488345,-0.74001 0.62810998,0.62810998 0 0 1 0.163814,-0.0119 z m 34.011879,1.45728 c -0.28937,0.001 -0.6006,0.0407 -0.93483,0.12041 0.011,0.0365 0.009,0.0496 0.0233,0.0884 0.15094,0.43741 0.43946,1.01173 0.8356,1.50327 0.39614,0.49155 0.89005,0.89445 1.46038,1.08624 v 5.3e-4 c 0.14277,0.048 0.30748,0.0567 0.48421,0.0439 0.29458,-0.021 0.62288,-0.10289 0.93896,-0.16226 -0.24165,-0.85782 -0.62452,-1.65009 -1.20251,-2.13166 -0.4374,-0.36443 -0.96847,-0.55087 -1.60507,-0.5488 z m -100.253314,0.38086 -2.826702,2.04431 2.495454,2.50528 c 1.028862,-0.76064 1.991908,-1.47125 2.876828,-2.1239 z m 7.59075,0.51779 c -0.821708,0.60293 -1.763014,1.29513 -2.786393,2.04897 l 2.440678,2.32596 2.705262,-2.1084 c -0.64171,-0.61345 -1.426067,-1.3667 -2.359547,-2.26653 z m 121.731584,0.83458 c 8e-5,1e-5 -0.22592,0.0258 -0.22582,0.0258 1e-4,-3e-5 -0.17271,0.0713 -0.1726,0.0713 2.1e-4,-1.1e-4 -0.17286,0.1464 -0.1726,0.14624 4e-4,-5.3e-4 -0.10577,0.15371 -0.10542,0.15297 6.9e-4,-0.001 -0.0382,0.0869 -0.0439,0.10542 -0.005,0.0184 -0.008,0.0398 -0.008,0.0398 a 0.72738696,0.72738696 0 0 1 0.85111,-0.51522 c -0.0619,-0.0126 -0.12254,-0.0265 -0.12248,-0.0264 z m -142.824352,0.0868 c -0.14415,0.0304 -0.242281,0.0387 -0.42478,0.0961 -0.70467,0.22199 -1.625304,0.65192 -2.423626,1.26039 -0.798309,0.60846 -1.467459,1.38225 -1.806607,2.30735 -0.237011,0.64639 -0.03367,1.54742 0.125056,2.41898 1.440201,-0.32926 2.908646,-0.76896 3.749127,-1.72393 0.934648,-1.06196 1.25231,-2.48981 0.78083,-4.35891 z m 143.405202,0.24908 a 0.72738696,0.72738696 0 0 1 0.0155,0.0196 c -1.6e-4,-2.6e-4 -0.002,-0.005 -0.002,-0.005 1e-5,3e-5 -0.0113,-0.0126 -0.0134,-0.015 z m 0.0176,0.0243 a 0.72738696,0.72738696 0 0 1 0.0646,0.14418 c -0.004,-0.0131 -0.009,-0.0318 -0.009,-0.0315 1.7e-4,5.2e-4 -0.0482,-0.0972 -0.0558,-0.11266 z m -116.272493,2.71715 c 1.4e-5,1e-5 -0.0071,2.3e-4 -0.01291,5.3e-4 a 0.72738696,0.72738696 0 0 1 0.0181,5.3e-4 c -2.64e-4,-8e-5 -0.0052,-0.001 -0.0052,-0.001 z m -0.375171,0.0605 c -0.041,0.0167 -0.08381,0.0336 -0.08371,0.0336 2.9e-5,-1e-5 -0.03291,0.0245 -0.05581,0.0439 a 0.72738696,0.72738696 0 0 1 0.139525,-0.0775 z m -0.171048,0.11007 c -0.0483,0.0407 -0.09673,0.0802 -0.09663,0.0801 5.8e-5,-6e-5 -0.119433,0.19335 -0.119375,0.19327 5e-5,-1e-4 -0.05023,0.17992 -0.05013,0.17983 2.1e-5,-2.4e-4 0.0093,0.22665 0.0093,0.22634 -5.3e-5,-2.5e-4 0.01241,0.039 0.02429,0.077 a 0.72738696,0.72738696 0 0 1 0.232545,-0.75654 z m -0.227893,0.77256 c 0.01318,0.0422 0.0265,0.0846 0.02635,0.0842 -2.64e-4,-10e-4 0.04481,0.0839 0.05581,0.0997 0.0096,0.0137 0.01945,0.0236 0.02273,0.0269 a 0.72738696,0.72738696 0 0 1 -0.104904,-0.21084 z" />
  </g>
</svg>
