<?xml version="1.0" encoding="UTF-8" standalone="no"?>
<!-- Created with Inkscape (http://www.inkscape.org/) -->

<svg
   width="152"
   height="152"
   viewBox="0 0 152 152"
   version="1.1"
   id="svg1"
   xmlns="http://www.w3.org/2000/svg"
   xmlns:svg="http://www.w3.org/2000/svg">
  <defs
     id="defs1" />
  <g
     id="layer1"
     transform="translate(-138.17976,-24.61499)">
    <path
       id="path221"
       style="fill:#000000;fill-opacity:1;fill-rule:nonzero;stroke:none;stroke-width:0.53736"
       d="m 206.94678,50.617534 c -0.081,0.0041 -0.16246,0.015 -0.24396,0.03027 -1.02071,0.129321 -1.65826,1.031996 -1.81804,2.078024 -0.42879,2.804834 -0.85507,5.60345 -1.28386,8.408252 -1.7738,-2.214553 -3.54145,-4.425447 -5.31525,-6.640061 -0.83198,-1.039204 -1.88301,-1.197272 -2.614,-0.890327 -1.25148,0.440394 -1.74536,2.141296 -0.9117,3.187372 l 8.30319,10.418611 c 0.6125,0.771559 1.48846,1.292106 2.44306,1.036341 0.95446,-0.255779 1.45254,-1.144527 1.59725,-2.118979 l 1.98365,-13.175065 c 0.18649,-1.240052 -0.92603,-2.396123 -2.14034,-2.334439 z m 14.46603,0 c -1.21431,-0.06173 -2.32685,1.094387 -2.14034,2.334438 l 1.98365,13.175066 c 0.1447,0.974497 0.64279,1.863199 1.59724,2.118979 0.9546,0.255764 1.83042,-0.264737 2.44306,-1.036341 l 8.30497,-10.418611 c 0.83365,-1.046046 0.338,-2.748699 -0.91347,-3.189153 -0.94867,-0.398308 -1.95084,0.06605 -2.61222,0.892107 -1.77379,2.214599 -3.54324,4.425508 -5.31703,6.640062 -0.42879,-2.804758 -0.85507,-5.60345 -1.28386,-8.408252 -0.20092,-1.315989 -1.03146,-1.978299 -1.81805,-2.078024 -0.0815,-0.01527 -0.16299,-0.02616 -0.24395,-0.03027 z m -37.3617,10.009061 c -0.47593,-0.01349 -0.95419,0.130191 -1.33192,0.454067 -0.81919,0.622328 -0.91898,1.722652 -0.5342,2.708376 1.03107,2.643493 2.06208,5.280435 3.093,7.923914 -2.6434,-1.030949 -5.28052,-2.062003 -7.92392,-3.092998 -1.24021,-0.484034 -2.23048,-0.09536 -2.71015,0.535978 -0.86367,1.007168 -0.44009,2.728535 0.80485,3.217642 l 12.40048,4.870091 c 0.91622,0.361918 1.93667,0.374699 2.63537,-0.324078 0.69885,-0.698795 0.68437,-1.71734 0.3223,-2.633589 l -4.8701,-12.40048 c -0.30569,-0.77811 -1.09248,-1.236437 -1.88571,-1.258923 z m 60.25736,0 c -0.79319,0.02249 -1.58002,0.479041 -1.88571,1.257142 l -4.87009,12.400481 c -0.36192,0.916295 -0.37462,1.936574 0.32408,2.635369 0.69886,0.698779 1.71737,0.684261 2.63359,0.322298 l 12.40047,-4.868311 c 1.24493,-0.489077 1.66852,-2.21041 0.80486,-3.217642 -0.62239,-0.819252 -1.72447,-0.920713 -2.71015,-0.535978 -2.64355,1.030995 -5.27874,2.062049 -7.92214,3.092998 1.03092,-2.643433 2.06031,-5.280436 3.09122,-7.923914 0.48408,-1.240087 0.0966,-2.228743 -0.5342,-2.708376 -0.37768,-0.323881 -0.85601,-0.467561 -1.33193,-0.454067 z m -30.16251,1.63286 c -1.15583,0.0016 -2.09201,1.039499 -2.09049,2.318413 l 0.0161,7.991579 c -3.55993,0.253632 -6.93871,1.166123 -10.00907,2.622904 l -4.00468,-6.816346 c -0.64798,-1.102662 -1.98046,-1.520555 -2.97726,-0.934844 -0.99619,0.585725 -1.28026,1.954723 -0.63214,3.057384 l 3.97443,6.762928 c -2.98339,2.007575 -5.55935,4.572505 -7.58203,7.544634 l -6.75402,-3.999351 c -1.10038,-0.651818 -2.47013,-0.373201 -3.05917,0.621448 -0.58887,0.99465 -0.1728,2.328999 0.92772,2.980816 l 6.7932,4.0225 c -1.49809,3.115617 -2.42983,6.552495 -2.68345,10.176442 l -7.81707,-0.0641 c -1.27889,-0.01067 -2.32351,0.918592 -2.33266,2.074458 -0.0152,1.15585 1.01815,2.10164 2.29705,2.11186 l 7.86692,0.0641 c 0.27677,3.57344 1.21501,6.96153 2.70304,10.03577 l -6.82703,4.0225 c -1.10159,0.64913 -1.51981,1.9833 -0.93306,2.97904 0.58689,0.99626 1.95533,1.27592 3.05738,0.62679 l 6.80389,-4.00825 c 1.99207,2.91035 4.51517,5.42643 7.43245,7.4093 l -3.92635,6.84128 c -0.63671,1.1091 -0.34033,2.47475 0.66241,3.05026 1.00273,0.57551 2.33164,0.14222 2.96835,-0.9669 l 3.92278,-6.83593 c 3.11605,1.49655 6.55193,2.4284 10.17644,2.67988 l 0.0161,8.03254 c 0,1.27892 0.94179,2.31343 2.09761,2.31128 1.15582,-0.002 2.09084,-1.04127 2.08871,-2.32019 l -0.0161,-8.04143 c 3.58475,-0.27944 6.98293,-1.22393 10.06426,-2.72263 l 3.93882,6.94456 c 0.63091,1.11233 1.95768,1.55127 2.96301,0.98114 1.00547,-0.57014 1.30934,-1.93437 0.67842,-3.0467 l -3.96374,-6.98729 c 2.88453,-1.98124 5.38173,-4.48643 7.35232,-7.37903 l 7.16892,4.04564 c 1.11394,0.62818 2.47692,0.32094 3.04492,-0.68555 0.56847,-1.007 0.12628,-2.33252 -0.98826,-2.96123 l -7.13152,-4.0225 c 1.47722,-3.06779 2.40575,-6.44814 2.6781,-10.01084 l 8.02007,-0.002 c 1.2789,-5.4e-4 2.31547,-0.9382 2.31486,-2.09405 -4.6e-4,-1.155863 -1.03774,-2.092804 -2.31664,-2.092271 l -8.0076,0.0018 c -0.25621,-3.608364 -1.1857,-7.02991 -2.67633,-10.133707 l 6.95524,-3.94415 c 1.11302,-0.630324 1.55246,-1.957607 0.98292,-2.96301 -0.57014,-1.005937 -1.93429,-1.309303 -3.0467,-0.67843 l -6.98195,3.958396 c -1.98126,-2.914627 -4.49465,-5.436212 -7.40218,-7.427111 l 4.04387,-6.798541 c 0.65392,-1.099432 0.38044,-2.469858 -0.61255,-3.060944 -0.9936,-0.590556 -2.33045,-0.178302 -2.98437,0.920598 l -4.06702,6.835934 c -3.08544,-1.494938 -6.48653,-2.433619 -10.07494,-2.706596 l -0.0161,-8.009385 c -0.002,-1.278914 -0.94001,-2.314686 -2.09583,-2.313071 z M 169.2414,80.785388 c -0.87232,-0.04082 -1.7716,0.46079 -2.07446,1.321246 -0.39833,0.948603 0.0664,1.952709 0.89211,2.614001 2.21462,1.773824 4.42545,3.541446 6.64006,5.315255 -2.80471,0.428894 -5.60353,0.854973 -8.40824,1.283852 -1.31592,0.200852 -1.9802,1.031487 -2.07981,1.818049 -0.24432,1.304092 0.98317,2.583199 2.30594,2.384296 l 13.17329,-1.981869 c 0.9744,-0.144706 1.865,-0.642688 2.12076,-1.597247 0.25574,-0.954559 -0.26661,-1.830524 -1.03812,-2.443058 L 170.3561,81.194939 c -0.32687,-0.260514 -0.71818,-0.390996 -1.1147,-0.409551 z m 89.87678,0 c -0.39653,0.01855 -0.78782,0.149046 -1.11469,0.409551 l -10.41683,8.303194 c -0.77166,0.612578 -1.29209,1.488484 -1.03634,2.443058 0.25575,0.954558 1.14442,1.452586 2.11898,1.597247 l 13.17328,1.983649 c 1.32276,0.198933 2.55027,-1.080173 2.30594,-2.384296 -0.12946,-1.020682 -1.03202,-1.65837 -2.07801,-1.818049 -2.80486,-0.428864 -5.60355,-0.854959 -8.40826,-1.283852 2.21446,-1.773809 4.42544,-3.541431 6.64006,-5.315255 1.03914,-0.831924 1.19727,-1.882961 0.89033,-2.614001 -0.30275,-0.860446 -1.2021,-1.362062 -2.07446,-1.321246 z m -45.02386,4.693806 c 8.34955,0 15.11776,6.768262 15.11776,15.117756 0,8.34949 -6.76821,15.11777 -15.11776,15.11777 -8.3494,0 -15.11776,-6.76827 -15.11776,-15.11777 0,-8.349478 6.76836,-15.117756 15.11776,-15.117756 z m 0.0854,5.110479 c -5.53707,0 -10.02509,4.488124 -10.02509,10.025097 0,5.53693 4.48802,10.02508 10.02509,10.02508 5.53691,0 10.02508,-4.48813 10.02508,-10.02508 0,-5.536958 -4.48817,-10.025097 -10.02508,-10.025097 z M 166.2712,105.68785 c -1.22384,-0.0186 -2.28927,1.18304 -2.06022,2.40566 0.12947,1.02068 1.03366,1.6584 2.07981,1.81805 2.80471,0.42888 5.60338,0.85497 8.40825,1.28385 -2.21462,1.7738 -4.42545,3.54142 -6.64006,5.31525 -1.0393,0.83192 -1.19904,1.88294 -0.89212,2.61401 0.44037,1.25155 2.14316,1.74531 3.18916,0.91169 l 10.41683,-8.30319 c 0.77151,-0.61255 1.29387,-1.49027 1.03812,-2.44484 -0.25575,-0.95457 -1.14635,-1.45259 -2.12076,-1.59725 l -13.17328,-1.98186 c -0.0827,-0.0124 -0.16415,-0.0202 -0.24573,-0.0213 z m 95.81881,0 c -0.0816,9.1e-4 -0.16484,0.009 -0.2475,0.0213 l -13.17329,1.98186 c -0.97455,0.14471 -1.86323,0.64268 -2.11898,1.59725 -0.2559,0.95458 0.26483,1.83054 1.03634,2.44306 l 10.41683,8.30497 c 1.04616,0.83365 2.74879,0.33988 3.18916,-0.91169 0.39847,-0.9486 -0.0645,-1.9527 -0.89034,-2.614 -2.21461,-1.77382 -4.42559,-3.54323 -6.64005,-5.31704 2.80471,-0.42889 5.60338,-0.85319 8.40825,-1.28207 1.31591,-0.20085 1.97824,-1.03148 2.07802,-1.81805 0.22905,-1.22257 -0.83471,-2.42423 -2.05844,-2.40566 z m -72.97123,18.05762 c -0.0721,-0.002 -0.14427,-0.002 -0.21724,0.002 -0.35023,0.0185 -0.70878,0.10466 -1.05237,0.24039 l -12.40047,4.87009 c -1.24509,0.48908 -1.66675,2.21041 -0.80308,3.21765 0.62239,0.81927 1.72255,0.92071 2.70837,0.53597 2.64341,-1.03101 5.28051,-2.06203 7.92392,-3.093 -1.03092,2.64344 -2.06193,5.28044 -3.093,7.92392 -0.48408,1.24009 -0.0949,2.22874 0.53598,2.70837 1.00716,0.86368 2.72854,0.44012 3.21764,-0.80485 l 4.86831,-12.3987 c 0.36192,-0.91625 0.37657,-1.93656 -0.32229,-2.63537 -0.38211,-0.38215 -0.86106,-0.5506 -1.36577,-0.56625 z m 50.12187,0 c -0.50435,0.0157 -0.9818,0.18409 -1.36398,0.56624 -0.6987,0.69881 -0.686,1.71735 -0.32408,2.6336 l 4.8701,12.40047 c 0.48896,1.24496 2.21032,1.66853 3.21763,0.80486 0.81934,-0.62234 0.91881,-1.72264 0.5342,-2.70838 -1.03107,-2.64347 -2.06014,-5.28046 -3.09122,-7.92391 2.64356,1.03094 5.28037,2.06023 7.92392,3.09122 1.24006,0.48404 2.22871,0.0971 2.70837,-0.5342 0.86367,-1.00718 0.44008,-2.72854 -0.80485,-3.21765 l -12.40048,-4.87009 c -0.34358,-0.13571 -0.70212,-0.22185 -1.05237,-0.24039 -0.0729,-0.004 -0.14519,-0.004 -0.21724,-0.002 z m -34.26158,9.17393 c -0.74639,0.014 -1.41833,0.47533 -1.91598,1.10222 l -8.30319,10.41862 c -0.83367,1.04604 -0.33995,2.74691 0.91169,3.18737 0.94851,0.39836 1.95277,-0.0643 2.61401,-0.89033 1.77394,-2.21462 3.54145,-4.42548 5.31524,-6.64006 0.42895,2.80476 0.85492,5.60344 1.28386,8.40825 0.20091,1.31596 1.03161,1.9783 1.81805,2.07803 1.30419,0.24438 2.58322,-0.98145 2.38429,-2.30417 l -1.98365,-13.17507 c -0.14471,-0.97445 -0.64264,-1.86318 -1.59724,-2.11897 -0.17899,-0.048 -0.35483,-0.0691 -0.52708,-0.0659 z m 18.40129,0 c -0.17224,-0.004 -0.34808,0.018 -0.52708,0.0659 -0.95459,0.25581 -1.45254,1.14449 -1.59724,2.11898 l -1.98187,13.17507 c -0.19893,1.32271 1.08011,2.54851 2.38429,2.30416 1.02073,-0.12931 1.65664,-1.03201 1.81627,-2.07802 0.42895,-2.80484 0.85492,-5.60348 1.28386,-8.40825 1.7738,2.21453 3.54324,4.42546 5.31704,6.64006 0.83198,1.03923 1.88285,1.19725 2.61399,0.89032 1.25148,-0.44039 1.7452,-2.1413 0.9117,-3.18737 l -8.30497,-10.41861 c -0.49765,-0.62689 -1.1696,-1.08831 -1.91599,-1.10222 z" />
  </g>
</svg>
