<?xml version="1.0" encoding="UTF-8" standalone="no"?>
<!-- Created with Inkscape (http://www.inkscape.org/) -->

<svg
   width="16"
   height="16"
   viewBox="0 0 16 16"
   version="1.1"
   id="svg75102"
   sodipodi:docname="icon.svg"
   inkscape:version="1.1.1 (3bf5ae0d25, 2021-09-20)"
   xmlns:inkscape="http://www.inkscape.org/namespaces/inkscape"
   xmlns:sodipodi="http://sodipodi.sourceforge.net/DTD/sodipodi-0.dtd"
   xmlns="http://www.w3.org/2000/svg"
   xmlns:svg="http://www.w3.org/2000/svg">
  <sodipodi:namedview
     id="namedview6"
     pagecolor="#ffffff"
     bordercolor="#666666"
     borderopacity="1.0"
     inkscape:pageshadow="2"
     inkscape:pageopacity="0.0"
     inkscape:pagecheckerboard="0"
     inkscape:document-units="px"
     showgrid="false"
     units="px"
     width="16px"
     inkscape:zoom="11.963353"
     inkscape:cx="9.654484"
     inkscape:cy="17.302841"
     inkscape:window-width="1920"
     inkscape:window-height="1019"
     inkscape:window-x="0"
     inkscape:window-y="30"
     inkscape:window-maximized="1"
     inkscape:current-layer="svg75102"
     scale-x="1" />
  <defs
     id="defs75099" />
  <g
     id="layer1"
     transform="matrix(1.3228919,0,0,1.3228919,-197.48324,-114.11409)">
    <path
       id="path1128"
       style="font-weight:bold;font-size:10.1211px;line-height:1.25;font-family:Rubik;-inkscape-font-specification:'Rubik Bold';letter-spacing:0.77596px;fill:#000000;stroke:none"
       d="m 155.34845,88.503821 c -0.0762,1.71e-4 -0.13802,0.06194 -0.1382,0.138188 v 0.791905 c 1.7e-4,0.07625 0.0619,0.138018 0.1382,0.138188 0.0765,1.94e-4 0.13867,-0.06168 0.13884,-0.138188 v -0.791905 c -1.7e-4,-0.07651 -0.0623,-0.138381 -0.13884,-0.138188 z m -0.9693,0.109859 c -0.0137,-4.17e-4 -0.0273,0.0012 -0.0405,0.0048 -0.0738,0.01991 -0.1176,0.09595 -0.0977,0.169812 l 0.0766,0.286423 c 0.0196,0.07422 0.0959,0.118325 0.16999,0.09833 0.0739,-0.01991 0.1177,-0.09606 0.0977,-0.169977 l -0.0766,-0.286258 c -0.0156,-0.05921 -0.0683,-0.101134 -0.12946,-0.103106 z m 1.93677,0.0083 c -0.061,0.0022 -0.11333,0.04397 -0.12896,0.102941 l -0.0773,0.286259 c -0.02,0.07412 0.0241,0.15036 0.0983,0.169975 0.0739,0.01958 0.14969,-0.02444 0.16931,-0.09833 l 0.0772,-0.286258 c 0.02,-0.07412 -0.0241,-0.150361 -0.0983,-0.169976 -0.0132,-0.0035 -0.0267,-0.0051 -0.0403,-0.0046 z m -2.89436,0.383929 c -0.0261,-0.001 -0.0518,0.0054 -0.0744,0.01845 -0.0662,0.03829 -0.0889,0.123026 -0.0506,0.189247 l 0.24722,0.428235 c 0.0381,0.06641 0.12289,0.08928 0.18925,0.05106 0.0662,-0.03835 0.0887,-0.123069 0.0504,-0.189246 l -0.24706,-0.428235 c -0.0183,-0.0319 -0.0487,-0.05519 -0.0842,-0.06472 -0.01,-0.0028 -0.0203,-0.0043 -0.0307,-0.0048 z m 3.84126,0.02306 c -0.0103,4.41e-4 -0.0207,0.0021 -0.0307,0.0048 -0.0354,0.0094 -0.0657,0.03242 -0.0842,0.06408 l -0.24771,0.428235 c -0.0383,0.06635 -0.0153,0.151125 0.0511,0.189246 0.0662,0.03833 0.1509,0.01577 0.18924,-0.0504 l 0.24723,-0.428234 c 0.0383,-0.06622 0.0157,-0.150956 -0.0506,-0.189247 -0.0226,-0.01303 -0.0484,-0.01943 -0.0744,-0.01845 z m -2.69607,0.301906 c -0.0121,2.8e-5 -0.0241,0.0017 -0.0358,0.0048 -0.0739,0.01963 -0.1179,0.09541 -0.0983,0.169317 l 0.20489,0.764399 c 0.0199,0.07388 0.096,0.117605 0.16982,0.09767 0.0737,-0.01984 0.11744,-0.09556 0.0978,-0.169317 l -0.20489,-0.764398 c -0.0162,-0.06039 -0.071,-0.102381 -0.13358,-0.102448 z m 1.56174,0.0074 c -0.0628,-2e-6 -0.11784,0.04233 -0.1339,0.103106 l -0.2049,0.7644 c -0.0196,0.07396 0.0245,0.149764 0.0985,0.169317 0.0737,0.01962 0.1494,-0.02405 0.16931,-0.09767 l 0.20473,-0.764398 c 0.02,-0.07392 -0.0238,-0.150069 -0.0977,-0.169977 -0.0118,-0.0032 -0.0239,-0.0048 -0.0361,-0.0048 z m -3.5499,0.267812 c -0.0368,1.3e-5 -0.072,0.01465 -0.098,0.04068 -0.0538,0.05404 -0.0538,0.141461 0,0.195506 l 0.55951,0.559669 c 0.0541,0.05428 0.14204,0.05428 0.19616,0 0.0538,-0.05404 0.0538,-0.141459 0,-0.195505 l -0.55967,-0.55967 c -0.026,-0.02603 -0.0613,-0.04067 -0.098,-0.04068 z m 5.52884,0.01153 c -0.0367,-3.1e-5 -0.0718,0.01448 -0.0978,0.04035 l -0.55967,0.55967 c -0.0542,0.05412 -0.0542,0.142044 0,0.196165 0.0541,0.05428 0.14205,0.05428 0.19617,0 l 0.55966,-0.55967 c 0.0543,-0.05412 0.0543,-0.142044 0,-0.196165 -0.0261,-0.02599 -0.0615,-0.04052 -0.0983,-0.04035 z m -2.75898,0.113318 c -0.0762,1.68e-4 -0.13802,0.06194 -0.1382,0.138187 v 0.296965 c 1.7e-4,0.07625 0.0619,0.138017 0.1382,0.138187 0.0765,1.94e-4 0.13867,-0.06168 0.13884,-0.138187 v -0.296965 c -1.7e-4,-0.07651 -0.0623,-0.138381 -0.13884,-0.138187 z m -1.46243,0.07988 c -0.0261,-0.001 -0.052,0.0054 -0.0746,0.01845 -0.0662,0.03835 -0.0887,0.123069 -0.0504,0.189246 l 0.29696,0.513552 c 0.0381,0.06641 0.1229,0.08928 0.18925,0.05106 0.0662,-0.03835 0.0887,-0.123069 0.0504,-0.189248 l -0.29697,-0.51421 c -0.0184,-0.03162 -0.0487,-0.05465 -0.084,-0.06407 -0.01,-0.0028 -0.0203,-0.0043 -0.0307,-0.0048 z m 2.92583,0.01729 c -0.0515,-0.0022 -0.0999,0.02443 -0.12567,0.06901 l -0.2963,0.514211 c -0.0383,0.06618 -0.0157,0.1509 0.0504,0.189247 0.0662,0.03831 0.15096,0.01567 0.18925,-0.05057 l 0.29696,-0.514046 c 0.0383,-0.06635 0.0153,-0.151126 -0.0511,-0.189248 -0.0194,-0.01126 -0.0412,-0.01764 -0.0636,-0.01861 z m -4.84811,0.587999 c -0.0136,-5.06e-4 -0.0272,10e-4 -0.0403,0.0044 -0.0355,0.0096 -0.0657,0.03287 -0.084,0.06473 -0.0383,0.06635 -0.0153,0.151125 0.0511,0.189246 l 0.25645,0.148235 c 0.0662,0.03833 0.1509,0.01577 0.18924,-0.0504 0.0383,-0.06618 0.0157,-0.1509 -0.0504,-0.189247 l -0.25709,-0.148235 c -0.0197,-0.01152 -0.0421,-0.01797 -0.0649,-0.01877 z m 6.74009,0.01713 c -0.0228,7.09e-4 -0.0451,0.0071 -0.0649,0.01845 l -0.25711,0.148894 c -0.0662,0.03835 -0.0887,0.123069 -0.0504,0.189248 0.0383,0.06617 0.12306,0.08873 0.18924,0.0504 l 0.2571,-0.148236 c 0.0662,-0.03835 0.0887,-0.123069 0.0504,-0.189246 -0.0254,-0.04434 -0.0733,-0.07107 -0.12435,-0.06951 z m -5.24226,0.05583 c -0.0367,5.7e-5 -0.0718,0.01463 -0.0977,0.04052 -0.0542,0.0541 -0.0542,0.141899 0,0.196 l 0.20966,0.209835 c 0.0541,0.05385 0.14147,0.05385 0.19551,0 0.0543,-0.05412 0.0543,-0.142043 0,-0.196164 l -0.20983,-0.209671 c -0.0259,-0.02589 -0.0611,-0.04046 -0.0977,-0.04052 z m 3.75463,0.01977 c -0.0368,1.4e-5 -0.072,0.01465 -0.098,0.04068 l -0.20983,0.209669 c -0.0538,0.05404 -0.0538,0.141461 0,0.195506 0.0542,0.05428 0.14204,0.05428 0.19617,0 l 0.20983,-0.209835 c 0.0537,-0.05402 0.0537,-0.141315 0,-0.19534 -0.026,-0.02608 -0.0613,-0.04072 -0.0982,-0.04068 z m -1.88654,0.173929 c -0.42853,-1.26e-4 -0.85727,0.148309 -1.20135,0.446188 -0.68817,0.595761 -0.8351,1.611254 -0.34358,2.377361 l 0.0538,0.08416 -0.23701,0.105081 -1.61658,-0.717127 c -0.0702,-0.03108 -0.15021,-0.03108 -0.22038,0 l -1.72743,0.765716 0.22103,0.497411 1.61658,-0.717129 1.61659,0.717129 c 0.0702,0.03108 0.1502,0.03108 0.22038,0 l 1.61741,-0.717129 1.61659,0.717129 c 0.0702,0.03108 0.1502,0.03108 0.22037,0 l 1.61724,-0.717129 1.61676,0.717129 0.22037,-0.497411 -1.72694,-0.765716 c -0.0703,-0.03127 -0.15067,-0.03127 -0.22103,0 l -1.61659,0.717127 -0.23701,-0.105081 0.0533,-0.08285 c 0.49195,-0.765825 0.34606,-1.781869 -0.34176,-2.37802 -0.34391,-0.298079 -0.77233,-0.446721 -1.20088,-0.446846 z m -2.72801,0.104259 c -0.0121,-4e-5 -0.0242,0.0015 -0.0359,0.0046 -0.0355,0.0096 -0.0657,0.03287 -0.084,0.06473 -0.0383,0.06635 -0.0153,0.151125 0.0511,0.189247 l 0.68535,0.395952 c 0.0663,0.03823 0.15112,0.01535 0.18925,-0.05106 0.0382,-0.06635 0.0153,-0.151126 -0.0511,-0.189247 l -0.68534,-0.395293 c -0.021,-0.01231 -0.045,-0.01884 -0.0693,-0.01894 z m 5.46427,0.01729 c -0.0243,-4.9e-5 -0.0482,0.0063 -0.0693,0.01845 l -0.68535,0.395952 c -0.0662,0.03835 -0.0887,0.123069 -0.0504,0.189247 0.0383,0.06607 0.12294,0.08862 0.18908,0.0504 l 0.68551,-0.395293 c 0.0662,-0.03835 0.0887,-0.123069 0.0504,-0.189247 -0.0183,-0.03187 -0.0485,-0.05515 -0.084,-0.06473 -0.0117,-0.0032 -0.0238,-0.0048 -0.0359,-0.0048 z m -2.73675,0.371081 c 0.31234,1.19e-4 0.62468,0.109672 0.87706,0.328424 0.50476,0.437483 0.6112,1.174164 0.25019,1.736162 l -0.0947,0.147576 -0.92235,-0.409129 c -0.0702,-0.03108 -0.15021,-0.03108 -0.22037,0 l -0.92269,0.409129 -0.0952,-0.148236 c -0.3607,-0.562203 -0.25417,-1.298964 0.25084,-1.736162 0.2525,-0.218596 0.56489,-0.327884 0.87722,-0.327764 z m -3.73157,0.170471 c -0.0646,-0.0025 -0.12239,0.03999 -0.13918,0.102447 -0.02,0.07392 0.0238,0.150068 0.0977,0.169976 l 0.47814,0.127647 c 0.0737,0.01962 0.1494,-0.02404 0.16932,-0.09767 0.02,-0.07397 -0.0238,-0.150141 -0.0978,-0.169976 l -0.47748,-0.127647 c -0.01,-0.0028 -0.0203,-0.0043 -0.0307,-0.0048 z m 7.47615,0.0069 c -0.0104,4.3e-4 -0.0207,0.002 -0.0308,0.0048 l -0.47748,0.128141 c -0.0736,0.01992 -0.11729,0.09561 -0.0977,0.169318 0.0197,0.07389 0.0954,0.117904 0.16931,0.09833 l 0.47815,-0.128141 c 0.074,-0.01991 0.1177,-0.09606 0.0977,-0.169976 -0.0168,-0.06245 -0.0746,-0.10498 -0.13918,-0.102447 z m -6.59827,0.229105 c -0.0635,-0.0012 -0.11968,0.0411 -0.13621,0.102447 -0.0201,0.07392 0.0237,0.150068 0.0977,0.169977 l 0.57334,0.153011 c 0.0739,0.02004 0.15007,-0.02372 0.16998,-0.09767 0.0196,-0.07391 -0.0244,-0.149692 -0.0983,-0.169317 l -0.57334,-0.153835 c -0.0108,-0.0028 -0.0219,-0.0044 -0.0331,-0.0046 z m 5.70804,0.0094 c -0.0103,3.88e-4 -0.0206,0.0019 -0.0307,0.0046 l -0.57334,0.153835 c -0.0737,0.01984 -0.11744,0.09556 -0.0978,0.169318 0.0196,0.07422 0.0959,0.118325 0.16997,0.09833 l 0.57334,-0.153835 c 0.0736,-0.01992 0.1173,-0.09561 0.0977,-0.169317 -0.0166,-0.06265 -0.0744,-0.105419 -0.13917,-0.102942 z m -6.76627,0.723552 c -0.0765,-1.93e-4 -0.13868,0.06168 -0.13885,0.138188 -1.9e-4,0.07677 0.0621,0.139041 0.13885,0.138847 h 0.29697 c 0.0765,-1.68e-4 0.13837,-0.06234 0.13818,-0.138847 -1.7e-4,-0.07625 -0.0619,-0.138017 -0.13818,-0.138188 z m 0.742,0 c -0.0765,-1.93e-4 -0.13868,0.06168 -0.13885,0.138188 -1.9e-4,0.07677 0.0621,0.139041 0.13885,0.138847 h 0.79125 c 0.0768,1.94e-4 0.13903,-0.06208 0.13884,-0.138847 -1.7e-4,-0.07651 -0.0623,-0.13838 -0.13884,-0.138188 z m 5.54729,0 c -0.0765,-1.93e-4 -0.13868,0.06168 -0.13885,0.138188 -1.7e-4,0.07677 0.0621,0.139041 0.13885,0.138847 h 0.79108 c 0.0768,1.94e-4 0.13903,-0.06208 0.13884,-0.138847 -1.7e-4,-0.07651 -0.0623,-0.13838 -0.13884,-0.138188 z m 1.19707,0 c -0.0765,-1.93e-4 -0.13868,0.06168 -0.13884,0.138188 -1.7e-4,0.07677 0.0621,0.139041 0.13884,0.138847 h 0.29631 c 0.0768,1.94e-4 0.13904,-0.06208 0.13885,-0.138847 -1.7e-4,-0.07651 -0.0623,-0.138381 -0.13885,-0.138188 z m -0.15828,2.255808 c -0.0251,0.0035 -0.0497,0.01047 -0.0728,0.02075 l -1.61659,0.717129 -1.61658,-0.717129 c -0.0702,-0.03108 -0.15021,-0.03108 -0.22038,0 l -1.61741,0.717129 -1.61658,-0.717129 c -0.0702,-0.03108 -0.15021,-0.03108 -0.22038,0 l -1.72743,0.765716 0.22103,0.497412 1.61659,-0.717129 1.61659,0.717129 c 0.0702,0.03108 0.1502,0.03108 0.22037,0 l 1.61741,-0.717129 1.61659,0.717129 c 0.0702,0.03108 0.1502,0.03108 0.22037,0 l 1.61724,-0.717129 1.61676,0.717129 0.22038,-0.497412 -1.72695,-0.765716 c -0.0465,-0.02064 -0.0979,-0.02783 -0.14823,-0.02075 z" />
  </g>
</svg>
