<?xml version="1.0" encoding="UTF-8" standalone="no"?>
<!-- Created with Inkscape (http://www.inkscape.org/) -->

<svg
   width="10.334253mm"
   height="10.335803mm"
   viewBox="0 0 10.334253 10.335803"
   version="1.1"
   id="svg55087"
   sodipodi:docname="leaf.svg"
   inkscape:version="1.1 (c68e22c387, 2021-05-23)"
   xmlns:inkscape="http://www.inkscape.org/namespaces/inkscape"
   xmlns:sodipodi="http://sodipodi.sourceforge.net/DTD/sodipodi-0.dtd"
   xmlns="http://www.w3.org/2000/svg"
   xmlns:svg="http://www.w3.org/2000/svg">
  <sodipodi:namedview
     id="namedview13"
     pagecolor="#ffffff"
     bordercolor="#666666"
     borderopacity="1.0"
     inkscape:pageshadow="2"
     inkscape:pageopacity="0.0"
     inkscape:pagecheckerboard="0"
     inkscape:document-units="mm"
     showgrid="false"
     inkscape:zoom="18.19347"
     inkscape:cx="18.715506"
     inkscape:cy="15.252725"
     inkscape:window-width="2560"
     inkscape:window-height="1377"
     inkscape:window-x="-8"
     inkscape:window-y="-8"
     inkscape:window-maximized="1"
     inkscape:current-layer="svg55087" />
  <defs
     id="defs55084" />
  <path
     id="path45647-9-4"
     style="color:#000000;fill:#373737;stroke-width:1;stroke-linejoin:round;-inkscape-stroke:none;fill-opacity:1"
     d="M 5.168161,0 C 2.316558,0 0,2.3160164 0,5.1676431 c 0,2.851626 2.316558,5.1681599 5.168161,5.1681599 2.851705,0 5.166092,-2.3165339 5.166092,-5.1681599 C 10.334253,2.3160164 8.019866,0 5.168161,0 Z m 0,0.3984254 c 2.637208,0 4.769733,2.132089 4.769733,4.7692177 0,2.637155 -2.132525,4.771802 -4.769733,4.771802 -2.637102,0 -4.771803,-2.134647 -4.771803,-4.771802 0,-2.6371287 2.134701,-4.7692177 4.771803,-4.7692177 z M 3.941878,2.1704101 c -0.034,-3.498e-4 -0.068,0.00812 -0.0987,0.025322 l -10e-4,-5.17e-4 c -0.061,0.0342 -0.100203,0.097978 -0.101804,0.1679485 -0.01,0.2726899 -0.04276,0.4717349 -0.156061,0.6779948 -0.113401,0.2062501 -0.313778,0.4291777 -0.668176,0.7110677 0,0.003 -0.0099,0.00475 -0.01189,0.00775 -0.754401,0.68819 -0.77756,1.7205917 -0.316261,2.4256917 v 0.00413 c 0.147301,0.2121199 0.363519,0.4986834 0.632521,0.7772135 0.429598,0.4446698 0.259932,0.9456788 0.259932,0.9456788 -0.027,0.0787 1e-5,0.166428 0.06201,0.219108 0,0 0.04706,0.04296 0.125058,0.06046 0.078,0.0176 0.220305,-0.02039 0.286803,-0.113172 0.066,-0.0928 0.08492,-0.275443 0.08992,-0.422713 0.0027,-0.04033 0.0032,-0.08462 0.0016,-0.132808 0.25889,0.163579 0.888955,0.493241 1.958536,0.259415 C 6.731467,7.6240191 7.232384,6.9952406 7.555176,6.3804818 7.716678,6.0731148 7.834616,5.7644127 7.91071,5.5035328 7.9867,5.2426806 8.028584,5.0504751 8.011995,4.884449 8.001945,4.805049 7.950175,4.7385514 7.873501,4.7149503 c -0.02381,-0.0074 -0.04786,-0.010852 -0.07183,-0.0093 h -5.16e-4 c -0.05276,0.0034 -0.103478,0.028013 -0.139009,0.069763 C 7.460851,5.0121362 7.380108,5.0830443 7.253902,5.1149274 7.200152,5.1285084 7.127008,5.1336064 7.026524,5.1324974 7.165481,4.5749666 7.192619,4.0365607 7.167084,3.5863386 7.139084,3.0908587 7.053131,2.7096385 6.961929,2.4923484 6.887929,2.3174086 6.634875,2.335967 6.587276,2.5197374 c -0.088,0.33758 -0.250007,0.5287322 -0.474906,0.6816122 -0.224901,0.15289 -0.519075,0.2568038 -0.837676,0.3731038 -0.053,0.0195 -0.100745,0.038945 -0.155546,0.059945 -0.01,-0.042 -0.0191,-0.06533 -0.03411,-0.1069703 C 5.02296,3.3593632 4.919556,3.1825451 4.798157,3.0080852 4.676856,2.8336351 4.536915,2.66393 4.405415,2.5218098 4.273816,2.3796799 4.159064,2.2679387 4.040062,2.1977987 c -0.0305,-0.0178 -0.06418,-0.027038 -0.09818,-0.027389 z m 0.108521,0.56379 5.16e-4,5.168e-4 c 0.026,0.0254 0.03601,0.027527 0.06201,0.056327 0.1182,0.1276599 0.248002,0.2859037 0.357603,0.4433837 0.127899,0.1929 0.222038,0.3938151 0.294036,0.5741252 l -0.05891,0.034623 c -0.468,0.23232 -0.912186,0.5564783 -1.149284,1.2428183 -0.121801,0.29659 -0.10383,0.6910043 -0.07183,1.0821043 0.022,0.27585 0.08376,0.4321878 0.112657,0.6232178 -0.034,-0.0449 -0.04485,-0.055635 -0.08785,-0.099735 C 3.262448,6.4359511 3.05832,6.1679578 2.91972,5.9686279 2.55722,5.4146679 2.558183,4.6123626 3.171384,4.0529827 3.540184,3.7581326 3.782828,3.5017609 3.931027,3.2323608 4.018027,3.0742908 4.020297,2.90083 4.050401,2.7342001 Z m 2.642214,0.4563028 c 0.057,0.1714802 0.06903,0.234436 0.07803,0.4190961 0.0248,0.437289 -0.0071,0.9649962 -0.148828,1.5022337 C 6.567955,5.1080627 6.51097,5.1039727 6.449214,5.0994307 5.503302,5.0301407 4.890085,5.3185319 4.527368,5.6363488 4.164677,5.9541669 4.043159,6.3102095 4.043159,6.3102095 L 3.931025,6.6321534 c -0.0203,-0.1505286 -0.04072,-0.3212729 -0.05478,-0.4950603 -0.03,-0.3733101 -0.01411,-0.7683875 0.04289,-0.9043376 0,-0.004 0.01034,-0.00925 0.01034,-0.013953 C 4.212775,4.3918724 4.780486,4.1771522 5.409485,3.9475621 5.723887,3.8327621 6.050028,3.7235997 6.335527,3.5294998 6.485728,3.4274299 6.580012,3.3512725 6.692611,3.1905024 Z m 0.836642,2.16886 h 5.18e-4 0.0057 c 0,0.0164 -0.0026,0.016403 -0.01033,0.033073 -0.069,0.235717 -0.178678,0.5239319 -0.326078,0.8046019 C 6.904266,6.7583778 6.460319,7.2774379 5.915939,7.3964481 4.986643,7.5996211 4.436093,7.3280581 4.227154,7.1933594 4.446518,6.9602884 4.969406,6.5555156 5.892166,6.6228516 6.000966,6.6297516 6.095612,6.5481966 6.103524,6.4394003 6.113574,6.3299954 6.029424,6.2346425 5.920072,6.2264933 5.228054,6.1761133 4.710408,6.3757088 4.356345,6.6006308 l 0.05788,-0.1576131 v -0.00568 c 0,0 0.0804,-0.2492211 0.369486,-0.502295 0.288898,-0.253074 0.776771,-0.5019567 1.632458,-0.4392496 0.442806,0.03241 0.692277,0.063884 0.929658,0.00413 0.07087,-0.017954 0.122312,-0.1049171 0.183452,-0.1405599 z" />
</svg>
