<?xml version="1.0" encoding="UTF-8" standalone="no"?>
<!-- Created with Inkscape (http://www.inkscape.org/) -->

<svg
   width="17mm"
   height="17.00049mm"
   viewBox="0 0 17 17.00049"
   version="1.1"
   id="svg55087"
   xmlns="http://www.w3.org/2000/svg"
   xmlns:svg="http://www.w3.org/2000/svg">
  <defs
     id="defs55084" />
  <g
     id="layer1"
     transform="translate(-56.061178,-112.53525)">
    <path
       id="path89786-2"
       style="color:#000000;fill:#fcb45b;fill-opacity:1;stroke-width:1.31148;stroke-linecap:round;stroke-linejoin:round;-inkscape-stroke:none;paint-order:markers fill stroke"
       d="m 64.559946,112.53525 c -4.686958,0 -8.498768,3.81426 -8.498768,8.50123 0,4.68693 3.81181,8.49926 8.498768,8.49926 4.686938,0 8.501232,-3.81233 8.501232,-8.49926 0,-4.68697 -3.814294,-8.50123 -8.501232,-8.50123 z m 0,1.386 c 3.936831,0 7.11621,3.17841 7.11621,7.11523 0,3.93683 -3.179379,7.11326 -7.11621,7.11326 -3.936843,0 -7.113255,-3.17643 -7.113255,-7.11326 0,-3.93682 3.176412,-7.11523 7.113255,-7.11523 z m 2.574503,3.26554 0.0015,9.9e-4 v 0.002 c -0.02945,7.3e-4 -0.05903,0.0206 -0.06846,0.0473 -0.298329,0.57372 -0.599022,1.14654 -1.783487,1.49043 -2.248481,0.88101 -3.492459,2.21441 -2.983312,4.33828 0.09731,0.27949 0.195117,0.3219 0.300942,-0.005 0.443421,-1.52842 1.757096,-3.10484 3.510823,-3.50245 0.02592,-0.008 0.04869,-0.0133 0.06994,-0.0133 0.05804,0.002 0.07452,0.0797 0.02315,0.11328 -0.02278,0.008 -0.04019,0.0176 -0.06649,0.0237 l -0.0049,9.8e-4 c -0.737039,0.18441 -1.381269,0.65046 -1.848498,1.31951 -0.0914,0.14361 -0.02069,0.24618 0.175343,0.19456 0.733,-0.33306 1.604008,-0.35301 2.418862,-0.28765 0.399996,0.0397 0.424468,-1.14664 0.432941,-1.47712 0.01925,-1.18387 0.0067,-1.31868 -0.111807,-2.18836 -0.0076,-0.0426 -0.03723,-0.0586 -0.06649,-0.0571 z m -4.816544,0.35512 v 5e-4 c -0.04356,0.005 -0.07518,0.0419 -0.0729,0.0694 0.03631,0.91755 -0.598635,0.90264 -1.385513,1.86919 -0.786888,0.96657 -0.562478,2.83649 0.673301,3.895 0.255751,0.23711 0.330184,0.35842 0.513718,0.58021 0.183535,0.2218 0.210536,0.51447 0.132493,0.6802 1.44e-4,0 -0.04248,0.0954 -0.04334,0.0965 -0.05442,0.0931 0.0876,0.23672 0.243314,0.0296 0.04203,-0.045 0.07873,-0.0979 0.09752,-0.20046 0.04794,-0.25891 -0.04529,-0.50894 -0.113285,-0.63292 -0.149926,-0.27319 -0.302313,-0.61145 -0.34527,-0.77131 -0.234905,-0.99077 -0.181363,-1.8697 0.236419,-2.59864 0.20698,-0.36115 0.481085,-0.68199 0.813675,-0.9703 0.372853,-0.33904 -0.345817,-1.65023 -0.674779,-2.0204 -0.01887,-0.0161 -0.03783,-0.0246 -0.05566,-0.0266 -0.0067,-7.4e-4 -0.01332,-6.6e-4 -0.0197,0 z m 6.323222,3.3207 c -0.01744,7.4e-4 -0.03631,0.007 -0.05566,0.0182 -0.406136,0.28713 -0.838403,0.55138 -1.769203,0.37285 -2.166589,-0.21445 -3.641379,0.43571 -3.847226,2.66956 -0.01925,0.22541 0.05882,0.28068 0.231988,0.066 0.810144,-1.00017 2.2966,-1.95669 3.904852,-1.76477 h 9.86e-4 c 0.02659,0 0.04736,0.005 0.06452,0.01 0.0097,0.005 0.01582,0.007 0.02364,0.0138 0.0076,0.007 0.01684,0.0183 0.01674,0.0345 -8.5e-5,0.0161 -0.01042,0.0294 -0.01872,0.0355 -0.0097,0.005 -0.01754,0.008 -0.0266,0.0108 -0.01744,0.005 -0.03771,0.005 -0.06354,5e-4 -0.513418,-0.0361 -1.022442,0.0554 -1.510125,0.26153 -0.05681,0.0233 -0.227142,0.0909 4.91e-4,0.097 0.208364,0.016 0.480923,0.0967 0.73881,0.23396 0.04184,0.0258 0.02611,0.0654 -0.01478,0.0596 -1.273124,-0.19434 -1.456426,-0.0469 -1.997247,0.45658 -0.0265,0.0264 -0.141375,0.12359 0.06354,0.10245 3.111961,0.45574 -0.399406,0.26781 -0.685124,0.58071 -0.05223,0.0669 -0.103903,0.13536 -0.154657,0.20538 -0.0915,0.10845 -0.06242,0.17902 0.03251,0.23396 0.501561,0.28091 1.195763,0.39085 1.830276,0.27779 0.72607,-0.12944 1.538471,-0.34371 2.610953,-2.32873 0.437928,-0.82425 0.411641,-0.87314 0.70039,-1.56184 0.01315,-0.0522 -0.0253,-0.0889 -0.07782,-0.0847 z" />
  </g>
</svg>
