<?xml version="1.0" encoding="UTF-8" standalone="no"?>
<!-- Created with Inkscape (http://www.inkscape.org/) -->

<svg
   width="17mm"
   height="17.00049mm"
   viewBox="0 0 17 17.00049"
   version="1.1"
   id="svg55087"
   xmlns="http://www.w3.org/2000/svg"
   xmlns:svg="http://www.w3.org/2000/svg">
  <defs
     id="defs55084" />
  <g
     id="layer1"
     transform="translate(-56.061178,-112.53525)">
    <path
       id="path89744"
       style="fill:#fcb45b;fill-opacity:1;stroke:none;stroke-width:1.041;stroke-linecap:round;stroke-linejoin:round;stroke-miterlimit:4;stroke-dasharray:none;stroke-opacity:1;paint-order:stroke fill markers"
       d="m 64.560193,112.53525 c -4.687004,0 -8.499015,3.81448 -8.499015,8.50148 0,4.68698 3.812011,8.49902 8.499015,8.49902 4.686994,0 8.500985,-3.81204 8.500985,-8.49902 0,-4.687 -3.813991,-8.50148 -8.500985,-8.50148 z m 0,1.38597 c 1.62455,0 3.119673,0.54091 4.315999,1.45344 l -2.564086,2.58034 v -1.22934 c 0,-0.10635 -0.08579,-0.19209 -0.192577,-0.19209 H 63.00332 c -0.106889,0 -0.192577,0.0857 -0.192577,0.19209 v 3.10291 c 0,0.10635 0.0857,0.19208 0.192577,0.19208 h 1.254462 l -0.713667,0.7181 h -2.822171 c -0.106889,0 -0.19307,0.0857 -0.19307,0.19209 v 2.84088 l -1.603662,1.61302 c -0.92738,-1.20127 -1.47856,-2.7084 -1.47856,-4.34801 0,-3.93685 3.176661,-7.11551 7.113541,-7.11551 z m 5.518746,2.61777 c 0.998642,1.22486 1.597258,2.7901 1.597258,4.49774 0,3.93687 -3.179142,7.11305 -7.116004,7.11305 -1.692504,0 -3.24431,-0.58702 -4.463756,-1.56918 z m -3.082716,4.26084 -1.904102,1.91543 v 1.38005 c 0,0.10636 0.08627,0.1916 0.193069,0.1916 h 3.115223 c 0.106878,0 0.193563,-0.0852 0.193563,-0.1916 v -3.1034 c 0,-0.10635 -0.08677,-0.19208 -0.193563,-0.19208 z" />
  </g>
</svg>
