<?xml version="1.0" encoding="UTF-8" standalone="no"?>
<!-- Created with Inkscape (http://www.inkscape.org/) -->

<svg
   width="10.33579mm"
   height="10.335789mm"
   viewBox="0 0 10.33579 10.335789"
   version="1.1"
   id="svg55087"
   sodipodi:docname="no-azucar.svg"
   inkscape:version="1.1 (c68e22c387, 2021-05-23)"
   xmlns:inkscape="http://www.inkscape.org/namespaces/inkscape"
   xmlns:sodipodi="http://sodipodi.sourceforge.net/DTD/sodipodi-0.dtd"
   xmlns="http://www.w3.org/2000/svg"
   xmlns:svg="http://www.w3.org/2000/svg">
  <sodipodi:namedview
     id="namedview2219"
     pagecolor="#ffffff"
     bordercolor="#666666"
     borderopacity="1.0"
     inkscape:pageshadow="2"
     inkscape:pageopacity="0.0"
     inkscape:pagecheckerboard="0"
     inkscape:document-units="mm"
     showgrid="false"
     inkscape:zoom="13.586741"
     inkscape:cx="18.584295"
     inkscape:cy="22.190753"
     inkscape:window-width="2560"
     inkscape:window-height="1377"
     inkscape:window-x="-8"
     inkscape:window-y="-8"
     inkscape:window-maximized="1"
     inkscape:current-layer="svg55087" />
  <defs
     id="defs55084" />
  <path
     id="path57336-0-1"
     style="color:#000000;fill:#373737;fill-opacity:1;stroke-width:1;-inkscape-stroke:none"
     d="M 5.1676301,0 C 2.3160303,2.6400227e-5 0,2.3165329 0,5.1681593 0,8.0197592 2.3160303,10.335763 5.1676301,10.335789 8.0193354,10.335816 10.335789,8.0198122 10.335789,5.1681593 10.335789,2.3165065 8.0193354,-2.6499773e-5 5.1676301,0 Z m 0,0.3963458 c 1.4686223,0 2.7811683,0.6622521 3.6561183,1.7042871 l -1.585965,1.1849365 0.380867,0.2118784 1.447959,-1.082093 c 0.549672,0.7775311 0.872834,1.7271736 0.872834,2.7528045 0,2.6371549 -2.134605,4.7713109 -4.7718133,4.7712839 -1.519555,-2.6e-5 -2.8714965,-0.70866 -3.7444628,-1.813851 L 3.0003222,6.9478791 2.6261749,6.7318733 1.190625,7.8046792 C 0.6897688,7.049532 0.3984096,6.1433076 0.3984096,5.1681593 c 0,-2.6371286 2.1321184,-4.771787 4.7692205,-4.7718135 z m -0.01905,2.0407049 a 0.19845735,0.19845735 0 0 0 -0.076465,0.023813 L 2.9022147,3.6643999 a 0.19845735,0.19845735 0 0 0 -0.00265,0 0.19845735,0.19845735 0 0 0 -0.017462,0.012964 0.19845735,0.19845735 0 0 0 -0.082153,0.182933 v 2.587969 a 0.19845735,0.19845735 0 0 0 0.099748,0.172085 l 2.1678107,1.2536493 a 0.19845735,0.19845735 0 0 0 0.2160058,-0.0098 L 7.4363524,6.6203778 a 0.19845735,0.19845735 0 0 0 0.100251,-0.172085 V 3.8370669 A 0.19845735,0.19845735 0 0 0 7.4187844,3.6556951 L 5.2643883,2.4599107 A 0.19845735,0.19845735 0 0 0 5.1476012,2.4360982 Z M 5.1681591,2.86131 6.9292794,3.837993 6.6290294,4.0049186 5.1681593,4.8146759 3.4085742,3.837993 Z M 3.1971986,4.1759717 4.0855372,4.667938 4.9707537,5.1588459 V 7.3592268 L 3.1971986,6.3360301 Z m 3.9413658,0 V 6.3360301 L 5.3676287,7.3587241 V 5.1583432 l 0.601001,-0.3338248 z" />
</svg>
