<?xml version="1.0" encoding="UTF-8" standalone="no"?>
<!-- Created with Inkscape (http://www.inkscape.org/) -->

<svg
   width="10.33579mm"
   height="10.33579mm"
   viewBox="0 0 10.33579 10.33579"
   version="1.1"
   id="svg55087"
   sodipodi:docname="no-chem.svg"
   inkscape:version="1.1 (c68e22c387, 2021-05-23)"
   xmlns:inkscape="http://www.inkscape.org/namespaces/inkscape"
   xmlns:sodipodi="http://sodipodi.sourceforge.net/DTD/sodipodi-0.dtd"
   xmlns="http://www.w3.org/2000/svg"
   xmlns:svg="http://www.w3.org/2000/svg">
  <sodipodi:namedview
     id="namedview2337"
     pagecolor="#ffffff"
     bordercolor="#666666"
     borderopacity="1.0"
     inkscape:pageshadow="2"
     inkscape:pageopacity="0.0"
     inkscape:pagecheckerboard="0"
     inkscape:document-units="mm"
     showgrid="false"
     inkscape:zoom="13.586741"
     inkscape:cx="26.238817"
     inkscape:cy="27.195632"
     inkscape:window-width="2560"
     inkscape:window-height="1377"
     inkscape:window-x="-8"
     inkscape:window-y="-8"
     inkscape:window-maximized="1"
     inkscape:current-layer="svg55087" />
  <defs
     id="defs55084" />
  <path
     id="path97442-3-7"
     style="color:#000000;fill:#373737;fill-opacity:1;stroke-width:1;-inkscape-stroke:none"
     d="M 5.1676302,0 C 2.3160303,0 0,2.3165329 0,5.1681593 0,8.0197856 2.3160303,10.335789 5.1676302,10.335789 8.0192299,10.335789 10.33579,8.0197856 10.33579,5.1681593 10.33579,2.3165329 8.0192299,0 5.1676302,0 Z m 0,0.39634584 c 1.4685697,0 2.7811417,0.66225206 3.6561187,1.70428706 l -2.573999,1.9234151 0.207724,0.3405452 2.609162,-1.9492384 c 0.549672,0.7775311 0.872808,1.7271736 0.872808,2.7528045 0,2.637155 -2.134712,4.7712843 -4.7718137,4.7712843 -1.5195815,0 -2.8709674,-0.7086865 -3.7439337,-1.8138511 L 3.2297689,6.7763233 3.1574318,6.3349983 1.1911278,7.8041766 C 0.6904038,7.0490558 0.3984361,6.1432018 0.3984361,5.1681593 c 0,-2.6371551 2.1320126,-4.77181346 4.7691941,-4.77181346 z M 5.1309589,2.4706527 c -0.091017,0 -0.1705239,0.063685 -0.1917171,0.1524265 C 4.7139227,3.5704463 4.2987914,4.2271422 3.9609979,4.8069236 3.6230985,5.3867051 3.3474026,5.9228568 3.5232976,6.5546289 3.7498074,7.3684343 4.4579647,7.7837508 5.1500618,7.777295 5.8421589,7.7712095 6.5452099,7.3472412 6.7634119,6.5546289 6.9395979,5.9144695 6.6705169,5.3780003 6.3319029,4.8007324 5.9936069,4.2234645 5.5712259,3.5711607 5.3242109,2.6194809 5.3011919,2.5315598 5.2217639,2.4700707 5.1309589,2.4706527 Z m 0,0.8536782 c 0.263393,0.7376848 0.58338,1.2154165 0.853175,1.6758709 0.3311,0.5649912 0.527236,0.9602258 0.392748,1.4490171 C 6.2059609,7.0699314 5.6799169,7.375922 5.1423096,7.3809491 4.6047291,7.3859762 4.0817802,7.0948551 3.9020751,6.4492189 3.7699951,5.9749532 3.9691206,5.5774962 4.3005112,5.0079541 4.5704127,4.544748 4.88106,4.0608515 5.1309589,3.3243309 Z" />
</svg>
