<?xml version="1.0" encoding="UTF-8" standalone="no"?>
<!-- Created with Inkscape (http://www.inkscape.org/) -->

<svg
   width="17mm"
   height="17.00049mm"
   viewBox="0 0 17 17.00049"
   version="1.1"
   id="svg55087"
   xmlns="http://www.w3.org/2000/svg"
   xmlns:svg="http://www.w3.org/2000/svg">
  <defs
     id="defs55084" />
  <g
     id="layer1"
     transform="translate(-56.061178,-112.53525)">
    <path
       id="path89784"
       style="color:#000000;fill:#fcb45b;fill-opacity:1;stroke-width:0.346987;stroke-linecap:round;stroke-linejoin:round;-inkscape-stroke:none"
       d="m 64.559946,112.53525 c -4.686868,0 -8.498768,3.81436 -8.498768,8.50123 0,4.68684 3.8119,8.49926 8.498768,8.49926 4.686859,0 8.501232,-3.81242 8.501232,-8.49926 0,-4.68687 -3.814373,-8.50123 -8.501232,-8.50123 z m 0,1.38593 c 1.624436,0 3.11912,0.54149 4.315381,1.45389 l -3.070313,3.08903 -0.206362,-0.48414 0.204392,-0.0143 c 0.09073,-0.007 0.160908,-0.0818 0.161051,-0.17287 v -0.91361 c -2.9e-5,-0.0959 -0.07744,-0.17333 -0.173364,-0.17336 H 64.61363 63.436036 c -0.09591,3e-5 -0.173335,0.0775 -0.173364,0.17336 v 0.91361 c 1.43e-4,0.091 0.07076,0.16631 0.161544,0.17287 l 0.203899,0.0143 -1.994669,4.68033 -2.707825,2.72457 c -0.927353,-1.20123 -1.47901,-2.70883 -1.47901,-4.34838 0,-3.93674 3.176578,-7.1153 7.113335,-7.1153 z m 5.518585,2.61819 c 0.998624,1.22482 1.597213,2.78951 1.597213,4.49711 0,3.93675 -3.179041,7.11334 -7.115798,7.11334 -1.692456,0 -3.244216,-0.58749 -4.463626,-1.56963 z m -3.266825,4.28632 -4.394675,4.42078 c 0.575052,0.29845 1.345864,0.44171 2.184286,0.45902 v 4.9e-4 c 0.0048,-8e-5 0.0076,-4.2e-4 0.01182,-4.9e-4 0.0048,7e-5 0.0076,4.1e-4 0.01182,4.9e-4 v -4.9e-4 c 2.069232,-0.0427 3.729534,-0.84895 3.039285,-2.87627 z" />
  </g>
</svg>
