<?xml version="1.0" encoding="UTF-8" standalone="no"?>
<!-- Created with Inkscape (http://www.inkscape.org/) -->

<svg
   width="25.102591mm"
   height="16.231976mm"
   viewBox="0 0 25.102591 16.231976"
   version="1.1"
   id="svg37054"
   xmlns="http://www.w3.org/2000/svg"
   xmlns:svg="http://www.w3.org/2000/svg">
  <defs
     id="defs37051" />
  <g
     id="layer1"
     transform="translate(-138.17267,-162.88843)">
    <path
       id="path28496-8"
       style="color:#000000;fill:#000000;stroke-width:3.77953;stroke-linecap:round;stroke-linejoin:round;-inkscape-stroke:none"
       d="M 47.90625 0 A 1.6302992 1.6302992 0 0 0 46.28125 1.6328125 L 46.28125 10.949219 A 1.6302992 1.6302992 0 0 0 47.90625 12.580078 A 1.6302992 1.6302992 0 0 0 49.537109 10.949219 L 49.537109 1.6328125 A 1.6302992 1.6302992 0 0 0 47.90625 0 z M 36.496094 1.296875 A 1.6302992 1.6302992 0 0 0 36.021484 1.3515625 A 1.6302992 1.6302992 0 0 0 34.869141 3.3457031 L 35.769531 6.7265625 A 1.6302992 1.6302992 0 0 0 37.769531 7.8769531 A 1.6302992 1.6302992 0 0 0 38.921875 5.8769531 L 38.021484 2.5039062 A 1.6302992 1.6302992 0 0 0 36.496094 1.296875 z M 59.292969 1.3945312 A 1.6302992 1.6302992 0 0 0 57.775391 2.5996094 L 56.867188 5.9726562 A 1.6302992 1.6302992 0 0 0 58.025391 7.9667969 A 1.6302992 1.6302992 0 0 0 60.019531 6.8144531 L 60.927734 3.4414062 A 1.6302992 1.6302992 0 0 0 59.767578 1.4472656 A 1.6302992 1.6302992 0 0 0 59.292969 1.3945312 z M 25.224609 5.9140625 A 1.6302992 1.6302992 0 0 0 24.349609 6.1269531 A 1.6302992 1.6302992 0 0 0 23.751953 8.3574219 L 26.660156 13.398438 A 1.6302992 1.6302992 0 0 0 28.890625 13.996094 A 1.6302992 1.6302992 0 0 0 29.488281 11.767578 L 26.572266 6.7265625 A 1.6302992 1.6302992 0 0 0 25.224609 5.9140625 z M 70.439453 6.1777344 A 1.6302992 1.6302992 0 0 0 70.080078 6.2304688 A 1.6302992 1.6302992 0 0 0 69.091797 6.9921875 L 66.175781 12.033203 A 1.6302992 1.6302992 0 0 0 66.773438 14.263672 A 1.6302992 1.6302992 0 0 0 69.001953 13.664062 L 71.912109 8.6230469 A 1.6302992 1.6302992 0 0 0 71.3125 6.3945312 A 1.6302992 1.6302992 0 0 0 70.439453 6.1777344 z M 38.701172 9.7324219 A 1.6302992 1.6302992 0 0 0 38.279297 9.7890625 A 1.6302992 1.6302992 0 0 0 37.126953 11.783203 L 39.541016 20.78125 A 1.6302992 1.6302992 0 0 0 41.535156 21.931641 A 1.6302992 1.6302992 0 0 0 42.685547 19.939453 L 40.279297 10.941406 A 1.6302992 1.6302992 0 0 0 38.701172 9.7324219 z M 57.087891 9.8242188 A 1.6302992 1.6302992 0 0 0 55.515625 11.037109 L 53.101562 20.035156 A 1.6302992 1.6302992 0 0 0 54.253906 22.029297 A 1.6302992 1.6302992 0 0 0 56.253906 20.876953 L 58.660156 11.878906 A 1.6302992 1.6302992 0 0 0 57.509766 9.8769531 A 1.6302992 1.6302992 0 0 0 57.087891 9.8242188 z M 15.298828 12.974609 A 1.6302992 1.6302992 0 0 0 14.148438 13.451172 A 1.6302992 1.6302992 0 0 0 14.148438 15.761719 L 20.732422 22.345703 A 1.6302992 1.6302992 0 0 0 23.042969 22.345703 A 1.6302992 1.6302992 0 0 0 23.042969 20.042969 L 16.451172 13.451172 A 1.6302992 1.6302992 0 0 0 15.298828 12.974609 z M 80.386719 13.107422 A 1.6302992 1.6302992 0 0 0 79.234375 13.583984 L 72.642578 20.175781 A 1.6302992 1.6302992 0 0 0 72.642578 22.478516 A 1.6302992 1.6302992 0 0 0 74.953125 22.478516 L 81.537109 15.894531 A 1.6302992 1.6302992 0 0 0 81.537109 13.583984 A 1.6302992 1.6302992 0 0 0 80.386719 13.107422 z M 47.90625 14.439453 A 1.6302992 1.6302992 0 0 0 46.28125 16.070312 L 46.28125 19.5625 A 1.6302992 1.6302992 0 0 0 47.90625 21.193359 A 1.6302992 1.6302992 0 0 0 49.537109 19.5625 L 49.537109 16.070312 A 1.6302992 1.6302992 0 0 0 47.90625 14.439453 z M 30.568359 15.384766 A 1.6302992 1.6302992 0 0 0 29.820312 15.599609 A 1.6302992 1.6302992 0 0 0 29.222656 17.828125 L 32.712891 23.873047 A 1.6302992 1.6302992 0 0 0 34.943359 24.472656 A 1.6302992 1.6302992 0 0 0 35.533203 22.25 L 32.041016 16.197266 A 1.6302992 1.6302992 0 0 0 30.568359 15.384766 z M 65.132812 15.589844 A 1.6302992 1.6302992 0 0 0 63.658203 16.404297 L 60.160156 22.449219 A 1.6302992 1.6302992 0 0 0 60.757812 24.677734 A 1.6302992 1.6302992 0 0 0 62.986328 24.080078 L 66.478516 18.035156 A 1.6302992 1.6302992 0 0 0 65.880859 15.804688 A 1.6302992 1.6302992 0 0 0 65.132812 15.589844 z M 8.0625 22.511719 A 1.6302992 1.6302992 0 0 0 6.5957031 23.328125 A 1.6302992 1.6302992 0 0 0 7.1933594 25.548828 L 10.220703 27.298828 A 1.6302992 1.6302992 0 0 0 12.451172 26.701172 A 1.6302992 1.6302992 0 0 0 11.851562 24.478516 L 8.8261719 22.730469 A 1.6302992 1.6302992 0 0 0 8.0625 22.511719 z M 87.400391 22.710938 A 1.6302992 1.6302992 0 0 0 86.638672 22.929688 L 83.619141 24.677734 A 1.6302992 1.6302992 0 0 0 83.021484 26.908203 A 1.6302992 1.6302992 0 0 0 85.242188 27.498047 L 88.269531 25.755859 A 1.6302992 1.6302992 0 0 0 88.867188 23.527344 A 1.6302992 1.6302992 0 0 0 87.400391 22.710938 z M 25.693359 23.367188 A 1.6302992 1.6302992 0 0 0 24.541016 23.84375 A 1.6302992 1.6302992 0 0 0 24.541016 26.148438 L 27.015625 28.621094 A 1.6302992 1.6302992 0 0 0 29.318359 28.621094 A 1.6302992 1.6302992 0 0 0 29.318359 26.316406 L 26.845703 23.84375 A 1.6302992 1.6302992 0 0 0 25.693359 23.367188 z M 69.892578 23.59375 A 1.6302992 1.6302992 0 0 0 68.736328 24.074219 L 66.271484 26.546875 A 1.6302992 1.6302992 0 0 0 66.271484 28.849609 A 1.6302992 1.6302992 0 0 0 68.574219 28.849609 L 71.046875 26.382812 A 1.6302992 1.6302992 0 0 0 71.046875 24.074219 A 1.6302992 1.6302992 0 0 0 69.892578 23.59375 z M 47.683594 25.646484 C 42.639134 25.644935 37.591422 27.396 33.541016 30.902344 C 25.44043 37.915257 23.716215 49.868653 29.501953 58.886719 L 31.074219 61.337891 L 35.976562 58.191406 L 34.404297 55.742188 C 30.158451 49.12431 31.41283 40.447137 37.357422 35.300781 C 43.302127 30.154539 52.062376 30.158496 58.003906 35.308594 C 63.945588 40.458351 65.198806 49.140439 60.949219 55.755859 L 59.369141 58.199219 L 64.271484 61.351562 L 65.84375 58.900391 C 71.634629 49.885613 69.91693 37.92569 61.820312 30.908203 C 57.772061 27.399328 52.728054 25.648034 47.683594 25.646484 z M 15.576172 26.873047 A 1.6302992 1.6302992 0 0 0 14.162109 27.689453 A 1.6302992 1.6302992 0 0 0 14.761719 29.919922 L 22.830078 34.578125 A 1.6302992 1.6302992 0 0 0 25.058594 33.980469 A 1.6302992 1.6302992 0 0 0 24.460938 31.75 L 16.392578 27.091797 A 1.6302992 1.6302992 0 0 0 15.576172 26.873047 z M 79.890625 27.082031 A 1.6302992 1.6302992 0 0 0 79.080078 27.298828 L 71.011719 31.957031 A 1.6302992 1.6302992 0 0 0 70.412109 34.179688 A 1.6302992 1.6302992 0 0 0 72.642578 34.777344 L 80.710938 30.119141 A 1.6302992 1.6302992 0 0 0 81.308594 27.896484 A 1.6302992 1.6302992 0 0 0 80.3125 27.136719 A 1.6302992 1.6302992 0 0 0 79.890625 27.082031 z M 3.7480469 33.453125 A 1.6302992 1.6302992 0 0 0 2.1152344 34.658203 A 1.6302992 1.6302992 0 0 0 3.2675781 36.660156 L 8.8925781 38.166016 A 1.6302992 1.6302992 0 0 0 10.884766 37.013672 A 1.6302992 1.6302992 0 0 0 9.734375 35.013672 L 4.109375 33.507812 A 1.6302992 1.6302992 0 0 0 3.7480469 33.453125 z M 91.759766 33.535156 A 1.6302992 1.6302992 0 0 0 91.400391 33.587891 L 85.775391 35.09375 A 1.6302992 1.6302992 0 0 0 84.623047 37.095703 A 1.6302992 1.6302992 0 0 0 86.615234 38.246094 L 92.240234 36.740234 A 1.6302992 1.6302992 0 0 0 93.392578 34.748047 A 1.6302992 1.6302992 0 0 0 91.759766 33.535156 z M 14.117188 36.228516 A 1.6302992 1.6302992 0 0 0 12.480469 37.441406 A 1.6302992 1.6302992 0 0 0 13.638672 39.435547 L 20.386719 41.244141 A 1.6302992 1.6302992 0 0 0 22.378906 40.091797 A 1.6302992 1.6302992 0 0 0 21.226562 38.091797 L 14.480469 36.283203 A 1.6302992 1.6302992 0 0 0 14.117188 36.228516 z M 81.279297 36.345703 A 1.6302992 1.6302992 0 0 0 80.917969 36.400391 L 74.169922 38.208984 A 1.6302992 1.6302992 0 0 0 73.019531 40.203125 A 1.6302992 1.6302992 0 0 0 75.011719 41.353516 L 81.765625 39.544922 A 1.6302992 1.6302992 0 0 0 82.917969 37.552734 A 1.6302992 1.6302992 0 0 0 81.279297 36.345703 z M 1.6289062 44.861328 A 1.6302992 1.6302992 0 0 0 -0.00390625 46.484375 A 1.6302992 1.6302992 0 0 0 1.6289062 48.115234 L 5.1269531 48.115234 A 1.6302992 1.6302992 0 0 0 6.7519531 46.484375 A 1.6302992 1.6302992 0 0 0 5.1269531 44.861328 L 1.6289062 44.861328 z M 10.361328 44.861328 A 1.6302992 1.6302992 0 0 0 8.7363281 46.484375 A 1.6302992 1.6302992 0 0 0 10.361328 48.115234 L 19.677734 48.115234 A 1.6302992 1.6302992 0 0 0 21.308594 46.484375 A 1.6302992 1.6302992 0 0 0 19.677734 44.861328 L 10.361328 44.861328 z M 75.662109 44.861328 A 1.6302992 1.6302992 0 0 0 74.029297 46.484375 A 1.6302992 1.6302992 0 0 0 75.662109 48.115234 L 84.976562 48.115234 A 1.6302992 1.6302992 0 0 0 86.609375 46.484375 A 1.6302992 1.6302992 0 0 0 84.976562 44.861328 L 75.662109 44.861328 z M 89.753906 44.861328 A 1.6302992 1.6302992 0 0 0 88.121094 46.484375 A 1.6302992 1.6302992 0 0 0 89.753906 48.115234 L 93.244141 48.115234 A 1.6302992 1.6302992 0 0 0 94.876953 46.484375 A 1.6302992 1.6302992 0 0 0 93.244141 44.861328 L 89.753906 44.861328 z "
       transform="matrix(0.26458333,0,0,0.26458333,138.17267,162.88843)" />
  </g>
</svg>
