<?xml version="1.0" encoding="UTF-8" standalone="no"?>
<svg
   width="9.6855335mm"
   height="9.683795mm"
   viewBox="0 0 9.6855335 9.683795"
   version="1.1"
   id="svg19005"
   sodipodi:docname="store.svg"
   inkscape:version="1.1.1 (3bf5ae0d25, 2021-09-20)"
   xmlns:inkscape="http://www.inkscape.org/namespaces/inkscape"
   xmlns:sodipodi="http://sodipodi.sourceforge.net/DTD/sodipodi-0.dtd"
   xmlns="http://www.w3.org/2000/svg"
   xmlns:svg="http://www.w3.org/2000/svg">
  <sodipodi:namedview
     id="namedview6"
     pagecolor="#ffffff"
     bordercolor="#666666"
     borderopacity="1.0"
     inkscape:pageshadow="2"
     inkscape:pageopacity="0.0"
     inkscape:pagecheckerboard="0"
     inkscape:document-units="mm"
     showgrid="false"
     inkscape:zoom="7.6257776"
     inkscape:cx="3.3439213"
     inkscape:cy="29.111785"
     inkscape:window-width="1920"
     inkscape:window-height="1019"
     inkscape:window-x="0"
     inkscape:window-y="30"
     inkscape:window-maximized="1"
     inkscape:current-layer="svg19005" />
  <defs
     id="defs19002" />
  <path
     id="path1071"
     style="color:#000000;fill:#37c837;fill-opacity:1;stroke-width:1.1463;stroke-linecap:round;stroke-linejoin:round;-inkscape-stroke:none"
     d="M 1.4760483,0.83100801 A 0.45877633,0.45877633 0 0 0 1.0175591,1.2900885 0.45877633,0.45877633 0 0 0 1.4760483,1.7491691 H 8.4321611 A 0.45877633,0.45877633 0 0 0 8.8912446,1.2900885 0.45877633,0.45877633 0 0 0 8.4321611,0.83100801 Z M 1.3172943,2.1407221 A 0.45882223,0.45882223 0 0 0 0.87420624,2.4765912 L 0.09702639,5.2755062 A 0.45882223,0.45882223 0 0 0 0.53833714,5.8572037 H 0.92751851 V 8.3338733 A 0.50470482,0.50470482 0 0 0 1.4316194,8.8397514 H 5.4389527 A 0.50470482,0.50470482 0 0 0 5.9430536,8.3338733 v -2.371228 h 1.9405807 v 2.386629 A 0.50465435,0.50465435 0 0 0 8.3901039,8.8527838 0.50465435,0.50465435 0 0 0 8.8936133,8.3492743 V 5.8572037 H 9.1465508 A 0.45882223,0.45882223 0 0 0 9.5896388,5.279652 L 8.8397065,2.4813315 A 0.45882223,0.45882223 0 0 0 8.3966215,2.1407221 Z M 1.9374975,5.8572037 H 4.9330746 V 7.8297725 H 1.9374975 Z" />
</svg>
