<?xml version="1.0" encoding="UTF-8" standalone="no"?>
<!-- Created with Inkscape (http://www.inkscape.org/) -->

<svg
   width="65mm"
   height="4.0661626mm"
   viewBox="0 0 65 4.0661626"
   version="1.1"
   id="svg37054"
   inkscape:version="1.1 (c68e22c387, 2021-05-23)"
   sodipodi:docname="stripe.svg"
   xmlns:inkscape="http://www.inkscape.org/namespaces/inkscape"
   xmlns:sodipodi="http://sodipodi.sourceforge.net/DTD/sodipodi-0.dtd"
   xmlns="http://www.w3.org/2000/svg"
   xmlns:svg="http://www.w3.org/2000/svg">
  <sodipodi:namedview
     id="namedview37056"
     pagecolor="#ffffff"
     bordercolor="#666666"
     borderopacity="1.0"
     inkscape:pageshadow="2"
     inkscape:pageopacity="0.0"
     inkscape:pagecheckerboard="0"
     inkscape:document-units="mm"
     showgrid="false"
     fit-margin-top="0"
     fit-margin-left="0"
     fit-margin-right="0"
     fit-margin-bottom="0"
     inkscape:zoom="4"
     inkscape:cx="134.375"
     inkscape:cy="-48.125"
     inkscape:window-width="2560"
     inkscape:window-height="1377"
     inkscape:window-x="-8"
     inkscape:window-y="-8"
     inkscape:window-maximized="1"
     inkscape:current-layer="layer1" />
  <defs
     id="defs37051" />
  <g
     inkscape:label="Layer 1"
     inkscape:groupmode="layer"
     id="layer1"
     transform="translate(-117.78334,-184.76275)">
    <path
       id="path35713-8"
       style="color:#000000;fill:#fcb45c;stroke-width:0.996285;stroke-linejoin:round;-inkscape-stroke:none;fill-opacity:1"
       d="m 134.08871,184.77419 a 0.84423154,0.84423154 0 0 0 -0.22651,0.0613 l -5.01668,2.22605 -5.01811,-2.22605 a 0.84423154,0.84423154 0 0 0 -0.68357,0 l -5.3605,2.37807 0.68561,1.54262 5.01668,-2.22622 5.01809,2.22622 a 0.84423154,0.84423154 0 0 0 0.68359,0 l 5.0181,-2.22622 5.01667,2.22622 a 0.84423154,0.84423154 0 0 0 0.68563,0 l 5.01666,-2.22622 5.01606,2.22622 a 0.84423154,0.84423154 0 0 0 0.68562,0 l 5.01607,-2.22622 5.01667,2.22622 a 0.84423154,0.84423154 0 0 0 0.22648,0.0613 0.84423154,0.84423154 0 0 0 0.45912,-0.0613 l 5.01668,-2.22622 5.01831,2.22622 a 0.84423154,0.84423154 0 0 0 0.68357,0 l 5.01811,-2.22622 5.01666,2.22622 0.68562,-1.54262 -5.3605,-2.37807 a 0.84423154,0.84423154 0 0 0 -0.68358,0 l -5.0181,2.22605 -5.01667,-2.22605 a 0.84423154,0.84423154 0 0 0 -0.68562,0 l -5.01647,2.22605 -5.01627,-2.22605 a 0.84423154,0.84423154 0 0 0 -0.68561,0 l -5.01607,2.22605 h -6.1e-4 l -5.01605,-2.22605 a 0.84423154,0.84423154 0 0 0 -0.68563,0 l -5.01667,2.22605 -5.01666,-2.22605 a 0.84423154,0.84423154 0 0 0 -0.45913,-0.0613 z" />
  </g>
</svg>
