<?xml version="1.0" encoding="UTF-8" standalone="no"?>
<svg
   viewBox="0 0 44 35"
   version="1.1"
   id="svg5"
   sodipodi:docname="tendal-sun2.svg"
   width="44"
   height="35"
   inkscape:version="1.4.2 (ebf0e940d0, 2025-05-08)"
   xmlns:inkscape="http://www.inkscape.org/namespaces/inkscape"
   xmlns:sodipodi="http://sodipodi.sourceforge.net/DTD/sodipodi-0.dtd"
   xmlns="http://www.w3.org/2000/svg"
   xmlns:svg="http://www.w3.org/2000/svg">
  <sodipodi:namedview
     id="namedview7"
     pagecolor="#ffffff"
     bordercolor="#666666"
     borderopacity="1.0"
     inkscape:showpageshadow="2"
     inkscape:pageopacity="0.0"
     inkscape:pagecheckerboard="0"
     inkscape:deskcolor="#d1d1d1"
     showgrid="false"
     inkscape:zoom="5.6568543"
     inkscape:cx="29.079766"
     inkscape:cy="33.057242"
     inkscape:window-width="2560"
     inkscape:window-height="1368"
     inkscape:window-x="0"
     inkscape:window-y="0"
     inkscape:window-maximized="1"
     inkscape:current-layer="svg5"
     showguides="true">
    <sodipodi:guide
       position="-53.490208,-23.248044"
       orientation="0,-1"
       id="guide14"
       inkscape:locked="false" />
  </sodipodi:namedview>
  <defs
     id="defs1284" />
  <g
     id="g33"
     transform="matrix(0.64499382,0.37238735,-0.37238735,0.64499382,-666.10395,-665.91963)"
     style="fill:#000000;fill-opacity:1">
    <path
       id="path21"
       style="baseline-shift:baseline;display:inline;overflow:visible;vector-effect:none;fill:#000000;fill-opacity:1;stroke-linecap:round;enable-background:accumulate;stop-color:#000000"
       inkscape:transform-center-x="-8.1751495"
       inkscape:transform-center-y="-27.01628"
       d="m 1265.6654,309.64393 c -0.8561,-0.16045 -1.696,0.64512 -1.5654,1.51349 l 1.3018,8.64871 c 0.095,0.63976 0.422,1.2237 1.0486,1.39162 0.6267,0.16791 1.2018,-0.17432 1.604,-0.68088 l 5.4517,-6.8391 c 0.5473,-0.68673 0.2227,-1.80426 -0.5989,-2.09342 -0.6228,-0.26149 -1.2816,0.0428 -1.7158,0.58511 -1.1645,1.45389 -2.3254,2.90532 -3.4899,4.35918 -0.2815,-1.84133 -0.5612,-3.67875 -0.8427,-5.52011 -0.1319,-0.86395 -0.677,-1.29913 -1.1934,-1.3646 z"
       sodipodi:nodetypes="cccsccccccc" />
    <path
       id="path22"
       style="baseline-shift:baseline;display:inline;overflow:visible;vector-effect:none;fill:#000000;fill-opacity:1;stroke-linecap:round;enable-background:accumulate;stop-color:#000000"
       inkscape:transform-center-x="-20.718258"
       inkscape:transform-center-y="-20.718456"
       d="m 1281.41,316.49336 c -0.6612,-0.56701 -1.7913,-0.2893 -2.1124,0.52802 l -3.197,8.14091 c -0.2376,0.60155 -0.2464,1.27072 0.2123,1.72948 0.4588,0.45875 1.128,0.44993 1.7295,0.2123 l 8.1409,-3.19696 c 0.8173,-0.32108 1.095,-1.45117 0.528,-2.11242 -0.4086,-0.53784 -1.1313,-0.60374 -1.7784,-0.35116 -1.7355,0.67685 -3.4665,1.35339 -5.2019,2.03021 0.6768,-1.73542 1.3533,-3.46649 2.0301,-5.20194 0.3178,-0.81412 0.063,-1.46356 -0.3511,-1.77844 z"
       sodipodi:nodetypes="cccsccccccc" />
    <path
       id="path23"
       style="baseline-shift:baseline;display:inline;overflow:visible;vector-effect:none;fill:#000000;fill-opacity:1;stroke:none;stroke-linecap:round;enable-background:accumulate;stop-color:#000000"
       inkscape:transform-center-x="-27.016204"
       inkscape:transform-center-y="-8.1754212"
       d="m 1291.6205,330.29744 c -0.2891,-0.82165 -1.4067,-1.1462 -2.0934,-0.59893 l -6.8391,5.45176 c -0.5066,0.40216 -0.8488,0.97725 -0.6809,1.60393 0.1679,0.62667 0.7518,0.95362 1.3916,1.04859 l 8.6487,1.30181 c 0.8684,0.1306 1.6739,-0.70924 1.5135,-1.5654 -0.085,-0.67008 -0.6779,-1.08851 -1.3646,-1.19334 -1.8414,-0.28155 -3.6788,-0.56118 -5.5201,-0.84275 1.4538,-1.16451 2.9053,-2.32539 4.3592,-3.48991 0.6822,-0.54616 0.7866,-1.23583 0.5851,-1.71576 z"
       sodipodi:nodetypes="cccsccccccc" />
    <path
       id="path24"
       style="baseline-shift:baseline;display:inline;overflow:visible;vector-effect:none;fill:#000000;fill-opacity:1;stroke-linecap:round;enable-background:accumulate;stop-color:#000000"
       inkscape:transform-center-x="27.016275"
       inkscape:transform-center-y="-8.1751491"
       d="m 1227.952,337.53947 c -0.1604,0.85614 0.6451,1.69598 1.5135,1.5654 l 8.6487,-1.30183 c 0.6397,-0.095 1.2237,-0.42192 1.3916,-1.04859 0.1679,-0.62667 -0.1743,-1.20178 -0.6808,-1.60391 l -6.8392,-5.45176 c -0.6867,-0.54729 -1.8042,-0.22273 -2.0934,0.59893 -0.2615,0.62276 0.043,1.28161 0.5851,1.71575 1.4539,1.16452 2.9053,2.3254 4.3592,3.48991 -1.8413,0.28157 -3.6788,0.5612 -5.5201,0.84276 -0.8639,0.13186 -1.2992,0.67696 -1.3646,1.19334 z"
       sodipodi:nodetypes="cccsccccccc" />
    <path
       id="path25"
       style="baseline-shift:baseline;display:inline;overflow:visible;vector-effect:none;fill:#000000;fill-opacity:1;stroke-linecap:round;enable-background:accumulate;stop-color:#000000"
       inkscape:transform-center-x="20.718451"
       inkscape:transform-center-y="-20.718265"
       d="m 1234.8014,321.79491 c -0.567,0.66121 -0.2893,1.79132 0.528,2.11242 l 8.141,3.19694 c 0.6015,0.2376 1.2707,0.24645 1.7294,-0.2123 0.4588,-0.45876 0.45,-1.12794 0.2123,-1.72946 l -3.1969,-8.14092 c -0.3211,-0.81733 -1.4512,-1.09502 -2.1125,-0.52802 -0.5378,0.40856 -0.6037,1.1313 -0.3511,1.77843 0.6769,1.73546 1.3534,3.4665 2.0302,5.20195 -1.7354,-0.67682 -3.4665,-1.35336 -5.2019,-2.03021 -0.8142,-0.31777 -1.4636,-0.0633 -1.7785,0.35117 z"
       sodipodi:nodetypes="cccsccccccc" />
    <path
       id="path26"
       style="baseline-shift:baseline;display:inline;overflow:visible;vector-effect:none;fill:#000000;fill-opacity:1;stroke-linecap:round;enable-background:accumulate;stop-color:#000000"
       inkscape:transform-center-x="8.1754206"
       inkscape:transform-center-y="-27.016207"
       d="m 1248.6055,311.58443 c -0.8216,0.28912 -1.1462,1.40667 -0.5989,2.09342 l 5.4518,6.8391 c 0.4021,0.50653 0.9772,0.84878 1.6039,0.68087 0.6266,-0.16792 0.9536,-0.75186 1.0486,-1.39159 l 1.3018,-8.64874 c 0.1306,-0.86837 -0.7093,-1.6739 -1.5654,-1.51349 -0.6701,0.0849 -1.0885,0.67787 -1.1934,1.36459 -0.2815,1.84138 -0.5612,3.67877 -0.8427,5.52013 -1.1645,-1.45386 -2.3254,-2.9053 -3.4899,-4.3592 -0.5462,-0.68224 -1.2359,-0.7866 -1.7158,-0.58509 z"
       sodipodi:nodetypes="cccsccccccc" />
    <path
       style="opacity:1;fill:#000000;stroke:#000000;stroke-width:2.72893;stroke-linecap:round;stroke-linejoin:round;stroke-dasharray:none;stroke-opacity:1;paint-order:markers fill stroke"
       d="m 1260.7278,318.63135 v 7.19578"
       id="path27"
       sodipodi:nodetypes="cc"
       inkscape:transform-center-x="0.021970132"
       inkscape:transform-center-y="-15.559086" />
    <path
       style="opacity:1;fill:#000000;stroke:#000000;stroke-width:2.72893;stroke-linecap:round;stroke-linejoin:round;stroke-dasharray:none;stroke-opacity:1;paint-order:markers fill stroke"
       d="m 1272.64,321.80792 -3.5979,6.23173"
       id="path28"
       sodipodi:nodetypes="cc"
       inkscape:transform-center-x="-7.760497"
       inkscape:transform-center-y="-13.485548" />
    <path
       style="opacity:1;fill:#000000;stroke:#000000;stroke-width:2.72893;stroke-linecap:round;stroke-linejoin:round;stroke-dasharray:none;stroke-opacity:1;paint-order:markers fill stroke"
       d="m 1281.368,330.51501 -6.2317,3.59789"
       id="path29"
       sodipodi:nodetypes="cc"
       inkscape:transform-center-x="-13.463574"
       inkscape:transform-center-y="-7.7985774" />
    <path
       style="opacity:1;fill:#000000;stroke:#000000;stroke-width:2.72893;stroke-linecap:round;stroke-linejoin:round;stroke-dasharray:none;stroke-opacity:1;paint-order:markers fill stroke"
       d="m 1284.5731,342.41957 -7.1957,2e-5"
       id="path30"
       sodipodi:nodetypes="cc"
       inkscape:transform-center-x="-15.559086"
       inkscape:transform-center-y="-0.021977907" />
    <path
       style="opacity:1;fill:#000000;stroke:#000000;stroke-width:2.72893;stroke-linecap:round;stroke-linejoin:round;stroke-dasharray:none;stroke-opacity:1;paint-order:markers fill stroke"
       d="m 1248.8232,321.83647 3.5979,6.23173"
       id="path31"
       sodipodi:nodetypes="cc"
       inkscape:transform-center-x="7.7985889"
       inkscape:transform-center-y="-13.463578" />
    <path
       style="opacity:1;fill:#000000;stroke:#000000;stroke-width:2.72893;stroke-linecap:round;stroke-linejoin:round;stroke-dasharray:none;stroke-opacity:1;paint-order:markers fill stroke"
       d="m 1240.1161,330.56449 6.2317,3.59788"
       id="path32"
       sodipodi:nodetypes="cc"
       inkscape:transform-center-x="13.485583"
       inkscape:transform-center-y="-7.7605049" />
    <path
       style="opacity:1;fill:#000000;stroke:#000000;stroke-width:2.72893;stroke-linecap:round;stroke-linejoin:round;stroke-dasharray:none;stroke-opacity:1;paint-order:markers fill stroke"
       d="m 1236.9395,342.47672 7.1958,10e-6"
       id="path33"
       sodipodi:nodetypes="cc"
       inkscape:transform-center-x="15.559125"
       inkscape:transform-center-y="0.021996902" />
  </g>
</svg>
