<svg width="128" height="128" version="1.1" viewBox="0 0 128 128" xmlns="http://www.w3.org/2000/svg">
 <g transform="matrix(2.9091 0 0 2.9091 -392.49 -214.83)">
  <path d="m156.98 74.076c-0.23923 5.34e-4 -0.43303 0.19434-0.43357 0.43356v2.4846c5.3e-4 0.23923 0.19434 0.43303 0.43357 0.43356 0.24003 6.09e-4 0.43509-0.19353 0.43563-0.43356v-2.4846c-5.4e-4 -0.24004-0.1956-0.43417-0.43563-0.43356zm-3.0412 0.34468c-0.0429-0.0013-0.0857 0.0037-0.12712 0.01499-0.23178 0.06247-0.36899 0.30103-0.30645 0.53278l0.2403 0.89865c0.0615 0.23287 0.30075 0.37125 0.5333 0.30851 0.23203-0.06246 0.36932-0.30138 0.30644-0.5333l-0.24029-0.89814c-0.049-0.18576-0.21416-0.31731-0.40618-0.3235zm6.0766 0.02584c-0.19129 0.0068-0.35561 0.13795-0.40463 0.32298l-0.24236 0.89814c-0.0627 0.23255 0.0756 0.47176 0.30851 0.5333 0.23188 0.06142 0.46966-0.07667 0.53123-0.30851l0.24237-0.89814c0.0627-0.23255-0.0756-0.47176-0.30851-0.5333-0.0413-0.01102-0.0839-0.01589-0.12661-0.01447zm-9.0811 1.2046c-0.0817-0.0031-0.16272 0.01698-0.23358 0.05788-0.20779 0.12014-0.27882 0.38599-0.15864 0.59376l0.77566 1.3436c0.11961 0.20836 0.38559 0.28012 0.59376 0.1602 0.20761-0.12031 0.2784-0.38613 0.15813-0.59376l-0.77514-1.3436c-0.0576-0.10009-0.15256-0.17316-0.26407-0.20309-0.0314-0.0086-0.0636-0.0136-0.0961-0.01499zm12.052 0.07235c-0.0325 0.0014-0.0647 0.0064-0.0961 0.01499-0.11115 0.02943-0.20611 0.10172-0.26407 0.20102l-0.77721 1.3436c-0.11992 0.20818-0.0482 0.47416 0.1602 0.59376 0.20763 0.12027 0.47345 0.04948 0.59376-0.15813l0.77566-1.3436c0.12018-0.20777 0.0491-0.47362-0.15864-0.59376-0.0709-0.0409-0.15183-0.06096-0.23358-0.05788zm-8.4589 0.94723c-0.0379 8.8e-5 -0.0756 0.0051-0.11213 0.01499-0.23184 0.06157-0.36993 0.29936-0.30851 0.53123l0.64285 2.3983c0.0625 0.23177 0.30104 0.36898 0.53279 0.30644 0.2312-0.06226 0.36847-0.29983 0.30695-0.53123l-0.64285-2.3983c-0.0511-0.18949-0.22284-0.32122-0.4191-0.32143zm4.9 0.02325c-0.19723-9e-6 -0.36973 0.13281-0.42013 0.32349l-0.64285 2.3983c-0.0614 0.23203 0.077 0.46989 0.30902 0.53123 0.23125 0.06155 0.46875-0.07544 0.53124-0.30644l0.64234-2.3983c0.0629-0.23192-0.0744-0.47084-0.30645-0.5333-0.0369-0.01-0.075-0.01499-0.11317-0.01499zm-11.138 0.84026c-0.11537 4.2e-5 -0.22599 0.04596-0.30747 0.12764-0.16895 0.16957-0.16895 0.44383 0 0.6134l1.7554 1.756c0.1698 0.17032 0.44566 0.17032 0.61546 0 0.16895-0.16957 0.16895-0.44383 0-0.6134l-1.756-1.756c-0.0815-0.08168-0.19211-0.1276-0.30748-0.12764zm17.347 0.03617c-0.11505-9.6e-5 -0.22544 0.04543-0.30696 0.12661l-1.756 1.756c-0.17032 0.1698-0.17032 0.44566 0 0.61547 0.16981 0.17032 0.44566 0.17032 0.61547 0l1.756-1.756c0.17033-0.1698 0.17033-0.44566 0-0.61547-0.0819-0.08155-0.19292-0.12711-0.3085-0.12661zm-8.6563 0.35553c-0.23923 5.29e-4 -0.43303 0.19434-0.43357 0.43356v0.93173c5.3e-4 0.23923 0.19434 0.43303 0.43357 0.43356 0.24003 6.09e-4 0.43509-0.19353 0.43563-0.43356v-0.93173c-5.3e-4 -0.24004-0.1956-0.43417-0.43563-0.43356zm-4.5884 0.25063c0-0.08199-0.16309 0.01688-0.2341 0.05788-0.2076 0.12032-0.27839 0.38613-0.15813 0.59376l0.93173 1.6113c0.1196 0.20836 0.38559 0.28012 0.59376 0.1602 0.20761-0.12031 0.2784-0.38613 0.15813-0.59376l-0.93173-1.6133c-0.0578-0.0992-0.15259-0.17147-0.26355-0.20102-0.0314-0.0086-0.0961 0.01754-0.0961-0.01499zm9.1798 0.05426c-0.16147-0.0068-0.31335 0.07664-0.39429 0.21652l-0.92966 1.6133c-0.12027 0.20763-0.0495 0.47345 0.15813 0.59376 0.20777 0.12018 0.47362 0.04915 0.59376-0.15865l0.93173-1.6128c0.11992-0.20817 0.0482-0.47416-0.1602-0.59376-0.0608-0.03531-0.12924-0.05535-0.19947-0.05839zm-15.211 1.8448c-0.0427-0.0016-0.0853 0.0031-0.12661 0.01395-0.11131 0.03005-0.20612 0.10311-0.26355 0.20309-0.11992 0.20818-0.0482 0.47416 0.1602 0.59376l0.8046 0.46509c0.20764 0.12027 0.47345 0.04948 0.59376-0.15813 0.12027-0.20763 0.0495-0.47345-0.15813-0.59376l-0.80666-0.46509c-0.062-0.03614-0.13192-0.05638-0.20361-0.05891zm21.147 0.05374c-0.0716 0.0022-0.14154 0.0221-0.20361 0.05788l-0.80666 0.46716c-0.20761 0.12032-0.2784 0.38613-0.15813 0.59376 0.12031 0.2076 0.38612 0.2784 0.59376 0.15813l0.80667-0.46509c0.2076-0.12032 0.27839-0.38613 0.15813-0.59376-0.0798-0.13913-0.22983-0.22297-0.39016-0.21807zm-16.448 0.17518c-0.11493 1.78e-4 -0.22512 0.04589-0.30644 0.12712-0.16997 0.16974-0.16997 0.4452 0 0.61495l0.65784 0.65836c0.16957 0.16895 0.44384 0.16895 0.6134 0 0.17033-0.1698 0.17033-0.44566 0-0.61547l-0.65835-0.65784c-0.0813-0.08124-0.19151-0.12695-0.30645-0.12712zm11.78 0.06201c-0.11538 4.1e-5 -0.226 0.04596-0.30748 0.12764l-0.65836 0.65784c-0.16894 0.16957-0.16894 0.44383 0 0.6134 0.16981 0.17032 0.44566 0.17032 0.61547 0l0.65836-0.65836c0.1686-0.16951 0.1686-0.44338 0-0.61288-0.0816-0.0818-0.19244-0.12774-0.30799-0.12764zm-5.919 0.5457c-1.3445-3.97e-4 -2.6897 0.46532-3.7693 1.3999-2.1591 1.8692-2.6201 5.0553-1.078 7.459l0.16898 0.26407-0.74363 0.3297-5.072-2.25c-0.22016-0.09752-0.47127-0.09752-0.69143 0l-5.4198 2.4024 0.6935 1.5606 5.072-2.25 5.072 2.25c0.22016 0.09752 0.47127 0.09752 0.69143 0l5.0746-2.25 5.072 2.25c0.22016 0.09752 0.47127 0.09752 0.69143 0l5.0741-2.25 5.0726 2.25 0.69143-1.5606-5.4183-2.4024c-0.22075-0.09813-0.47274-0.09813-0.69349 0l-5.072 2.25-0.74362-0.3297 0.16743-0.25993c1.5435-2.4028 1.0858-5.5906-1.0723-7.461-1.079-0.93522-2.4232-1.4016-3.7677-1.402zm-8.5592 0.32711c0-0.03802-0.0759 0.0047-0.11266 0.01447-0.11131 0.03005-0.20612 0.10311-0.26355 0.20309-0.11992 0.20818-0.0481 0.47416 0.1602 0.59376l2.1503 1.2423c0.20817 0.11992 0.47415 0.04816 0.59376-0.1602 0.11992-0.20818 0.0482-0.47416-0.1602-0.59376l-2.1502-1.2402c-0.066-0.03861-0.21756 0.01706-0.21756-0.05943zm17.144 0.05426c-0.0763-1.54e-4 -0.15138 0.01981-0.21756 0.05788l-2.1502 1.2423c-0.20761 0.12031-0.2784 0.38613-0.15813 0.59376 0.1203 0.2073 0.38572 0.27805 0.59324 0.15813l2.1508-1.2402c0.2076-0.12032 0.27839-0.38613 0.15813-0.59376-0.0574-0.09998-0.15224-0.17304-0.26355-0.20309-0.0367-0.0099-0.0746-0.01494-0.11266-0.01499zm-8.5866 1.1643c0.97995 3.7e-4 1.9599 0.3441 2.7518 1.0304 1.5837 1.3726 1.9176 3.6839 0.78496 5.4472l-0.29714 0.46302-2.8939-1.2836c-0.22016-0.09752-0.47127-0.09752-0.69143 0l-2.8949 1.2836-0.29869-0.46509c-1.1317-1.7639-0.79744-4.0755 0.78703-5.4472 0.79223-0.68585 1.7723-1.0287 2.7523-1.0284zm-11.708 0.53485c-0.20274-0.0079-0.384 0.12548-0.43666 0.32143-0.0629 0.23192 0.0744 0.47084 0.30644 0.5333l1.5002 0.40049c0.23124 0.06155 0.46874-0.07544 0.53123-0.30644 0.0628-0.23208-0.0747-0.47107-0.30696-0.5333l-1.4981-0.40049c-0.0314-0.0086-0.0636-0.0136-0.0961-0.01499zm23.456 0.0217c-0.0327 0.0013-0.0651 0.0064-0.0966 0.01499l-1.4981 0.40204c-0.231 0.06249-0.368 0.29998-0.30644 0.53123 0.0616 0.23184 0.29935 0.36992 0.53123 0.30851l1.5002-0.40204c0.23203-0.06246 0.36931-0.30138 0.30644-0.5333-0.0527-0.19595-0.23392-0.32937-0.43667-0.32143zm-20.702 0.71882c-0.19932-0.0036-0.37551 0.12894-0.42737 0.32143-0.0629 0.23192 0.0744 0.47084 0.30644 0.5333l1.7989 0.48007c0.23192 0.06288 0.47084-0.07441 0.5333-0.30644 0.0614-0.23188-0.0767-0.46966-0.30851-0.53123l-1.7988-0.48266c-0.0339-9e-3 -0.0688-0.01386-0.10387-0.01447zm17.909 0.02946c-0.0325 0.0012-0.0647 0.0061-0.0961 0.01447l-1.7988 0.48266c-0.23121 0.06226-0.36848 0.29983-0.30696 0.53123 0.0615 0.23287 0.30075 0.37125 0.5333 0.30851l1.7989-0.48266c0.23099-0.06249 0.36799-0.29998 0.30644-0.53123-0.0521-0.19657-0.23347-0.33075-0.43667-0.32298zm-21.229 2.2701c-0.24004-6.08e-4 -0.4351 0.19353-0.43564 0.43357-6e-4 0.24084 0.19479 0.43624 0.43564 0.43563h0.93172c0.24004-5.29e-4 0.43417-0.1956 0.43357-0.43563-5.3e-4 -0.23923-0.19434-0.43303-0.43357-0.43357zm2.328 0c-0.24004-6.08e-4 -0.4351 0.19353-0.43563 0.43357-6.1e-4 0.24084 0.19479 0.43624 0.43563 0.43563h2.4825c0.24084 6.08e-4 0.43624-0.19479 0.43563-0.43563-5.3e-4 -0.24004-0.1956-0.43417-0.43563-0.43357zm17.405 0c-0.24003-6.08e-4 -0.43509 0.19353-0.43563 0.43357-5.3e-4 0.24084 0.19479 0.43624 0.43563 0.43563h2.482c0.24085 6.08e-4 0.43624-0.19479 0.43563-0.43563-5.3e-4 -0.24004-0.19559-0.43417-0.43563-0.43357zm3.7558 0c-0.24003-6.08e-4 -0.43509 0.19353-0.43563 0.43357-5.3e-4 0.24084 0.19479 0.43624 0.43563 0.43563h0.92966c0.24085 6.08e-4 0.43625-0.19479 0.43564-0.43563-5.3e-4 -0.24004-0.1956-0.43417-0.43564-0.43357zm-0.49661 7.0776c-0.0788 0.01095-0.15567 0.03287-0.2284 0.06511l-5.072 2.25-5.072-2.25c-0.22016-0.09752-0.47127-0.09752-0.69143 0l-5.0746 2.25-5.072-2.25c-0.22016-0.09752-0.47127-0.09752-0.69143 0l-5.4198 2.4024 0.6935 1.5606 5.072-2.25 5.072 2.25c0.22016 0.09752 0.47127 0.09752 0.69143 0l5.0746-2.25 5.072 2.25c0.22016 0.09752 0.47127 0.09752 0.69143 0l5.0741-2.25 5.0726 2.25 0.69143-1.5606-5.4183-2.4024c-0.14589-0.06476-0.30702-0.08732-0.46509-0.06511zm-32.466 8.2823c-0.0743 0-0.13521 0.0236-0.18241 0.0708-0.0473 0.0472-0.0708 0.10819-0.0708 0.18242v1.0831c0 0.0675 0.0235 0.12791 0.0708 0.18191 0.0472 0.0473 0.10819 0.0708 0.18241 0.0708h1.8014v5.2431c0 0.0675 0.0235 0.1279 0.0708 0.18191 0.0472 0.0473 0.10768 0.0708 0.1819 0.0708h1.3364c0.0743 0 0.1347-0.0235 0.1819-0.0708 0.0473-0.054 0.0708-0.11443 0.0708-0.18191v-5.2431h1.802c0.0742 0 0.13463-0.0235 0.1819-0.0708 0.0473-0.054 0.0708-0.11443 0.0708-0.18191v-1.0831c0-0.0743-0.0235-0.13522-0.0708-0.18242-0.0472-0.0472-0.10768-0.0708-0.1819-0.0708zm7.6481 5.3e-4c-0.0742 0-0.13515 0.0236-0.18242 0.0708-0.0472 0.0472-0.0708 0.10767-0.0708 0.1819v6.5789c0 0.0674 0.0236 0.1279 0.0708 0.1819 0.0472 0.0473 0.1082 0.0708 0.18242 0.0708l4.8074 5.3e-4c0.0743 0 0.13471-0.0241 0.18191-0.0713 0.0472-0.054 0.0708-0.11443 0.0708-0.1819v-0.95137c0-0.0742-0.0236-0.13515-0.0708-0.18241-0.0472-0.0472-0.10769-0.0708-0.18191-0.0708h-3.3099v-1.4066h3.006c0.0743 0 0.13522-0.0235 0.18242-0.0708 0.0473-0.054 0.0708-0.11494 0.0708-0.18242v-0.88056c0-0.0743-0.0235-0.13471-0.0708-0.1819-0.0472-0.054-0.1082-0.0811-0.18242-0.0811h-3.006v-1.3663h3.2287c0.0742 0 0.13515-0.0235 0.18242-0.0708 0.0472-0.0472 0.0708-0.1082 0.0708-0.18241v-0.95137c0-0.0743-0.0236-0.1347-0.0708-0.1819s-0.1082-0.0708-0.18242-0.0708zm7.243 0c-0.0743 0-0.1347 0.0236-0.1819 0.0708s-0.0708 0.10767-0.0708 0.1819v6.5789c0 0.0674 0.0236 0.1279 0.0708 0.1819 0.0472 0.0473 0.10768 0.0708 0.1819 0.0708l1.2149 5.3e-4c0.0742 0 0.13463-0.0241 0.1819-0.0713 0.0473-0.054 0.0708-0.11443 0.0708-0.1819v-3.684l2.4696 3.7445c0.0135 0.0202 0.0443 0.0576 0.0915 0.11162 0.054 0.054 0.13492 0.0811 0.24288 0.0811h1.0826c0.0742 0 0.13515-0.0241 0.18242-0.0713 0.0473-0.054 0.0708-0.11802 0.0708-0.19224v-6.5686c0-0.0743-0.0235-0.1347-0.0708-0.1819-0.0472-0.0472-0.1082-0.0708-0.18242-0.0708h-1.2144c-0.0742 0-0.1347 0.0236-0.1819 0.0708-0.0473 0.0472-0.0713 0.10767-0.0713 0.1819v3.8261l-2.4696-3.8866c-0.0135-0.027-0.0468-0.0644-0.10077-0.11163-0.0472-0.054-0.12817-0.0806-0.24288-0.0806zm8.0533 0c-0.0742 0-0.13463 0.0236-0.1819 0.0708-0.0473 0.0472-0.0713 0.10767-0.0713 0.1819v6.5789c0 0.0674 0.024 0.1279 0.0713 0.1819 0.0472 0.0473 0.10768 0.0708 0.1819 0.0708h2.682c0.66124 0 1.2181-0.0978 1.6702-0.29352 0.45883-0.20242 0.80616-0.50929 1.0423-0.92087 0.2429-0.4116 0.37815-0.93106 0.40515-1.5586 7e-3 -0.29014 0.01-0.5468 0.01-0.76947 0-0.22266-3e-3 -0.48239-0.01-0.77928-0.0203-0.60052-0.1555-1.1031-0.40515-1.5079-0.24965-0.4116-0.60723-0.72204-1.0728-0.93121-0.46557-0.21592-1.0291-0.3235-1.6903-0.3235zm9.7839 0c-0.11471 0-0.2059 0.0302-0.27337 0.091-0.0607 0.054-0.10117 0.11802-0.12144 0.19224l-2.3787 6.4978c-7e-3 0.027-0.01 0.0572-0.01 0.091 0 0.054 0.02 0.10473 0.0605 0.15193 0.0472 0.0405 0.0979 0.0605 0.15193 0.0605h1.2449c0.11474 0 0.19568-0.0235 0.24288-0.0708 0.0473-0.054 0.0775-0.10113 0.0909-0.1416l0.38499-1.0325h2.7022l0.3948 1.0325c0.0135 0.0405 0.0437 0.0876 0.091 0.1416 0.054 0.0473 0.13133 0.0708 0.23255 0.0708h1.2454c0.0607 0 0.11094-0.02 0.15141-0.0605 0.0473-0.0472 0.0708-0.0979 0.0708-0.15193 0-0.0337-7e-3 -0.064-0.0202-0.091l-2.3683-6.4978c-0.0202-0.0742-0.0638-0.13824-0.13125-0.19224-0.0607-0.0607-0.14885-0.091-0.26355-0.091zm6.1097 0c-0.0743 0-0.13522 0.0236-0.18241 0.0708-0.0472 0.0472-0.0708 0.10767-0.0708 0.1819v6.5789c0 0.0674 0.0236 0.1279 0.0708 0.1819 0.0472 0.0473 0.10819 0.0708 0.18241 0.0708h4.6555c0.0743 0 0.13522-0.0235 0.18242-0.0708 0.0473-0.054 0.0708-0.11443 0.0708-0.1819v-1.0124c0-0.0743-0.0235-0.1347-0.0708-0.1819-0.0472-0.054-0.10819-0.0811-0.18242-0.0811h-3.0665v-5.3036c0-0.0743-0.0235-0.1347-0.0708-0.1819-0.0472-0.0472-0.1082-0.0708-0.18242-0.0708zm-14.325 1.4573h1.0118c0.44533 0 0.77934 0.1081 1.002 0.32401 0.22937 0.20917 0.35078 0.54318 0.36432 1.002 0.0135 0.18893 0.0207 0.36054 0.0207 0.51573 7e-3 0.15519 7e-3 0.31042 0 0.46561 0 0.15519-7e-3 0.3309-0.0207 0.52658-7e-3 0.31713-0.0605 0.57328-0.16175 0.76895-0.0945 0.19567-0.23944 0.34116-0.43512 0.43563-0.18892 0.0877-0.42868 0.13126-0.71882 0.13126h-1.0625zm8.9638 0.25321 0.94103 2.6717h-1.8821zm-1.6312 6.7464c-0.18663 5.3e-4 -0.33781 0.1517-0.33796 0.33848l-4e-3 4.6976c-1e-4 0.18721 0.15179 0.33898 0.339 0.339 0.18712 1.1e-4 0.33886-0.15136 0.339-0.33848l3e-3 -4.6976c1.3e-4 -0.18678-0.1513-0.3383-0.33796-0.339h-5.3e-4zm-13.298 0.22789c-0.24036-2.6e-4 -0.43529 0.45209-0.43512 0.69424 1.1e-4 0.24195 0.19496 0.43796 0.43512 0.4377 0.23995-3e-5 0.43449-0.19595 0.4346-0.4377 1.7e-4 -0.24195-0.19445-0.69421-0.4346-0.69424zm-10.92 1.4771c0.0247 0.10602-0.20901 0.0607-0.26923 0.15193l-0.16692 0.25269c-0.11051 0.16732-0.38983-0.11213-0.60151-0.11213-0.932 0-1.6924 0.76787-1.6924 1.7027 0 0.70357 0.43094 1.3122 1.0413 1.5704-0.33792 0.39609-0.49778 0.6134-0.5855 0.76171-0.0542 0.0917-0.11787 0.13189-0.0915 0.3328 0.0132 0.10045 0.12243 0.24697 0.22531 0.28525 0.10286 0.0383 0.19327 0.015 0.19327 0.015 0.0292-6e-3 0.0571-0.0161 0.0837-0.0295 0.75837-0.38242 1.2693-0.45522 1.5394-0.41134 0.64755 0.2012 0.29889 1.1583-0.51418 0.9586-0.44531-0.197-0.62964 0.30772-0.2558 0.47129 0.43604 0.22247 1.1219 0.11605 1.419-0.20103 0.29024-0.28092 0.43199-0.67888 0.36276-1.0687-0.0692-0.38976-0.40904-0.74868-0.90278-0.8289-0.24856-0.0404-0.53144-0.0255-0.8568 0.0522 0.0826-0.0978 0.0551-0.0795 0.1633-0.20257 3e-3 -3e-3 5e-3 -6e-3 7e-3 -9e-3 0.8686-0.0706 1.556-0.80775 1.556-1.6965 0-0.47928-0.19946-0.91478-0.51986-1.2252l0.16123-0.24443c0.103-0.15616 0.06-0.36614-0.0961-0.46922-0.0562-0.0371-0.12183-0.0568-0.18914-0.0563-4e-3 3e-5 -7e-3 -1.4e-4 -0.0108 0zm2.7575 0.1788c0.044 0-0.0877 0.0102-0.12713 0.0295-0.34319 0.1719-0.58846 0.37966-0.77256 0.55862l5.3e-4 -0.19741c5e-4 -0.18725-0.15123-0.33951-0.33848-0.33951h-5.3e-4c-0.18706-8e-5 -0.33879 0.15142-0.339 0.33848l-4e-3 2.7151c-3.8e-4 0.18725 0.15122 0.33931 0.33848 0.33951 0.18725 2.7e-4 0.33931-0.15122 0.33951-0.33848l3e-3 -1.8882c0.0222-0.0435 0.0522-0.0823 0.10697-0.1354 0.0808-0.0784 0.27051-0.19977 0.52865-0.34571l8e-3 0.23616c6e-3 0.15305 0.16787 0.19809 0.32091 0.19275 0.15293-5e-3 0.2724-0.13336 0.26717-0.28629l-0.0579-0.61133c-0.014-0.14764-0.42218-0.26768-0.27389-0.26768zm27.877 0.063c-0.0438 8e-5 -0.0874 0.0102-0.1266 0.0295-0.34352 0.17206-0.58893 0.38007-0.77308 0.55914l5.3e-4 -0.19792c5.3e-4 -0.18706-0.15091-0.33952-0.33797-0.33952h-5.3e-4c-0.18705-8e-5 -0.33879 0.15143-0.339 0.33849l-4e-3 2.7151c-2.7e-4 0.18726 0.15122 0.33932 0.33848 0.33952 0.18725 2.6e-4 0.33931-0.15122 0.33951-0.33848l3e-3 -1.8877c0.0223-0.0438 0.052-0.0826 0.10697-0.13591 0.0808-0.0784 0.27102-0.19977 0.52916-0.34572l8e-3 0.23565c6e-3 0.15305 0.16838 0.19861 0.32142 0.19327 0.15293-5e-3 0.2724-0.13338 0.26717-0.28629l-0.0579-0.61133c-0.014-0.14747-0.12584-0.26769-0.27388-0.26769zm-22.051 0.0227c-0.0371-2.6e-4 -0.074 8e-4 -0.11111 3e-3l-1e-3 5.3e-4c-0.30246 0.0472-0.52035 0.20716-0.66921 0.41082v-0.0465c3.7e-4 -0.18726-0.15122-0.33931-0.33848-0.33952-0.18726-2.6e-4 -0.33931 0.15123-0.33951 0.33848l-4e-3 2.7151c-3.7e-4 0.18706 0.15091 0.33903 0.33796 0.33952 0.18726 2.6e-4 0.33931-0.15123 0.33952-0.33848l3e-3 -2.0345c0.0941-0.42259 0.66981-0.51622 0.95291-0.44907 0.30311 0.0719 0.53272 0.26769 0.52865 0.64078 0 0.59309-0.0177 1.4258-9e-3 1.8448 4e-3 0.18705 0.15866 0.33518 0.34571 0.33125 0.18715-4e-3 0.33568-0.1586 0.33176-0.34572-0.0149-0.70533-8e-3 -1.2601 2e-3 -1.5798 0.0236-0.76739-0.4657-1.3148-1.0402-1.4511-0.10772-0.0255-0.21847-0.0389-0.32969-0.0398zm2.3549 2e-3c-0.12785-0.10835-0.33644 0.10751-0.34261 0.30179l5.3e-4 5.3e-4 -3e-3 2.8401c-5e-3 0.54016 0.0155 1.3783-0.0816 1.5317-0.0486 0.0767-0.10074 0.12445-0.2341 0.17001-0.13336 0.0455-0.2132 0.0743-0.52555 0.062-0.18709-7e-3 -0.34464 0.13795-0.35191 0.32505-7e-3 0.187 0.13856 0.34463 0.32556 0.35191 0.36255 0.0143 0.51882-0.0117 0.77049-0.0977 0.25166-0.0859 0.4599-0.2462 0.58808-0.44855 0.22436-0.35415 0.19846-1.9514 0.18862-1.9802-1e-3 3e-3 -2e-3 0.0322-2e-3 0.0889l3e-3 -2.8427c-2e-3 -0.2094-0.16783-0.30636-0.33538-0.30283zm-4.6684 0.0202c-0.18705 1e-3 -0.33879 0.15143-0.339 0.33848v0.0382c0 0.37041-0.65462-0.37052-1.0511-0.37052-0.93201 0-1.6924 0.76787-1.6924 1.7027 0 0.93489 0.7604 1.7022 1.6924 1.7022 0.39463 0 0.75854-0.13774 1.047-0.36742v0.01c-3.7e-4 0.18725 0.15122 0.33931 0.33848 0.33951 0.18706 9e-5 0.3388-0.15142 0.339-0.33848l4e-3 -2.7151c3e-4 -0.18705-0.15091-0.34047-0.33796-0.33951zm8.5664 0c-0.18705 1e-3 -0.33879 0.15143-0.33899 0.33848v0.0382c0 0.37037-0.65462-0.37052-1.0511-0.37052-0.932 0-1.6924 0.76787-1.6924 1.7027 0 0.93489 0.7604 1.7022 1.6924 1.7022 0.39464 0 0.75858-0.13774 1.047-0.36742v0.01c-3.7e-4 0.18725 0.15123 0.33931 0.33848 0.33951 0.18706 9e-5 0.3388-0.15142 0.339-0.33848l4e-3 -2.7151c2.9e-4 -0.18705-0.15091-0.34047-0.33797-0.33951zm13.215 0c-0.18705 1e-3 -0.33879 0.15143-0.339 0.33848v0.0382c0 0.37041-0.65461-0.37052-1.0511-0.37052-0.93202 0-1.6924 0.76787-1.6924 1.7027 0 0.93489 0.76038 1.7022 1.6924 1.7022 0.39464 0 0.75855-0.13774 1.047-0.36742v0.01c-2.6e-4 0.18725 0.15122 0.33931 0.33848 0.33951 0.18705 9e-5 0.33879-0.15142 0.339-0.33848l4e-3 -2.7151c2.7e-4 -0.18705-0.15091-0.34048-0.33796-0.33951zm-6.288 6e-3c-0.93202 0-1.6924 0.76787-1.6924 1.7027 0 0.93489 0.76038 1.7022 1.6924 1.7022s1.6924-0.76733 1.6924-1.7022c0-0.93487-0.76039-1.7027-1.6924-1.7027zm-3.3662 0.03c-0.27526 0-0.45093 0.0483-0.65112 0.14418-0.19602 0.0918-0.34381 0.21263-0.4439 0.36277-0.10005 0.14597-0.15038 0.30239-0.15038 0.46922 0 0.25441 0.0838 0.45857 0.25063 0.61289 0.171 0.15431 0.37154 0.26906 0.72605 0.34416 0.24606 0.0501 0.43144 0.0978 0.55656 0.14366 0.12512 0.0417 0.21093 0.09 0.25683 0.14418 0.0501 0.0542 0.0749 0.1253 0.0749 0.2129 0 0.11678-0.0543 0.20822-0.16278 0.27492-0.10843 0.0667-0.24607 0.10025-0.41289 0.10025-0.11678 0-0.22295-0.0188-0.31885-0.0563-0.16011-0.0665-0.31787-0.16106-0.47542-0.31265-0.16734-0.14859-0.76449-4e-3 -0.48834 0.46923 0.10428 0.12513 0.26272 0.23534 0.47542 0.33124 0.2127 0.0917 0.47578 0.13798 0.78858 0.13798 0.45877 0 0.75328-0.0919 1.0077-0.27544 0.2544-0.18351 0.38137-0.42119 0.38137-0.71313 0-0.2419-0.0873-0.44657-0.26251-0.6134-0.171-0.16683-0.39492-0.28977-0.7953-0.36897-0.2419-0.0459-0.4232-0.0916-0.54415-0.13746-0.12095-0.0459-0.20222-0.0942-0.24392-0.14418-0.0418-0.0501-0.0625-0.11458-0.0625-0.19378 0-0.10844 0.0417-0.19582 0.12506-0.26252 0.0876-0.0667 0.20846-0.10025 0.36277-0.10025 0.11261 0 0.21064 0.0167 0.29404 0.0501s0.15651 0.0791 0.21911 0.13746c0.21603 0.3499 0.89891 0.16841 0.68161-0.30024-0.10426-0.12512-0.25815-0.23124-0.46251-0.31884-0.20436-0.0917-0.44661-0.13798-0.72605-0.13798zm-19.434 0.64751c0 0.0733 0.25214-0.036 0.21342 0.0227l-0.10904 0.16536c-0.10299 0.15619-0.06 0.36616 0.0961 0.46922 0.15612 0.10304 0.36658 0.06 0.46974-0.0961l0.11989-0.18191c0.12375-0.18775 0.22479 0.39976 0.22479 0.64596 0 0.57133-0.4519 1.0242-1.0149 1.0242s-1.0144-0.4529-1.0144-1.0242c0-0.57135 0.45139-1.0253 1.0144-1.0253zm5.9175 0c0.56302 0 1.0144 0.45391 1.0144 1.0253 0 0.57133-0.45138 1.0242-1.0144 1.0242-0.56301 0-1.0149-0.4529-1.0149-1.0242 0-0.57135 0.45192-1.0253 1.0149-1.0253zm8.5664 0c0.56303 0 1.0149 0.45391 1.0149 1.0253 0 0.57133-0.45189 1.0242-1.0149 1.0242-0.56301 0-1.0144-0.4529-1.0144-1.0242 0-0.57135 0.4514-1.0253 1.0144-1.0253zm8.3168 0c0.56302 0 1.0149 0.45391 1.0149 1.0253 0 0.57133-0.45191 1.0242-1.0149 1.0242s-1.0144-0.4529-1.0144-1.0242c0-0.57135 0.45139-1.0253 1.0144-1.0253zm4.8979 0c0.56302 0 1.0144 0.45391 1.0144 1.0253 0 0.57133-0.45139 1.0242-1.0144 1.0242s-1.0149-0.4529-1.0149-1.0242c0-0.57135 0.4519-1.0253 1.0149-1.0253z" style="stroke-width:.031038"/>
 </g>
</svg>
