<?xml version="1.0" encoding="UTF-8" standalone="no"?>
<!-- Created with Inkscape (http://www.inkscape.org/) -->

<svg
   width="47.625mm"
   height="11.801971mm"
   viewBox="0 0 47.624999 11.801971"
   version="1.1"
   id="svg1400"
   sodipodi:docname="tendal_granja_solar_logo_horizontal_SVG.svg"
   inkscape:version="1.1 (c68e22c387, 2021-05-23)"
   xmlns:inkscape="http://www.inkscape.org/namespaces/inkscape"
   xmlns:sodipodi="http://sodipodi.sourceforge.net/DTD/sodipodi-0.dtd"
   xmlns="http://www.w3.org/2000/svg"
   xmlns:svg="http://www.w3.org/2000/svg">
  <sodipodi:namedview
     id="namedview60"
     pagecolor="#ffffff"
     bordercolor="#666666"
     borderopacity="1.0"
     inkscape:pageshadow="2"
     inkscape:pageopacity="0.0"
     inkscape:pagecheckerboard="0"
     inkscape:document-units="mm"
     showgrid="false"
     fit-margin-top="0"
     fit-margin-left="0"
     fit-margin-right="0"
     fit-margin-bottom="0"
     inkscape:zoom="1.9307703"
     inkscape:cx="227.62936"
     inkscape:cy="68.107532"
     inkscape:window-width="2560"
     inkscape:window-height="1377"
     inkscape:window-x="-8"
     inkscape:window-y="-8"
     inkscape:window-maximized="1"
     inkscape:current-layer="svg1400" />
  <defs
     id="defs1397" />
  <g
     id="layer1"
     transform="matrix(0.32848643,0,0,0.32848643,-11.575925,-39.359035)">
    <path
       id="path28662"
       style="fill:none;stroke:#000000;stroke-width:2.20359;stroke-linecap:square"
       d="m 52.863484,141.51155 a 7.0705855,7.0705855 0 0 1 1.323229,-9.16373 7.0705855,7.0705855 0 0 1 9.258766,0.003 7.0705855,7.0705855 0 0 1 1.318015,9.16446" />
    <text
       xml:space="preserve"
       style="font-style:normal;font-weight:normal;font-size:20.1756px;line-height:1.25;font-family:sans-serif;letter-spacing:1.54681px;fill:#000000;fill-opacity:1;stroke:none;stroke-width:0.0618722"
       x="92.089592"
       y="138.0289"
       id="text28556"><tspan
         id="tspan28554"
         x="92.089592"
         y="138.0289"
         style="font-style:normal;font-variant:normal;font-weight:bold;font-stretch:normal;font-size:20.1756px;font-family:Rubik;-inkscape-font-specification:'Rubik Bold';fill:#000000;fill-opacity:1;stroke:none;stroke-width:0.0618722">TENDAL</tspan></text>
    <text
       xml:space="preserve"
       style="font-style:normal;font-weight:normal;font-size:5.66894px;line-height:1.25;font-family:sans-serif;fill:#000000;fill-opacity:1;stroke:none;stroke-width:0.0618722"
       x="162.53601"
       y="150.85759"
       id="text28560"><tspan
         id="tspan28558"
         x="162.53601"
         y="150.85759"
         style="font-style:normal;font-variant:normal;font-weight:500;font-stretch:normal;font-family:Rubik;-inkscape-font-specification:'Rubik Medium';fill:#000000;stroke-width:0.0618722">® </tspan></text>
    <g
       id="g28604"
       style="stroke:none"
       transform="matrix(0.23384798,0,0,0.23384798,-1602.135,608.9768)">
      <path
         style="color:#000000;font-style:normal;font-variant:normal;font-weight:normal;font-stretch:normal;font-size:medium;line-height:normal;font-family:sans-serif;font-variant-ligatures:normal;font-variant-position:normal;font-variant-caps:normal;font-variant-numeric:normal;font-variant-alternates:normal;font-variant-east-asian:normal;font-feature-settings:normal;font-variation-settings:normal;text-indent:0;text-align:start;text-decoration:none;text-decoration-line:none;text-decoration-style:solid;text-decoration-color:#000000;letter-spacing:normal;word-spacing:normal;text-transform:none;writing-mode:lr-tb;direction:ltr;text-orientation:mixed;dominant-baseline:auto;baseline-shift:baseline;text-anchor:start;white-space:normal;shape-padding:0;shape-margin:0;inline-size:0;clip-rule:nonzero;display:inline;overflow:visible;visibility:visible;isolation:auto;mix-blend-mode:normal;color-interpolation:sRGB;color-interpolation-filters:linearRGB;solid-color:#000000;solid-opacity:1;vector-effect:none;fill:#000000;fill-opacity:1;fill-rule:nonzero;stroke:none;stroke-width:0.97795;stroke-linecap:round;stroke-linejoin:miter;stroke-miterlimit:4;stroke-dasharray:none;stroke-dashoffset:0;stroke-opacity:1;color-rendering:auto;image-rendering:auto;shape-rendering:auto;text-rendering:auto;enable-background:accumulate;stop-color:#000000"
         d="m 7272.8026,-1989.8555 c -0.9617,0.01 -1.8564,0.4943 -2.3863,1.297 l -5.6595,8.5742 c -0.878,1.3314 -0.5109,3.1224 0.82,4.0009 1.3308,0.8784 3.1216,0.5122 4.0009,-0.818 l 5.6595,-8.5745 c 0.878,-1.3312 0.5109,-3.1221 -0.82,-4.0008 -0.4787,-0.3164 -1.0408,-0.483 -1.6146,-0.4788 z"
         id="path28562" />
      <path
         style="color:#000000;font-style:normal;font-variant:normal;font-weight:normal;font-stretch:normal;font-size:medium;line-height:normal;font-family:sans-serif;font-variant-ligatures:normal;font-variant-position:normal;font-variant-caps:normal;font-variant-numeric:normal;font-variant-alternates:normal;font-variant-east-asian:normal;font-feature-settings:normal;font-variation-settings:normal;text-indent:0;text-align:start;text-decoration:none;text-decoration-line:none;text-decoration-style:solid;text-decoration-color:#000000;letter-spacing:normal;word-spacing:normal;text-transform:none;writing-mode:lr-tb;direction:ltr;text-orientation:mixed;dominant-baseline:auto;baseline-shift:baseline;text-anchor:start;white-space:normal;shape-padding:0;shape-margin:0;inline-size:0;clip-rule:nonzero;display:inline;overflow:visible;visibility:visible;isolation:auto;mix-blend-mode:normal;color-interpolation:sRGB;color-interpolation-filters:linearRGB;solid-color:#000000;solid-opacity:1;vector-effect:none;fill:#000000;fill-opacity:1;fill-rule:nonzero;stroke:none;stroke-width:0.97795;stroke-linecap:round;stroke-linejoin:round;stroke-miterlimit:4;stroke-dasharray:none;stroke-dashoffset:0;stroke-opacity:1;color-rendering:auto;image-rendering:auto;shape-rendering:auto;text-rendering:auto;enable-background:accumulate;stop-color:#000000"
         d="m 7262.7442,-1963.1067 c -0.8122,0.015 -1.5804,0.3708 -2.1169,0.9809 -4.5157,5.1355 -6.3773,7.5933 -7.302,9.1569 -0.4624,0.7819 -1.0076,1.1273 -0.783,2.8399 0.1122,0.8563 1.0459,2.1045 1.9229,2.4308 0.8768,0.3262 1.6457,0.1258 1.6457,0.1258 0.2489,-0.05 0.4901,-0.1341 0.7172,-0.248 6.4646,-3.2599 10.8201,-3.8807 13.123,-3.5067 5.52,1.7151 2.5459,9.8722 -4.385,8.1697 -3.796,-1.6793 -5.3688,2.6219 -2.182,4.0163 3.717,1.8965 9.5662,0.9903 12.0992,-1.7126 2.4741,-2.3947 3.68,-5.786 3.0899,-9.1086 -0.59,-3.3225 -3.4867,-6.3818 -7.6955,-7.0656 -2.1188,-0.3442 -4.5305,-0.2164 -7.304,0.446 0.7041,-0.8332 0.4693,-0.6801 1.3919,-1.7292 1.0533,-1.198 0.9362,-3.0231 -0.2617,-4.0765 -0.5409,-0.4755 -1.2397,-0.7321 -1.9597,-0.7191 z"
         id="path28564" />
      <path
         style="color:#000000;font-style:normal;font-variant:normal;font-weight:normal;font-stretch:normal;font-size:medium;line-height:normal;font-family:sans-serif;font-variant-ligatures:normal;font-variant-position:normal;font-variant-caps:normal;font-variant-numeric:normal;font-variant-alternates:normal;font-variant-east-asian:normal;font-feature-settings:normal;font-variation-settings:normal;text-indent:0;text-align:start;text-decoration:none;text-decoration-line:none;text-decoration-style:solid;text-decoration-color:#000000;letter-spacing:normal;word-spacing:normal;text-transform:none;writing-mode:lr-tb;direction:ltr;text-orientation:mixed;dominant-baseline:auto;baseline-shift:baseline;text-anchor:start;white-space:normal;shape-padding:0;shape-margin:0;inline-size:0;clip-rule:nonzero;display:inline;overflow:visible;visibility:visible;isolation:auto;mix-blend-mode:normal;color-interpolation:sRGB;color-interpolation-filters:linearRGB;solid-color:#000000;solid-opacity:1;vector-effect:none;fill:#000000;fill-opacity:1;fill-rule:nonzero;stroke:none;stroke-width:0.97795;stroke-linecap:round;stroke-linejoin:round;stroke-miterlimit:4;stroke-dasharray:none;stroke-dashoffset:0;stroke-opacity:1;paint-order:markers fill stroke;color-rendering:auto;image-rendering:auto;shape-rendering:auto;text-rendering:auto;enable-background:accumulate;stop-color:#000000"
         d="m 7314.3079,-1987.3617 c -7.9449,0 -14.4258,6.5436 -14.4258,14.5128 0,7.9694 6.4809,14.513 14.4258,14.513 7.9448,0 14.4276,-6.5436 14.4276,-14.513 0,-7.9692 -6.4828,-14.5128 -14.4276,-14.5128 z m 0,5.7764 c 4.7994,0 8.6491,3.866 8.6491,8.7364 0,4.8703 -3.8497,8.7345 -8.6491,8.7345 -4.7994,0 -8.6493,-3.8642 -8.6493,-8.7345 0,-4.8704 3.8499,-8.7364 8.6493,-8.7364 z"
         id="path28566" />
      <path
         style="color:#000000;font-style:normal;font-variant:normal;font-weight:normal;font-stretch:normal;font-size:medium;line-height:normal;font-family:sans-serif;font-variant-ligatures:normal;font-variant-position:normal;font-variant-caps:normal;font-variant-numeric:normal;font-variant-alternates:normal;font-variant-east-asian:normal;font-feature-settings:normal;font-variation-settings:normal;text-indent:0;text-align:start;text-decoration:none;text-decoration-line:none;text-decoration-style:solid;text-decoration-color:#000000;letter-spacing:normal;word-spacing:normal;text-transform:none;writing-mode:lr-tb;direction:ltr;text-orientation:mixed;dominant-baseline:auto;baseline-shift:baseline;text-anchor:start;white-space:normal;shape-padding:0;shape-margin:0;inline-size:0;clip-rule:nonzero;display:inline;overflow:visible;visibility:visible;isolation:auto;mix-blend-mode:normal;color-interpolation:sRGB;color-interpolation-filters:linearRGB;solid-color:#000000;solid-opacity:1;vector-effect:none;fill:#000000;fill-opacity:1;fill-rule:nonzero;stroke:none;stroke-width:0.97795;stroke-linecap:round;stroke-linejoin:round;stroke-miterlimit:4;stroke-dasharray:none;stroke-dashoffset:0;stroke-opacity:1;color-rendering:auto;image-rendering:auto;shape-rendering:auto;text-rendering:auto;enable-background:accumulate;stop-color:#000000"
         d="m 7326.1612,-1987.4141 a 2.8884941,2.8884941 0 0 0 -2.8941,2.8844 l -0.034,23.1466 a 2.8884941,2.8884941 0 0 0 2.8844,2.892 2.8884941,2.8884941 0 0 0 2.892,-2.8842 l 0.035,-23.1446 a 2.8884941,2.8884941 0 0 0 -2.8844,-2.8942 z"
         id="path28568" />
      <path
         style="color:#000000;font-style:normal;font-variant:normal;font-weight:normal;font-stretch:normal;font-size:medium;line-height:normal;font-family:sans-serif;font-variant-ligatures:normal;font-variant-position:normal;font-variant-caps:normal;font-variant-numeric:normal;font-variant-alternates:normal;font-variant-east-asian:normal;font-feature-settings:normal;font-variation-settings:normal;text-indent:0;text-align:start;text-decoration:none;text-decoration-line:none;text-decoration-style:solid;text-decoration-color:#000000;letter-spacing:normal;word-spacing:normal;text-transform:none;writing-mode:lr-tb;direction:ltr;text-orientation:mixed;dominant-baseline:auto;baseline-shift:baseline;text-anchor:start;white-space:normal;shape-padding:0;shape-margin:0;inline-size:0;clip-rule:nonzero;display:inline;overflow:visible;visibility:visible;isolation:auto;mix-blend-mode:normal;color-interpolation:sRGB;color-interpolation-filters:linearRGB;solid-color:#000000;solid-opacity:1;vector-effect:none;fill:#000000;fill-opacity:1;fill-rule:nonzero;stroke:none;stroke-width:0.97795;stroke-linecap:round;stroke-linejoin:round;stroke-miterlimit:4;stroke-dasharray:none;stroke-dashoffset:0;stroke-opacity:1;paint-order:markers fill stroke;color-rendering:auto;image-rendering:auto;shape-rendering:auto;text-rendering:auto;enable-background:accumulate;stop-color:#000000"
         d="m 7387.3336,-1987.3617 c -7.9447,0 -14.4275,6.5436 -14.4275,14.5128 0,7.9694 6.4828,14.513 14.4275,14.513 7.9449,0 14.4258,-6.5436 14.4258,-14.513 0,-7.9692 -6.4809,-14.5128 -14.4258,-14.5128 z m 0,5.7764 c 4.7995,0 8.6493,3.866 8.6493,8.7364 0,4.8703 -3.8498,8.7345 -8.6493,8.7345 -4.7993,0 -8.649,-3.8642 -8.649,-8.7345 0,-4.8704 3.8497,-8.7364 8.649,-8.7364 z"
         id="path28570" />
      <path
         style="color:#000000;font-style:normal;font-variant:normal;font-weight:normal;font-stretch:normal;font-size:medium;line-height:normal;font-family:sans-serif;font-variant-ligatures:normal;font-variant-position:normal;font-variant-caps:normal;font-variant-numeric:normal;font-variant-alternates:normal;font-variant-east-asian:normal;font-feature-settings:normal;font-variation-settings:normal;text-indent:0;text-align:start;text-decoration:none;text-decoration-line:none;text-decoration-style:solid;text-decoration-color:#000000;letter-spacing:normal;word-spacing:normal;text-transform:none;writing-mode:lr-tb;direction:ltr;text-orientation:mixed;dominant-baseline:auto;baseline-shift:baseline;text-anchor:start;white-space:normal;shape-padding:0;shape-margin:0;inline-size:0;clip-rule:nonzero;display:inline;overflow:visible;visibility:visible;isolation:auto;mix-blend-mode:normal;color-interpolation:sRGB;color-interpolation-filters:linearRGB;solid-color:#000000;solid-opacity:1;vector-effect:none;fill:#000000;fill-opacity:1;fill-rule:nonzero;stroke:none;stroke-width:0.97795;stroke-linecap:round;stroke-linejoin:round;stroke-miterlimit:4;stroke-dasharray:none;stroke-dashoffset:0;stroke-opacity:1;color-rendering:auto;image-rendering:auto;shape-rendering:auto;text-rendering:auto;enable-background:accumulate;stop-color:#000000"
         d="m 7399.1852,-1987.4141 a 2.8884941,2.8884941 0 0 0 -2.8941,2.8844 l -0.033,23.1466 a 2.8884941,2.8884941 0 0 0 2.8843,2.892 2.8884941,2.8884941 0 0 0 2.892,-2.8842 l 0.035,-23.1446 a 2.8884941,2.8884941 0 0 0 -2.8844,-2.8942 z"
         id="path28572" />
      <path
         style="color:#000000;font-style:normal;font-variant:normal;font-weight:normal;font-stretch:normal;font-size:medium;line-height:normal;font-family:sans-serif;font-variant-ligatures:normal;font-variant-position:normal;font-variant-caps:normal;font-variant-numeric:normal;font-variant-alternates:normal;font-variant-east-asian:normal;font-feature-settings:normal;font-variation-settings:normal;text-indent:0;text-align:start;text-decoration:none;text-decoration-line:none;text-decoration-style:solid;text-decoration-color:#000000;letter-spacing:normal;word-spacing:normal;text-transform:none;writing-mode:lr-tb;direction:ltr;text-orientation:mixed;dominant-baseline:auto;baseline-shift:baseline;text-anchor:start;white-space:normal;shape-padding:0;shape-margin:0;inline-size:0;clip-rule:nonzero;display:inline;overflow:visible;visibility:visible;isolation:auto;mix-blend-mode:normal;color-interpolation:sRGB;color-interpolation-filters:linearRGB;solid-color:#000000;solid-opacity:1;vector-effect:none;fill:#000000;fill-opacity:1;fill-rule:nonzero;stroke:none;stroke-width:0.97795;stroke-linecap:round;stroke-linejoin:round;stroke-miterlimit:4;stroke-dasharray:none;stroke-dashoffset:0;stroke-opacity:1;color-rendering:auto;image-rendering:auto;shape-rendering:auto;text-rendering:auto;enable-background:accumulate;stop-color:#000000"
         d="m 7336.334,-1987.3558 a 2.8884941,2.8884941 0 0 0 -2.8921,2.8843 l -0.034,23.1446 a 2.8884941,2.8884941 0 0 0 2.8843,2.8922 2.8884941,2.8884941 0 0 0 2.8922,-2.8843 l 0.034,-23.1447 a 2.8884941,2.8884941 0 0 0 -2.8845,-2.8921 z"
         id="path28574" />
      <path
         style="color:#000000;font-style:normal;font-variant:normal;font-weight:normal;font-stretch:normal;font-size:medium;line-height:normal;font-family:sans-serif;font-variant-ligatures:normal;font-variant-position:normal;font-variant-caps:normal;font-variant-numeric:normal;font-variant-alternates:normal;font-variant-east-asian:normal;font-feature-settings:normal;font-variation-settings:normal;text-indent:0;text-align:start;text-decoration:none;text-decoration-line:none;text-decoration-style:solid;text-decoration-color:#000000;letter-spacing:normal;word-spacing:normal;text-transform:none;writing-mode:lr-tb;direction:ltr;text-orientation:mixed;dominant-baseline:auto;baseline-shift:baseline;text-anchor:start;white-space:normal;shape-padding:0;shape-margin:0;inline-size:0;clip-rule:nonzero;display:inline;overflow:visible;visibility:visible;isolation:auto;mix-blend-mode:normal;color-interpolation:sRGB;color-interpolation-filters:linearRGB;solid-color:#000000;solid-opacity:1;vector-effect:none;fill:#000000;fill-opacity:1;fill-rule:nonzero;stroke:none;stroke-width:0.97795;stroke-linecap:round;stroke-linejoin:round;stroke-miterlimit:4;stroke-dasharray:none;stroke-dashoffset:0;stroke-opacity:1;color-rendering:auto;image-rendering:auto;shape-rendering:auto;text-rendering:auto;enable-background:accumulate;stop-color:#000000"
         d="m 7363.0358,-1985.0086 -0.027,24.2082 c -0.043,4.6045 0.1322,11.7501 -0.6958,13.0574 -0.4142,0.6535 -0.8598,1.0615 -1.9966,1.4499 -1.1368,0.3883 -1.8141,0.6321 -4.4767,0.5272 -1.5948,-0.063 -2.9386,1.179 -3.0006,2.7739 -0.062,1.594 1.1798,2.9366 2.7739,2.9987 3.0905,0.1219 4.4248,-0.1004 6.5701,-0.8336 2.1453,-0.7326 3.918,-2.0994 5.0107,-3.8244 2.1857,-3.4502 1.5915,-20.7375 1.5915,-16.0948 v -0.023 l 0.029,-24.2314 c -0.027,-3.57 -5.6732,-3.3207 -5.7785,-0.01 z"
         id="path28576" />
      <path
         style="color:#000000;font-style:normal;font-variant:normal;font-weight:normal;font-stretch:normal;font-size:medium;line-height:normal;font-family:sans-serif;font-variant-ligatures:normal;font-variant-position:normal;font-variant-caps:normal;font-variant-numeric:normal;font-variant-alternates:normal;font-variant-east-asian:normal;font-feature-settings:normal;font-variation-settings:normal;text-indent:0;text-align:start;text-decoration:none;text-decoration-line:none;text-decoration-style:solid;text-decoration-color:#000000;letter-spacing:normal;word-spacing:normal;text-transform:none;writing-mode:lr-tb;direction:ltr;text-orientation:mixed;dominant-baseline:auto;baseline-shift:baseline;text-anchor:start;white-space:normal;shape-padding:0;shape-margin:0;inline-size:0;clip-rule:nonzero;display:inline;overflow:visible;visibility:visible;isolation:auto;mix-blend-mode:normal;color-interpolation:sRGB;color-interpolation-filters:linearRGB;solid-color:#000000;solid-opacity:1;vector-effect:none;fill:#000000;fill-opacity:1;fill-rule:nonzero;stroke:none;stroke-width:0.97795;stroke-linecap:round;stroke-linejoin:round;stroke-miterlimit:4;stroke-dasharray:none;stroke-dashoffset:0;stroke-opacity:1;color-rendering:auto;image-rendering:auto;shape-rendering:auto;text-rendering:auto;enable-background:accumulate;stop-color:#000000"
         d="m 7344.9232,-1987.569 c -8.3428,1.3007 -9.1321,12.6685 -6.8905,14.1541 1.3218,0.8917 0.1777,-3.1186 1.0705,-4.4395 0.202,-4.2891 5.6479,-5.2463 8.2317,-4.6335 2.5839,0.6127 4.5407,2.2816 4.506,5.462 0,5.0557 -0.1523,12.1514 -0.081,15.7237 0.034,1.5945 1.3538,2.8597 2.9483,2.8262 1.5953,-0.033 2.8615,-1.3532 2.8281,-2.9483 -0.1271,-6.0125 -0.068,-10.7404 0.014,-13.4656 0.2014,-6.5415 -3.9706,-11.2096 -8.8683,-12.3709 -1.2243,-0.2903 -2.4931,-0.3932 -3.7585,-0.3102 z"
         id="path28578" />
      <ellipse
         style="fill:#000000;fill-opacity:0.984449;stroke:none;stroke-width:0.729759;paint-order:markers fill stroke"
         id="ellipse28580"
         cx="7365.7935"
         cy="-1996.53"
         rx="3.7051122"
         ry="3.7328379" />
      <path
         style="color:#000000;font-style:normal;font-variant:normal;font-weight:normal;font-stretch:normal;font-size:medium;line-height:normal;font-family:sans-serif;font-variant-ligatures:normal;font-variant-position:normal;font-variant-caps:normal;font-variant-numeric:normal;font-variant-alternates:normal;font-variant-east-asian:normal;font-feature-settings:normal;font-variation-settings:normal;text-indent:0;text-align:start;text-decoration:none;text-decoration-line:none;text-decoration-style:solid;text-decoration-color:#000000;letter-spacing:normal;word-spacing:normal;text-transform:none;writing-mode:lr-tb;direction:ltr;text-orientation:mixed;dominant-baseline:auto;baseline-shift:baseline;text-anchor:start;white-space:normal;shape-padding:0;shape-margin:0;inline-size:0;clip-rule:nonzero;display:inline;overflow:visible;visibility:visible;isolation:auto;mix-blend-mode:normal;color-interpolation:sRGB;color-interpolation-filters:linearRGB;solid-color:#000000;solid-opacity:1;vector-effect:none;fill:#000000;fill-opacity:1;fill-rule:nonzero;stroke:none;stroke-width:0.97795;stroke-linecap:round;stroke-linejoin:round;stroke-miterlimit:4;stroke-dasharray:none;stroke-dashoffset:0;stroke-opacity:1;paint-order:markers fill stroke;color-rendering:auto;image-rendering:auto;shape-rendering:auto;text-rendering:auto;enable-background:accumulate;stop-color:#000000"
         d="m 7499.9789,-1987.3617 c -7.9449,0 -14.4257,6.5436 -14.4257,14.5128 0,7.9694 6.4808,14.513 14.4257,14.513 7.9449,0 14.4277,-6.5436 14.4277,-14.513 0,-7.9692 -6.4828,-14.5128 -14.4277,-14.5128 z m 0,5.7764 c 4.7994,0 8.6493,3.866 8.6493,8.7364 0,4.8703 -3.8499,8.7345 -8.6493,8.7345 -4.7994,0 -8.6492,-3.8642 -8.6492,-8.7345 0,-4.8704 3.8498,-8.7364 8.6492,-8.7364 z"
         id="path28582" />
      <path
         style="color:#000000;font-style:normal;font-variant:normal;font-weight:normal;font-stretch:normal;font-size:medium;line-height:normal;font-family:sans-serif;font-variant-ligatures:normal;font-variant-position:normal;font-variant-caps:normal;font-variant-numeric:normal;font-variant-alternates:normal;font-variant-east-asian:normal;font-feature-settings:normal;font-variation-settings:normal;text-indent:0;text-align:start;text-decoration:none;text-decoration-line:none;text-decoration-style:solid;text-decoration-color:#000000;letter-spacing:normal;word-spacing:normal;text-transform:none;writing-mode:lr-tb;direction:ltr;text-orientation:mixed;dominant-baseline:auto;baseline-shift:baseline;text-anchor:start;white-space:normal;shape-padding:0;shape-margin:0;inline-size:0;clip-rule:nonzero;display:inline;overflow:visible;visibility:visible;isolation:auto;mix-blend-mode:normal;color-interpolation:sRGB;color-interpolation-filters:linearRGB;solid-color:#000000;solid-opacity:1;vector-effect:none;fill:#000000;fill-opacity:1;fill-rule:nonzero;stroke:none;stroke-width:0.97795;stroke-linecap:round;stroke-linejoin:round;stroke-miterlimit:4;stroke-dasharray:none;stroke-dashoffset:0;stroke-opacity:1;color-rendering:auto;image-rendering:auto;shape-rendering:auto;text-rendering:auto;enable-background:accumulate;stop-color:#000000"
         d="m 7511.8323,-1987.4141 a 2.8884941,2.8884941 0 0 0 -2.894,2.8844 l -0.034,23.1466 a 2.8884941,2.8884941 0 0 0 2.8843,2.892 2.8884941,2.8884941 0 0 0 2.8922,-2.8842 l 0.035,-23.1446 a 2.8884941,2.8884941 0 0 0 -2.8843,-2.8942 z"
         id="path28584" />
      <path
         style="color:#000000;font-style:normal;font-variant:normal;font-weight:normal;font-stretch:normal;font-size:medium;line-height:normal;font-family:sans-serif;font-variant-ligatures:normal;font-variant-position:normal;font-variant-caps:normal;font-variant-numeric:normal;font-variant-alternates:normal;font-variant-east-asian:normal;font-feature-settings:normal;font-variation-settings:normal;text-indent:0;text-align:start;text-decoration:none;text-decoration-line:none;text-decoration-style:solid;text-decoration-color:#000000;letter-spacing:normal;word-spacing:normal;text-transform:none;writing-mode:lr-tb;direction:ltr;text-orientation:mixed;dominant-baseline:auto;baseline-shift:baseline;text-anchor:start;white-space:normal;shape-padding:0;shape-margin:0;inline-size:0;clip-rule:nonzero;display:inline;overflow:visible;visibility:visible;isolation:auto;mix-blend-mode:normal;color-interpolation:sRGB;color-interpolation-filters:linearRGB;solid-color:#000000;solid-opacity:1;vector-effect:none;fill:#000000;fill-opacity:1;fill-rule:nonzero;stroke:none;stroke-width:0.97795;stroke-linecap:round;stroke-linejoin:round;stroke-miterlimit:4;stroke-dasharray:none;stroke-dashoffset:0;stroke-opacity:1;paint-order:markers fill stroke;color-rendering:auto;image-rendering:auto;shape-rendering:auto;text-rendering:auto;enable-background:accumulate;stop-color:#000000"
         d="m 7458.2293,-1987.3617 c -7.9449,0 -14.4276,6.5436 -14.4276,14.5128 0,7.9694 6.4827,14.513 14.4276,14.513 7.9449,0 14.4257,-6.5436 14.4257,-14.513 0,-7.9692 -6.4808,-14.5128 -14.4257,-14.5128 z m 0,5.7764 c 4.7994,0 8.6493,3.866 8.6493,8.7364 0,4.8703 -3.8499,8.7345 -8.6493,8.7345 -4.7994,0 -8.6491,-3.8642 -8.6491,-8.7345 0,-4.8704 3.8497,-8.7364 8.6491,-8.7364 z"
         id="path28586" />
      <path
         style="color:#000000;font-style:normal;font-variant:normal;font-weight:normal;font-stretch:normal;font-size:medium;line-height:normal;font-family:sans-serif;font-variant-ligatures:normal;font-variant-position:normal;font-variant-caps:normal;font-variant-numeric:normal;font-variant-alternates:normal;font-variant-east-asian:normal;font-feature-settings:normal;font-variation-settings:normal;text-indent:0;text-align:start;text-decoration:none;text-decoration-line:none;text-decoration-style:solid;text-decoration-color:#000000;letter-spacing:normal;word-spacing:normal;text-transform:none;writing-mode:lr-tb;direction:ltr;text-orientation:mixed;dominant-baseline:auto;baseline-shift:baseline;text-anchor:start;white-space:normal;shape-padding:0;shape-margin:0;inline-size:0;clip-rule:nonzero;display:inline;overflow:visible;visibility:visible;isolation:auto;mix-blend-mode:normal;color-interpolation:sRGB;color-interpolation-filters:linearRGB;solid-color:#000000;solid-opacity:1;vector-effect:none;fill:#000000;fill-opacity:1;fill-rule:nonzero;stroke:none;stroke-width:0.97795;stroke-linecap:round;stroke-linejoin:round;stroke-miterlimit:4;stroke-dasharray:none;stroke-dashoffset:0;stroke-opacity:1;color-rendering:auto;image-rendering:auto;shape-rendering:auto;text-rendering:auto;enable-background:accumulate;stop-color:#000000"
         d="m 7479.1604,-2002.2061 c -1.595,-10e-4 -2.8889,1.2911 -2.8902,2.8862 l -0.03,37.8593 c -9e-4,1.5958 1.2924,2.89 2.8882,2.8902 1.5951,9e-4 2.889,-1.2912 2.8902,-2.8863 l 0.027,-37.8592 c 9e-4,-1.5951 -1.2912,-2.889 -2.8863,-2.8902 z"
         id="path28588" />
      <g
         aria-label="s"
         id="g28592"
         style="font-style:normal;font-weight:normal;font-size:53.7328px;line-height:1.25;font-family:sans-serif;fill:#000000;fill-opacity:1;stroke:none;stroke-width:1.32368"
         transform="matrix(0.99246816,0,0,0.99246816,-170.14414,324.5566)">
        <path
           d="m 7657.5673,-2300.189 c -2.6867,0 -4.9435,-0.394 -6.7704,-1.1821 -1.8269,-0.8239 -3.1881,-1.7732 -4.0837,-2.8479 -2.3719,-4.0628 2.7539,-5.3062 4.1912,-4.0299 1.3532,1.3021 2.7085,2.1152 4.0837,2.6866 0.8239,0.3224 1.7374,0.4836 2.7404,0.4836 1.4329,0 2.615,-0.2866 3.5463,-0.8597 0.9314,-0.5731 1.3971,-1.3612 1.3971,-2.3642 0,-0.7523 -0.2149,-1.3613 -0.6448,-1.827 -0.3941,-0.4657 -1.1284,-0.8776 -2.203,-1.2358 -1.0747,-0.3941 -2.6688,-0.806 -4.7823,-1.2359 -3.0449,-0.6448 -4.7684,-1.6299 -6.2371,-2.9553 -1.4329,-1.3254 -2.1493,-3.0807 -2.1493,-5.2658 0,-1.4329 0.4299,-2.7762 1.2896,-4.0299 0.8597,-1.2896 2.1314,-2.3284 3.815,-3.1165 1.7195,-0.8239 3.2281,-1.2359 5.5923,-1.2359 2.4001,0 4.4777,0.394 6.233,1.1821 1.7553,0.7523 3.0808,1.6657 3.9763,2.7404 1.8664,4.0253 -4.0014,5.5845 -5.8569,2.5792 -0.5373,-0.5015 -1.1642,-0.8956 -1.8806,-1.1822 -0.7165,-0.2865 -1.5583,-0.4298 -2.5255,-0.4298 -1.3254,0 -2.3642,0.2866 -3.1165,0.8597 -0.7164,0.5731 -1.0746,1.3254 -1.0746,2.2568 0,0.6806 0.1791,1.2358 0.5373,1.6657 0.3582,0.4299 1.0567,0.8418 2.0956,1.2359 1.0388,0.394 2.597,0.788 4.6747,1.1821 3.4389,0.6806 5.3595,1.7373 6.8282,3.1702 1.5045,1.4329 2.2568,3.1881 2.2568,5.2658 0,2.5075 -1.0926,4.5494 -3.2777,6.1256 -2.1851,1.5761 -4.7147,2.3642 -8.6551,2.3642 z"
           style="font-style:normal;font-variant:normal;font-weight:500;font-stretch:normal;font-family:Rubik;-inkscape-font-specification:'Rubik Medium';fill:#000000;stroke:none;stroke-width:1.32368"
           id="path28590" />
      </g>
      <path
         style="color:#000000;font-style:normal;font-variant:normal;font-weight:normal;font-stretch:normal;font-size:medium;line-height:normal;font-family:sans-serif;font-variant-ligatures:normal;font-variant-position:normal;font-variant-caps:normal;font-variant-numeric:normal;font-variant-alternates:normal;font-variant-east-asian:normal;font-feature-settings:normal;font-variation-settings:normal;text-indent:0;text-align:start;text-decoration:none;text-decoration-line:none;text-decoration-style:solid;text-decoration-color:#000000;letter-spacing:normal;word-spacing:normal;text-transform:none;writing-mode:lr-tb;direction:ltr;text-orientation:mixed;dominant-baseline:auto;baseline-shift:baseline;text-anchor:start;white-space:normal;shape-padding:0;shape-margin:0;inline-size:0;clip-rule:nonzero;display:inline;overflow:visible;visibility:visible;isolation:auto;mix-blend-mode:normal;color-interpolation:sRGB;color-interpolation-filters:linearRGB;solid-color:#000000;solid-opacity:1;vector-effect:none;fill:#000000;fill-opacity:1;fill-rule:nonzero;stroke:none;stroke-width:0.97795;stroke-linecap:round;stroke-linejoin:round;stroke-miterlimit:4;stroke-dasharray:none;stroke-dashoffset:0;stroke-opacity:1;paint-order:markers fill stroke;color-rendering:auto;image-rendering:auto;shape-rendering:auto;text-rendering:auto;enable-background:accumulate;stop-color:#000000"
         d="m 7263.8666,-1987.3617 c -7.9448,0 -14.4257,6.5436 -14.4257,14.5128 0,7.9694 6.4809,14.513 14.4257,14.513 7.9448,0 14.4277,-6.5436 14.4277,-14.513 0,-7.9692 -6.4829,-14.5128 -14.4277,-14.5128 z m 0,5.7764 c 4.7994,0 8.6491,3.866 8.6491,8.7364 0,4.8703 -3.8497,8.7345 -8.6491,8.7345 -4.7994,0 -8.6492,-3.8642 -8.6492,-8.7345 0,-4.8704 3.8498,-8.7364 8.6492,-8.7364 z"
         id="path28594" />
      <path
         style="color:#000000;font-style:normal;font-variant:normal;font-weight:normal;font-stretch:normal;font-size:medium;line-height:normal;font-family:sans-serif;font-variant-ligatures:normal;font-variant-position:normal;font-variant-caps:normal;font-variant-numeric:normal;font-variant-alternates:normal;font-variant-east-asian:normal;font-feature-settings:normal;font-variation-settings:normal;text-indent:0;text-align:start;text-decoration:none;text-decoration-line:none;text-decoration-style:solid;text-decoration-color:#000000;letter-spacing:normal;word-spacing:normal;text-transform:none;writing-mode:lr-tb;direction:ltr;text-orientation:mixed;dominant-baseline:auto;baseline-shift:baseline;text-anchor:start;white-space:normal;shape-padding:0;shape-margin:0;inline-size:0;clip-rule:nonzero;display:inline;overflow:visible;visibility:visible;isolation:auto;mix-blend-mode:normal;color-interpolation:sRGB;color-interpolation-filters:linearRGB;solid-color:#000000;solid-opacity:1;vector-effect:none;fill:#000000;fill-opacity:1;fill-rule:nonzero;stroke:none;stroke-width:0.97795;stroke-linecap:round;stroke-linejoin:round;stroke-miterlimit:4;stroke-dasharray:none;stroke-dashoffset:0;stroke-opacity:1;color-rendering:auto;image-rendering:auto;shape-rendering:auto;text-rendering:auto;enable-background:accumulate;stop-color:#000000"
         d="m 7523.3049,-1987.3558 a 2.8884941,2.8884941 0 0 0 -2.892,2.8843 l -0.035,23.1446 a 2.8884941,2.8884941 0 0 0 2.8844,2.8922 2.8884941,2.8884941 0 0 0 2.8941,-2.8843 l 0.033,-23.1447 a 2.8884941,2.8884941 0 0 0 -2.8844,-2.8921 z"
         id="path28596" />
      <path
         style="color:#000000;font-style:normal;font-variant:normal;font-weight:normal;font-stretch:normal;font-size:medium;line-height:normal;font-family:sans-serif;font-variant-ligatures:normal;font-variant-position:normal;font-variant-caps:normal;font-variant-numeric:normal;font-variant-alternates:normal;font-variant-east-asian:normal;font-feature-settings:normal;font-variation-settings:normal;text-indent:0;text-align:start;text-decoration:none;text-decoration-line:none;text-decoration-style:solid;text-decoration-color:#000000;letter-spacing:normal;word-spacing:normal;text-transform:none;writing-mode:lr-tb;direction:ltr;text-orientation:mixed;dominant-baseline:auto;baseline-shift:baseline;text-anchor:start;white-space:normal;shape-padding:0;shape-margin:0;inline-size:0;clip-rule:nonzero;display:inline;overflow:visible;visibility:visible;isolation:auto;mix-blend-mode:normal;color-interpolation:sRGB;color-interpolation-filters:linearRGB;solid-color:#000000;solid-opacity:1;vector-effect:none;fill:#000000;fill-opacity:1;fill-rule:nonzero;stroke:none;stroke-width:0.97795;stroke-linecap:round;stroke-linejoin:round;stroke-miterlimit:4;stroke-dasharray:none;stroke-dashoffset:0;stroke-opacity:1;color-rendering:auto;image-rendering:auto;shape-rendering:auto;text-rendering:auto;enable-background:accumulate;stop-color:#000000"
         d="m 7533.8576,-1987.7939 c -0.3752,0 -0.746,0.082 -1.0816,0.25 -4.7339,2.3711 -7.2872,5.5459 -8.9709,7.1784 -1.6839,1.6324 -2.2599,1.7798 -2.7177,3.136 -0.4171,1.237 0.2478,2.5779 1.4849,2.9947 1.2364,0.4174 2.5771,-0.2465 2.9948,-1.4828 0.4976,-1.474 0.5231,-1.8776 1.5275,-2.8513 0.689,-0.6681 2.3082,-1.7043 4.5087,-2.9484 l 0.069,2.012 c 0.047,1.3046 1.4321,1.6911 2.7367,1.6456 1.3036,-0.046 2.324,-1.1389 2.2794,-2.4424 l -0.4938,-5.2103 c -0.1193,-1.2585 -1.0736,-2.2685 -2.3377,-2.2815 z"
         id="path28598" />
      <path
         style="color:#000000;font-style:normal;font-variant:normal;font-weight:normal;font-stretch:normal;font-size:medium;line-height:normal;font-family:sans-serif;font-variant-ligatures:normal;font-variant-position:normal;font-variant-caps:normal;font-variant-numeric:normal;font-variant-alternates:normal;font-variant-east-asian:normal;font-feature-settings:normal;font-variation-settings:normal;text-indent:0;text-align:start;text-decoration:none;text-decoration-line:none;text-decoration-style:solid;text-decoration-color:#000000;letter-spacing:normal;word-spacing:normal;text-transform:none;writing-mode:lr-tb;direction:ltr;text-orientation:mixed;dominant-baseline:auto;baseline-shift:baseline;text-anchor:start;white-space:normal;shape-padding:0;shape-margin:0;inline-size:0;clip-rule:nonzero;display:inline;overflow:visible;visibility:visible;isolation:auto;mix-blend-mode:normal;color-interpolation:sRGB;color-interpolation-filters:linearRGB;solid-color:#000000;solid-opacity:1;vector-effect:none;fill:#000000;fill-opacity:1;fill-rule:nonzero;stroke:none;stroke-width:0.97795;stroke-linecap:round;stroke-linejoin:round;stroke-miterlimit:4;stroke-dasharray:none;stroke-dashoffset:0;stroke-opacity:1;color-rendering:auto;image-rendering:auto;shape-rendering:auto;text-rendering:auto;enable-background:accumulate;stop-color:#000000"
         d="m 7285.6638,-1987.8929 a 2.8884941,2.8884941 0 0 0 -2.892,2.8843 l -0.035,23.1446 a 2.8884941,2.8884941 0 0 0 2.8844,2.8922 2.8884941,2.8884941 0 0 0 2.8941,-2.8843 l 0.033,-23.1447 a 2.8884941,2.8884941 0 0 0 -2.8844,-2.8921 z"
         id="path28600" />
      <path
         style="color:#000000;font-style:normal;font-variant:normal;font-weight:normal;font-stretch:normal;font-size:medium;line-height:normal;font-family:sans-serif;font-variant-ligatures:normal;font-variant-position:normal;font-variant-caps:normal;font-variant-numeric:normal;font-variant-alternates:normal;font-variant-east-asian:normal;font-feature-settings:normal;font-variation-settings:normal;text-indent:0;text-align:start;text-decoration:none;text-decoration-line:none;text-decoration-style:solid;text-decoration-color:#000000;letter-spacing:normal;word-spacing:normal;text-transform:none;writing-mode:lr-tb;direction:ltr;text-orientation:mixed;dominant-baseline:auto;baseline-shift:baseline;text-anchor:start;white-space:normal;shape-padding:0;shape-margin:0;inline-size:0;clip-rule:nonzero;display:inline;overflow:visible;visibility:visible;isolation:auto;mix-blend-mode:normal;color-interpolation:sRGB;color-interpolation-filters:linearRGB;solid-color:#000000;solid-opacity:1;vector-effect:none;fill:#000000;fill-opacity:1;fill-rule:nonzero;stroke:none;stroke-width:0.97795;stroke-linecap:round;stroke-linejoin:round;stroke-miterlimit:4;stroke-dasharray:none;stroke-dashoffset:0;stroke-opacity:1;color-rendering:auto;image-rendering:auto;shape-rendering:auto;text-rendering:auto;enable-background:accumulate;stop-color:#000000"
         d="m 7296.2165,-1988.331 c -0.3752,0 -0.746,0.082 -1.0816,0.25 -4.7339,2.3711 -7.2872,5.5459 -8.9709,7.1784 -1.6839,1.6324 -2.2599,1.7798 -2.7177,3.136 -0.4171,1.237 0.2478,2.5779 1.4849,2.9947 1.2364,0.4174 2.5771,-0.2465 2.9948,-1.4828 0.4976,-1.474 0.5231,-1.8776 1.5275,-2.8513 0.689,-0.6681 2.3082,-1.7043 4.5087,-2.9484 l 0.069,2.012 c 0.047,1.3046 1.4321,1.6911 2.7367,1.6456 1.3036,-0.046 2.324,-1.1389 2.2794,-2.4424 l -0.4938,-5.2103 c -0.1193,-1.2585 -1.0736,-2.2685 -2.3377,-2.2815 z"
         id="path28602" />
    </g>
    <path
       style="fill:none;stroke:#000000;stroke-width:1.23401;stroke-linecap:round;stroke-linejoin:round;stroke-miterlimit:4;stroke-dasharray:none;stroke-opacity:1"
       d="m 58.902561,127.22405 v -1.32216"
       id="path28606" />
    <path
       style="fill:none;stroke:#000000;stroke-width:1.23401;stroke-linecap:round;stroke-linejoin:round;stroke-miterlimit:4;stroke-dasharray:none;stroke-opacity:1"
       d="m 58.902561,123.96212 v -3.52575"
       id="path28608" />
    <path
       style="fill:none;stroke:#000000;stroke-width:1.23401;stroke-linecap:round;stroke-linejoin:round;stroke-miterlimit:4;stroke-dasharray:none;stroke-opacity:1"
       d="m 43.80302,128.95569 1.145014,0.66107"
       id="path28610" />
    <path
       style="fill:none;stroke:#000000;stroke-width:1.23401;stroke-linecap:round;stroke-linejoin:round;stroke-miterlimit:4;stroke-dasharray:none;stroke-opacity:1"
       d="m 46.66553,130.60834 3.053377,1.76289"
       id="path28612" />
    <path
       style="fill:none;stroke:#000000;stroke-width:1.23401;stroke-linecap:round;stroke-linejoin:round;stroke-miterlimit:4;stroke-dasharray:none;stroke-opacity:1"
       d="m 50.29422,122.67296 1.101821,1.90835"
       id="path28614" />
    <path
       style="fill:none;stroke:#000000;stroke-width:1.23401;stroke-linecap:round;stroke-linejoin:round;stroke-miterlimit:4;stroke-dasharray:none;stroke-opacity:1"
       d="m 52.363681,126.25739 1.322153,2.29005"
       id="path28616" />
    <path
       style="fill:none;stroke:#000000;stroke-width:1.23401;stroke-linecap:round;stroke-linejoin:round;stroke-miterlimit:4;stroke-dasharray:none;stroke-opacity:1"
       d="m 54.563301,120.9268 0.34219,1.27706"
       id="path28618" />
    <path
       style="fill:none;stroke:#000000;stroke-width:1.23401;stroke-linecap:round;stroke-linejoin:round;stroke-miterlimit:4;stroke-dasharray:none;stroke-opacity:1"
       d="m 55.418787,124.11945 0.912499,3.4056"
       id="path28620" />
    <path
       style="fill:none;stroke:#000000;stroke-width:1.23401;stroke-linecap:round;stroke-linejoin:round;stroke-miterlimit:4;stroke-dasharray:none;stroke-opacity:1"
       d="m 51.429902,130.21494 -0.9349,-0.9349"
       id="path28622" />
    <path
       style="fill:none;stroke:#000000;stroke-width:1.23401;stroke-linecap:round;stroke-linejoin:round;stroke-miterlimit:4;stroke-dasharray:none;stroke-opacity:1"
       d="m 49.055036,127.84007 -2.493054,-2.49305"
       id="path28624" />
    <path
       style="fill:none;stroke:#000000;stroke-width:1.23401;stroke-linecap:round;stroke-linejoin:round;stroke-miterlimit:4;stroke-dasharray:none;stroke-opacity:1"
       d="m 42.167324,133.09709 2.128508,0.57034"
       id="path28626" />
    <path
       style="fill:none;stroke:#000000;stroke-width:1.23401;stroke-linecap:round;stroke-linejoin:round;stroke-miterlimit:4;stroke-dasharray:none;stroke-opacity:1"
       d="m 46.090872,134.14838 2.554205,0.6844"
       id="path28628" />
    <path
       style="fill:none;stroke:#000000;stroke-width:1.23401;stroke-linecap:round;stroke-linejoin:round;stroke-miterlimit:4;stroke-dasharray:none;stroke-opacity:1"
       d="m 41.387862,137.41329 h 1.322153"
       id="path28630" />
    <path
       style="fill:none;stroke:#000000;stroke-width:1.23401;stroke-linecap:round;stroke-linejoin:round;stroke-miterlimit:4;stroke-dasharray:none;stroke-opacity:1"
       d="m 44.69321,137.41329 h 3.525725"
       id="path28632" />
    <path
       style="fill:none;stroke:#000000;stroke-width:1.23401;stroke-linecap:round;stroke-linejoin:round;stroke-miterlimit:4;stroke-dasharray:none;stroke-opacity:1"
       d="m 73.869837,129.03207 -1.14499,0.66106"
       id="path28634" />
    <path
       style="fill:none;stroke:#000000;stroke-width:1.23401;stroke-linecap:round;stroke-linejoin:round;stroke-miterlimit:4;stroke-dasharray:none;stroke-opacity:1"
       d="m 71.007328,130.68472 -3.053377,1.76288"
       id="path28636" />
    <path
       style="fill:none;stroke:#000000;stroke-width:1.23401;stroke-linecap:round;stroke-linejoin:round;stroke-miterlimit:4;stroke-dasharray:none;stroke-opacity:1"
       d="m 67.452324,122.77448 -1.101775,1.90834"
       id="path28638" />
    <path
       style="fill:none;stroke:#000000;stroke-width:1.23401;stroke-linecap:round;stroke-linejoin:round;stroke-miterlimit:4;stroke-dasharray:none;stroke-opacity:1"
       d="m 65.396426,126.3354 -1.322153,2.29003"
       id="path28640" />
    <path
       style="fill:none;stroke:#000000;stroke-width:1.23401;stroke-linecap:round;stroke-linejoin:round;stroke-miterlimit:4;stroke-dasharray:none;stroke-opacity:1"
       d="m 63.23228,120.96244 -0.342213,1.27711"
       id="path28642" />
    <path
       style="fill:none;stroke:#000000;stroke-width:1.23401;stroke-linecap:round;stroke-linejoin:round;stroke-miterlimit:4;stroke-dasharray:none;stroke-opacity:1"
       d="m 62.376794,124.15514 -0.912498,3.40558"
       id="path28644" />
    <path
       style="fill:none;stroke:#000000;stroke-width:1.23401;stroke-linecap:round;stroke-linejoin:round;stroke-miterlimit:4;stroke-dasharray:none;stroke-opacity:1"
       d="m 66.287878,130.30231 0.934877,-0.93491"
       id="path28646" />
    <path
       style="fill:none;stroke:#000000;stroke-width:1.23401;stroke-linecap:round;stroke-linejoin:round;stroke-miterlimit:4;stroke-dasharray:none;stroke-opacity:1"
       d="m 68.699902,127.89026 2.493054,-2.49306"
       id="path28648" />
    <path
       style="fill:none;stroke:#000000;stroke-width:1.23401;stroke-linecap:round;stroke-linejoin:round;stroke-miterlimit:4;stroke-dasharray:none;stroke-opacity:1"
       d="m 75.521435,133.12826 -2.12853,0.57034"
       id="path28650" />
    <path
       style="fill:none;stroke:#000000;stroke-width:1.23401;stroke-linecap:round;stroke-linejoin:round;stroke-miterlimit:4;stroke-dasharray:none;stroke-opacity:1"
       d="m 71.555514,134.19094 -2.554205,0.6844"
       id="path28652" />
    <path
       style="fill:none;stroke:#000000;stroke-width:1.23401;stroke-linecap:round;stroke-linejoin:round;stroke-miterlimit:4;stroke-dasharray:none;stroke-opacity:1"
       d="M 76.060642,137.41329 H 74.738489"
       id="path28654" />
    <path
       style="fill:none;stroke:#000000;stroke-width:1.23401;stroke-linecap:round;stroke-linejoin:round;stroke-miterlimit:4;stroke-dasharray:none;stroke-opacity:1"
       d="M 72.931522,137.41329 H 69.40582"
       id="path28656" />
    <path
       style="fill:none;stroke:#000000;stroke-width:2.42395;stroke-linecap:butt;stroke-linejoin:round;stroke-miterlimit:4;stroke-dasharray:none;stroke-opacity:1"
       d="m 35.731571,144.27392 7.694323,-3.41261 7.6943,3.41261 7.694324,-3.41261 7.694346,3.41261 7.6943,-3.41261 7.694324,3.41261"
       id="path28658" />
    <path
       style="fill:none;stroke:#000000;stroke-width:2.42395;stroke-linecap:butt;stroke-linejoin:round;stroke-miterlimit:4;stroke-dasharray:none;stroke-opacity:1"
       d="m 35.731571,151.45874 7.694323,-3.41263 7.6943,3.41263 7.694324,-3.41263 7.694346,3.41263 7.6943,-3.41263 7.694324,3.41263"
       id="path28660" />
  </g>
</svg>
