<?xml version="1.0" encoding="UTF-8" standalone="no"?>
<svg
   viewBox="0 0 44 35"
   version="1.1"
   id="svg5"
   sodipodi:docname="tendal-sun.svg"
   width="44"
   height="35"
   inkscape:version="1.2 (dc2aedaf03, 2022-05-15)"
   xmlns:inkscape="http://www.inkscape.org/namespaces/inkscape"
   xmlns:sodipodi="http://sodipodi.sourceforge.net/DTD/sodipodi-0.dtd"
   xmlns="http://www.w3.org/2000/svg"
   xmlns:svg="http://www.w3.org/2000/svg">
  <sodipodi:namedview
     id="namedview7"
     pagecolor="#ffffff"
     bordercolor="#666666"
     borderopacity="1.0"
     inkscape:showpageshadow="2"
     inkscape:pageopacity="0.0"
     inkscape:pagecheckerboard="0"
     inkscape:deskcolor="#d1d1d1"
     showgrid="false"
     inkscape:zoom="9.8333333"
     inkscape:cx="26.033898"
     inkscape:cy="13.474576"
     inkscape:window-width="1278"
     inkscape:window-height="1368"
     inkscape:window-x="-7"
     inkscape:window-y="0"
     inkscape:window-maximized="0"
     inkscape:current-layer="svg5" />
  <defs
     id="defs1284" />
  <g
     id="layer1"
     transform="matrix(0.86650538,0.49581264,-0.50027711,0.85877267,301.12327,272.80405)"
     style="stroke-width:1.00394">
    <path
       id="path3435-5-0"
       class="tendal-sun"
       d="m -368.63423,-101.15188 c -0.4446,4.1e-4 -0.80559,0.36395 -0.80726,0.81158 l -0.007,4.648238 c 4.1e-4,0.447633 0.3603,0.810569 0.80489,0.811587 0.44611,0.0011 0.80846,-0.36248 0.81013,-0.811564 l 0.007,-4.648261 c -4.2e-4,-0.44912 -0.36169,-0.81268 -0.80777,-0.81158 z m -5.65302,0.64518 c -0.0798,-0.003 -0.15897,0.007 -0.23598,0.0278 -0.43089,0.11688 -0.68721,0.563522 -0.57163,0.997176 l 0.44454,1.68082 c 0.11375,0.435714 0.55827,0.695245 0.99054,0.577919 0.43142,-0.11685 0.68688,-0.564147 0.57067,-0.998099 l -0.44454,-1.680841 c -0.0906,-0.347625 -0.39681,-0.593225 -0.75363,-0.604845 z m 11.29363,0.0481 c -0.35552,0.0131 -0.66191,0.25759 -0.75348,0.603857 l -0.45227,1.680834 c -0.1172,0.435119 0.13907,0.882948 0.57159,0.998124 0.43079,0.114883 0.8733,-0.144067 0.98839,-0.577877 l 0.45226,-1.679865 c 0.11722,-0.435114 -0.13905,-0.882963 -0.57157,-0.998123 -0.0767,-0.0206 -0.15557,-0.0296 -0.23491,-0.0269 z m -16.88127,2.253786 c -0.15201,-0.0053 -0.30194,0.03223 -0.43374,0.108742 -0.38652,0.224754 -0.51949,0.72184 -0.29672,1.110628 l 1.43858,2.51353 c 0.22168,0.389915 0.71545,0.524421 1.10266,0.300033 0.38619,-0.2251 0.51872,-0.722103 0.29577,-1.110619 l -1.43761,-2.514508 c -0.1062,-0.187529 -0.2832,-0.323852 -0.49035,-0.379827 -0.0583,-0.01601 -0.1173,-0.02526 -0.17763,-0.02789 z m 22.39906,0.135758 c -0.0605,0.0026 -0.12035,0.01181 -0.17859,0.02802 -0.20667,0.05499 -0.38331,0.190452 -0.49147,0.37594 l -1.44773,2.513539 c -0.22341,0.389541 -0.0915,0.887773 0.29545,1.111588 0.38556,0.225037 0.88033,0.09231 1.10449,-0.296162 l 1.44484,-2.51355 c 0.22392,-0.388758 0.0924,-0.886779 -0.29351,-1.11158 -0.1317,-0.07657 -0.2815,-0.113429 -0.43345,-0.10766 z m -15.72397,1.772047 c -0.0703,8.3e-5 -0.14026,0.0092 -0.20825,0.02782 -0.43101,0.115303 -0.68799,0.560396 -0.57448,0.994274 l 1.18831,4.487679 c 0.11546,0.433653 0.55783,0.690077 0.98862,0.573107 0.42985,-0.116476 0.68628,-0.561265 0.57257,-0.994267 l -1.18829,-4.487687 c -0.0945,-0.354569 -0.41382,-0.600531 -0.77846,-0.600983 z m 9.10654,0.04328 c -0.36656,1.3e-5 -0.68703,0.248926 -0.78117,0.605765 l -1.20129,4.487671 c -0.11473,0.434169 0.14147,0.878517 0.57262,0.993268 0.42961,0.115142 0.87161,-0.140878 0.98837,-0.573118 l 1.20032,-4.487661 c 0.11747,-0.433974 -0.13759,-0.881256 -0.56877,-0.99811 -0.0685,-0.01862 -0.13906,-0.02793 -0.21006,-0.02795 z m -20.70151,1.571982 c -0.21441,1.45e-4 -0.41987,0.08661 -0.57146,0.239494 -0.31447,0.317253 -0.3152,0.829861 -0.002,1.147131 l 3.25776,3.285755 c 0.31509,0.318741 0.82719,0.318723 1.14323,2.7e-5 0.31443,-0.317294 0.31517,-0.829881 0.002,-1.147166 l -3.25872,-3.285725 c -0.15123,-0.152825 -0.35639,-0.239357 -0.57077,-0.239454 z m 32.2383,0.06856 c -0.21383,-1.6e-4 -0.4188,0.08471 -0.57049,0.236612 l -3.26824,3.285656 c -0.317,0.317735 -0.31774,0.834248 -0.002,1.151974 0.31508,0.318729 0.82814,0.318709 1.14418,2e-5 l 3.26824,-3.285684 c 0.31699,-0.317715 0.31773,-0.83423 0.002,-1.151945 -0.15204,-0.152622 -0.35882,-0.23752 -0.57363,-0.236568 z m -16.08817,0.664292 c -0.44459,10e-4 -0.80561,0.36395 -0.80726,0.811579 l -0.003,1.74333 c 4.1e-4,0.44763 0.36031,0.810577 0.80491,0.811575 0.44608,0.0012 0.80843,-0.362462 0.81013,-0.811561 l 0.003,-1.743343 c -4.2e-4,-0.449127 -0.36172,-0.812666 -0.80779,-0.811579 z m -8.52851,0.469193 c -0.15229,-0.0065 -0.30265,0.03187 -0.43472,0.108674 -0.38618,0.2251 -0.51873,0.72212 -0.29577,1.110631 l 1.72718,3.015501 c 0.22168,0.389913 0.71546,0.523467 1.10267,0.299063 0.38618,-0.2251 0.51876,-0.722114 0.29577,-1.110615 l -1.72717,-3.018398 c -0.10678,-0.185905 -0.28317,-0.321723 -0.4894,-0.376942 -0.0581,-0.01597 -0.11818,-0.02531 -0.17856,-0.02784 z m 17.06027,0.102037 c -0.30009,-0.01314 -0.5823,0.143071 -0.73313,0.404778 l -1.7321,3.019338 c -0.22406,0.388495 -0.0931,0.885473 0.29255,1.110608 0.38584,0.224866 0.87973,0.09165 1.10354,-0.297112 l 1.73592,-3.017411 c 0.22343,-0.389528 0.0915,-0.887799 -0.29542,-1.11158 -0.11284,-0.06608 -0.24085,-0.102939 -0.37137,-0.10871 z m -28.27412,3.451807 c -0.0793,-0.0025 -0.15822,0.0053 -0.235,0.02593 -0.20697,0.0562 -0.3832,0.193337 -0.4905,0.37987 -0.22342,0.389518 -0.0904,0.887769 0.2964,1.111595 l 1.49343,0.870233 c 0.38556,0.225029 0.88031,0.0923 1.10448,-0.296166 0.22408,-0.388516 0.0929,-0.885495 -0.29255,-1.110615 l -1.49821,-0.870233 c -0.11509,-0.06756 -0.2448,-0.105834 -0.37805,-0.110563 z m 39.30196,0.100384 c -0.13309,0.004 -0.26389,0.04165 -0.37927,0.108751 l -1.49976,0.874096 c -0.3862,0.225105 -0.51874,0.723063 -0.29577,1.111585 0.22301,0.388502 0.71647,0.520247 1.1027,0.295214 l 1.50072,-0.870171 c 0.38617,-0.225108 0.51874,-0.722096 0.29578,-1.110621 -0.14836,-0.260166 -0.42633,-0.416861 -0.72432,-0.407707 z m -30.56845,0.327613 c -0.21364,3.4e-4 -0.41825,0.08649 -0.56955,0.23849 -0.31639,0.31762 -0.31712,0.832419 -0.002,1.150045 l 1.22072,1.231796 c 0.31462,0.316159 0.82381,0.316118 1.1394,-4.4e-5 0.31698,-0.317721 0.31773,-0.833284 0.002,-1.151 l -1.22164,-1.230838 c -0.15089,-0.152002 -0.35528,-0.238147 -0.56889,-0.238482 z m 21.89291,0.116522 c -0.21441,1.45e-4 -0.41983,0.08555 -0.57148,0.238464 l -1.22521,1.230808 c -0.31446,0.317288 -0.3152,0.83083 -0.002,1.148125 0.31508,0.318721 0.82718,0.318709 1.1432,2.7e-5 l 1.22524,-1.231752 c 0.31384,-0.317169 0.31456,-0.829982 0.002,-1.147168 -0.15152,-0.153064 -0.35697,-0.238662 -0.57174,-0.238479 z m -26.90956,1.632533 c -0.0705,-2.44e-4 -0.14185,0.0092 -0.21018,0.02794 -0.20694,0.05617 -0.38244,0.192932 -0.48952,0.379796 -0.22344,0.389539 -0.0916,0.886837 0.29542,1.110624 l 3.9936,2.325132 c 0.38657,0.224386 0.8807,0.08981 1.10351,-0.299994 0.22345,-0.389533 0.0905,-0.886825 -0.29635,-1.110625 l -3.99264,-2.321284 c -0.12267,-0.07214 -0.26172,-0.110012 -0.40385,-0.110548 z m 31.86194,0.102168 c -0.14189,-2.12e-4 -0.28108,0.03738 -0.40414,0.108685 l -4.00032,2.324082 c -0.38618,0.2251 -0.51777,0.723074 -0.29481,1.111578 0.22305,0.387871 0.71571,0.519612 1.10171,0.295214 l 4.00033,-2.320245 c 0.38616,-0.225095 0.5187,-0.722089 0.29577,-1.110622 -0.10612,-0.187213 -0.28252,-0.324606 -0.48943,-0.38078 -0.0681,-0.01875 -0.1383,-0.02789 -0.20913,-0.028 z m -37.72128,3.17863 c -0.37677,-0.01483 -0.71426,0.235299 -0.81265,0.601935 -0.11749,0.433946 0.13671,0.881238 0.56774,0.998139 l 2.78677,0.749077 c 0.42959,0.115149 0.87161,-0.140863 0.98836,-0.573115 0.11746,-0.434237 -0.13731,-0.881657 -0.5688,-0.998089 l -2.78294,-0.749085 c -0.0583,-0.01605 -0.11809,-0.02624 -0.17856,-0.02889 z m 43.59318,0.04174 c -0.0606,0.0027 -0.12105,0.01189 -0.17959,0.02795 l -2.7851,0.751929 c -0.42947,0.117018 -0.68443,0.561534 -0.57067,0.994251 0.11379,0.433802 0.5547,0.691862 0.98576,0.57697 l 2.78989,-0.751943 c 0.43137,-0.116826 0.68689,-0.564167 0.57067,-0.998099 -0.0974,-0.366626 -0.43417,-0.615808 -0.81096,-0.60099 z m -38.47694,1.34393 c -0.37042,-0.0066 -0.69765,0.241789 -0.79454,0.601946 -0.11747,0.433959 0.13673,0.881234 0.56775,0.998127 l 3.34242,0.898127 c 0.43085,0.117646 0.87452,-0.138898 0.9912,-0.573149 0.11471,-0.433868 -0.14094,-0.87906 -0.5716,-0.994292 l -3.34144,-0.902942 c -0.063,-0.01702 -0.12865,-0.02676 -0.19382,-0.02793 z m 33.28411,0.05609 c -0.0602,0.0026 -0.12023,0.01175 -0.17866,0.02688 l -3.34501,0.902886 c -0.42983,0.116606 -0.68531,0.561269 -0.5716,0.994274 0.11375,0.435735 0.55814,0.694372 0.99051,0.576955 l 3.34405,-0.902902 c 0.42946,-0.117007 0.68542,-0.561569 0.57165,-0.994262 -0.0961,-0.36778 -0.43266,-0.618859 -0.81096,-0.603865 z m -39.46011,4.246939 c -0.44608,-0.0012 -0.80942,0.362409 -0.81107,0.811576 -0.003,0.450646 0.36107,0.816555 0.80874,0.815403 l 1.73153,2.3e-5 c 0.44609,-0.001 0.80675,-0.366326 0.80629,-0.81541 -4e-4,-0.447635 -0.35928,-0.810599 -0.80393,-0.811573 z m 4.32648,1e-5 c -0.44611,-0.0012 -0.80943,0.362413 -0.81107,0.811565 -0.003,0.450652 0.36108,0.816572 0.80871,0.81543 l 4.613,4.1e-5 c 0.44761,0.0012 0.81157,-0.364715 0.81108,-0.815408 -4.2e-4,-0.449143 -0.36261,-0.812709 -0.80873,-0.811567 z m 32.34632,2.85e-4 c -0.44612,-0.0012 -0.80942,0.362394 -0.81107,0.811558 -0.003,0.45066 0.36108,0.816584 0.80871,0.815444 l 4.61301,4.2e-5 c 0.44759,0.0012 0.81058,-0.364782 0.81012,-0.815408 -4.2e-4,-0.449162 -0.36161,-0.812757 -0.80779,-0.811576 z m 6.97968,9.1e-5 c -0.44612,-0.0012 -0.80852,0.362365 -0.81013,0.811575 -0.003,0.450652 0.36019,0.816537 0.80774,0.815423 l 1.72774,1.2e-5 c 0.4476,0.0012 0.81156,-0.364718 0.81108,-0.815401 -4.2e-4,-0.449168 -0.36261,-0.812719 -0.80874,-0.811584 z"
       style="stroke-width:1.00394" />
  </g>
</svg>
