<?xml version="1.0" encoding="UTF-8" standalone="no"?>
<svg
   width="128"
   height="157.78702"
   viewBox="0 0 128 157.78702"
   version="1.1"
   id="svg1"
   xmlns="http://www.w3.org/2000/svg"
   xmlns:svg="http://www.w3.org/2000/svg">
  <defs
     id="defs1" />
  <g
     id="layer1"
     transform="translate(-141.02291,-45.77294)">
    <path
       id="path519-6"
       style="fill:#000000;fill-opacity:1;fill-rule:nonzero;stroke:none;stroke-width:0.589394"
       d="m 212.87014,45.773534 v 8.69e-4 c -0.0756,0.0033 -0.15496,0.0098 -0.23433,0.02154 -1.25329,0.186255 -2.10293,1.4611 -1.89733,2.849126 l 2.11729,14.169658 h 0.001 c 0.0378,0.401374 0.13228,0.803705 0.34771,1.176778 0.73399,1.28489 2.37052,1.731861 3.65556,0.998059 0.37417,-0.213959 0.67464,-0.50496 0.89801,-0.84091 v 0.0068 l 9.14683,-11.027857 c 0.89688,-1.078586 0.83376,-2.61026 -0.14362,-3.420681 -0.97474,-0.810421 -2.49222,-0.593374 -3.38872,0.485212 l -6.58431,7.937846 -1.51786,-10.159296 c -0.19275,-1.300726 -1.24535,-2.237772 -2.40982,-2.196421 z m -14.81082,0.05178 c -1.07717,0.05378 -2.03036,0.93606 -2.2337,2.152382 l -1.69058,10.17226 -6.42671,-8.01211 c -0.87722,-1.095681 -2.38941,-1.340375 -3.37927,-0.548232 -0.98948,0.792158 -1.0817,2.322128 -0.20409,3.417223 l 8.96389,11.176365 v -0.0017 c 0.223,0.335962 0.52044,0.627529 0.89197,0.842652 1.28126,0.740881 2.91968,0.303156 3.66085,-0.978193 0.21543,-0.372473 0.32882,-0.776825 0.35149,-1.179371 v 0.0017 l 2.34936,-14.132535 c 0.23055,-1.383314 -0.59339,-2.675302 -1.84403,-2.884529 -0.0794,-0.01323 -0.15874,-0.02154 -0.23433,-0.02608 -0.0718,-0.0033 -0.14363,-0.0033 -0.21544,0 z m -25.2185,10.535725 c -0.22677,0.0013 -0.4577,0.03878 -0.68182,0.117468 h -0.001 c -1.19622,0.41907 -1.7896,1.832706 -1.32586,3.156492 l 3.42047,9.728479 -9.49265,-3.924022 c -1.296,-0.536938 -2.73978,-0.02305 -3.22544,1.148276 -0.48567,1.17113 0.17007,2.555944 1.46683,3.093468 l 13.24043,5.472051 7.5e-4,-0.0017 c 0.35528,0.187426 0.75818,0.299678 1.18753,0.309089 1.47968,0.03175 2.705,-1.141223 2.73675,-2.621186 0,-0.430265 -0.0869,-0.838707 -0.26078,-1.203544 v -0.0033 L 175.1529,58.116507 c -0.37796,-1.075566 -1.33569,-1.760684 -2.32403,-1.755234 z m 65.4965,0.557741 v 8.69e-4 c -0.98721,-0.03976 -1.97026,0.611905 -2.38412,1.674068 l -5.18664,13.355515 v 8.69e-4 c -0.18142,0.359509 -0.28346,0.764375 -0.28346,1.194035 0,1.479982 1.19924,2.679047 2.67892,2.679047 0.43087,0 0.83565,-0.104428 1.1966,-0.2849 v 0.0102 l 13.41088,-5.041224 c 1.31377,-0.492143 2.01827,-1.853769 1.57342,-3.040804 l 7.6e-4,-8.55e-4 c -0.44485,-1.187035 -1.87049,-1.750955 -3.18425,-1.258808 l -9.65291,3.62877 3.71868,-9.574807 c 0.5091,-1.307277 -0.0378,-2.739343 -1.21663,-3.199662 -0.22299,-0.08636 -0.44977,-0.132661 -0.67767,-0.141505 z m -33.34787,1.714668 c -1.26765,0.0017 -2.29417,1.140724 -2.29228,2.543483 v 8.766693 c -3.90463,0.278211 -7.60969,1.277169 -10.97763,2.875019 l -4.39256,-7.475066 c -0.71093,-1.209444 -2.17285,-1.668993 -3.26626,-1.026564 -1.09266,0.642447 -1.40334,2.143912 -0.69241,3.353352 l 4.36006,7.418098 c -3.27232,2.201984 -6.09827,5.015473 -8.31685,8.275415 l -7.409,-4.385926 c -1.20642,-0.714939 -2.70765,-0.409765 -3.35395,0.681202 -0.64592,1.090971 -0.19275,2.554645 1.01632,3.269583 l 7.45133,4.412712 c -1.64296,3.417317 -2.6657,7.186783 -2.94387,11.161659 l -8.57385,-0.07 c -1.40296,-0.01172 -2.54929,1.006314 -2.55912,2.274112 0,1.26779 1.11799,2.30523 2.52094,2.31644 l 8.62828,0.0708 c 0.30236,3.91948 1.3319,7.63522 2.9639,11.00715 l -7.48761,4.41269 c -1.20832,0.712 -1.66677,2.17483 -1.02312,3.26699 0.64365,1.09274 2.14564,1.40012 3.35395,0.68812 l 7.46229,-4.39802 c 2.18494,3.19217 4.95231,5.95292 8.15206,8.12779 l -4.30639,7.50442 c -0.69884,1.21651 -0.37418,2.71433 0.7268,3.34557 1.09984,0.63125 2.55647,0.1564 3.25493,-1.06021 l 4.30261,-7.49839 c 3.4182,1.64147 7.18752,2.66309 11.16282,2.93892 v 8.81072 c 0,1.40276 1.03332,2.53722 2.30097,2.53486 1.26803,-0.002 2.29304,-1.14161 2.29077,-2.54437 v -8.82107 c 3.93184,-0.30652 7.65807,-1.34258 11.0381,-2.98641 l 4.32038,7.61753 c 0.69165,1.22005 2.1479,1.70197 3.25076,1.07664 1.10249,-0.62536 1.43509,-2.12208 0.74306,-3.34213 l -4.34721,-7.66502 c 3.16422,-2.17308 5.90286,-4.91967 8.06437,-8.09238 l 7.86217,4.43687 c 1.22192,0.689 2.71672,0.35282 3.33996,-0.75113 0.62324,-1.10452 0.13984,-2.55842 -1.08359,-3.24801 l -7.82172,-4.41357 c 1.62028,-3.36486 2.63773,-7.07095 2.93669,-10.97864 l 8.79684,-0.003 c 1.40296,-5.9e-4 2.53984,-1.02881 2.53908,-2.29659 -3.8e-4,-1.267801 -1.13801,-2.294566 -2.54059,-2.29398 v -8.69e-4 l -8.78362,0.0033 c -0.27968,-3.957785 -1.30053,-7.711559 -2.93555,-11.115916 l 7.6301,-4.325499 c 1.22041,-0.691362 1.70305,-2.146966 1.0783,-3.249733 -0.62551,-1.103349 -2.1222,-1.436189 -3.34223,-0.744222 l -7.65694,4.341033 c -2.17323,-3.196869 -4.9319,-5.962211 -8.12106,-8.145917 l 4.43678,-7.456944 c 0.71735,-1.205899 0.41612,-2.708464 -0.67351,-3.356792 -1.08964,-0.647739 -2.55496,-0.196913 -3.27194,1.008419 l -4.46135,7.498375 c -3.38418,-1.639701 -7.11457,-2.670574 -11.05095,-2.969984 v -8.784827 c 0,-1.402759 -1.03143,-2.538351 -2.29946,-2.536582 z m -49.01022,19.536389 c -0.61908,0.02608 -1.20378,0.28645 -1.60856,0.774447 h -7.6e-4 c -0.8092,0.976039 -0.59036,2.493446 0.48945,3.38874 l 7.94494,6.57458 -10.1571,1.529887 c -1.38708,0.207458 -2.35955,1.39173 -2.17171,2.645376 0.18898,1.254235 1.46305,2.102564 2.85052,1.895109 l 14.1683,-2.134274 -7.6e-4,-0.0017 c 0.40139,-0.02306 0.80428,-0.134514 1.17657,-0.347943 1.28428,-0.734974 1.72875,-2.372098 0.99363,-3.656387 -0.21543,-0.373682 -0.50607,-0.674256 -0.8417,-0.897048 v -0.0083 l -11.03772,-9.133616 c -0.53782,-0.445984 -1.18828,-0.653003 -1.8051,-0.628527 z m 98.41049,0.669977 v 8.54e-4 c -0.54728,0.02117 -1.10891,0.221178 -1.58589,0.606958 l -11.13675,9.014478 v 0.0017 c -0.33259,0.222803 -0.62475,0.522822 -0.83792,0.895309 -0.73511,1.284305 -0.29102,2.921402 0.99364,3.656387 0.37417,0.213959 0.7782,0.32553 1.1811,0.347943 v 0.0102 l 14.14374,2.286207 c 1.38444,0.225147 2.67174,-0.606674 2.87584,-1.857968 v -8.66e-4 c 0.20409,-1.251291 -0.75402,-2.448122 -2.13884,-2.673866 l -10.17977,-1.644731 7.98349,-6.463194 c 1.09153,-0.881143 1.32964,-2.395772 0.53367,-3.381835 -0.44863,-0.554981 -1.12819,-0.824106 -1.83231,-0.796889 z m -49.4615,5.262258 c 9.15779,0 16.58191,7.423895 16.58191,16.581918 0,9.15805 -7.42412,16.58194 -16.58191,16.58194 -9.15816,0 -16.5819,-7.42389 -16.5819,-16.58194 0,-9.158023 7.42374,-16.581918 16.5819,-16.581918 z m 0.0945,5.605876 c -6.07332,0 -10.9969,4.922781 -10.9969,10.995912 0,6.07313 4.92358,10.99676 10.9969,10.99676 6.07332,0 10.99577,-4.92363 10.99577,-10.99676 0,-6.073131 -4.92245,-10.995912 -10.99577,-10.995912 z m -52.43258,15.667612 v 8.7e-4 c -1.17694,0.0197 -2.18872,0.78829 -2.3724,1.88214 -0.20788,1.25011 0.74154,2.45287 2.12447,2.6851 l 10.17183,1.69565 -8.01599,6.42263 c -1.09569,0.87585 -1.34136,2.38908 -0.54992,3.37925 0.79181,0.99019 2.32176,1.08363 3.41744,0.20719 l 11.18059,-8.95834 -7.6e-4,-0.002 c 0.33638,-0.22163 0.62778,-0.51968 0.84284,-0.891 0.74154,-1.28076 0.30614,-2.92095 -0.97663,-3.66242 -0.37418,-0.21574 -0.77594,-0.32897 -1.17846,-0.35312 v -0.0102 l -14.13202,-2.35701 c -0.17385,-0.0291 -0.34393,-0.0414 -0.51288,-0.0388 z m 104.8901,0.73041 v 8.7e-4 c -0.16629,-0.007 -0.34015,6.2e-4 -0.51288,0.0249 l -14.18493,2.00907 v 0.002 c -0.40138,0.0189 -0.80541,0.12699 -1.17959,0.33672 -1.2907,0.72438 -1.75029,2.35698 -1.02652,3.64775 0.21166,0.37546 0.50041,0.67846 0.83414,0.9048 v 0.007 l 10.95684,9.23119 c 1.07188,0.90471 2.60372,0.85312 3.42161,-0.11562 l 7.5e-4,8.7e-4 c 0.81827,-0.96897 0.61153,-2.48747 -0.46034,-3.39219 l -7.88636,-6.64452 10.17032,-1.4401 c 1.38936,-0.1951 2.37165,-1.37097 2.19553,-2.62639 -0.15496,-1.09849 -1.14557,-1.89422 -2.32176,-1.94518 z m -80.14933,19.44229 v 8.6e-4 c -0.43087,-0.003 -0.83717,0.0982 -1.19925,0.27628 v -0.0102 l -13.44679,4.9428 c -1.31754,0.48273 -2.03187,1.839 -1.59571,3.02958 v 8.7e-4 c 0.43616,1.19058 1.85801,1.76394 3.1748,1.28123 l 9.67898,-3.55795 -3.78746,9.54718 c -0.51931,1.30373 0,2.73999 1.19206,3.20915 1.17846,0.46857 2.5542,-0.20776 3.07275,-1.51091 l 5.28416,-13.31665 v -0.002 c 0.18141,-0.35838 0.28724,-0.76152 0.29102,-1.1906 0,-1.47998 -1.17997,-2.68857 -2.66003,-2.69976 z m 55.39459,0.27281 v 8.7e-4 c -1.47931,-0.003 -2.68158,1.19388 -2.68384,2.67387 -0.001,0.43085 0.10204,0.83678 0.28346,1.19749 v 0.003 l 5.01581,13.42027 c 0.48982,1.31495 1.85007,2.02175 3.03836,1.57911 l 7.5e-4,8.7e-4 c 1.18828,-0.44264 1.75408,-1.86719 1.26425,-3.18154 l -3.6102,-9.66028 9.56749,3.73669 c 1.30582,0.51159 2.74015,-0.0302 3.20201,-1.21045 0.46262,-1.18057 -0.21921,-2.5525 -1.52693,-3.06411 l -13.34549,-5.21218 -0.001,0.002 c -0.35905,-0.18036 -0.76384,-0.28434 -1.19282,-0.28494 z m -38.09949,9.74317 c -0.43125,0.0132 -0.86589,0.13149 -1.26501,0.36435 -0.37039,0.21751 -0.66973,0.51184 -0.89008,0.84956 v -0.007 l -9.041,11.11418 c -0.88629,1.08686 -0.80844,2.61796 0.17386,3.41896 0.98268,0.80098 2.49713,0.5694 3.38343,-0.51803 l 6.50796,-7.99914 1.61462,10.14376 c 0.21921,1.38567 1.4124,2.34869 2.66456,2.15066 1.25216,-0.19805 2.0897,-1.48157 1.87086,-2.86726 l -2.25184,-14.14894 c -0.0378,-0.40138 -0.13984,-0.8026 -0.35905,-1.17333 -0.51175,-0.87702 -1.44416,-1.35483 -2.39282,-1.32786 z m 20.54813,0.10443 c -0.94828,-0.0295 -1.88258,0.44642 -2.39697,1.32182 -0.21921,0.37133 -0.3326,0.77421 -0.35905,1.17677 v -0.002 l -2.44271,14.117 c -0.24189,1.38212 0.57675,2.67913 1.82551,2.89662 v -8.7e-4 c 1.24875,0.21752 2.45707,-0.72536 2.6982,-2.10749 l 1.75786,-10.1619 6.37341,8.05529 c 0.86967,1.10099 2.38148,1.35634 3.377,0.57068 0.99477,-0.78566 1.09644,-2.31451 0.22677,-3.4155 l -8.88944,-11.23508 v 8.7e-4 c -0.21921,-0.33653 -0.51552,-0.63035 -0.88554,-0.84783 -0.39836,-0.23399 -0.83263,-0.35399 -1.26425,-0.36865 z m -73.34355,31.05897 c -0.23811,0 -0.43048,0.0759 -0.58091,0.2262 -0.15118,0.15035 -0.22677,0.34413 -0.22677,0.58105 v 3.45521 c 0,0.21513 0.0756,0.4031 0.22677,0.56466 0.15118,0.16089 0.34394,0.24174 0.58091,0.24174 h 5.74866 v 16.72698 c 0,0.21573 0.0756,0.40309 0.22677,0.56465 0.15118,0.16158 0.34394,0.24261 0.58129,0.24261 h 4.26217 c 0.23433,0 0.43011,-0.081 0.58091,-0.24261 0.15119,-0.16157 0.22678,-0.34892 0.22678,-0.56465 v -16.72692 h 5.74752 c 0.23811,0 0.43011,-0.0808 0.58129,-0.24174 0.15118,-0.16157 0.22677,-0.34953 0.22677,-0.56466 v -3.45519 c 0,-0.23694 -0.0756,-0.43069 -0.22677,-0.58105 -0.15118,-0.15035 -0.34394,-0.22621 -0.58129,-0.22621 z m 21.92578,0 c -0.23811,0 -0.43087,0.0759 -0.58129,0.2262 -0.15118,0.15035 -0.22677,0.34413 -0.22677,0.58105 v 20.98858 c 0,0.21574 0.0756,0.4031 0.22677,0.56466 0.15118,0.16158 0.34393,0.24261 0.58129,0.24261 h 15.33768 c 0.23811,0 0.43011,-0.081 0.58092,-0.24261 0.15118,-0.16157 0.22677,-0.34893 0.22677,-0.56466 v -3.03561 c 0,-0.23637 -0.0756,-0.43018 -0.22677,-0.58105 -0.15118,-0.15039 -0.34394,-0.22621 -0.58092,-0.22621 H 168.5352 v -4.48781 h 9.59016 c 0.23433,0 0.43087,-0.081 0.58167,-0.24261 0.15118,-0.16157 0.22677,-0.35036 0.22677,-0.5655 v -2.80855 c 0,-0.23694 -0.0756,-0.4359 -0.22677,-0.59746 -0.15118,-0.16157 -0.34394,-0.2426 -0.58167,-0.2426 h -9.59016 v -4.35918 h 10.30071 c 0.23433,0 0.43011,-0.0745 0.58091,-0.22533 0.15119,-0.15035 0.22678,-0.34413 0.22678,-0.58105 v -3.03563 c 0,-0.23694 -0.0756,-0.43068 -0.22678,-0.58105 -0.15118,-0.15038 -0.34393,-0.2262 -0.58091,-0.2262 z m 20.63355,0 c -0.23811,0 -0.43086,0.0759 -0.58091,0.2262 -0.15118,0.15035 -0.22677,0.34413 -0.22677,0.58105 v 20.98858 c 0,0.21574 0.0756,0.4031 0.22677,0.56466 0.15118,0.16158 0.34394,0.24261 0.58091,0.24261 h 3.87401 c 0.23811,0 0.43125,-0.081 0.58205,-0.24261 0.15118,-0.16157 0.22677,-0.34893 0.22677,-0.56466 v -11.75395 l 7.87918,11.94736 c 0.0416,0.0648 0.14362,0.1836 0.30614,0.35572 0.16252,0.1728 0.41386,0.25815 0.75779,0.25815 h 3.456 c 0.23811,0 0.43049,-0.081 0.58129,-0.24261 0.15118,-0.16158 0.22677,-0.35966 0.22677,-0.5966 V 167.5349 c 0,-0.23694 -0.0756,-0.43068 -0.22677,-0.58105 -0.15118,-0.15039 -0.34394,-0.22621 -0.58129,-0.22621 h -3.87553 c -0.23811,0 -0.43048,0.0759 -0.58091,0.22621 -0.15118,0.15035 -0.22677,0.34412 -0.22677,0.58105 v 12.2055 l -7.87917,-12.39976 c -0.0416,-0.0861 -0.14362,-0.20969 -0.30614,-0.37127 -0.16252,-0.16157 -0.42558,-0.24173 -0.79144,-0.24173 z m 23.21611,0 c -0.23811,0 -0.43087,0.0759 -0.5813,0.2262 -0.15118,0.15088 -0.22677,0.34413 -0.22677,0.58105 v 20.98858 c 0,0.21513 0.0718,0.4031 0.22677,0.56466 0.15119,0.16158 0.34394,0.24261 0.5813,0.24261 h 8.55759 c 2.1086,0 3.89065,-0.31695 5.34349,-0.95231 1.45361,-0.63479 2.56139,-1.60934 3.32561,-2.92252 0.76384,-1.31318 1.19017,-2.97084 1.27634,-4.97301 0.0378,-0.92535 0.0378,-1.74349 0.0378,-2.45372 0,-0.71021 0,-1.53878 -0.0378,-2.48651 -0.0642,-1.91554 -0.49549,-3.52542 -1.29184,-4.82797 -0.79672,-1.30198 -1.937,-2.29219 -3.42236,-2.97001 -1.48611,-0.67837 -3.28365,-1.01705 -5.393,-1.01705 z m 28.73798,0 c -0.36661,0 -0.65121,0.0912 -0.85568,0.27454 -0.2041,0.18274 -0.34016,0.39245 -0.40403,0.6294 l -7.58702,20.73044 c -0.0378,0.0861 -0.0378,0.18281 -0.0378,0.29007 0,0.17269 0.0718,0.32829 0.21165,0.46796 0.13984,0.14018 0.2948,0.21067 0.4679,0.21067 h 3.97191 c 0.36661,0 0.62437,-0.081 0.77555,-0.2426 0.15119,-0.16158 0.24567,-0.30686 0.29103,-0.43602 l 1.22683,-3.29291 h 8.62185 l 1.25972,3.29291 c 0.0453,0.129 0.1474,0.27447 0.30614,0.43602 0.16252,0.16157 0.40365,0.2426 0.72604,0.2426 h 3.97266 c 0.19276,0 0.35906,-0.0703 0.49965,-0.21067 0.13985,-0.13969 0.21166,-0.29529 0.21166,-0.46796 0,-0.10726 -0.0378,-0.20405 -0.0643,-0.29007 l -7.55641,-20.73044 c -0.0642,-0.23694 -0.20031,-0.44667 -0.40289,-0.6294 -0.2041,-0.18327 -0.49059,-0.27454 -0.85682,-0.27454 z m 17.01731,0 c -0.23811,0 -0.43087,0.0759 -0.58129,0.2262 -0.15118,0.15035 -0.22677,0.34413 -0.22677,0.58105 v 20.98858 c 0,0.21574 0.0756,0.4031 0.22677,0.56466 0.15118,0.16158 0.34394,0.24261 0.58129,0.24261 h 14.85353 c 0.23433,0 0.43011,-0.081 0.58129,-0.24261 0.15118,-0.16157 0.22677,-0.34893 0.22677,-0.56466 v -3.229 c 0,-0.23694 -0.0756,-0.43591 -0.22677,-0.59747 -0.15118,-0.16157 -0.34394,-0.24261 -0.58129,-0.24261 h -9.78406 v -16.9195 c 0,-0.23694 -0.0756,-0.43068 -0.22677,-0.58105 -0.15118,-0.15038 -0.34393,-0.2262 -0.58129,-0.2262 z m -40.75045,4.64925 h 3.22885 c 1.4211,0 2.49146,0.33925 3.21373,1.01705 0.72075,0.6784 1.10286,1.75001 1.14633,3.21348 0.0416,0.60295 0.068,1.15195 0.0794,1.64645 0,0.49569 0,0.9905 0,1.485 0,0.49569 -0.0378,1.05508 -0.0794,1.67927 -0.0378,1.01197 -0.18898,1.83038 -0.50079,2.45455 -0.30992,0.62475 -0.77518,1.08133 -1.38822,1.3719 -0.61379,0.29065 -1.38406,0.43601 -2.30891,0.43601 h -3.39099 z m 26.12294,0.80813 3.00283,8.52407 h -6.00567 z m -66.08233,22.79647 c -0.61191,0 -1.13651,0.0992 -1.57304,0.29786 -0.43691,0.19858 -0.77027,0.46831 -1.00044,0.80986 -0.23055,0.33362 -0.34394,0.71504 -0.34394,1.14396 0,0.45275 0.0907,0.82592 0.27213,1.11981 0.19275,0.2939 0.47697,0.54046 0.85833,0.73905 0.38135,0.19857 0.86173,0.38143 1.44151,0.54823 0.55597,0.15889 1.00875,0.30531 1.35798,0.44032 0.34772,0.13501 0.60775,0.28974 0.77443,0.4645 0.17385,0.16675 0.26078,0.38939 0.26078,0.66739 0,0.4051 -0.16252,0.73111 -0.48793,0.97734 -0.31748,0.2383 -0.81865,0.35743 -1.50161,0.35743 -0.44485,0 -0.81033,-0.0596 -1.09644,-0.17873 -0.2759,-0.12715 -0.49171,-0.2818 -0.64289,-0.4645 -0.15119,-0.19064 -0.24945,-0.3818 -0.29859,-0.57243 0,-0.0635 -0.0454,-0.11898 -0.0945,-0.16656 -0.0453,-0.0476 -0.12094,-0.0717 -0.21543,-0.0717 h -0.60812 c -0.0718,0 -0.13607,0.0284 -0.18898,0.0837 -0.0491,0.0476 -0.0718,0.10306 -0.0718,0.16656 0,0.37334 0.1474,0.73076 0.39269,1.07231 0.25323,0.33362 0.61569,0.60748 1.08435,0.82193 0.46828,0.21449 1.04806,0.32205 1.73933,0.32205 0.64328,0 1.19962,-0.0919 1.66829,-0.27454 0.47659,-0.19064 0.84548,-0.46034 1.1074,-0.80983 0.26078,-0.35743 0.39307,-0.78602 0.39307,-1.28644 0,-0.45275 -0.0983,-0.82261 -0.29859,-1.10858 -0.18897,-0.29389 -0.48869,-0.53632 -0.89385,-0.72695 -0.40479,-0.19857 -0.92447,-0.38473 -1.55981,-0.55947 -0.5246,-0.15088 -0.9498,-0.29409 -1.27521,-0.4291 -0.32504,-0.135 -0.56391,-0.28974 -0.71471,-0.4645 -0.15118,-0.18266 -0.22677,-0.40941 -0.22677,-0.67946 0,-0.42098 0.15874,-0.73041 0.47622,-0.929 0.32504,-0.19857 0.74683,-0.29786 1.26311,-0.29786 0.50835,0 0.92107,0.11078 1.23893,0.33328 0.31748,0.22242 0.50041,0.49627 0.54803,0.82193 0.0378,0.0874 0.0756,0.14702 0.13229,0.17873 0.0642,0.0318 0.12472,0.0483 0.17763,0.0483 h 0.63118 c 0.0869,0 0.15118,-0.0242 0.19276,-0.0717 0.0416,-0.0556 0.0605,-0.11111 0.0605,-0.16656 0,-0.2383 -0.0718,-0.48074 -0.20031,-0.72697 -0.12851,-0.25417 -0.3137,-0.4883 -0.56051,-0.70277 -0.24567,-0.22243 -0.55559,-0.39787 -0.929,-0.52495 -0.36662,-0.135 -0.7937,-0.20201 -1.28617,-0.20201 z m 7.79186,0 c -0.65121,0 -1.22305,0.12329 -1.71552,0.36952 -0.48454,0.2383 -0.86589,0.60315 -1.14406,1.09562 -0.26835,0.48453 -0.42067,1.09269 -0.45241,1.82345 0,0.34949 0,0.68707 0,1.01273 0,0.31774 -3.8e-4,0.65117 0,1.00065 0.0378,0.7387 0.17763,1.3543 0.44031,1.84676 0.26079,0.48453 0.63534,0.84611 1.11987,1.0844 0.48454,0.23036 1.06885,0.34534 1.75181,0.34534 0.6754,0 1.25518,-0.11494 1.73972,-0.34534 0.48453,-0.2383 0.85757,-0.59987 1.11987,-1.0844 0.27213,-0.49246 0.4165,-1.10806 0.44032,-1.84676 0,-0.34949 0.0378,-0.68293 0.0378,-1.00065 0,-0.32569 3.8e-4,-0.66325 -0.0378,-1.01273 -0.0378,-0.73076 -0.17386,-1.33892 -0.45241,-1.82345 -0.27591,-0.49247 -0.66369,-0.85732 -1.15616,-1.09562 -0.48453,-0.24623 -1.04768,-0.36952 -1.69134,-0.36952 z m 5.33745,0.11913 c -0.0869,0 -0.15496,0.0272 -0.20032,0.0829 -0.0453,0.0476 -0.0718,0.11146 -0.0718,0.19079 v 7.79195 c 0,0.0795 0.0378,0.14737 0.0718,0.20289 0.0491,0.0476 0.11717,0.0717 0.20032,0.0717 h 4.86198 c 0.0869,0 0.15496,-0.0242 0.20031,-0.0717 0.0567,-0.0556 0.0831,-0.12348 0.0831,-0.20289 v -0.47659 c 0,-0.0874 -0.0378,-0.15439 -0.0831,-0.20201 -0.0491,-0.0556 -0.11338,-0.0837 -0.20031,-0.0837 h -3.95603 v -7.02958 c 0,-0.0794 -0.0378,-0.14316 -0.0832,-0.19079 -0.0453,-0.0556 -0.10961,-0.0829 -0.18898,-0.0829 z m 8.98355,0 c -0.11339,0 -0.19654,0.0242 -0.24945,0.0717 -0.0567,0.0476 -0.0983,0.11146 -0.1285,0.19079 l -2.95484,7.7082 c 0,0.0476 0,0.0916 0,0.13134 0,0.0635 0.0378,0.11894 0.0718,0.16656 0.0454,0.0476 0.10205,0.0717 0.1663,0.0717 h 0.60699 c 0.0945,0 0.1663,-0.0242 0.21544,-0.0717 0.0491,-0.0476 0.0756,-0.0916 0.0832,-0.13134 l 0.65537,-1.69135 h 3.90878 l 0.65499,1.69135 c 0,0.0396 0.0454,0.0835 0.0832,0.13134 0.0491,0.0476 0.12095,0.0717 0.21543,0.0717 h 0.607 c 0.0642,0 0.12094,-0.0242 0.16629,-0.0717 0.0491,-0.0476 0.0718,-0.1031 0.0718,-0.16656 0,-0.0396 3.7e-4,-0.0835 -0.0378,-0.13134 l -2.94311,-7.7082 c -0.0378,-0.0794 -0.0756,-0.14317 -0.12851,-0.19079 -0.0567,-0.0476 -0.13984,-0.0717 -0.24945,-0.0717 z m 5.70746,0 c -0.0869,0 -0.15496,0.0272 -0.2041,0.0829 -0.0491,0.0476 -0.0718,0.11562 -0.0718,0.20289 v 7.77987 c 0,0.0795 0.0378,0.14736 0.0718,0.20288 0.0454,0.0476 0.11717,0.0717 0.2041,0.0717 h 0.60774 c 0.0869,0 0.15496,-0.0242 0.20032,-0.0717 0.0567,-0.0556 0.0831,-0.12347 0.0831,-0.20288 v -3.07361 h 2.08516 l 1.72762,3.02611 c 0.0454,0.0715 0.10205,0.14268 0.1663,0.21411 0.0642,0.0715 0.16252,0.10794 0.29858,0.10794 h 0.57147 c 0.0642,0 0.11716,-0.0242 0.1663,-0.0717 0.0567,-0.0476 0.0831,-0.10307 0.0831,-0.16656 0,-0.0396 0,-0.0835 -0.0378,-0.13134 l -1.83571,-3.16944 c 0.52422,-0.15088 0.9377,-0.4165 1.23968,-0.79776 0.30992,-0.38922 0.4645,-0.8898 0.4645,-1.5014 0,-0.82608 -0.26078,-1.44995 -0.78652,-1.87094 -0.52384,-0.42097 -1.23477,-0.63113 -2.1324,-0.63113 z m 10.72326,0 c -0.0869,0 -0.15496,0.0272 -0.20409,0.0829 -0.0491,0.0476 -0.0718,0.11562 -0.0718,0.20289 v 7.77987 c 0,0.0795 0.0378,0.14736 0.0718,0.20288 0.0491,0.0476 0.11338,0.0717 0.20409,0.0717 h 0.59528 c 0.0869,0 0.15496,-0.0242 0.20031,-0.0717 0.0567,-0.0556 0.0831,-0.12347 0.0831,-0.20288 v -3.21694 h 3.74097 c 0.0869,0 0.15496,-0.0231 0.2041,-0.0708 0.0567,-0.0556 0.0832,-0.12348 0.0832,-0.20289 v -0.47659 c 0,-0.0874 -0.0378,-0.15522 -0.0832,-0.20288 -0.0491,-0.0556 -0.11339,-0.0829 -0.2041,-0.0829 h -3.74097 v -2.77662 h 3.97946 c 0.0869,0 0.15496,-0.023 0.2041,-0.0708 0.0567,-0.0478 0.0831,-0.11562 0.0831,-0.20289 v -0.47659 c 0,-0.0874 -0.0378,-0.15522 -0.0831,-0.20288 -0.0454,-0.0556 -0.11717,-0.0829 -0.2041,-0.0829 z m 8.72087,0 c -0.1096,0 -0.19653,0.0242 -0.24944,0.0717 -0.0567,0.0476 -0.0983,0.11146 -0.13229,0.19079 l -2.95445,7.7082 c 0,0.0476 0,0.0916 0,0.13134 0,0.0635 0.0378,0.11894 0.0718,0.16656 0.0491,0.0476 0.10205,0.0717 0.1663,0.0717 h 0.60775 c 0.0945,0 0.1663,-0.0242 0.21543,-0.0717 0.0491,-0.0476 0.0756,-0.0916 0.0831,-0.13134 l 0.65499,-1.69135 h 3.90803 l 0.65499,1.69135 c 0,0.0396 0.0453,0.0835 0.0831,0.13134 0.0491,0.0476 0.11716,0.0717 0.21543,0.0717 h 0.60775 c 0.0642,0 0.11716,-0.0242 0.1663,-0.0717 0.0491,-0.0476 0.0718,-0.1031 0.0718,-0.16656 0,-0.0396 0,-0.0835 -0.0378,-0.13134 l -2.94236,-7.7082 c -0.0378,-0.0794 -0.0756,-0.14317 -0.13228,-0.19079 -0.0567,-0.0476 -0.13984,-0.0717 -0.24945,-0.0717 z m 5.70709,0 c -0.0869,0 -0.15496,0.0272 -0.20032,0.0829 -0.0491,0.0476 -0.0718,0.11562 -0.0718,0.20289 v 7.77987 c 0,0.0795 0.0378,0.14736 0.0718,0.20288 0.0491,0.0476 0.11717,0.0717 0.20032,0.0717 h 0.60774 c 0.0869,0 0.15496,-0.0242 0.2041,-0.0717 0.0529,-0.0556 0.0831,-0.12347 0.0831,-0.20288 v -3.07361 h 2.08478 l 1.72762,3.02611 c 0.0454,0.0715 0.10205,0.14268 0.1663,0.21411 0.0642,0.0715 0.16252,0.10794 0.29858,0.10794 h 0.57147 c 0.0643,0 0.11716,-0.0242 0.1663,-0.0717 0.0567,-0.0476 0.0831,-0.10307 0.0831,-0.16656 0,-0.0396 0,-0.0835 -0.0378,-0.13134 l -1.83458,-3.16944 c 0.52422,-0.15088 0.93694,-0.4165 1.23893,-0.79776 0.30992,-0.38922 0.46526,-0.8898 0.46526,-1.5014 0,-0.82608 -0.26079,-1.44995 -0.78652,-1.87094 -0.52422,-0.42097 -1.23515,-0.63113 -2.13241,-0.63113 z m 7.80358,0 c -0.0794,0 -0.1474,0.0272 -0.20032,0.0829 -0.0491,0.0476 -0.0718,0.11562 -0.0718,0.20289 v 7.77987 c 0,0.0795 0.0378,0.14736 0.0718,0.20288 0.0567,0.0476 0.12095,0.0717 0.20032,0.0717 h 0.58431 c 0.0794,0 0.14362,-0.0242 0.18898,-0.0717 0.0567,-0.0556 0.0831,-0.12347 0.0831,-0.20288 v -5.86146 l 2.00163,3.88433 c 0.0416,0.0794 0.0869,0.14219 0.14363,0.18993 0.0567,0.0398 0.13606,0.0596 0.23811,0.0596 h 0.37039 c 0.0945,0 0.17386,-0.0197 0.23811,-0.0596 0.0642,-0.0476 0.10961,-0.11059 0.14362,-0.18993 l 1.98992,-3.88433 v 5.86146 c 0,0.0795 0.0378,0.14736 0.0718,0.20288 0.0567,0.0476 0.12095,0.0717 0.20032,0.0717 h 0.58469 c 0.0869,0 0.15496,-0.0242 0.20031,-0.0717 0.0567,-0.0556 0.0831,-0.12347 0.0831,-0.20288 v -7.77987 c 0,-0.0874 -0.0378,-0.15523 -0.0831,-0.20289 -0.0454,-0.0556 -0.11716,-0.0829 -0.20031,-0.0829 h -0.58469 c -0.0945,0 -0.1663,0.0242 -0.21544,0.0717 -0.0416,0.0476 -0.068,0.0874 -0.0831,0.11913 l -2.53757,4.81329 -2.51414,-4.81329 c 0,-0.0318 -0.0454,-0.0715 -0.0945,-0.11913 -0.0491,-0.0476 -0.12094,-0.0717 -0.21543,-0.0717 z m -52.98326,0.89359 c 0.39723,0 0.75062,0.0794 1.06054,0.2383 0.30992,0.15889 0.55634,0.40873 0.73889,0.75027 0.18898,0.34156 0.29481,0.78672 0.30993,1.33478 0,0.34949 0.0378,0.66723 0.0378,0.95317 0,0.27798 0,0.59572 -0.0378,0.95315 -0.0378,0.81812 -0.24189,1.40973 -0.63194,1.7751 -0.38135,0.36541 -0.87383,0.54825 -1.47742,0.54825 -0.60359,0 -1.10022,-0.18285 -1.48913,-0.54825 -0.38929,-0.36536 -0.59943,-0.95698 -0.63118,-1.7751 0,-0.35743 0,-0.67516 0,-0.95315 0,-0.28596 0,-0.60367 0,-0.95317 0.0378,-0.54806 0.1285,-0.99321 0.30992,-1.33478 0.19276,-0.34155 0.44145,-0.59142 0.75137,-0.75027 0.30992,-0.15889 0.66293,-0.2383 1.06016,-0.2383 z m 20.92194,0.10711 h 1.9661 c 0.60359,0 1.04807,0.12748 1.3338,0.38161 0.2948,0.25417 0.44145,0.62318 0.44145,1.10772 0,0.49246 -0.1474,0.86563 -0.44145,1.1198 -0.2948,0.24624 -0.73814,0.36952 -1.3338,0.36952 h -1.9661 z m 25.15122,0 h 1.9661 c 0.60359,0 1.04844,0.12748 1.33455,0.38161 0.29481,0.25417 0.44145,0.62318 0.44145,1.10772 0,0.49246 -0.1474,0.86563 -0.44145,1.1198 -0.2948,0.24624 -0.73927,0.36952 -1.33455,0.36952 h -1.9661 z m -31.34662,0.19083 1.60857,4.22967 h -3.21714 z m 25.15084,0 1.60857,4.22967 h -3.21713 z" />
  </g>
</svg>
