<?xml version="1.0" encoding="UTF-8" standalone="no"?>
<!-- Created with Inkscape (http://www.inkscape.org/) -->

<svg
   width="43.999813mm"
   height="42.893414mm"
   viewBox="0 0 43.999814 42.893413"
   version="1.1"
   id="svg75102"
   xmlns="http://www.w3.org/2000/svg"
   xmlns:svg="http://www.w3.org/2000/svg">
  <defs
     id="defs75099" />
  <g
     id="layer1"
     transform="translate(-134.91744,-74.402254)">
    <path
       id="path1128"
       style="font-weight:bold;font-size:10.1211px;line-height:1.25;font-family:Rubik;-inkscape-font-specification:'Rubik Bold';letter-spacing:0.77596px;stroke-width:0.11731"
       d="M 83.380859 0 A 1.6423445 1.6423445 0 0 0 81.742188 1.6386719 L 81.742188 11.029297 A 1.6423445 1.6423445 0 0 0 83.380859 12.667969 A 1.6423445 1.6423445 0 0 0 85.027344 11.029297 L 85.027344 1.6386719 A 1.6423445 1.6423445 0 0 0 83.380859 0 z M 71.886719 1.3027344 A 1.6423445 1.6423445 0 0 0 71.40625 1.359375 A 1.6423445 1.6423445 0 0 0 70.248047 3.3730469 L 71.15625 6.7695312 A 1.6423445 1.6423445 0 0 0 73.171875 7.9355469 A 1.6423445 1.6423445 0 0 0 74.330078 5.9199219 L 73.421875 2.5253906 A 1.6423445 1.6423445 0 0 0 71.886719 1.3027344 z M 94.853516 1.4003906 A 1.6423445 1.6423445 0 0 0 93.324219 2.6210938 L 92.408203 6.015625 A 1.6423445 1.6423445 0 0 0 93.574219 8.03125 A 1.6423445 1.6423445 0 0 0 95.582031 6.8652344 L 96.498047 3.4707031 A 1.6423445 1.6423445 0 0 0 95.332031 1.4550781 A 1.6423445 1.6423445 0 0 0 94.853516 1.4003906 z M 60.53125 5.953125 A 1.6423445 1.6423445 0 0 0 59.648438 6.171875 A 1.6423445 1.6423445 0 0 0 59.048828 8.4160156 L 61.980469 13.494141 A 1.6423445 1.6423445 0 0 0 64.224609 14.099609 A 1.6423445 1.6423445 0 0 0 64.822266 11.855469 L 61.892578 6.7773438 A 1.6423445 1.6423445 0 0 0 60.894531 6.0097656 A 1.6423445 1.6423445 0 0 0 60.53125 5.953125 z M 106.08203 6.2265625 A 1.6423445 1.6423445 0 0 0 105.71875 6.2832031 A 1.6423445 1.6423445 0 0 0 104.7207 7.0429688 L 101.7832 12.121094 A 1.6423445 1.6423445 0 0 0 102.38867 14.365234 A 1.6423445 1.6423445 0 0 0 104.63281 13.767578 L 107.56445 8.6894531 A 1.6423445 1.6423445 0 0 0 106.96484 6.4453125 A 1.6423445 1.6423445 0 0 0 106.08203 6.2265625 z M 74.111328 9.8066406 A 1.6423445 1.6423445 0 0 0 73.6875 9.8632812 A 1.6423445 1.6423445 0 0 0 72.521484 11.871094 L 74.951172 20.935547 A 1.6423445 1.6423445 0 0 0 76.964844 22.09375 A 1.6423445 1.6423445 0 0 0 78.125 20.085938 L 75.695312 11.021484 A 1.6423445 1.6423445 0 0 0 74.111328 9.8066406 z M 92.630859 9.8945312 A 1.6423445 1.6423445 0 0 0 91.042969 11.117188 L 88.613281 20.181641 A 1.6423445 1.6423445 0 0 0 89.78125 22.189453 A 1.6423445 1.6423445 0 0 0 91.789062 21.03125 L 94.216797 11.966797 A 1.6423445 1.6423445 0 0 0 93.058594 9.9511719 A 1.6423445 1.6423445 0 0 0 92.630859 9.8945312 z M 50.535156 13.070312 A 1.6423445 1.6423445 0 0 0 49.373047 13.552734 A 1.6423445 1.6423445 0 0 0 49.373047 15.871094 L 56.007812 22.507812 A 1.6423445 1.6423445 0 0 0 58.333984 22.507812 A 1.6423445 1.6423445 0 0 0 58.333984 20.189453 L 51.697266 13.552734 A 1.6423445 1.6423445 0 0 0 50.535156 13.070312 z M 116.09766 13.207031 A 1.6423445 1.6423445 0 0 0 114.9375 13.685547 L 108.30078 20.322266 A 1.6423445 1.6423445 0 0 0 108.30078 22.648438 A 1.6423445 1.6423445 0 0 0 110.62695 22.648438 L 117.26367 16.011719 A 1.6423445 1.6423445 0 0 0 117.26367 13.685547 A 1.6423445 1.6423445 0 0 0 116.09766 13.207031 z M 83.380859 14.550781 A 1.6423445 1.6423445 0 0 0 81.742188 16.189453 L 81.742188 19.710938 A 1.6423445 1.6423445 0 0 0 83.380859 21.349609 A 1.6423445 1.6423445 0 0 0 85.027344 19.710938 L 85.027344 16.189453 A 1.6423445 1.6423445 0 0 0 83.380859 14.550781 z M 66.039062 15.498047 A 1.6423445 1.6423445 0 0 0 65.154297 15.716797 A 1.6423445 1.6423445 0 0 0 64.556641 17.960938 L 68.078125 24.050781 A 1.6423445 1.6423445 0 0 0 70.322266 24.65625 A 1.6423445 1.6423445 0 0 0 70.919922 22.412109 L 67.398438 16.314453 A 1.6423445 1.6423445 0 0 0 66.402344 15.554688 A 1.6423445 1.6423445 0 0 0 66.039062 15.498047 z M 100.73438 15.703125 A 1.6423445 1.6423445 0 0 0 99.244141 16.521484 L 95.730469 22.619141 A 1.6423445 1.6423445 0 0 0 96.328125 24.863281 A 1.6423445 1.6423445 0 0 0 98.572266 24.263672 L 102.09375 18.167969 A 1.6423445 1.6423445 0 0 0 101.48828 15.923828 A 1.6423445 1.6423445 0 0 0 100.73438 15.703125 z M 43.244141 22.675781 A 1.6423445 1.6423445 0 0 0 42.765625 22.728516 A 1.6423445 1.6423445 0 0 0 41.769531 23.496094 A 1.6423445 1.6423445 0 0 0 42.375 25.740234 L 45.416016 27.498047 A 1.6423445 1.6423445 0 0 0 47.660156 26.900391 A 1.6423445 1.6423445 0 0 0 47.0625 24.65625 L 44.013672 22.898438 A 1.6423445 1.6423445 0 0 0 43.244141 22.675781 z M 123.16992 22.878906 A 1.6423445 1.6423445 0 0 0 122.40039 23.097656 L 119.35156 24.863281 A 1.6423445 1.6423445 0 0 0 118.75391 27.107422 A 1.6423445 1.6423445 0 0 0 120.99805 27.705078 L 124.04688 25.947266 A 1.6423445 1.6423445 0 0 0 124.64453 23.703125 A 1.6423445 1.6423445 0 0 0 123.16992 22.878906 z M 61.005859 23.541016 A 1.6423445 1.6423445 0 0 0 59.847656 24.021484 A 1.6423445 1.6423445 0 0 0 59.847656 26.345703 L 62.333984 28.833984 A 1.6423445 1.6423445 0 0 0 64.652344 28.833984 A 1.6423445 1.6423445 0 0 0 64.652344 26.507812 L 62.164062 24.021484 A 1.6423445 1.6423445 0 0 0 61.005859 23.541016 z M 105.5293 23.775391 A 1.6423445 1.6423445 0 0 0 104.36719 24.257812 L 101.87891 26.744141 A 1.6423445 1.6423445 0 0 0 101.87891 29.0625 A 1.6423445 1.6423445 0 0 0 104.20508 29.0625 L 106.69336 26.574219 A 1.6423445 1.6423445 0 0 0 106.69336 24.257812 A 1.6423445 1.6423445 0 0 0 105.5293 23.775391 z M 83.158203 25.837891 C 78.076477 25.836409 72.992374 27.596582 68.912109 31.128906 C 60.751618 38.193607 59.009368 50.235602 64.837891 59.320312 L 65.476562 60.318359 L 62.666016 61.564453 L 43.496094 53.060547 A 3.2263573 3.2263573 0 0 0 40.882812 53.060547 L 20.398438 62.140625 L 23.019531 68.039062 L 42.189453 59.535156 L 61.359375 68.039062 A 3.2263573 3.2263573 0 0 0 63.972656 68.039062 L 83.152344 59.535156 L 102.32227 68.039062 A 3.2263573 3.2263573 0 0 0 104.93555 68.039062 L 124.11328 59.535156 L 143.28516 68.039062 L 145.89844 62.140625 L 125.41992 53.060547 A 3.2263573 3.2263573 0 0 0 122.79883 53.060547 L 103.62891 61.564453 L 100.81836 60.318359 L 101.45117 59.335938 C 107.28476 50.254564 105.55485 38.206045 97.398438 31.136719 C 93.320252 27.602018 88.239967 25.839372 83.158203 25.837891 z M 50.808594 27.074219 A 1.6423445 1.6423445 0 0 0 50.382812 27.128906 A 1.6423445 1.6423445 0 0 0 49.386719 27.896484 A 1.6423445 1.6423445 0 0 0 49.992188 30.140625 L 58.119141 34.835938 A 1.6423445 1.6423445 0 0 0 60.363281 34.230469 A 1.6423445 1.6423445 0 0 0 59.757812 31.986328 L 51.630859 27.298828 A 1.6423445 1.6423445 0 0 0 50.808594 27.074219 z M 115.60547 27.279297 A 1.6423445 1.6423445 0 0 0 114.7832 27.498047 L 106.65625 32.193359 A 1.6423445 1.6423445 0 0 0 106.05859 34.4375 A 1.6423445 1.6423445 0 0 0 108.30078 35.035156 L 116.42969 30.347656 A 1.6423445 1.6423445 0 0 0 117.02734 28.103516 A 1.6423445 1.6423445 0 0 0 116.03125 27.335938 A 1.6423445 1.6423445 0 0 0 115.60547 27.279297 z M 83.152344 31.679688 C 86.85612 31.681119 90.559972 32.980206 93.552734 35.574219 C 99.538259 40.76201 100.80049 49.497789 96.519531 56.162109 L 95.396484 57.912109 L 84.458984 53.060547 A 3.2263573 3.2263573 0 0 0 81.845703 53.060547 L 70.904297 57.912109 L 69.775391 56.154297 C 65.498175 49.487524 66.761452 40.750803 72.75 35.566406 C 75.744274 32.974227 79.448567 31.678256 83.152344 31.679688 z M 38.902344 33.701172 A 1.6423445 1.6423445 0 0 0 37.251953 34.916016 A 1.6423445 1.6423445 0 0 0 38.410156 36.931641 L 44.080078 38.445312 A 1.6423445 1.6423445 0 0 0 46.087891 37.287109 A 1.6423445 1.6423445 0 0 0 44.927734 35.271484 L 39.265625 33.757812 A 1.6423445 1.6423445 0 0 0 38.902344 33.701172 z M 127.55664 33.783203 A 1.6423445 1.6423445 0 0 0 127.19141 33.839844 L 121.5293 35.359375 A 1.6423445 1.6423445 0 0 0 120.37109 37.367188 A 1.6423445 1.6423445 0 0 0 122.37891 38.533203 L 128.04883 37.013672 A 1.6423445 1.6423445 0 0 0 129.20703 34.998047 A 1.6423445 1.6423445 0 0 0 127.55664 33.783203 z M 49.3125 36.5 A 1.6423445 1.6423445 0 0 0 47.697266 37.714844 A 1.6423445 1.6423445 0 0 0 48.855469 39.730469 L 55.654297 41.544922 A 1.6423445 1.6423445 0 0 0 57.669922 40.386719 A 1.6423445 1.6423445 0 0 0 56.503906 38.378906 L 49.705078 36.554688 A 1.6423445 1.6423445 0 0 0 49.3125 36.5 z M 117 36.611328 A 1.6423445 1.6423445 0 0 0 116.63672 36.666016 L 109.83789 38.490234 A 1.6423445 1.6423445 0 0 0 108.67773 40.498047 A 1.6423445 1.6423445 0 0 0 110.69336 41.664062 L 117.49219 39.839844 A 1.6423445 1.6423445 0 0 0 118.65039 37.832031 A 1.6423445 1.6423445 0 0 0 117 36.611328 z M 36.763672 45.191406 A 1.6423445 1.6423445 0 0 0 35.117188 46.830078 A 1.6423445 1.6423445 0 0 0 36.763672 48.476562 L 40.285156 48.476562 A 1.6423445 1.6423445 0 0 0 41.923828 46.830078 A 1.6423445 1.6423445 0 0 0 40.285156 45.191406 L 36.763672 45.191406 z M 45.5625 45.191406 A 1.6423445 1.6423445 0 0 0 43.916016 46.830078 A 1.6423445 1.6423445 0 0 0 45.5625 48.476562 L 54.945312 48.476562 A 1.6423445 1.6423445 0 0 0 56.591797 46.830078 A 1.6423445 1.6423445 0 0 0 54.945312 45.191406 L 45.5625 45.191406 z M 111.34375 45.191406 A 1.6423445 1.6423445 0 0 0 109.69727 46.830078 A 1.6423445 1.6423445 0 0 0 111.34375 48.476562 L 120.72461 48.476562 A 1.6423445 1.6423445 0 0 0 122.37109 46.830078 A 1.6423445 1.6423445 0 0 0 120.72461 45.191406 L 111.34375 45.191406 z M 125.53906 45.191406 A 1.6423445 1.6423445 0 0 0 123.89258 46.830078 A 1.6423445 1.6423445 0 0 0 125.53906 48.476562 L 129.05273 48.476562 A 1.6423445 1.6423445 0 0 0 130.69922 46.830078 A 1.6423445 1.6423445 0 0 0 129.05273 45.191406 L 125.53906 45.191406 z M 123.66211 71.941406 A 3.2263573 3.2263573 0 0 0 122.79883 72.1875 L 103.62891 80.691406 L 84.458984 72.1875 A 3.2263573 3.2263573 0 0 0 81.845703 72.1875 L 62.666016 80.691406 L 43.496094 72.1875 A 3.2263573 3.2263573 0 0 0 40.882812 72.1875 L 20.398438 81.267578 L 23.019531 87.166016 L 42.189453 78.662109 L 61.359375 87.166016 A 3.2263573 3.2263573 0 0 0 63.972656 87.166016 L 83.152344 78.662109 L 102.32227 87.166016 A 3.2263573 3.2263573 0 0 0 104.93555 87.166016 L 124.11328 78.662109 L 143.28516 87.166016 L 145.89844 81.267578 L 125.41992 72.1875 A 3.2263573 3.2263573 0 0 0 123.66211 71.941406 z M 0.95703125 101.74414 C 0.67638873 101.74414 0.44597183 101.83333 0.26757812 102.01172 C 0.088932456 102.19021 0 102.42063 0 102.70117 L 0 106.79492 C 0 107.04986 0.088932456 107.27833 0.26757812 107.48242 C 0.44607261 107.66107 0.67648952 107.75 0.95703125 107.75 L 7.765625 107.75 L 7.765625 127.56641 C 7.765625 127.82135 7.8545575 128.04981 8.0332031 128.25391 C 8.2117228 128.43255 8.4401866 128.52148 8.7207031 128.52148 L 13.771484 128.52148 C 14.052127 128.52148 14.280591 128.43255 14.458984 128.25391 C 14.63763 128.04989 14.726562 127.82142 14.726562 127.56641 L 14.726562 107.75 L 21.537109 107.75 C 21.8175 107.75 22.045964 107.66107 22.224609 107.48242 C 22.403255 107.27843 22.492188 107.04996 22.492188 106.79492 L 22.492188 102.70117 C 22.492187 102.42053 22.403255 102.19011 22.224609 102.01172 C 22.04609 101.83333 21.817626 101.74414 21.537109 101.74414 L 0.95703125 101.74414 z M 29.863281 101.74609 C 29.582891 101.74609 29.352474 101.83528 29.173828 102.01367 C 28.995434 102.19217 28.90625 102.42063 28.90625 102.70117 L 28.90625 127.56641 C 28.90625 127.82135 28.995434 128.04981 29.173828 128.25391 C 29.352348 128.43255 29.582765 128.52148 29.863281 128.52148 L 48.033203 128.52344 C 48.313846 128.52344 48.542309 128.43255 48.720703 128.25391 C 48.899097 128.04989 48.988281 127.82142 48.988281 127.56641 L 48.988281 123.9707 C 48.988281 123.69031 48.899097 123.4599 48.720703 123.28125 C 48.542183 123.10286 48.31372 123.01367 48.033203 123.01367 L 35.523438 123.01367 L 35.523438 117.69727 L 46.884766 117.69727 C 47.165408 117.69727 47.395825 117.60833 47.574219 117.42969 C 47.752864 117.22567 47.841797 116.99525 47.841797 116.74023 L 47.841797 113.41211 C 47.841797 113.13147 47.752864 112.903 47.574219 112.72461 C 47.395724 112.52051 47.165307 112.41797 46.884766 112.41797 L 35.523438 112.41797 L 35.523438 107.25391 L 47.726562 107.25391 C 48.006953 107.25391 48.23737 107.16497 48.416016 106.98633 C 48.594409 106.80781 48.683594 106.57739 48.683594 106.29688 L 48.683594 102.70117 C 48.683594 102.42053 48.594409 102.19207 48.416016 102.01367 C 48.237496 101.83528 48.007079 101.74609 47.726562 101.74609 L 29.863281 101.74609 z M 57.238281 101.74609 C 56.957639 101.74609 56.729175 101.83528 56.550781 102.01367 C 56.372388 102.19217 56.283203 102.42063 56.283203 102.70117 L 56.283203 127.56641 C 56.283203 127.82135 56.372388 128.04981 56.550781 128.25391 C 56.729276 128.43255 56.95774 128.52148 57.238281 128.52148 L 61.830078 128.52344 C 62.110469 128.52344 62.338932 128.43255 62.517578 128.25391 C 62.696224 128.04989 62.785156 127.82142 62.785156 127.56641 L 62.785156 113.64258 L 72.119141 127.79492 C 72.17029 127.87134 72.28645 128.0127 72.464844 128.2168 C 72.668863 128.42089 72.974775 128.52344 73.382812 128.52344 L 77.474609 128.52344 C 77.755 128.52344 77.985417 128.43255 78.164062 128.25391 C 78.342708 128.04989 78.431641 127.80786 78.431641 127.52734 L 78.431641 102.70117 C 78.431641 102.42053 78.342708 102.19207 78.164062 102.01367 C 77.985543 101.83528 77.755126 101.74609 77.474609 101.74609 L 72.884766 101.74609 C 72.604123 101.74609 72.375659 101.83528 72.197266 102.01367 C 72.01862 102.19217 71.927734 102.42063 71.927734 102.70117 L 71.927734 117.16211 L 62.59375 102.47266 C 62.542827 102.37079 62.416985 102.22943 62.212891 102.05078 C 62.034371 101.84669 61.728459 101.74609 61.294922 101.74609 L 57.238281 101.74609 z M 87.675781 101.74609 C 87.395391 101.74609 87.166927 101.83528 86.988281 102.01367 C 86.809636 102.19217 86.71875 102.42063 86.71875 102.70117 L 86.71875 127.56641 C 86.71875 127.82135 86.809636 128.04981 86.988281 128.25391 C 87.166801 128.43255 87.395265 128.52148 87.675781 128.52148 L 97.8125 128.52148 C 100.3117 128.52148 102.41638 128.15166 104.125 127.41211 C 105.85915 126.64703 107.17191 125.48724 108.06445 123.93164 C 108.9825 122.37601 109.49366 120.41269 109.5957 118.04102 C 109.62115 116.94442 109.63281 115.97439 109.63281 115.13281 C 109.63281 114.29126 109.62115 113.30959 109.5957 112.1875 C 109.51918 109.91782 109.00802 108.01839 108.06445 106.48828 C 107.12088 104.93265 105.76939 103.75933 104.00977 102.96875 C 102.25012 102.1527 100.12029 101.74609 97.621094 101.74609 L 87.675781 101.74609 z M 124.6543 101.74609 C 124.22076 101.74609 123.87611 101.8603 123.62109 102.08984 C 123.39168 102.29386 123.23871 102.53589 123.16211 102.81641 L 114.17188 127.375 C 114.14643 127.47705 114.13477 127.59125 114.13477 127.71875 C 114.13477 127.92287 114.21034 128.11458 114.36328 128.29297 C 114.54173 128.44591 114.73341 128.52148 114.9375 128.52148 L 119.64258 128.52148 C 120.07622 128.52148 120.38215 128.43255 120.56055 128.25391 C 120.73919 128.04984 120.8534 127.87169 120.9043 127.71875 L 122.35938 123.81641 L 132.57227 123.81641 L 134.06445 127.71875 C 134.11535 127.87167 134.22956 128.04981 134.4082 128.25391 C 134.61222 128.43255 134.90457 128.52148 135.28711 128.52148 L 139.99414 128.52148 C 140.22373 128.52148 140.41346 128.44591 140.56641 128.29297 C 140.74505 128.11455 140.83398 127.92284 140.83398 127.71875 C 140.83398 127.59125 140.80896 127.47705 140.75781 127.375 L 131.80664 102.81641 C 131.73012 102.53597 131.56556 102.29394 131.31055 102.08984 C 131.08103 101.8603 130.74799 101.74609 130.31445 101.74609 L 124.6543 101.74609 z M 147.74609 101.74609 C 147.46545 101.74609 147.23503 101.83528 147.05664 102.01367 C 146.87825 102.19217 146.78906 102.42063 146.78906 102.70117 L 146.78906 127.56641 C 146.78906 127.82135 146.87825 128.04981 147.05664 128.25391 C 147.23514 128.43255 147.46555 128.52148 147.74609 128.52148 L 165.3418 128.52148 C 165.62244 128.52148 165.85286 128.43255 166.03125 128.25391 C 166.2099 128.04989 166.29883 127.82142 166.29883 127.56641 L 166.29883 123.74023 C 166.29883 123.45959 166.2099 123.23113 166.03125 123.05273 C 165.85276 122.84864 165.62234 122.74609 165.3418 122.74609 L 153.75195 122.74609 L 153.75195 102.70117 C 153.75195 102.42053 153.66302 102.19207 153.48438 102.01367 C 153.30586 101.83528 153.07544 101.74609 152.79492 101.74609 L 147.74609 101.74609 z M 93.605469 107.25391 L 97.429688 107.25391 C 99.112812 107.25391 100.37522 107.66247 101.2168 108.47852 C 102.08372 109.26909 102.5426 110.5315 102.59375 112.26562 C 102.64465 112.97968 102.67188 113.62829 102.67188 114.21484 C 102.69732 114.80138 102.69732 115.38805 102.67188 115.97461 C 102.67188 116.56114 102.64465 117.22527 102.59375 117.96484 C 102.56825 119.16343 102.36496 120.13154 101.98242 120.87109 C 101.62538 121.61065 101.07744 122.16054 100.33789 122.51758 C 99.623837 122.84909 98.717686 123.01367 97.621094 123.01367 L 93.605469 123.01367 L 93.605469 107.25391 z M 127.48438 108.21094 L 131.04102 118.30859 L 123.92773 118.30859 L 127.48438 108.21094 z M 121.31836 133.70898 C 120.61296 133.71063 120.04158 134.28235 120.04102 134.98828 L 120.02539 151.77539 C 120.02501 152.48296 120.59908 153.05657 121.30664 153.05664 C 122.01387 153.05706 122.58736 152.48457 122.58789 151.77734 L 122.59961 134.99023 C 122.59999 134.28431 122.02774 133.71161 121.32227 133.70898 L 121.32031 133.70898 L 121.31836 133.70898 z M 71.058594 134.57031 A 1.6427652 1.6550582 0 0 0 69.414062 136.22656 A 1.6427652 1.6550582 0 0 0 71.058594 137.88086 A 1.6427652 1.6550582 0 0 0 72.701172 136.22656 A 1.6427652 1.6550582 0 0 0 71.058594 134.57031 z M 29.787109 139.18555 C 29.375954 139.20196 28.997162 139.41504 28.769531 139.75977 L 28.138672 140.71484 C 27.43158 140.44211 26.66528 140.29102 25.865234 140.29102 C 22.342715 140.29102 19.46875 143.1932 19.46875 146.72656 C 19.46875 149.38574 21.097532 151.68618 23.404297 152.66211 C 22.127122 154.15912 21.522925 154.98045 21.191406 155.54102 C 20.986556 155.8876 20.745924 156.03948 20.845703 156.79883 C 20.895593 157.17848 21.308428 157.73227 21.697266 157.87695 C 22.086028 158.02171 22.427734 157.93359 22.427734 157.93359 C 22.538097 157.91092 22.643605 157.87291 22.744141 157.82227 C 25.610421 156.3769 27.541461 156.10173 28.5625 156.26758 C 31.009933 157.02802 29.692161 160.64547 26.619141 159.89062 C 24.936079 159.14606 24.239405 161.05366 25.652344 161.67188 C 27.300369 162.51274 29.892576 162.11052 31.015625 160.91211 C 32.112595 159.85033 32.648375 158.34623 32.386719 156.87305 C 32.125175 155.39994 30.840713 154.04339 28.974609 153.74023 C 28.03517 153.58754 26.966035 153.64383 25.736328 153.9375 C 26.048517 153.56786 25.944609 153.63698 26.353516 153.17188 C 26.363132 153.16094 26.371683 153.14984 26.380859 153.13867 C 29.663749 152.87185 32.261719 150.08573 32.261719 146.72656 C 32.261719 144.91512 31.507843 143.26914 30.296875 142.0957 L 30.90625 141.17188 C 31.295541 140.58166 31.132953 139.78803 30.542969 139.39844 C 30.330559 139.25822 30.082525 139.18366 29.828125 139.18555 C 29.8148 139.18566 29.800372 139.18502 29.787109 139.18555 z M 40.208984 139.86133 C 40.042685 139.86133 39.877353 139.89971 39.728516 139.97266 C 38.431423 140.62236 37.504403 141.40761 36.808594 142.08398 L 36.810547 141.33789 A 1.2806947 1.2806947 0 0 0 35.53125 140.05469 L 35.529297 140.05469 A 1.2806947 1.2806947 0 0 0 34.248047 141.33398 L 34.232422 151.5957 A 1.2806947 1.2806947 0 0 0 35.511719 152.87891 A 1.2806947 1.2806947 0 0 0 36.794922 151.59961 L 36.806641 144.46289 C 36.890693 144.29844 37.004055 144.1518 37.210938 143.95117 C 37.516323 143.65486 38.233337 143.19612 39.208984 142.64453 L 39.240234 143.53711 C 39.262912 144.11557 39.874706 144.28581 40.453125 144.26562 C 41.031128 144.24673 41.482658 143.76156 41.462891 143.18359 L 41.244141 140.87305 C 41.191227 140.31504 40.769451 139.86707 40.208984 139.86133 z M 145.57227 140.09961 C 145.40663 140.0999 145.24201 140.13828 145.09375 140.21094 C 143.79543 140.86125 142.8679 141.64742 142.17188 142.32422 L 142.17383 141.57617 A 1.2806947 1.2806947 0 0 0 140.89648 140.29297 L 140.89453 140.29297 A 1.2806947 1.2806947 0 0 0 139.61328 141.57227 L 139.59766 151.83398 A 1.2806947 1.2806947 0 0 0 140.87695 153.11719 A 1.2806947 1.2806947 0 0 0 142.16016 151.83789 L 142.16992 144.70312 C 142.2541 144.53773 142.36635 144.39104 142.57422 144.18945 C 142.8796 143.89314 143.59857 143.43443 144.57422 142.88281 L 144.60352 143.77344 C 144.62619 144.35189 145.23994 144.52409 145.81836 144.50391 C 146.39636 144.48501 146.84789 143.9998 146.82812 143.42188 L 146.60938 141.11133 C 146.55652 140.55396 146.13372 140.10641 145.57422 140.09961 L 145.57227 140.09961 z M 62.228516 140.18555 C 62.088394 140.18441 61.948861 140.1881 61.808594 140.19727 L 61.804688 140.19922 C 60.661518 140.37744 59.838011 140.98219 59.275391 141.75195 L 59.275391 141.57617 A 1.2806947 1.2806947 0 0 0 57.996094 140.29297 A 1.2806947 1.2806947 0 0 0 56.712891 141.57227 L 56.699219 151.83398 A 1.2806947 1.2806947 0 0 0 57.976562 153.11719 A 1.2806947 1.2806947 0 0 0 59.259766 151.83789 L 59.271484 144.14844 C 59.627219 142.55126 61.80306 142.1974 62.873047 142.45117 C 64.018659 142.72292 64.886476 143.46294 64.871094 144.87305 C 64.871094 147.11465 64.804253 150.26182 64.837891 151.8457 C 64.853009 152.55266 65.437571 153.11251 66.144531 153.09766 C 66.85187 153.08254 67.413253 152.49824 67.398438 151.79102 C 67.342123 149.1252 67.368455 147.02859 67.40625 145.82031 C 67.495447 142.91994 65.646137 140.85082 63.474609 140.33594 C 63.067469 140.23956 62.648879 140.18897 62.228516 140.18555 z M 71.128906 140.19141 C 70.495651 140.20475 69.857323 140.59776 69.833984 141.33203 L 69.835938 141.33398 L 69.824219 152.06836 C 69.805321 154.10991 69.882617 157.27779 69.515625 157.85742 C 69.33194 158.14731 69.134897 158.3278 68.630859 158.5 C 68.126822 158.67197 67.825067 158.78086 66.644531 158.73438 C 65.937419 158.70792 65.34193 159.25574 65.314453 159.96289 C 65.287996 160.66966 65.83815 161.26545 66.544922 161.29297 C 67.91519 161.34702 68.505838 161.24887 69.457031 160.92383 C 70.408187 160.59917 71.195228 159.99334 71.679688 159.22852 C 72.527658 157.89001 72.429759 151.85313 72.392578 151.74414 C 72.388338 151.75708 72.384914 151.86591 72.384766 152.08008 L 72.396484 141.33594 C 72.390815 140.5445 71.762161 140.17806 71.128906 140.19141 z M 53.484375 140.26758 A 1.2806947 1.2806947 0 0 0 52.203125 141.54688 L 52.203125 141.69141 C 51.110612 140.81602 49.72897 140.29102 48.230469 140.29102 C 44.707911 140.29102 41.833984 143.1932 41.833984 146.72656 C 41.833984 150.26001 44.707911 153.16016 48.230469 153.16016 C 49.721998 153.16016 51.097399 152.63955 52.1875 151.77148 L 52.1875 151.80859 A 1.2806947 1.2806947 0 0 0 53.466797 153.0918 A 1.2806947 1.2806947 0 0 0 54.748047 151.8125 L 54.763672 141.55078 A 1.2806947 1.2806947 0 0 0 53.486328 140.26758 L 53.484375 140.26758 z M 85.861328 140.26758 A 1.2806947 1.2806947 0 0 0 84.580078 141.54688 L 84.580078 141.69141 C 83.487732 140.81602 82.105939 140.29102 80.607422 140.29102 C 77.084902 140.29102 74.210938 143.1932 74.210938 146.72656 C 74.210938 150.26001 77.084902 153.16016 80.607422 153.16016 C 82.098967 153.16016 83.474519 152.63955 84.564453 151.77148 L 84.564453 151.80859 A 1.2806947 1.2806947 0 0 0 85.84375 153.0918 A 1.2806947 1.2806947 0 0 0 87.125 151.8125 L 87.140625 141.55078 A 1.2806947 1.2806947 0 0 0 85.863281 140.26758 L 85.861328 140.26758 z M 135.80664 140.26758 A 1.2806947 1.2806947 0 0 0 134.52539 141.54688 L 134.52539 141.69141 C 133.43287 140.81602 132.05125 140.29102 130.55273 140.29102 C 127.03014 140.29102 124.15625 143.1932 124.15625 146.72656 C 124.15625 150.26001 127.03014 153.16016 130.55273 153.16016 C 132.04428 153.16016 133.41966 152.63955 134.50977 151.77148 L 134.50977 151.80859 A 1.2806947 1.2806947 0 0 0 135.78906 153.0918 A 1.2806947 1.2806947 0 0 0 137.07031 151.8125 L 137.08594 141.55078 A 1.2806947 1.2806947 0 0 0 135.80859 140.26758 L 135.80664 140.26758 z M 112.04102 140.29102 C 108.51842 140.29102 105.64453 143.1932 105.64453 146.72656 C 105.64453 150.26001 108.51842 153.16016 112.04102 153.16016 C 115.56361 153.16016 118.4375 150.26001 118.4375 146.72656 C 118.4375 143.1932 115.56361 140.29102 112.04102 140.29102 z M 99.318359 140.4043 C 98.278007 140.4043 97.614045 140.58676 96.857422 140.94922 C 96.116559 141.29603 95.55798 141.75285 95.179688 142.32031 C 94.801546 142.87201 94.611328 143.46321 94.611328 144.09375 C 94.611328 145.0553 94.928055 145.82694 95.558594 146.41016 C 96.204893 146.99338 96.962854 147.42709 98.302734 147.71094 C 99.232725 147.90025 99.933356 148.08043 100.40625 148.25391 C 100.87914 148.41155 101.20347 148.59398 101.37695 148.79883 C 101.56631 149.00375 101.66016 149.27243 101.66016 149.60352 C 101.66016 150.04489 101.45477 150.39048 101.04492 150.64258 C 100.63511 150.89463 100.11491 151.02148 99.484375 151.02148 C 99.043002 151.02148 98.641754 150.95033 98.279297 150.80859 C 97.674157 150.55714 97.077886 150.19989 96.482422 149.62695 C 95.849956 149.06532 93.593002 149.6126 94.636719 151.40039 C 95.030848 151.87332 95.629688 152.28989 96.433594 152.65234 C 97.237499 152.999 98.231826 153.17383 99.414062 153.17383 C 101.148 153.17383 102.26111 152.82636 103.22266 152.13281 C 104.18417 151.43923 104.66406 150.5409 104.66406 149.4375 C 104.66406 148.52323 104.3339 147.74968 103.67188 147.11914 C 103.02558 146.4886 102.17926 146.02395 100.66602 145.72461 C 99.751748 145.55102 99.066509 145.37856 98.609375 145.20508 C 98.152241 145.03164 97.845106 144.84913 97.6875 144.66016 C 97.529516 144.47095 97.451172 144.22707 97.451172 143.92773 C 97.451172 143.51788 97.608616 143.18764 97.923828 142.93555 C 98.254877 142.68349 98.711703 142.55664 99.294922 142.55664 C 99.720534 142.55664 100.09104 142.61986 100.40625 142.74609 C 100.7215 142.87222 100.99778 143.0449 101.23438 143.26562 C 102.05087 144.58808 104.63184 143.90213 103.81055 142.13086 C 103.41649 141.65796 102.83488 141.25687 102.0625 140.92578 C 101.29012 140.57909 100.37451 140.4043 99.318359 140.4043 z M 25.865234 142.85156 C 26.142361 142.85156 26.411871 142.88216 26.671875 142.9375 L 26.259766 143.5625 C 25.870512 144.15282 26.033063 144.94642 26.623047 145.33594 C 27.213107 145.72538 28.008541 145.56264 28.398438 144.97266 L 28.851562 144.28516 C 29.382555 144.94878 29.701172 145.79604 29.701172 146.72656 C 29.701172 148.88592 27.993184 150.59766 25.865234 150.59766 C 23.737285 150.59766 22.03125 148.88592 22.03125 146.72656 C 22.03125 144.56713 23.737285 142.85156 25.865234 142.85156 z M 48.230469 142.85156 C 50.358418 142.85156 52.064453 144.56713 52.064453 146.72656 C 52.064453 148.88592 50.358418 150.59766 48.230469 150.59766 C 46.102557 150.59766 44.394531 148.88592 44.394531 146.72656 C 44.394531 144.56713 46.102557 142.85156 48.230469 142.85156 z M 80.607422 142.85156 C 82.735409 142.85156 84.443359 144.56713 84.443359 146.72656 C 84.443359 148.88592 82.735409 150.59766 80.607422 150.59766 C 78.47951 150.59766 76.773438 148.88592 76.773438 146.72656 C 76.773438 144.56713 78.47951 142.85156 80.607422 142.85156 z M 112.04102 142.85156 C 114.16897 142.85156 115.87695 144.56713 115.87695 146.72656 C 115.87695 148.88592 114.16897 150.59766 112.04102 150.59766 C 109.91307 150.59766 108.20703 148.88592 108.20703 146.72656 C 108.20703 144.56713 109.91307 142.85156 112.04102 142.85156 z M 130.55273 142.85156 C 132.68068 142.85156 134.38672 144.56713 134.38672 146.72656 C 134.38672 148.88592 132.68068 150.59766 130.55273 150.59766 C 128.42478 150.59766 126.7168 148.88592 126.7168 146.72656 C 126.7168 144.56713 128.42478 142.85156 130.55273 142.85156 z "
       transform="matrix(0.26458333,0,0,0.26458333,134.91744,74.402254)" />
  </g>
</svg>
