<?xml version="1.0" encoding="UTF-8" standalone="no"?>
<!-- Created with Inkscape (http://www.inkscape.org/) -->

<svg
   width="376mm"
   height="376mm"
   viewBox="0 0 376 376"
   version="1.1"
   id="svg30210"
   xmlns="http://www.w3.org/2000/svg"
   xmlns:svg="http://www.w3.org/2000/svg">
  <defs
     id="defs30207" />
  <g
     id="layer1"
     transform="translate(8.3711605,66.886581)">
    <path
       id="path33174"
       style="font-weight:bold;font-size:86.2767px;line-height:1.25;font-family:Rubik;-inkscape-font-specification:'Rubik Bold';letter-spacing:6.61458px;stroke-width:0.999999"
       d="M 712.55273 19.576172 A 13.999994 13.999994 0 0 0 698.54883 33.580078 L 698.54883 113.57812 A 13.999994 13.999994 0 0 0 712.55273 127.58008 A 13.999994 13.999994 0 0 0 726.54883 113.57812 L 726.54883 33.580078 A 13.999994 13.999994 0 0 0 712.55273 19.576172 z M 614.54883 30.710938 A 13.999994 13.999994 0 0 0 610.46875 31.179688 A 13.999994 13.999994 0 0 0 600.56836 48.328125 L 608.33398 77.310547 A 13.999994 13.999994 0 0 0 625.47461 87.208984 A 13.999994 13.999994 0 0 0 635.375 70.060547 L 627.61523 41.080078 A 13.999994 13.999994 0 0 0 614.54883 30.710938 z M 810.33203 31.523438 A 13.999994 13.999994 0 0 0 797.26562 41.892578 L 789.50781 70.865234 A 13.999994 13.999994 0 0 0 799.4082 88.013672 A 13.999994 13.999994 0 0 0 816.54883 78.115234 L 824.31445 49.140625 A 13.999994 13.999994 0 0 0 814.41406 31.992188 A 13.999994 13.999994 0 0 0 810.33203 31.523438 z M 517.74414 70.337891 A 13.999994 13.999994 0 0 0 510.22266 72.201172 A 13.999994 13.999994 0 0 0 505.09961 91.328125 L 530.10156 134.63086 A 13.999994 13.999994 0 0 0 549.22852 139.75391 A 13.999994 13.999994 0 0 0 554.35156 120.62695 L 529.34766 77.324219 A 13.999994 13.999994 0 0 0 520.84375 70.806641 A 13.999994 13.999994 0 0 0 517.74414 70.337891 z M 906.02344 72.642578 A 13.999994 13.999994 0 0 0 902.92383 73.109375 A 13.999994 13.999994 0 0 0 894.41992 79.626953 L 869.42383 122.92969 A 13.999994 13.999994 0 0 0 874.54688 142.05664 A 13.999994 13.999994 0 0 0 893.67383 136.93359 L 918.66992 93.630859 A 13.999994 13.999994 0 0 0 913.54688 74.505859 A 13.999994 13.999994 0 0 0 906.02344 72.642578 z M 633.49805 103.14844 A 13.999994 13.999994 0 0 0 629.875 103.62695 A 13.999994 13.999994 0 0 0 619.97656 120.77539 L 640.68164 198.04883 A 13.999994 13.999994 0 0 0 657.83008 207.94727 A 13.999994 13.999994 0 0 0 667.72852 190.79883 L 647.02344 113.52539 A 13.999994 13.999994 0 0 0 633.49805 103.14844 z M 791.38281 103.95312 A 13.999994 13.999994 0 0 0 777.85938 114.33789 L 757.15234 191.61133 A 13.999994 13.999994 0 0 0 767.05273 208.75195 A 13.999994 13.999994 0 0 0 784.20117 198.85352 L 804.90625 121.58008 A 13.999994 13.999994 0 0 0 795.00781 104.43164 A 13.999994 13.999994 0 0 0 791.38281 103.95312 z M 432.53516 130.99805 A 13.999994 13.999994 0 0 0 422.63477 135.10352 A 13.999994 13.999994 0 0 0 422.63477 154.90039 L 479.21094 211.46875 A 13.999994 13.999994 0 0 0 499.00781 211.46875 A 13.999994 13.999994 0 0 0 499.00781 191.66992 L 442.44141 135.10352 A 13.999994 13.999994 0 0 0 432.53516 130.99805 z M 991.42578 132.14258 A 13.999994 13.999994 0 0 0 981.52539 136.24023 L 924.95117 192.80664 A 13.999994 13.999994 0 0 0 924.95117 212.60547 A 13.999994 13.999994 0 0 0 944.75586 212.60547 L 1001.3242 156.03711 A 13.999994 13.999994 0 0 0 1001.3242 136.24023 A 13.999994 13.999994 0 0 0 991.42578 132.14258 z M 712.55273 143.5918 A 13.999994 13.999994 0 0 0 698.54883 157.5957 L 698.54883 187.5957 A 13.999994 13.999994 0 0 0 712.55273 201.5918 A 13.999994 13.999994 0 0 0 726.54883 187.5957 L 726.54883 157.5957 A 13.999994 13.999994 0 0 0 712.55273 143.5918 z M 564.70508 151.66602 A 13.999994 13.999994 0 0 0 557.17773 153.53516 A 13.999994 13.999994 0 0 0 552.05469 172.6543 L 582.05469 224.62305 A 13.999994 13.999994 0 0 0 601.18164 229.74609 A 13.999994 13.999994 0 0 0 606.30469 210.61914 L 576.30469 158.6582 A 13.999994 13.999994 0 0 0 567.80859 152.13281 A 13.999994 13.999994 0 0 0 564.70508 151.66602 z M 859.37109 153.4375 A 13.999994 13.999994 0 0 0 856.26953 153.9043 A 13.999994 13.999994 0 0 0 847.77344 160.42969 L 817.77344 212.39062 A 13.999994 13.999994 0 0 0 822.89648 231.51758 A 13.999994 13.999994 0 0 0 842.02344 226.38672 L 872.02344 174.42578 A 13.999994 13.999994 0 0 0 866.90039 155.30664 A 13.999994 13.999994 0 0 0 859.37109 153.4375 z M 370.39258 212.89062 A 13.999994 13.999994 0 0 0 366.3125 213.35742 A 13.999994 13.999994 0 0 0 357.81445 219.88477 A 13.999994 13.999994 0 0 0 362.9375 239.00977 L 388.91602 254.00977 A 13.999994 13.999994 0 0 0 408.04102 248.88086 A 13.999994 13.999994 0 0 0 402.91797 229.76172 L 376.93359 214.76172 A 13.999994 13.999994 0 0 0 370.39258 212.89062 z M 1051.707 214.625 A 13.999994 13.999994 0 0 0 1045.166 216.49609 L 1019.1816 231.48828 A 13.999994 13.999994 0 0 0 1014.0586 250.61523 A 13.999994 13.999994 0 0 0 1033.1836 255.73828 L 1059.1621 240.73828 A 13.999994 13.999994 0 0 0 1064.2852 221.61914 A 13.999994 13.999994 0 0 0 1055.7871 215.09375 A 13.999994 13.999994 0 0 0 1051.707 214.625 z M 521.78125 220.24609 A 13.999994 13.999994 0 0 0 511.88281 224.3418 A 13.999994 13.999994 0 0 0 511.88281 244.14062 L 533.08984 265.35547 A 13.999994 13.999994 0 0 0 552.88867 265.35547 A 13.999994 13.999994 0 0 0 552.88867 245.55859 L 531.68164 224.3418 A 13.999994 13.999994 0 0 0 521.78125 220.24609 z M 901.33594 222.22461 A 13.999994 13.999994 0 0 0 891.4375 226.32812 L 870.22266 247.53711 A 13.999994 13.999994 0 0 0 870.22266 267.33398 A 13.999994 13.999994 0 0 0 890.02734 267.33398 L 911.23633 246.12695 A 13.999994 13.999994 0 0 0 911.23633 226.32812 A 13.999994 13.999994 0 0 0 901.33594 222.22461 z M 710.60352 239.80273 C 667.28568 239.79024 623.96314 254.83806 589.18164 284.94922 C 519.61865 345.17154 504.79022 447.83774 554.47461 525.2793 L 559.91406 533.75391 L 535.96289 544.37695 L 372.52734 471.88672 A 27.502782 27.502782 0 0 0 350.22656 471.88672 L 175.64453 549.32227 L 197.94531 599.59375 L 361.38086 527.11133 L 524.81641 599.59375 A 27.502782 27.502782 0 0 0 547.11719 599.59375 L 710.55078 527.11133 L 873.98633 599.59375 A 27.502782 27.502782 0 0 0 896.28711 599.59375 L 1059.7227 527.11133 L 1223.1641 599.59375 L 1245.457 549.32227 L 1070.877 471.88672 A 27.502782 27.502782 0 0 0 1048.5762 471.88672 L 885.14062 544.37695 L 861.18555 533.75195 L 866.57031 525.37109 C 916.29873 447.95779 901.52872 345.28141 832 285.01953 C 797.23563 254.8886 753.92135 239.81523 710.60352 239.80273 z M 434.88867 250.38281 A 13.999994 13.999994 0 0 0 431.26562 250.85742 A 13.999994 13.999994 0 0 0 422.76172 257.38477 A 13.999994 13.999994 0 0 0 427.88477 276.50977 L 497.16992 316.50586 A 13.999994 13.999994 0 0 0 516.29688 311.38281 A 13.999994 13.999994 0 0 0 511.16602 292.25586 L 441.88672 252.26172 A 13.999994 13.999994 0 0 0 434.88867 250.38281 z M 987.21094 252.11523 A 13.999994 13.999994 0 0 0 980.21094 253.98828 L 910.92578 293.99023 A 13.999994 13.999994 0 0 0 905.80273 313.11719 A 13.999994 13.999994 0 0 0 924.92969 318.24023 L 994.20703 278.23828 A 13.999994 13.999994 0 0 0 999.33789 259.11914 A 13.999994 13.999994 0 0 0 990.83398 252.59375 A 13.999994 13.999994 0 0 0 987.21094 252.11523 z M 710.5918 289.62305 C 742.16857 289.63214 773.74227 300.69327 799.25391 322.80469 C 850.27719 367.02755 860.99297 441.53637 824.5 498.3457 L 814.93164 513.23828 L 721.69727 471.88672 A 27.502782 27.502782 0 0 0 699.4043 471.88672 L 606.16211 513.24219 L 596.56055 498.2793 C 560.09994 441.44924 570.86173 366.94773 621.91016 322.75391 C 647.43435 300.65701 679.01502 289.61395 710.5918 289.62305 z M 333.34375 306.86133 A 13.999994 13.999994 0 0 0 319.29688 317.22852 A 13.999994 13.999994 0 0 0 329.19531 334.37695 L 377.49609 347.31836 A 13.999994 13.999994 0 0 0 394.64258 337.41797 A 13.999994 13.999994 0 0 0 384.74414 320.26953 L 336.44531 307.33008 A 13.999994 13.999994 0 0 0 333.34375 306.86133 z M 1089.1152 307.57227 A 13.999994 13.999994 0 0 0 1086.0156 308.03906 L 1037.7168 320.97852 A 13.999994 13.999994 0 0 0 1027.8184 338.12695 A 13.999994 13.999994 0 0 0 1044.9648 348.02539 L 1093.2578 335.08594 A 13.999994 13.999994 0 0 0 1103.1582 317.9375 A 13.999994 13.999994 0 0 0 1089.1152 307.57227 z M 422.36914 330.71289 A 13.999994 13.999994 0 0 0 408.32227 341.08789 A 13.999994 13.999994 0 0 0 418.22852 358.22852 L 476.18359 373.75977 A 13.999994 13.999994 0 0 0 493.32422 363.85938 A 13.999994 13.999994 0 0 0 483.42578 346.71289 L 425.4707 331.17969 A 13.999994 13.999994 0 0 0 422.36914 330.71289 z M 999.125 331.67969 A 13.999994 13.999994 0 0 0 996.02344 332.14844 L 938.06836 347.67969 A 13.999994 13.999994 0 0 0 928.16992 364.82812 A 13.999994 13.999994 0 0 0 945.31836 374.72656 L 1003.2734 359.19531 A 13.999994 13.999994 0 0 0 1013.1719 342.04688 A 13.999994 13.999994 0 0 0 999.125 331.67969 z M 315.13281 404.78516 A 13.999994 13.999994 0 0 0 301.13672 418.78906 A 13.999994 13.999994 0 0 0 315.13281 432.79297 L 345.13281 432.79297 A 13.999994 13.999994 0 0 0 359.13672 418.78906 A 13.999994 13.999994 0 0 0 345.13281 404.78516 L 315.13281 404.78516 z M 390.13281 404.78516 A 13.999994 13.999994 0 0 0 376.13672 418.78906 A 13.999994 13.999994 0 0 0 390.13281 432.79297 L 470.13867 432.79297 A 13.999994 13.999994 0 0 0 484.13477 418.78906 A 13.999994 13.999994 0 0 0 470.13867 404.78516 L 390.13281 404.78516 z M 950.86914 404.78516 A 13.999994 13.999994 0 0 0 936.87305 418.78906 A 13.999994 13.999994 0 0 0 950.86914 432.79297 L 1030.873 432.79297 A 13.999994 13.999994 0 0 0 1044.8691 418.78906 A 13.999994 13.999994 0 0 0 1030.873 404.78516 L 950.86914 404.78516 z M 1071.873 404.78516 A 13.999994 13.999994 0 0 0 1057.8691 418.78906 A 13.999994 13.999994 0 0 0 1071.873 432.79297 L 1101.873 432.79297 A 13.999994 13.999994 0 0 0 1115.8691 418.78906 A 13.999994 13.999994 0 0 0 1101.873 404.78516 L 1071.873 404.78516 z M 1321.1465 481.25781 C 1316.5653 481.25781 1312.2887 482.11392 1308.3184 483.82422 C 1304.348 485.53452 1300.8373 487.91659 1297.7832 490.9707 C 1294.7902 493.96373 1292.4369 497.44567 1290.7266 501.41602 C 1289.0163 505.38636 1288.1621 509.66102 1288.1621 514.24219 C 1288.1621 518.82335 1289.0163 523.09997 1290.7266 527.07031 C 1292.4369 531.04066 1294.7902 534.55331 1297.7832 537.60742 C 1300.8373 540.60045 1304.348 542.95181 1308.3184 544.66211 C 1312.2887 546.37241 1316.5653 547.22852 1321.1465 547.22852 C 1325.7276 547.22852 1330.0043 546.37241 1333.9746 544.66211 C 1337.945 542.95181 1341.4249 540.60045 1344.418 537.60742 C 1347.4721 534.55331 1349.8542 531.04066 1351.5645 527.07031 C 1353.2748 523.09997 1354.1309 518.82335 1354.1309 514.24219 C 1354.1309 509.66102 1353.2748 505.38636 1351.5645 501.41602 C 1349.8542 497.44567 1347.4721 493.96373 1344.418 490.9707 C 1341.4249 487.91659 1337.945 485.53452 1333.9746 483.82422 C 1330.0043 482.11392 1325.7276 481.25781 1321.1465 481.25781 z M 1321.1465 487.76367 C 1324.8114 487.76367 1328.2012 488.4662 1331.3164 489.87109 C 1334.4316 491.27598 1337.1803 493.20124 1339.5625 495.64453 C 1341.9447 498.02674 1343.8085 500.83491 1345.1523 504.07227 C 1346.4962 507.24854 1347.168 510.63834 1347.168 514.24219 C 1347.168 517.84604 1346.4962 521.2685 1345.1523 524.50586 C 1343.8085 527.68213 1341.9447 530.49031 1339.5625 532.93359 C 1337.1803 535.3158 1334.4316 537.21034 1331.3164 538.61523 C 1328.2012 540.02013 1324.8114 540.72266 1321.1465 540.72266 C 1317.5426 540.72266 1314.1528 540.02013 1310.9766 538.61523 C 1307.8614 537.21034 1305.1127 535.3158 1302.7305 532.93359 C 1300.4093 530.49031 1298.5762 527.68213 1297.2324 524.50586 C 1295.8886 521.2685 1295.2168 517.84604 1295.2168 514.24219 C 1295.2168 510.63834 1295.8886 507.24854 1297.2324 504.07227 C 1298.5762 500.83491 1300.4093 498.02674 1302.7305 495.64453 C 1305.1127 493.20124 1307.8614 491.27598 1310.9766 489.87109 C 1314.1528 488.4662 1317.5426 487.76367 1321.1465 487.76367 z M 1310.1523 497.38477 C 1308.8085 497.38477 1308.1367 498.05658 1308.1367 499.40039 L 1308.1367 528.90234 C 1308.1367 530.24615 1308.8085 530.91797 1310.1523 530.91797 L 1314.3652 530.91797 C 1315.7091 530.91797 1316.3809 530.24615 1316.3809 528.90234 L 1316.3809 519.375 L 1321.9707 519.375 L 1327.1016 529.17773 C 1327.407 529.72747 1327.7736 530.15553 1328.2012 530.46094 C 1328.6288 530.76635 1329.1489 530.91797 1329.7598 530.91797 L 1333.6992 530.91797 C 1334.3711 530.91797 1334.8587 530.70492 1335.1641 530.27734 C 1335.5306 529.84977 1335.7148 529.391 1335.7148 528.90234 C 1335.7148 528.59694 1335.684 528.35318 1335.623 528.16992 C 1335.5621 527.92558 1335.4699 527.74325 1335.3477 527.62109 L 1329.9414 517.81641 C 1331.6517 517.08342 1333.0568 515.95284 1334.1562 514.42578 C 1335.3168 512.83764 1335.8984 510.82219 1335.8984 508.37891 C 1335.8984 505.63021 1335.2573 503.46118 1333.9746 501.87305 C 1332.753 500.28491 1331.1022 499.15628 1329.0254 498.48438 C 1327.0097 497.75139 1324.8426 497.38477 1322.5215 497.38477 L 1310.1523 497.38477 z M 1316.3828 504.16406 L 1322.4297 504.16406 C 1324.3843 504.16406 1325.7279 504.59211 1326.4609 505.44727 C 1327.1939 506.24133 1327.5605 507.21834 1327.5605 508.37891 C 1327.5605 509.47839 1327.1939 510.4554 1326.4609 511.31055 C 1325.7279 512.10462 1324.3843 512.50195 1322.4297 512.50195 L 1316.3828 512.50195 L 1316.3828 504.16406 z M 1059.7266 632.54688 A 27.502782 27.502782 0 0 0 1048.5762 634.9082 L 885.14062 707.39844 L 721.69727 634.9082 A 27.502782 27.502782 0 0 0 699.4043 634.9082 L 535.96289 707.39844 L 372.52734 634.9082 A 27.502782 27.502782 0 0 0 357.5625 632.8125 A 27.502782 27.502782 0 0 0 350.22656 634.9082 L 175.64453 712.34375 L 197.94531 762.62305 L 361.38086 690.13281 L 524.81641 762.62305 A 27.502782 27.502782 0 0 0 547.11719 762.62305 L 710.55078 690.13281 L 873.98633 762.62305 A 27.502782 27.502782 0 0 0 896.28711 762.62305 L 1059.7227 690.13281 L 1223.1641 762.62305 L 1245.457 712.34375 L 1070.877 634.9082 A 27.502782 27.502782 0 0 0 1059.7266 632.54688 z M 9.9023438 886.88867 C 7.5110525 886.88867 5.5549339 887.65014 4.0332031 889.17188 C 2.5114724 890.69359 1.75 892.64971 1.75 895.04102 L 1.75 929.93164 C 1.75 932.10555 2.5114724 934.06167 4.0332031 935.80078 C 5.5549339 937.32252 7.5110525 938.08398 9.9023438 938.08398 L 67.945312 938.08398 L 67.945312 1106.9961 C 67.945312 1109.17 68.706784 1111.1261 70.228516 1112.8652 C 71.750244 1114.387 73.706364 1115.1484 76.097656 1115.1484 L 119.14062 1115.1484 C 121.53192 1115.1484 123.48999 1114.387 125.01172 1112.8652 C 126.53345 1111.1261 127.29297 1109.17 127.29297 1106.9961 L 127.29297 938.08398 L 185.33594 938.08398 C 187.72723 938.08398 189.6853 937.32252 191.20703 935.80078 C 192.72876 934.06167 193.48828 932.10555 193.48828 929.93164 L 193.48828 895.04102 C 193.48828 892.64971 192.72876 890.69359 191.20703 889.17188 C 189.6853 887.65014 187.72723 886.88867 185.33594 886.88867 L 9.9023438 886.88867 z M 256.31445 886.88867 C 253.92316 886.88867 251.96704 887.65014 250.44531 889.17188 C 248.92358 890.69359 248.16211 892.64971 248.16211 895.04102 L 248.16211 1106.9961 C 248.16211 1109.17 248.92358 1111.1261 250.44531 1112.8652 C 251.96704 1114.387 253.92316 1115.1484 256.31445 1115.1484 L 411.20508 1115.1484 C 413.59639 1115.1484 415.55251 1114.387 417.07422 1112.8652 C 418.59596 1111.1261 419.35742 1109.17 419.35742 1106.9961 L 419.35742 1076.3438 C 419.35742 1073.9525 418.59596 1071.9963 417.07422 1070.4746 C 415.55251 1068.9529 413.59639 1068.1914 411.20508 1068.1914 L 304.57422 1068.1914 L 304.57422 1022.8652 L 401.42188 1022.8652 C 403.81316 1022.8652 405.76928 1022.1057 407.29102 1020.584 C 408.81275 1018.8448 409.57422 1016.8887 409.57422 1014.7148 L 409.57422 986.34375 C 409.57422 983.95247 408.81275 981.99635 407.29102 980.47461 C 405.76928 978.7355 403.81316 977.86719 401.42188 977.86719 L 304.57422 977.86719 L 304.57422 933.8457 L 408.5957 933.8457 C 410.98699 933.8457 412.94506 933.08421 414.4668 931.5625 C 415.98854 930.04076 416.74805 928.08464 416.74805 925.69336 L 416.74805 895.04102 C 416.74805 892.64971 415.98854 890.69359 414.4668 889.17188 C 412.94506 887.65014 410.98699 886.88867 408.5957 886.88867 L 256.31445 886.88867 z M 489.68359 886.88867 C 487.29231 886.88867 485.33424 887.65014 483.8125 889.17188 C 482.29079 890.69359 481.53125 892.64971 481.53125 895.04102 L 481.53125 1106.9961 C 481.53125 1109.17 482.29079 1111.1261 483.8125 1112.8652 C 485.33424 1114.387 487.29231 1115.1484 489.68359 1115.1484 L 528.8125 1115.1484 C 531.20378 1115.1484 533.16186 1114.387 534.68359 1112.8652 C 536.20533 1111.1261 536.96484 1109.17 536.96484 1106.9961 L 536.96484 988.30078 L 616.5293 1108.9531 C 616.96407 1109.6053 617.94311 1110.7999 619.46484 1112.5391 C 621.20396 1114.2782 623.81277 1115.1484 627.29102 1115.1484 L 662.18164 1115.1484 C 664.57292 1115.1484 666.52904 1114.387 668.05078 1112.8652 C 669.57252 1111.1261 670.33398 1109.0612 670.33398 1106.6699 L 670.33398 895.04102 C 670.33398 892.64971 669.57252 890.69359 668.05078 889.17188 C 666.52904 887.65014 664.57292 886.88867 662.18164 886.88867 L 623.05078 886.88867 C 620.6595 886.88867 618.70338 887.65014 617.18164 889.17188 C 615.65993 890.69359 614.90039 892.64971 614.90039 895.04102 L 614.90039 1018.3008 L 535.33398 893.08398 C 534.89921 892.21442 533.81336 891.01979 532.07422 889.49805 C 530.55251 887.75894 527.94369 886.88867 524.24805 886.88867 L 489.68359 886.88867 z M 749.13867 886.88867 C 746.74736 886.88867 744.79127 887.65014 743.26953 889.17188 C 741.74782 890.69359 740.98633 892.64971 740.98633 895.04102 L 740.98633 1106.9961 C 740.98633 1109.17 741.74782 1111.1261 743.26953 1112.8652 C 744.79127 1114.387 746.74736 1115.1484 749.13867 1115.1484 L 835.55078 1115.1484 C 856.85502 1115.1484 874.79033 1111.9957 889.35547 1105.6914 C 904.13798 1099.1697 915.33274 1089.2784 922.94141 1076.0176 C 930.76745 1062.7568 935.11481 1046.0181 935.98438 1025.8008 C 936.20182 1016.453 936.31055 1008.1915 936.31055 1001.0176 C 936.31055 993.84371 936.20182 985.47531 935.98438 975.91016 C 935.3322 956.56243 930.98485 940.36567 922.94141 927.32227 C 914.89797 914.06147 903.37686 904.06332 888.37695 897.32422 C 873.37702 890.36775 855.22414 886.88867 833.91992 886.88867 L 749.13867 886.88867 z M 1064.3535 886.88867 C 1060.6579 886.88867 1057.7227 887.86771 1055.5488 889.82422 C 1053.5923 891.56333 1052.2889 893.62822 1051.6367 896.01953 L 975.00586 1105.3652 C 974.78841 1106.2348 974.67969 1107.2138 974.67969 1108.3008 C 974.67969 1110.0399 975.33238 1111.6697 976.63672 1113.1914 C 978.15846 1114.4957 979.78821 1115.1484 981.52734 1115.1484 L 1021.6367 1115.1484 C 1025.3323 1115.1484 1027.9412 1114.387 1029.4629 1112.8652 C 1030.9846 1111.1261 1031.9617 1109.6051 1032.3965 1108.3008 L 1044.7891 1075.0391 L 1131.8535 1075.0391 L 1144.5703 1108.3008 C 1145.0051 1109.6051 1145.9841 1111.1261 1147.5059 1112.8652 C 1149.245 1114.387 1151.745 1115.1484 1155.0059 1115.1484 L 1195.1133 1115.1484 C 1197.0698 1115.1484 1198.7015 1114.4957 1200.0059 1113.1914 C 1201.5276 1111.6697 1202.2871 1110.0399 1202.2871 1108.3008 C 1202.2871 1107.2138 1202.0695 1106.2348 1201.6348 1105.3652 L 1125.332 896.01953 C 1124.6799 893.62822 1123.2657 891.56333 1121.0918 889.82422 C 1119.1353 887.86771 1116.3089 886.88867 1112.6133 886.88867 L 1064.3535 886.88867 z M 1261.1992 886.88867 C 1258.8079 886.88867 1256.8518 887.65014 1255.3301 889.17188 C 1253.8084 890.69359 1253.0488 892.64971 1253.0488 895.04102 L 1253.0488 1106.9961 C 1253.0488 1109.17 1253.8084 1111.1261 1255.3301 1112.8652 C 1256.8518 1114.387 1258.8079 1115.1484 1261.1992 1115.1484 L 1411.1992 1115.1484 C 1413.5905 1115.1484 1415.5466 1114.387 1417.0684 1112.8652 C 1418.5901 1111.1261 1419.3516 1109.17 1419.3516 1106.9961 L 1419.3516 1074.3867 C 1419.3516 1071.9954 1418.5901 1070.0393 1417.0684 1068.5176 C 1415.5466 1066.7785 1413.5905 1065.9102 1411.1992 1065.9102 L 1312.3965 1065.9102 L 1312.3965 895.04102 C 1312.3965 892.64971 1311.635 890.69359 1310.1133 889.17188 C 1308.5915 887.65014 1306.6354 886.88867 1304.2441 886.88867 L 1261.1992 886.88867 z M 799.68164 933.8457 L 832.28906 933.8457 C 846.63683 933.8457 857.39839 937.3228 864.57227 944.2793 C 871.96353 951.0184 875.87578 961.77999 876.31055 976.5625 C 876.74532 982.64943 876.96289 988.19144 876.96289 993.19141 C 877.18034 998.19139 877.18034 1003.1914 876.96289 1008.1914 C 876.96289 1013.1914 876.74532 1018.8441 876.31055 1025.1484 C 876.09315 1035.3658 874.3546 1043.6273 871.09375 1049.9316 C 868.0503 1056.2359 863.37659 1060.9096 857.07227 1063.9531 C 850.98536 1066.7792 843.2677 1068.1914 833.91992 1068.1914 L 799.68164 1068.1914 L 799.68164 933.8457 z M 1088.4844 941.99609 L 1118.8105 1028.084 L 1058.1582 1028.084 L 1088.4844 941.99609 z M 1035.9453 1159.3672 C 1029.9197 1159.3666 1025.0323 1164.2506 1025.0273 1170.2773 L 1024.9141 1313.3672 C 1024.9107 1319.3986 1029.7987 1324.2903 1035.8301 1324.291 C 1041.8588 1324.2944 1046.7474 1319.4096 1046.752 1313.3809 L 1046.8555 1170.291 C 1046.8589 1164.2643 1041.9772 1159.3749 1035.9512 1159.3672 L 1035.9492 1159.3672 L 1035.9453 1159.3672 z M 607.47656 1166.7129 A 14.003574 14.108364 0 0 0 593.47266 1180.8203 A 14.003574 14.108364 0 0 0 607.47656 1194.9297 A 14.003574 14.108364 0 0 0 621.48047 1180.8203 A 14.003574 14.108364 0 0 0 607.47656 1166.7129 z M 256.01562 1206.0469 C 252.38086 1206.0847 248.99887 1207.9154 246.99609 1210.9492 L 241.62891 1219.0801 C 235.5993 1216.7534 229.06491 1215.4727 222.24219 1215.4727 C 192.2146 1215.4727 167.71875 1240.2044 167.71875 1270.3242 C 167.71875 1292.994 181.59533 1312.6097 201.26172 1320.9277 C 190.37421 1333.6892 185.22635 1340.6824 182.40039 1345.4609 C 180.65274 1348.4162 178.59252 1349.7225 179.44141 1356.1953 C 179.86547 1359.4317 183.39434 1364.1496 186.70898 1365.3828 C 190.02287 1366.6157 192.92773 1365.8574 192.92773 1365.8574 C 193.86846 1365.6684 194.78034 1365.3504 195.63867 1364.9199 C 220.07181 1352.599 236.53441 1350.2525 245.23828 1351.666 C 266.10127 1358.1483 254.85959 1388.9796 228.66406 1382.5449 C 214.31698 1376.198 208.37337 1392.4544 220.41797 1397.7246 C 234.46647 1404.8925 256.57294 1401.4676 266.14648 1391.252 C 275.49741 1382.2011 280.05647 1369.3821 277.82617 1356.8242 C 275.59625 1344.2667 264.64751 1332.7055 248.74023 1330.1211 C 240.73217 1328.8202 231.61729 1329.3031 221.13477 1331.8066 C 223.79593 1328.6575 222.90754 1329.2346 226.39453 1325.2695 C 226.47316 1325.1801 226.54786 1325.0893 226.62305 1324.998 C 254.61628 1322.7324 276.77148 1298.9655 276.77148 1270.3242 C 276.77148 1254.8856 270.33306 1240.8637 260.01367 1230.8613 L 265.2168 1222.9785 C 268.53522 1217.9472 267.14736 1211.1785 262.11719 1207.8574 C 260.30793 1206.6616 258.18432 1206.031 256.01562 1206.0469 z M 344.50586 1211.8086 C 343.08845 1211.8089 341.68775 1212.1192 340.41992 1212.7539 C 329.35786 1218.2946 321.4498 1224.9962 315.51758 1230.7637 L 315.52734 1224.3965 A 10.917143 10.917143 0 0 0 304.625 1213.4648 A 10.917143 10.917143 0 0 0 293.69336 1224.3672 L 293.5625 1311.8418 A 10.917143 10.917143 0 0 0 304.46289 1322.7734 A 10.917143 10.917143 0 0 0 315.40234 1311.8711 L 315.48828 1251.0684 C 316.20655 1249.6527 317.16896 1248.3997 318.94727 1246.6758 C 321.55136 1244.1507 327.67143 1240.2334 335.98828 1235.5312 L 336.25 1243.1367 C 336.42764 1248.0675 341.66103 1249.5274 346.5918 1249.3555 C 351.51879 1249.1816 355.3756 1245.0516 355.20703 1240.125 L 353.3418 1220.4316 C 352.89096 1215.6758 349.28454 1211.8588 344.50781 1211.8086 L 344.50586 1211.8086 z M 1242.6777 1213.8398 C 1241.2603 1213.8401 1239.8596 1214.1505 1238.5918 1214.7852 C 1227.5297 1220.3259 1219.6197 1227.0255 1213.6875 1232.793 L 1213.6973 1226.4258 A 10.917143 10.917143 0 0 0 1202.7969 1215.4961 L 1202.7949 1215.4961 A 10.917143 10.917143 0 0 0 1191.8652 1226.3965 L 1191.7324 1313.873 A 10.917143 10.917143 0 0 0 1202.6348 1324.8027 A 10.917143 10.917143 0 0 0 1213.5723 1313.9023 L 1213.6582 1253.0977 C 1214.3764 1251.6823 1215.3412 1250.4287 1217.1191 1248.7051 C 1219.7232 1246.18 1225.8433 1242.2646 1234.1602 1237.5625 L 1234.4199 1245.166 C 1234.5976 1250.0968 1239.8329 1251.5587 1244.7637 1251.3867 C 1249.6907 1251.2129 1253.5475 1247.0809 1253.3789 1242.1543 L 1251.5117 1222.4629 C 1251.0609 1217.707 1247.4564 1213.89 1242.6797 1213.8398 L 1242.6777 1213.8398 z M 532.18555 1214.5781 C 530.99112 1214.5686 529.79331 1214.6032 528.59766 1214.6816 L 528.59766 1214.6895 C 518.84705 1216.2096 511.82941 1221.3701 507.0332 1227.9375 L 507.03516 1226.4258 A 10.917143 10.917143 0 0 0 496.13477 1215.4961 L 496.13281 1215.4961 A 10.917143 10.917143 0 0 0 485.20312 1226.3965 L 485.07422 1313.873 A 10.917143 10.917143 0 0 0 495.97656 1324.8027 A 10.917143 10.917143 0 0 0 506.90625 1313.9023 L 507.00195 1248.3652 C 510.03005 1234.7451 528.59062 1231.731 537.71289 1233.8945 C 547.47881 1236.2102 554.87334 1242.5167 554.74219 1254.5371 C 554.74219 1273.6453 554.16607 1300.4632 554.43555 1313.9648 C 554.56405 1319.9913 559.55362 1324.7731 565.58008 1324.6465 C 571.60956 1324.5218 576.39577 1319.5326 576.26953 1313.5039 C 575.78915 1290.7795 576.01234 1272.9113 576.32227 1262.6113 C 577.08346 1237.8875 561.31373 1220.2427 542.80273 1215.8535 C 539.33228 1215.0306 535.76884 1214.6066 532.18555 1214.5781 z M 608.08594 1214.627 C 602.68844 1214.74 597.25368 1218.1029 597.05469 1224.3594 L 597.05469 1224.3672 L 596.95117 1315.8613 C 596.78865 1333.2642 597.45171 1360.2719 594.32227 1365.2129 C 592.75679 1367.6828 591.07196 1369.2254 586.77539 1370.6934 C 582.47882 1372.1609 579.91884 1373.082 569.85547 1372.6855 C 563.82788 1372.4474 558.74996 1377.142 558.51562 1383.1699 C 558.2813 1389.1945 562.97506 1394.2692 569 1394.5039 C 580.68063 1394.9646 585.72381 1394.1227 593.83203 1391.3516 C 601.94025 1388.5827 608.63964 1383.4181 612.76953 1376.8984 C 621.01158 1363.8881 618.79532 1298.8504 618.78516 1315.9805 L 618.89453 1224.3965 C 618.84351 1217.65 613.48343 1214.5139 608.08594 1214.627 z M 457.68164 1215.2754 A 10.917143 10.917143 0 0 0 446.74805 1226.1758 L 446.74609 1227.416 C 437.43271 1219.9528 425.65964 1215.4727 412.88477 1215.4727 C 382.8568 1215.4727 358.36328 1240.2044 358.36328 1270.3242 C 358.36328 1300.4448 382.8568 1325.1758 412.88477 1325.1758 C 425.6012 1325.1758 437.32598 1320.7398 446.61914 1313.3379 L 446.61914 1313.6602 A 10.917143 10.917143 0 0 0 457.51953 1324.5898 A 10.917143 10.917143 0 0 0 468.45117 1313.6895 L 468.58398 1226.2129 A 10.917143 10.917143 0 0 0 457.68555 1215.2754 L 457.68164 1215.2754 z M 733.68164 1215.2754 A 10.917143 10.917143 0 0 0 722.74414 1226.1758 L 722.74219 1227.4121 C 713.43092 1219.9509 701.66175 1215.4727 688.88867 1215.4727 C 658.86146 1215.4727 634.35936 1240.2044 634.35938 1270.3242 C 634.35938 1300.4448 658.86146 1325.1758 688.88867 1325.1758 C 701.60526 1325.1758 713.32741 1320.7398 722.61914 1313.3379 L 722.61914 1313.6602 A 10.917143 10.917143 0 0 0 733.51953 1324.5898 A 10.917143 10.917143 0 0 0 744.45117 1313.6895 L 744.58203 1226.2129 A 10.917143 10.917143 0 0 0 733.68164 1215.2754 z M 1159.4316 1215.2754 A 10.917143 10.917143 0 0 0 1148.4961 1226.1758 L 1148.4941 1227.4141 C 1139.181 1219.9517 1127.4089 1215.4727 1114.6348 1215.4727 C 1084.6068 1215.4727 1060.1113 1240.2044 1060.1113 1270.3242 C 1060.1113 1300.4448 1084.6068 1325.1758 1114.6348 1325.1758 C 1127.3504 1325.1758 1139.0743 1320.7408 1148.3672 1313.3398 L 1148.3672 1313.6602 A 10.917143 10.917143 0 0 0 1159.2695 1324.5898 A 10.917143 10.917143 0 0 0 1170.2012 1313.6895 L 1170.332 1226.2129 A 10.917143 10.917143 0 0 0 1159.4336 1215.2754 L 1159.4316 1215.2754 z M 956.83984 1215.4727 C 926.81188 1215.4727 902.31055 1240.2044 902.31055 1270.3242 C 902.31055 1300.4448 926.81188 1325.1758 956.83984 1325.1758 C 986.86781 1325.1758 1011.3633 1300.4448 1011.3633 1270.3242 C 1011.3633 1240.2044 986.86781 1215.4727 956.83984 1215.4727 z M 848.38672 1216.4434 C 839.51844 1216.4434 833.86011 1217.9896 827.41016 1221.0801 C 821.09487 1224.0363 816.32442 1227.9322 813.09961 1232.7695 C 809.87484 1237.4722 808.26172 1242.5119 808.26172 1247.8867 C 808.26172 1256.0832 810.94931 1262.667 816.32422 1267.6387 C 821.83337 1272.6103 828.29908 1276.3059 839.7207 1278.7246 C 847.64856 1280.3372 853.62692 1281.8811 857.6582 1283.3594 C 861.68911 1284.703 864.44359 1286.2492 865.92188 1287.9961 C 867.53444 1289.743 868.3418 1292.0257 868.3418 1294.8477 C 868.3418 1298.6099 866.59337 1301.5671 863.09961 1303.7168 C 859.60627 1305.8665 855.17373 1306.9414 849.79883 1306.9414 C 846.03654 1306.9414 842.6081 1306.3363 839.51758 1305.127 C 834.35913 1302.9836 829.27712 1299.935 824.20117 1295.0508 C 818.80979 1290.2633 799.58136 1294.9262 808.47852 1310.166 C 811.83795 1314.1973 816.94406 1317.7591 823.79688 1320.8496 C 830.64968 1323.8058 839.11536 1325.2832 849.19336 1325.2832 C 863.97403 1325.2832 873.46177 1322.3261 881.6582 1316.4141 C 889.85464 1310.5016 893.95312 1302.8433 893.95312 1293.4375 C 893.95313 1285.6439 891.13176 1279.0605 885.48828 1273.6855 C 879.97909 1268.3106 872.77453 1264.3459 859.875 1261.793 C 852.08143 1260.3147 846.23642 1258.8373 842.33984 1257.3594 C 838.44285 1255.8811 835.82409 1254.3352 834.48047 1252.7227 C 833.13685 1251.1101 832.46484 1249.0276 832.46484 1246.4746 C 832.46484 1242.9809 833.80881 1240.1595 836.49609 1238.0098 C 839.318 1235.86 843.21388 1234.7852 848.18555 1234.7852 C 851.81359 1234.7852 854.97058 1235.3218 857.6582 1236.3965 C 860.34545 1237.4715 862.69742 1238.9508 864.71289 1240.832 C 871.67297 1252.1051 893.68265 1246.2554 886.68164 1231.1562 C 883.32259 1227.1251 878.35182 1223.6989 871.76758 1220.877 C 865.18334 1217.9208 857.38963 1216.4434 848.38672 1216.4434 z M 222.24219 1237.3047 C 224.60518 1237.3047 226.90416 1237.5573 229.12109 1238.0293 L 225.60547 1243.3555 C 222.28704 1248.3875 223.6749 1255.1562 228.70508 1258.4766 C 233.73487 1261.7965 240.50283 1260.4142 243.82617 1255.3867 L 247.70117 1249.5156 C 252.22589 1255.1721 254.93164 1262.3938 254.93164 1270.3242 C 254.93164 1288.7317 240.38165 1303.3359 222.24219 1303.3359 C 204.10272 1303.3359 189.55078 1288.7317 189.55078 1270.3242 C 189.55078 1251.9164 204.10272 1237.3047 222.24219 1237.3047 z M 412.88477 1237.3047 C 431.02423 1237.3047 445.57422 1251.9164 445.57422 1270.3242 C 445.57422 1288.7317 431.02423 1303.3359 412.88477 1303.3359 C 394.7453 1303.3359 380.19531 1288.7317 380.19531 1270.3242 C 380.19531 1251.9164 394.7453 1237.3047 412.88477 1237.3047 z M 688.88867 1237.3047 C 707.02851 1237.3047 721.57812 1251.9164 721.57812 1270.3242 C 721.57812 1288.7317 707.02851 1303.3359 688.88867 1303.3359 C 670.74959 1303.3359 656.19922 1288.7317 656.19922 1270.3242 C 656.19922 1251.9164 670.74959 1237.3047 688.88867 1237.3047 z M 956.83984 1237.3047 C 974.97931 1237.3047 989.53125 1251.9164 989.53125 1270.3242 C 989.53125 1288.7317 974.97931 1303.3359 956.83984 1303.3359 C 938.70038 1303.3359 924.15039 1288.7317 924.15039 1270.3242 C 924.15039 1251.9164 938.70038 1237.3047 956.83984 1237.3047 z M 1114.6348 1237.3047 C 1132.7742 1237.3047 1147.3242 1251.9164 1147.3242 1270.3242 C 1147.3242 1288.7317 1132.7742 1303.3359 1114.6348 1303.3359 C 1096.4953 1303.3359 1081.9453 1288.7317 1081.9453 1270.3242 C 1081.9453 1251.9164 1096.4953 1237.3047 1114.6348 1237.3047 z "
       transform="matrix(0.26458333,0,0,0.26458333,-8.3711605,-66.886581)" />
  </g>
</svg>
