<?xml version="1.0" encoding="UTF-8" standalone="no"?>
<svg
   width="128"
   height="159.8248"
   viewBox="0 0 128 159.8248"
   version="1.1"
   id="svg1"
   xmlns="http://www.w3.org/2000/svg"
   xmlns:svg="http://www.w3.org/2000/svg">
  <defs
     id="defs1" />
  <g
     id="layer1"
     transform="translate(-150.17977,-45.772939)">
    <path
       id="path221"
       style="fill:#000000;fill-opacity:1;fill-rule:nonzero;stroke:none;stroke-width:0.589407"
       d="m 206.24618,45.774892 c -0.0888,0.0045 -0.17819,0.01645 -0.26758,0.0332 -1.11958,0.141847 -1.81888,1.131953 -1.99414,2.279297 -0.47032,3.076503 -0.93789,6.146187 -1.40821,9.222656 -1.9456,-2.42905 -3.88447,-4.854086 -5.83007,-7.283203 -0.91257,-1.139859 -2.06539,-1.313237 -2.86719,-0.976562 -1.37269,0.48305 -1.91441,2.348698 -1,3.496094 l 9.10742,11.427734 c 0.67182,0.84629 1.63263,1.417256 2.67969,1.136719 1.0469,-0.280554 1.59323,-1.255384 1.75195,-2.324219 l 2.17578,-14.451172 c 0.20456,-1.36016 -1.01572,-2.628206 -2.34765,-2.560547 z m 15.86718,0 c -1.33192,-0.06771 -2.55222,1.200387 -2.34765,2.560547 l 2.17578,14.451172 c 0.15872,1.068885 0.70505,2.043665 1.75195,2.324219 1.04706,0.280537 2.00771,-0.290379 2.67969,-1.136719 l 9.10937,-11.427734 c 0.9144,-1.147363 0.37074,-3.014931 -1.00195,-3.498047 -1.04055,-0.436887 -2.13979,0.07245 -2.86523,0.978515 -1.9456,2.4291 -3.88643,4.854152 -5.83203,7.283203 -0.47032,-3.07642 -0.93789,-6.146187 -1.40821,-9.222656 -0.22038,-1.443453 -1.13136,-2.169913 -1.99414,-2.279297 -0.0894,-0.01675 -0.17878,-0.02869 -0.26758,-0.0332 z m -40.98047,10.978516 c -0.52203,-0.0148 -1.04661,0.142801 -1.46093,0.498047 -0.89853,0.682605 -1.00798,1.889504 -0.58594,2.970703 1.13094,2.899536 2.26181,5.791886 3.39258,8.691406 -2.89943,-1.130804 -5.79197,-2.261724 -8.69141,-3.392578 -1.36033,-0.530917 -2.44652,-0.104591 -2.97265,0.587891 -0.94732,1.10472 -0.48271,2.992815 0.88281,3.529296 l 13.60156,5.341797 c 1.00496,0.396972 2.12425,0.410991 2.89063,-0.355468 0.76654,-0.766478 0.75065,-1.883677 0.35351,-2.888672 l -5.3418,-13.601563 c -0.3353,-0.853476 -1.1983,-1.356195 -2.06836,-1.380859 z m 66.09375,0 c -0.87001,0.02467 -1.73305,0.52544 -2.06835,1.378906 l -5.3418,13.601563 c -0.39697,1.005046 -0.4109,2.124147 0.35547,2.890625 0.76655,0.766461 1.88371,0.750537 2.88867,0.353515 l 13.60156,-5.339844 c 1.36551,-0.536448 1.83013,-2.424506 0.88281,-3.529296 -0.68267,-0.898603 -1.8915,-1.009891 -2.97265,-0.587891 -2.8996,1.130854 -5.79002,2.261774 -8.68946,3.392578 1.13078,-2.89947 2.25987,-5.791887 3.39063,-8.691406 0.53097,-1.360199 0.10592,-2.444614 -0.58594,-2.970703 -0.41426,-0.355252 -0.93892,-0.512848 -1.46094,-0.498047 z m -33.08398,1.791015 c -1.26778,0.0017 -2.29464,1.140183 -2.29297,2.542969 l 0.0176,8.765625 c -3.90473,0.278199 -7.61077,1.279072 -10.97852,2.876953 l -4.39257,-7.476562 c -0.71074,-1.209463 -2.17228,-1.667832 -3.26563,-1.025391 -1.09267,0.642457 -1.40426,2.144053 -0.69336,3.353516 l 4.35938,7.417969 c -3.27235,2.202025 -6.09781,5.015388 -8.31641,8.27539 l -7.4082,-4.386719 c -1.20696,-0.714951 -2.70938,-0.409348 -3.35547,0.681641 -0.64591,1.090989 -0.18954,2.55458 1.01758,3.269531 l 7.45117,4.41211 c -1.64319,3.417388 -2.66518,7.187155 -2.94336,11.162109 l -8.57422,-0.07031 c -1.40276,-0.0117 -2.54856,1.007565 -2.55859,2.275386 -0.0167,1.2678 1.11676,2.3052 2.51953,2.31641 l 8.6289,0.0703 c 0.30357,3.91955 1.33269,7.63581 2.96485,11.00781 l -7.48828,4.41211 c -1.20829,0.71201 -1.66702,2.1754 -1.02344,3.26758 0.64374,1.09276 2.14472,1.39951 3.35351,0.6875 l 7.4629,-4.39648 c 2.18502,3.19224 4.9525,5.95203 8.15234,8.12695 l -4.30664,7.50391 c -0.69838,1.21653 -0.3733,2.71445 0.72656,3.3457 1.09986,0.63126 2.55748,0.156 3.25586,-1.06055 l 4.30273,-7.49804 c 3.41787,1.6415 7.18654,2.66361 11.16211,2.93945 l 0.0176,8.81055 c 0,1.40279 1.03301,2.5375 2.30078,2.53515 1.26777,-0.002 2.29336,-1.14213 2.29102,-2.54492 l -0.0176,-8.82031 c 3.93196,-0.3065 7.65928,-1.34247 11.03906,-2.98633 l 4.32032,7.61719 c 0.69202,1.22007 2.1473,1.70152 3.25,1.07617 1.10286,-0.62536 1.43617,-2.12173 0.74414,-3.3418 l -4.34766,-7.66406 c 3.16392,-2.17314 5.90299,-4.92098 8.06445,-8.09375 l 7.86328,4.4375 c 1.22184,0.68902 2.71683,0.35202 3.33985,-0.75195 0.62353,-1.10454 0.13851,-2.55845 -1.08399,-3.24805 l -7.82226,-4.41211 c 1.6203,-3.36493 2.63877,-7.0727 2.9375,-10.98047 l 8.79687,-0.002 c 1.40277,-5.9e-4 2.53974,-1.02907 2.53907,-2.29688 -5e-4,-1.267811 -1.13825,-2.295502 -2.54102,-2.294917 l -8.7832,0.002 c -0.28102,-3.957862 -1.30054,-7.710811 -2.93555,-11.115234 l 7.62891,-4.326172 c 1.22082,-0.691376 1.70282,-2.147216 1.07812,-3.25 -0.62536,-1.10337 -2.12164,-1.436119 -3.3418,-0.744141 l -7.6582,4.341797 c -2.17316,-3.196931 -4.92999,-5.962751 -8.11914,-8.146484 l 4.43555,-7.457032 c 0.71726,-1.205921 0.41729,-2.709083 -0.67188,-3.357421 -1.08984,-0.647755 -2.55617,-0.195571 -3.27343,1.009765 l -4.46094,7.498047 c -3.38429,-1.639734 -7.1148,-2.669333 -11.05078,-2.96875 l -0.0176,-8.785156 c -0.002,-1.402787 -1.03106,-2.538881 -2.29883,-2.53711 z m -49.25391,20.320313 c -0.95681,-0.04477 -1.9432,0.505421 -2.27539,1.449219 -0.43691,1.040482 0.0728,2.141844 0.97852,2.867187 2.42912,1.945633 4.85409,3.884462 7.2832,5.830078 -3.07637,0.470436 -6.14628,0.937784 -9.22265,1.408203 -1.44337,0.220307 -2.17199,1.131395 -2.28125,1.994141 -0.26799,1.430404 1.0784,2.833402 2.52929,2.615234 l 14.44922,-2.173828 c 1.06878,-0.158722 2.04564,-0.704938 2.32617,-1.751953 0.28052,-1.047015 -0.29243,-2.007824 -1.13867,-2.679687 l -11.42578,-9.109375 c -0.35853,-0.285747 -0.78774,-0.428867 -1.22266,-0.449219 z m 98.58204,0 c -0.43494,0.02035 -0.86413,0.163482 -1.22266,0.449219 l -11.42578,9.107422 c -0.8464,0.671911 -1.41724,1.632656 -1.13672,2.679687 0.28052,1.047015 1.25527,1.593281 2.32422,1.751953 l 14.44922,2.175781 c 1.45088,0.218201 2.79728,-1.184796 2.52929,-2.615234 -0.14201,-1.119542 -1.13198,-1.818995 -2.27929,-1.994141 -3.07653,-0.470402 -6.14629,-0.937768 -9.22266,-1.408203 2.42895,-1.945616 4.85408,-3.884446 7.2832,-5.830078 1.13979,-0.912502 1.31323,-2.06534 0.97657,-2.867187 -0.33208,-0.943787 -1.31854,-1.493989 -2.27539,-1.449219 z m -49.38477,5.148437 c 9.15827,0 16.58203,7.423821 16.58203,16.582027 0,9.1582 -7.42376,16.58204 -16.58203,16.58204 -9.1581,0 -16.58203,-7.42382 -16.58203,-16.58204 0,-9.158189 7.42393,-16.582027 16.58203,-16.582027 z m 0.0937,5.605469 c -6.07338,0 -10.99609,4.922833 -10.99609,10.996098 0,6.07323 4.92271,10.99609 10.99609,10.99609 6.07321,0 10.99609,-4.92284 10.99609,-10.99609 0,-6.073248 -4.92288,-10.996098 -10.99609,-10.996098 z m -52.54883,16.560548 c -1.34238,-0.0204 -2.511,1.29763 -2.25976,2.63867 0.14201,1.11954 1.13377,1.81903 2.28125,1.99414 3.07637,0.47042 6.14611,0.93778 9.22265,1.4082 -2.42912,1.94561 -4.85409,3.88444 -7.2832,5.83008 -1.13996,0.9125 -1.31517,2.06532 -0.97852,2.86719 0.48302,1.37278 2.35074,1.91436 3.49805,1 l 11.42578,-9.10742 c 0.84624,-0.67188 1.41919,-1.63461 1.13867,-2.68164 -0.28052,-1.04703 -1.25738,-1.59328 -2.32617,-1.75196 l -14.44922,-2.17382 c -0.0907,-0.0136 -0.18004,-0.0221 -0.26953,-0.0234 z m 105.09961,0 c -0.0895,10e-4 -0.18081,0.01 -0.27148,0.0234 l -14.44922,2.17382 c -1.06895,0.15873 -2.0437,0.70493 -2.32422,1.75196 -0.28069,1.04703 0.29048,2.00784 1.13672,2.67969 l 11.42578,9.10937 c 1.14748,0.91439 3.01503,0.37279 3.49805,-1 0.43707,-1.04048 -0.0708,-2.14183 -0.97657,-2.86719 -2.42912,-1.94562 -4.85425,-3.88641 -7.2832,-5.83203 3.07637,-0.47043 6.14612,-0.93583 9.22266,-1.40625 1.44337,-0.2203 2.16985,-1.13139 2.27929,-1.99414 0.25124,-1.34099 -0.91556,-2.65904 -2.25781,-2.63867 z m -80.03906,19.80664 c -0.0791,-0.002 -0.15825,-0.002 -0.23828,0.002 -0.38416,0.0203 -0.77744,0.1148 -1.1543,0.26367 l -13.60156,5.3418 c -1.36568,0.53645 -1.82818,2.42451 -0.88086,3.5293 0.68267,0.89863 1.88939,1.00989 2.9707,0.58789 2.89944,-1.13087 5.79197,-2.26176 8.69141,-3.39258 -1.13077,2.89947 -2.26164,5.79189 -3.39258,8.69141 -0.53097,1.3602 -0.10414,2.44461 0.58789,2.9707 1.10471,0.94733 2.99282,0.48274 3.5293,-0.88281 L 188.543,129.4976 c 0.39697,-1.005 0.41304,-2.12413 -0.35351,-2.89063 -0.41912,-0.41916 -0.94446,-0.60393 -1.49805,-0.62109 z m 54.97656,0 c -0.5532,0.0172 -1.0769,0.20192 -1.49609,0.62109 -0.76638,0.76649 -0.75245,1.88369 -0.35547,2.88868 l 5.3418,13.60156 c 0.53632,1.36554 2.42441,1.83014 3.52929,0.88281 0.8987,-0.68262 1.0078,-1.88949 0.58594,-2.9707 -1.13094,-2.89952 -2.25968,-5.79192 -3.39063,-8.69141 2.89961,1.1308 5.79181,2.25978 8.69141,3.39063 1.36017,0.53092 2.44458,0.10652 2.9707,-0.58594 0.94732,-1.10473 0.4827,-2.99282 -0.88281,-3.5293 l -13.60156,-5.3418 c -0.37686,-0.14886 -0.77013,-0.24334 -1.1543,-0.26367 -0.08,-0.004 -0.15925,-0.004 -0.23828,-0.002 z m -37.58008,10.0625 c -0.81868,0.0153 -1.55571,0.52137 -2.10156,1.20898 l -9.10742,11.42774 c -0.91441,1.14736 -0.37287,3.01297 1,3.49609 1.04038,0.43695 2.14191,-0.0705 2.86719,-0.97656 1.94576,-2.42912 3.88447,-4.85412 5.83007,-7.2832 0.47049,3.07642 0.93772,6.14618 1.40821,9.22265 0.22037,1.44342 1.13153,2.16992 1.99414,2.2793 1.43051,0.26806 2.83343,-1.07651 2.61523,-2.52734 L 206.418,138.44481 c -0.15873,-1.06883 -0.70489,-2.04364 -1.75195,-2.32421 -0.19633,-0.0526 -0.3892,-0.0758 -0.57813,-0.0723 z m 20.1836,0 c -0.18893,-0.004 -0.3818,0.0197 -0.57813,0.0723 -1.04706,0.28058 -1.59323,1.25534 -1.75195,2.32421 l -2.17383,14.45118 c -0.2182,1.45083 1.18473,2.79535 2.61523,2.52734 1.11959,-0.14184 1.8171,-1.13197 1.99219,-2.2793 0.47049,-3.0765 0.93772,-6.14621 1.40821,-9.22265 1.9456,2.42903 3.88643,4.8541 5.83203,7.2832 0.91257,1.13989 2.06522,1.31322 2.86718,0.97656 1.3727,-0.48305 1.91424,-2.34871 1,-3.49609 l -9.10937,-11.42774 c -0.54585,-0.68761 -1.28288,-1.19372 -2.10156,-1.20898 z m -73.28516,30.5918 c -0.23695,0 -0.42971,0.0743 -0.58008,0.22461 -0.15095,0.15031 -0.22656,0.3451 -0.22656,0.58203 v 3.45508 c 0,0.21512 0.0757,0.40289 0.22656,0.56445 0.1503,0.16096 0.34313,0.24219 0.58008,0.24219 h 5.74805 v 16.72656 c 0,0.21572 0.0757,0.40484 0.22656,0.5664 0.1503,0.16154 0.34314,0.24219 0.58008,0.24219 h 4.26367 c 0.23635,0 0.42921,-0.0806 0.58008,-0.24219 0.15044,-0.1615 0.22656,-0.35068 0.22656,-0.5664 v -16.72656 h 5.74805 c 0.23695,0 0.43116,-0.0813 0.58203,-0.24219 0.15034,-0.1615 0.22461,-0.34933 0.22461,-0.56445 v -3.45508 c 0,-0.23693 -0.0742,-0.43166 -0.22461,-0.58203 -0.15088,-0.15032 -0.34508,-0.22461 -0.58203,-0.22461 z m 21.92578,0 c -0.23694,0 -0.43166,0.0743 -0.58203,0.22461 -0.15084,0.15031 -0.22461,0.3451 -0.22461,0.58203 v 20.98828 c 0,0.21572 0.0737,0.40484 0.22461,0.5664 0.1503,0.16154 0.34509,0.24219 0.58203,0.24219 h 15.33789 c 0.23693,0 0.43116,-0.0806 0.58203,-0.24219 0.15034,-0.1615 0.22657,-0.35068 0.22657,-0.5664 v -3.03516 c 0,-0.23636 -0.0762,-0.42921 -0.22657,-0.58008 -0.15088,-0.15033 -0.3451,-0.22656 -0.58203,-0.22656 h -10.55859 v -4.48828 h 9.58984 c 0.23636,0 0.43117,-0.0806 0.58203,-0.24219 0.15024,-0.1615 0.22461,-0.35125 0.22461,-0.5664 v -2.8086 c 0,-0.23693 -0.0742,-0.43608 -0.22461,-0.59765 -0.15088,-0.16154 -0.34567,-0.24219 -0.58203,-0.24219 h -9.58984 v -4.35938 h 10.30078 c 0.23634,0 0.43117,-0.0737 0.58203,-0.22461 0.15024,-0.1503 0.22461,-0.3451 0.22461,-0.58203 v -3.03515 c 0,-0.23693 -0.0742,-0.43166 -0.22461,-0.58203 -0.15088,-0.15032 -0.34569,-0.22461 -0.58203,-0.22461 z m 20.63281,0 c -0.23695,0 -0.4297,0.0743 -0.58007,0.22461 -0.15084,0.15031 -0.22657,0.3451 -0.22657,0.58203 v 20.98828 c 0,0.21572 0.0757,0.40484 0.22657,0.5664 0.1503,0.16154 0.34312,0.24219 0.58007,0.24219 h 3.875 c 0.23695,0 0.43117,-0.0806 0.58204,-0.24219 0.15084,-0.1615 0.22656,-0.35068 0.22656,-0.5664 v -11.75391 l 7.8789,11.94922 c 0.0424,0.0648 0.14507,0.18141 0.30664,0.35352 0.16151,0.17276 0.41361,0.25976 0.75782,0.25976 h 3.45703 c 0.23635,0 0.42921,-0.0806 0.58008,-0.24219 0.15025,-0.1615 0.22656,-0.3607 0.22656,-0.59765 v -20.95703 c 0,-0.23693 -0.0762,-0.43166 -0.22656,-0.58203 -0.15089,-0.15032 -0.34373,-0.22461 -0.58008,-0.22461 h -3.87695 c -0.23695,0 -0.42971,0.0743 -0.58008,0.22461 -0.15093,0.15031 -0.22657,0.3451 -0.22657,0.58203 v 12.20508 l -7.8789,-12.39844 c -0.0436,-0.0861 -0.14574,-0.20954 -0.30664,-0.3711 -0.16149,-0.16155 -0.42499,-0.24218 -0.79102,-0.24218 z m 23.21875,0 c -0.23695,0 -0.43166,0.0742 -0.58203,0.22461 -0.15094,0.15089 -0.22461,0.34508 -0.22461,0.58203 V 188.437 c 0,0.21514 0.0737,0.40289 0.22461,0.56445 0.1503,0.16154 0.34508,0.24219 0.58203,0.24219 h 8.55664 c 2.1089,0 3.89087,-0.31774 5.34375,-0.95312 1.45349,-0.6348 2.56172,-1.60868 3.32618,-2.92188 0.76387,-1.3132 1.18939,-2.97045 1.27539,-4.97265 0.0207,-0.92537 0.0332,-1.74484 0.0332,-2.45508 0,-0.71022 -0.012,-1.53857 -0.0332,-2.48633 -0.0642,-1.91557 -0.49472,-3.52556 -1.29102,-4.82813 -0.79687,-1.30201 -1.93852,-2.29287 -3.42383,-2.9707 -1.48589,-0.67839 -3.28309,-1.01562 -5.39257,-1.01562 z m 28.73829,0 c -0.36661,0 -0.65095,0.0901 -0.85547,0.27343 -0.20453,0.18273 -0.3395,0.39391 -0.4043,0.63086 l -7.58789,20.73047 c -0.0224,0.0861 -0.0332,0.1818 -0.0332,0.28906 0,0.17269 0.0706,0.32908 0.21093,0.46875 0.13969,0.14022 0.29469,0.21094 0.4668,0.21094 h 3.97266 c 0.36601,0 0.62452,-0.0806 0.77539,-0.24219 0.15024,-0.16149 0.24741,-0.30835 0.29101,-0.4375 l 1.22657,-3.29296 h 8.62109 l 1.25976,3.29296 c 0.043,0.12907 0.14509,0.27594 0.30665,0.4375 0.16151,0.16155 0.40415,0.24219 0.72656,0.24219 h 3.97265 c 0.19391,0 0.35965,-0.0706 0.5,-0.21094 0.13963,-0.13969 0.20899,-0.29606 0.20899,-0.46875 0,-0.10728 -0.022,-0.20296 -0.0644,-0.28906 l -7.55469,-20.73047 c -0.0648,-0.23695 -0.19978,-0.44813 -0.4043,-0.63086 -0.20453,-0.18326 -0.48944,-0.27343 -0.85547,-0.27343 z m 17.01757,0 c -0.23695,0 -0.43166,0.0743 -0.58203,0.22461 -0.15084,0.15031 -0.22656,0.3451 -0.22656,0.58203 v 20.98828 c 0,0.21572 0.0757,0.40484 0.22656,0.5664 0.1503,0.16154 0.34508,0.24219 0.58203,0.24219 h 14.85352 c 0.23634,0 0.42921,-0.0806 0.58008,-0.24219 0.15025,-0.1615 0.22656,-0.35068 0.22656,-0.5664 v -3.22852 c 0,-0.23695 -0.0762,-0.43608 -0.22656,-0.59765 -0.15089,-0.16154 -0.34374,-0.24219 -0.58008,-0.24219 h -9.78516 v -16.91992 c 0,-0.23693 -0.0742,-0.43166 -0.22461,-0.58203 -0.15089,-0.15032 -0.34568,-0.22461 -0.58203,-0.22461 z m -40.75195,4.64843 h 3.22852 c 1.42104,0 2.49283,0.33976 3.21484,1.01758 0.72085,0.67841 1.10288,1.74938 1.14648,3.21289 0.0424,0.60296 0.0684,1.15198 0.0801,1.64649 0.01,0.49569 0.01,0.99182 0,1.48633 -0.0112,0.4957 -0.0377,1.05549 -0.0801,1.67968 -0.0218,1.012 -0.19015,1.82895 -0.50195,2.45313 -0.3118,0.62477 -0.77373,1.08246 -1.38672,1.37304 -0.61357,0.29064 -1.38576,0.43555 -2.31054,0.43555 h -3.39063 z m 26.12305,0.8086 3.0039,8.52344 h -6.00586 z m -74.00586,22.79687 c -0.74333,0 -1.3885,0.12332 -1.9336,0.3711 -0.5451,0.23786 -0.96062,0.56992 -1.24804,0.99609 -0.28742,0.41626 -0.43164,0.89254 -0.43164,1.42773 0,0.55502 0.11384,1.01611 0.34179,1.38282 0.22796,0.35679 0.56573,0.65847 1.01172,0.90625 0.45591,0.24778 1.06498,0.48118 1.82813,0.69922 0.80279,0.23786 1.40239,0.44088 1.79883,0.60937 0.40635,0.15857 0.70803,0.34641 0.90625,0.56445 0.20812,0.21805 0.3125,0.49506 0.3125,0.83204 0,0.52528 -0.20874,0.93704 -0.625,1.23437 -0.41626,0.29733 -1.04428,0.44727 -1.88672,0.44727 -0.78297,0 -1.38828,-0.14994 -1.81446,-0.44727 -0.41626,-0.30724 -0.66861,-0.66772 -0.75781,-1.08398 -0.0694,-0.19822 -0.1927,-0.29883 -0.37109,-0.29883 h -0.72852 c -0.0892,0 -0.16514,0.0304 -0.22461,0.0898 -0.0595,0.0595 -0.0879,0.1297 -0.0879,0.20899 0.0198,0.48564 0.18299,0.94101 0.49024,1.36718 0.31714,0.41626 0.77252,0.75208 1.36718,1.00977 0.60458,0.25769 1.31426,0.38672 2.12696,0.38672 1.20914,0 2.16546,-0.25611 2.86914,-0.77149 0.71359,-0.52528 1.07031,-1.25391 1.07031,-2.18554 0,-0.55502 -0.11956,-1.00664 -0.35742,-1.35352 -0.23787,-0.3568 -0.60031,-0.65472 -1.08594,-0.89258 -0.47573,-0.23786 -1.13413,-0.47502 -1.97656,-0.71289 -0.73342,-0.21804 -1.29316,-0.41159 -1.67969,-0.58008 -0.37662,-0.16848 -0.65935,-0.36203 -0.84766,-0.58007 -0.1784,-0.21805 -0.26757,-0.50078 -0.26757,-0.84766 0,-0.51537 0.19926,-0.90052 0.5957,-1.1582 0.39644,-0.2676 0.93152,-0.40235 1.60547,-0.40235 0.62439,0 1.14428,0.13851 1.56054,0.41602 0.41627,0.27751 0.65343,0.63047 0.7129,1.05664 0.0297,0.0991 0.0791,0.17312 0.14843,0.22266 0.0694,0.0495 0.14533,0.0742 0.22461,0.0742 h 0.74219 c 0.0892,0 0.16319,-0.0304 0.22266,-0.0898 0.0595,-0.0595 0.0898,-0.13346 0.0898,-0.22266 -0.0198,-0.41626 -0.17352,-0.82802 -0.46094,-1.23437 -0.28742,-0.41626 -0.70866,-0.75779 -1.26367,-1.02539 -0.54511,-0.27751 -1.2035,-0.41602 -1.97656,-0.41602 z m 9.6914,0 c -1.23887,0 -2.22361,0.34725 -2.95703,1.04102 -0.72348,0.69377 -1.10486,1.7146 -1.14453,3.0625 -0.01,0.28741 -0.0156,0.70294 -0.0156,1.24805 0,0.5451 0.006,0.96634 0.0156,1.26367 0.0396,1.36772 0.41155,2.39426 1.11524,3.07812 0.70368,0.67395 1.6979,1.00977 2.98632,1.00977 1.28844,0 2.28085,-0.33582 2.97461,-1.00977 0.70366,-0.68386 1.07557,-1.7104 1.11524,-3.07812 0.0198,-0.59466 0.0293,-1.0159 0.0293,-1.26367 0,-0.25769 -0.009,-0.67322 -0.0293,-1.24805 -0.0396,-1.3479 -0.42103,-2.36873 -1.14453,-3.0625 -0.72351,-0.69377 -1.70644,-1.04102 -2.94532,-1.04102 z m 6.64649,0.14844 c -0.0991,0 -0.17882,0.0341 -0.23828,0.10352 -0.0595,0.0595 -0.0899,0.13916 -0.0899,0.23828 v 9.72265 c 0,0.0991 0.0304,0.18453 0.0899,0.25391 0.0595,0.0595 0.13917,0.0879 0.23828,0.0879 h 6.03515 c 0.0991,0 0.18454,-0.0284 0.25391,-0.0879 0.0694,-0.0694 0.10352,-0.1548 0.10352,-0.25391 v -0.56445 c 0,-0.0991 -0.0341,-0.17881 -0.10352,-0.23828 -0.0595,-0.0694 -0.14488,-0.10352 -0.25391,-0.10352 H 191.293 v -8.8164 c 0,-0.0991 -0.0304,-0.17882 -0.0898,-0.23828 -0.0595,-0.0694 -0.13918,-0.10352 -0.23828,-0.10352 z m 11.19336,0 c -0.23786,0 -0.39532,0.10813 -0.47461,0.32617 l -3.6875,9.61914 -0.0293,0.16407 c 0,0.0793 0.0304,0.14951 0.0898,0.20898 0.0595,0.0595 0.12774,0.0879 0.20703,0.0879 h 0.71484 c 0.16849,0 0.29181,-0.0835 0.37109,-0.25195 l 0.81641,-2.14063 h 4.92188 l 0.83203,2.14063 c 0.0198,0.0595 0.0597,0.11826 0.11914,0.17773 0.0694,0.0495 0.15284,0.0742 0.25195,0.0742 h 0.69922 c 0.0793,0 0.14952,-0.0284 0.20898,-0.0879 0.0694,-0.0595 0.10352,-0.1297 0.10352,-0.20898 l -0.0293,-0.16407 -3.6875,-9.61914 c -0.0793,-0.21804 -0.23675,-0.32617 -0.47461,-0.32617 z m 7.07812,0 c -0.0991,0 -0.17881,0.0341 -0.23828,0.10352 -0.0595,0.0595 -0.0898,0.14488 -0.0898,0.2539 v 9.70703 c 0,0.0991 0.0304,0.18453 0.0898,0.25391 0.0595,0.0595 0.13917,0.0879 0.23828,0.0879 h 0.71289 c 0.0991,0 0.18258,-0.0284 0.25196,-0.0879 0.0694,-0.0694 0.10547,-0.1548 0.10547,-0.25391 v -3.86523 h 2.64453 l 2.18554,3.80664 c 0.0694,0.12885 0.14533,0.2275 0.22461,0.29687 0.0892,0.0694 0.20681,0.10352 0.35547,0.10352 h 0.6543 c 0.0793,0 0.14952,-0.0284 0.20898,-0.0879 0.0595,-0.0595 0.0879,-0.1297 0.0879,-0.20898 0,-0.0496 -0.0132,-0.1046 -0.043,-0.16407 l -2.29101,-3.96875 c 0.67395,-0.1883 1.19956,-0.52608 1.57617,-1.01172 0.37662,-0.48564 0.56445,-1.10418 0.56445,-1.85742 0,-1.01092 -0.32063,-1.77941 -0.96484,-2.30469 -0.63431,-0.53519 -1.51663,-0.80273 -2.64648,-0.80273 z m 13.37891,0 c -0.0991,0 -0.17882,0.0341 -0.23828,0.10352 -0.0595,0.0595 -0.0879,0.14488 -0.0879,0.2539 v 9.70703 c 0,0.0991 0.0284,0.18453 0.0879,0.25391 0.0595,0.0595 0.13917,0.0879 0.23828,0.0879 h 0.69922 c 0.0991,0 0.18257,-0.0284 0.25195,-0.0879 0.0694,-0.0694 0.10352,-0.1548 0.10352,-0.25391 v -4.04297 h 4.68359 c 0.0991,0 0.18453,-0.0304 0.25391,-0.0898 0.0694,-0.0694 0.10351,-0.15285 0.10351,-0.25195 v -0.56641 c 0,-0.0991 -0.0341,-0.17686 -0.10351,-0.23633 -0.0595,-0.0694 -0.14489,-0.10547 -0.25391,-0.10547 h -4.68359 v -3.52343 h 4.98047 c 0.10902,0 0.19444,-0.0284 0.2539,-0.0879 0.0694,-0.0694 0.10352,-0.1548 0.10352,-0.25391 v -0.54883 c 0,-0.10902 -0.0341,-0.19444 -0.10352,-0.2539 -0.0595,-0.0694 -0.14488,-0.10352 -0.2539,-0.10352 z m 10.86719,0 c -0.23786,0 -0.39533,0.10813 -0.47461,0.32617 l -3.6875,9.61914 -0.0293,0.16407 c 0,0.0793 0.0284,0.14951 0.0879,0.20898 0.0595,0.0595 0.1297,0.0879 0.20899,0.0879 h 0.71289 c 0.16848,0 0.29376,-0.0835 0.37304,-0.25195 l 0.81641,-2.14063 H 235.67 l 0.83204,2.14063 c 0.0198,0.0595 0.0597,0.11826 0.11914,0.17773 0.0694,0.0495 0.15284,0.0742 0.25195,0.0742 h 0.69922 c 0.0793,0 0.14756,-0.0284 0.20703,-0.0879 0.0694,-0.0595 0.10547,-0.1297 0.10547,-0.20898 l -0.0293,-0.16407 -3.6875,-9.61914 c -0.0793,-0.21804 -0.23869,-0.32617 -0.47656,-0.32617 z m 7.07617,0 c -0.0991,0 -0.17686,0.0341 -0.23633,0.10352 -0.0595,0.0595 -0.0898,0.14488 -0.0898,0.2539 v 9.70703 c 0,0.0991 0.0304,0.18453 0.0898,0.25391 0.0595,0.0595 0.13722,0.0879 0.23633,0.0879 h 0.71484 c 0.0991,0 0.18258,-0.0284 0.25196,-0.0879 0.0694,-0.0694 0.10351,-0.1548 0.10351,-0.25391 v -3.86523 h 2.64649 l 2.18554,3.80664 c 0.0694,0.12885 0.14337,0.2275 0.22266,0.29687 0.0892,0.0694 0.20875,0.10352 0.35742,0.10352 h 0.6543 c 0.0793,0 0.14756,-0.0284 0.20703,-0.0879 0.0595,-0.0595 0.0898,-0.1297 0.0898,-0.20898 0,-0.0496 -0.0152,-0.1046 -0.0449,-0.16407 l -2.28906,-3.96875 c 0.67394,-0.1883 1.19955,-0.52608 1.57617,-1.01172 0.37661,-0.48564 0.56445,-1.10418 0.56445,-1.85742 0,-1.01092 -0.32258,-1.77941 -0.96679,-2.30469 -0.6343,-0.53519 -1.51468,-0.80273 -2.64454,-0.80273 z m 9.73828,0 c -0.10902,0 -0.19249,0.0341 -0.25195,0.10352 -0.0595,0.0595 -0.0898,0.14488 -0.0898,0.2539 v 9.70703 c 0,0.0991 0.0304,0.18453 0.0898,0.25391 0.0694,0.0595 0.15284,0.0879 0.25195,0.0879 h 0.66797 c 0.0991,0 0.17881,-0.0284 0.23828,-0.0879 0.0694,-0.0694 0.10547,-0.1548 0.10547,-0.25391 v -7.38867 l 2.52734,4.92188 c 0.10902,0.20812 0.26648,0.31054 0.47461,0.31054 h 0.44531 c 0.21805,0 0.37746,-0.10242 0.47657,-0.31054 l 2.54297,-4.92188 v 7.38867 c 0,0.0991 0.0284,0.18453 0.0879,0.25391 0.0595,0.0595 0.13916,0.0879 0.23828,0.0879 h 0.68359 c 0.0991,0 0.17882,-0.0284 0.23828,-0.0879 0.0694,-0.0694 0.10352,-0.1548 0.10352,-0.25391 v -9.70703 c 0,-0.10902 -0.0284,-0.19444 -0.0879,-0.2539 -0.0595,-0.0694 -0.14489,-0.10352 -0.25391,-0.10352 h -0.69922 c -0.15857,0 -0.27617,0.074 -0.35547,0.22266 l -3.19726,6.08007 -3.16602,-6.08007 c -0.0694,-0.14866 -0.19269,-0.22266 -0.37109,-0.22266 z m -65.97852,1.07031 c 0.79288,0 1.42857,0.24288 1.9043,0.72852 0.47571,0.48564 0.73377,1.22374 0.77344,2.21484 0.0198,0.57484 0.0293,0.97142 0.0293,1.18946 0,0.19822 -0.01,0.59479 -0.0293,1.18945 -0.0396,0.9911 -0.29771,1.7292 -0.77344,2.21484 -0.47573,0.47573 -1.11142,0.71485 -1.9043,0.71485 -0.80278,0 -1.44028,-0.23912 -1.91601,-0.71485 -0.47573,-0.48564 -0.73003,-1.22374 -0.75977,-2.21484 -0.01,-0.29733 -0.0137,-0.6939 -0.0137,-1.18945 0,-0.50546 0.004,-0.90204 0.0137,-1.18946 0.0297,-0.9911 0.28404,-1.7292 0.75977,-2.21484 0.48564,-0.48564 1.12313,-0.72852 1.91601,-0.72852 z m 25.98829,0.13477 h 2.49609 c 1.49656,0 2.24609,0.62802 2.24609,1.88672 0,1.25869 -0.74953,1.88867 -2.24609,1.88867 h -2.49609 z m 31.32226,0 h 2.49805 c 1.49656,0 2.24414,0.62802 2.24414,1.88672 0,1.25869 -0.74758,1.88867 -2.24414,1.88867 h -2.49805 z m -38.99414,0.23633 2.03711,5.33789 h -4.07422 z m 31.32422,0 2.03711,5.33789 h -4.07422 z" />
  </g>
</svg>
