<?xml version="1.0" encoding="UTF-8" standalone="no"?>
<!-- Created with Inkscape (http://www.inkscape.org/) -->

<svg
   width="58.551998mm"
   height="58.812462mm"
   viewBox="0 0 58.551998 58.812462"
   version="1.1"
   id="svg20425"
   inkscape:version="1.1.1 (3bf5ae0d25, 2021-09-20)"
   sodipodi:docname="wapp-logo.svg"
   xmlns:inkscape="http://www.inkscape.org/namespaces/inkscape"
   xmlns:sodipodi="http://sodipodi.sourceforge.net/DTD/sodipodi-0.dtd"
   xmlns="http://www.w3.org/2000/svg"
   xmlns:svg="http://www.w3.org/2000/svg">
  <sodipodi:namedview
     id="namedview20427"
     pagecolor="#ffffff"
     bordercolor="#666666"
     borderopacity="1.0"
     inkscape:pageshadow="2"
     inkscape:pageopacity="0.0"
     inkscape:pagecheckerboard="0"
     inkscape:document-units="mm"
     showgrid="false"
     inkscape:zoom="2"
     inkscape:cx="28.75"
     inkscape:cy="170"
     inkscape:window-width="1920"
     inkscape:window-height="1019"
     inkscape:window-x="0"
     inkscape:window-y="30"
     inkscape:window-maximized="1"
     inkscape:current-layer="layer1" />
  <defs
     id="defs20422" />
  <g
     inkscape:label="Layer 1"
     inkscape:groupmode="layer"
     id="layer1"
     transform="translate(-77.376712,-94.956932)">
    <path
       id="path20734"
       style="fill:#353534;stroke-width:0.0235265;fill-opacity:1"
       d="m 106.7598,94.956994 c -0.10665,4.2e-5 -0.24772,0.003 -0.37613,0.0049 -0.25532,0.0013 -0.50291,0.0049 -0.74598,0.0097 -0.14459,0.0033 -0.28663,0.0061 -0.4225,0.01088 -0.43059,0.01292 -0.82963,0.03049 -1.14243,0.0561 -1.28231,0.104987 -2.90547,0.376366 -4.288611,0.717059 -4.30573,1.060578 -8.390736,3.140998 -11.774933,5.996667 -0.941056,0.79409 -2.254848,2.0661 -2.991895,2.89658 -1.520105,1.7128 -2.721936,3.40392 -3.828892,5.38753 -0.274716,0.49227 -0.907883,1.76779 -1.144431,2.30546 -1.544462,3.51055 -2.375552,7.21947 -2.470919,11.02696 -0.01695,0.67689 0.01932,2.06369 0.07385,2.81843 0.207826,2.87624 0.807414,5.60121 1.827426,8.305 0.488151,1.29396 1.241382,2.90006 1.8446,3.93337 0.06945,0.11897 0.126237,0.23736 0.126237,0.26307 0,0.0257 -0.903747,3.34788 -2.008336,7.38269 -1.104588,4.03482 -2.014625,7.39426 -2.022363,7.46543 -0.0066,0.0604 -0.01714,0.11937 -0.02576,0.15801 -0.0018,0.008 -0.0039,0.0221 -0.0054,0.0278 -0.0037,0.0134 -0.006,0.0235 -0.0066,0.0309 -1.79e-4,0.002 8.22e-4,0.002 8.59e-4,0.004 2.51e-4,0.005 9.29e-4,0.009 0.0037,0.0106 3.45e-4,2.7e-4 4.65e-4,9.2e-4 8.59e-4,10e-4 4.05e-4,2.3e-4 0.0027,-4.8e-4 0.0031,-2.9e-4 0.0036,0.002 0.01741,-0.002 0.02462,-0.003 0.01113,-9.6e-4 0.01616,8e-4 0.03807,-0.004 0.04409,-0.01 0.143635,-0.0253 0.221272,-0.0346 0.07764,-0.009 3.520162,-0.90349 7.650058,-1.98687 l 7.492331,-1.9654 c 0.01011,0.001 0.08292,0.0352 0.141695,0.0618 l 0.344073,0.18177 c 2.947161,1.55787 6.496169,2.66247 9.86277,3.06976 1.37586,0.16645 2.20076,0.21615 3.58787,0.21726 1.56585,9.7e-4 2.58251,-0.0674 4.09368,-0.27623 2.70404,-0.37361 5.36246,-1.14615 7.97552,-2.3172 0.46833,-0.20989 1.70627,-0.84012 2.24764,-1.14444 1.58325,-0.88997 3.14512,-1.97878 4.56313,-3.18082 2.33099,-1.97595 4.41409,-4.39134 5.97721,-6.93071 2.22877,-3.62073 3.61863,-7.53634 4.13775,-11.65728 0.0996,-0.79083 0.1371,-1.26339 0.15887,-1.99975 0.002,-0.0604 0.002,-0.14511 0.003,-0.20982 0.007,-0.1968 0.0129,-0.39657 0.0169,-0.60256 4.8e-4,-0.0216 7e-4,-0.0436 0.001,-0.0653 0.004,-0.20894 0.006,-0.4185 0.006,-0.63205 0,-0.0258 -2.3e-4,-0.0519 -2.9e-4,-0.0779 2e-5,-0.49295 -0.008,-0.98594 -0.0255,-1.46245 -0.0105,-0.51686 -0.0243,-0.97703 -0.0441,-1.20827 -0.59126,-6.89837 -3.61842,-13.33497 -8.55318,-18.18609 -0.561,-0.55149 -1.24594,-1.17908 -1.749,-1.60244 -3.75988,-3.164188 -8.11718,-5.272266 -12.92795,-6.254866 -0.92549,-0.189032 -1.55331,-0.28757 -2.63494,-0.413346 -0.42392,-0.0493 -1.09122,-0.0834 -1.83573,-0.103337 -0.006,-1.59e-4 -0.0115,-4.14e-4 -0.0175,-5.73e-4 -0.003,-9.6e-5 -0.007,-1.89e-4 -0.01,-2.85e-4 -0.19747,-0.0052 -0.39903,-0.0084 -0.60514,-0.01145 -0.0762,-0.0018 -0.14285,-0.0032 -0.21583,-0.0046 -0.0231,-3.36e-4 -0.0464,-5.73e-4 -0.0696,-8.59e-4 -0.17106,-0.003 -0.34572,-0.0061 -0.48147,-0.006 z m 0.0653,4.975614 c 0.74197,-6.5e-5 1.47208,0.03156 2.15805,0.09503 1.54122,0.14261 3.05383,0.42418 4.49357,0.83643 3.46133,0.99111 6.67853,2.77249 9.38703,5.19774 2.05128,1.83678 3.66998,3.84932 5.05118,6.28006 0.1659,0.29196 0.51897,0.9809 0.71763,1.40006 1.2167,2.56718 1.95488,5.27839 2.21644,8.14011 0.3488,3.81623 -0.1922,7.60765 -1.58669,11.11627 -0.53865,1.3553 -1.28672,2.82148 -2.06415,4.04645 -1.79592,2.82978 -4.21617,5.30495 -7.02775,7.1869 -2.40891,1.61241 -5.15078,2.80013 -7.95234,3.44474 -1.38344,0.31833 -2.89279,0.52652 -4.27458,0.58997 -0.4643,0.0213 -1.853,0.0268 -2.19526,0.009 -2.73647,-0.14588 -5.01395,-0.609 -7.446248,-1.51426 -1.460745,-0.54367 -2.593244,-1.09369 -4.142624,-2.01149 -0.316193,-0.1873 -0.598822,-0.34027 -0.627748,-0.33978 -0.02893,5.1e-4 -2.07976,0.53348 -4.557689,1.18422 -2.477927,0.65075 -4.508287,1.17597 -4.511886,1.16733 -0.0036,-0.009 0.533652,-1.98848 1.193952,-4.39967 0.386598,-1.4865 0.831776,-2.95958 1.203114,-4.44949 l -0.04437,-0.0747 c -0.0016,-0.003 -0.02718,-0.0435 -0.03034,-0.0487 -0.07315,-0.13567 -0.20615,-0.36291 -0.396172,-0.6664 -0.571338,-0.91248 -0.858944,-1.4188 -1.234313,-2.17121 -0.345644,-0.69282 -0.520265,-1.07686 -0.781179,-1.71951 -0.97667,-2.40562 -1.527492,-4.79999 -1.728955,-7.51466 -0.04102,-0.55275 -0.05607,-2.4342 -0.02376,-2.95955 0.184821,-3.00487 0.832493,-5.69572 2.025797,-8.41549 0.195979,-0.44667 0.71862,-1.4924 0.975543,-1.95194 2.763746,-4.94336 7.134305,-8.75951 12.386652,-10.81571 2.073676,-0.81181 4.390156,-1.35562 6.587486,-1.54604 0.73384,-0.06359 1.48764,-0.09526 2.22961,-0.09532 z M 96.544934,110.60576 c -0.594454,0.009 -0.771187,0.0637 -1.167332,0.24446 -0.439207,0.20045 -0.800578,0.52039 -1.498237,1.32706 -1.011701,1.16977 -1.650611,2.56517 -1.868933,4.08194 -0.283026,1.96629 0.06766,3.83976 1.134699,6.06365 0.39548,0.82425 1.061439,1.93523 1.575811,2.62836 0.09165,0.1235 0.293877,0.40434 0.449129,0.62431 1.245847,1.76522 2.49785,3.26374 3.978028,4.76093 2.352011,2.37902 4.631101,4.09276 7.105891,5.34344 1.35558,0.68507 3.66661,1.5802 5.45824,2.11397 0.61022,0.1818 1.30141,0.30474 1.99975,0.35609 0.78904,0.058 2.12983,-0.0387 2.76318,-0.19923 1.27946,-0.32433 2.97435,-1.31553 3.83633,-2.24363 0.44434,-0.47843 0.6676,-0.8513 0.85389,-1.42668 0.29087,-0.89837 0.4421,-1.73365 0.44598,-2.45861 0.003,-0.62125 -0.056,-0.80576 -0.32833,-1.02392 -0.14258,-0.11423 -1.54253,-0.81936 -3.654,-1.8403 -2.55606,-1.23593 -3.01559,-1.41471 -3.4559,-1.3451 -0.31101,0.0492 -0.50977,0.20779 -0.83729,0.66868 -0.49086,0.69077 -2.15198,2.69923 -2.41596,2.9212 -0.17946,0.15093 -0.33143,0.20694 -0.56048,0.20638 -0.1183,-3.3e-4 -0.25374,-0.0169 -0.33147,-0.0404 -0.20638,-0.0623 -1.39391,-0.58815 -2.03296,-0.90026 -1.63227,-0.79719 -3.1374,-1.84242 -4.58316,-3.18311 -1.21724,-1.12877 -2.59535,-2.86356 -3.573845,-4.49843 -0.208843,-0.34893 -0.263539,-0.46673 -0.301422,-0.64922 -0.06772,-0.32622 0.02462,-0.53499 0.426227,-0.96266 0.37289,-0.3971 1.24232,-1.44014 1.41723,-1.70033 0.0754,-0.11212 0.22673,-0.38459 0.33634,-0.60542 0.24241,-0.48838 0.29237,-0.68282 0.25019,-0.97211 -0.0313,-0.21444 -0.0755,-0.35141 -0.19437,-0.60256 -0.15981,-0.33756 -0.42942,-0.98685 -2.075031,-4.99937 -0.103482,-0.25233 -0.231293,-0.54738 -0.283961,-0.6558 -0.20818,-0.42857 -0.468372,-0.74794 -0.719348,-0.88223 -0.236768,-0.12669 -0.288416,-0.13197 -1.391753,-0.14742 -0.314561,-0.004 -0.558982,-0.007 -0.757133,-0.004 z"
       sodipodi:nodetypes="scccssssssssssssscscccsssscccccscssssssscccccccssssssccccsssssscsssssscsssssccccsssssssssssssssssssscssscsssscccssssssssssssss" />
  </g>
</svg>
