<svg width="24" height="24" version="1.1" viewBox="0 0 24 24" xmlns="http://www.w3.org/2000/svg">
 <title>WhatsApp</title>
 <g transform="translate(-77.377 -94.957)">
  <path d="m89.421 94.957c-0.04373 1.5e-5 -0.10156 0.0012-0.15417 2e-3 -0.10466 5.29e-4 -0.20614 2e-3 -0.30576 0.0042-0.05926 0.0014-0.11751 0.0025-0.17318 0.0045-0.1765 0.0053-0.34008 0.01247-0.46828 0.02305-0.52562 0.04282-1.191 0.1536-1.7579 0.29262-1.7649 0.4328-3.4394 1.2818-4.8266 2.4471-0.38574 0.32406-0.92427 0.84314-1.2264 1.182-0.6231 0.69896-1.1157 1.3891-1.5695 2.1985-0.11259 0.20089-0.37213 0.72141-0.4691 0.94082-0.63308 1.4326-0.97374 2.9461-1.0128 4.4999-0.0068 0.27624 0.0079 0.84215 0.03024 1.1502 0.08519 1.1737 0.33097 2.2858 0.74906 3.3891 0.20009 0.52804 0.50885 1.1835 0.75611 1.6052 0.02835 0.0486 0.05174 0.0969 0.05174 0.10733 0 0.0106-0.37043 1.3662-0.82322 3.0127-0.45277 1.6466-0.8258 3.0175-0.82897 3.0465-0.0027 0.0264-0.0072 0.0487-0.01058 0.0646-7.37e-4 3e-3 -0.0016 8e-3 -0.0022 0.0113-0.0015 4e-3 -0.0025 0.0113-0.0027 0.0113-7.6e-5 8e-4 3.36e-4 8e-4 3.51e-4 2e-3 1.02e-4 2e-3 3.82e-4 4e-3 0.0015 4e-3 1.4e-4 1.1e-4 1.89e-4 3.8e-4 3.51e-4 4.1e-4 1.67e-4 1.2e-4 0.0011-1.9e-4 0.0013-1.1e-4 0.0015 8.3e-4 0.0072-7.9e-4 0.0102-9.8e-4 0.0045-4.2e-4 0.0064 3e-4 0.0155-2e-3 0.01814-4e-3 0.05888-0.0113 0.09071-0.0151 0.03175-4e-3 1.4429-0.36852 3.1358-0.81085l3.0711-0.80204c0.0042 4.2e-4 0.03401 0.0151 0.05809 0.0265l0.14105 0.0741c1.208 0.63577 2.6628 1.0865 4.0428 1.2527 0.56397 0.068 0.9021 0.0881 1.4707 0.0888 0.64184 4.2e-4 1.0586-0.0265 1.678-0.11263 1.1084-0.15232 2.1981-0.46773 3.2692-0.94562 0.19196-0.0854 0.6994-0.34281 0.92131-0.46701 0.64898-0.36322 1.2892-0.80751 1.8704-1.298 0.95548-0.80637 1.8093-1.792 2.4501-2.8283 0.91357-1.4776 1.4833-3.0754 1.6961-4.7571 0.0408-0.32274 0.0562-0.51557 0.0651-0.81607 8.2e-4 -0.0246 8.2e-4 -0.0592 1e-3 -0.0856 3e-3 -0.0803 5e-3 -0.16184 7e-3 -0.24589 2e-4 -9e-3 2.9e-4 -0.0178 4.1e-4 -0.0268 2e-3 -0.0852 2e-3 -0.1708 2e-3 -0.25792 0-0.0106-9e-5 -0.0212-1.2e-4 -0.0317 1e-5 -0.20115-3e-3 -0.40235-0.0106-0.5968-4e-3 -0.21094-0.01-0.39872-0.0181-0.49308-0.24234-2.8151-1.4832-5.4418-3.506-7.4214-0.22995-0.22504-0.51072-0.48116-0.71692-0.65393-1.5412-1.2912-3.3273-2.1515-5.2992-2.5525-0.37936-0.07714-0.6367-0.11736-1.0801-0.16868-0.17378-0.02003-0.4473-0.03402-0.75247-0.04218-0.0025-6.5e-5 -0.0045-1.7e-4 -0.0072-2.35e-4 -0.0012-3.7e-5 -0.0029-7.5e-5 -0.0042-1.17e-4 -0.08096-0.0021-0.16358-0.0034-0.24805-0.0045-0.03137-7.37e-4 -0.05855-0.0013-0.08848-0.0019-0.0094-1.36e-4 -0.0189-2.35e-4 -0.02835-3.52e-4 -0.07011-0.0012-0.1417-0.0025-0.19737-0.0025zm0.02683 2.0305c0.30414-2.6e-5 0.60341 0.01285 0.88459 0.03878 0.63175 0.0582 1.2518 0.17311 1.8419 0.34134 1.4188 0.40446 2.7375 1.1314 3.8478 2.1211 0.84082 0.74955 1.5043 1.5708 2.0705 2.5628 0.06799 0.11914 0.21271 0.4003 0.29416 0.57134 0.49873 1.0476 0.80131 2.154 0.90852 3.3218 0.14298 1.5573-0.07877 3.1045-0.65039 4.5363-0.2208 0.55308-0.52743 1.1514-0.8461 1.6513-0.73615 1.1548-1.7282 2.1648-2.8807 2.9328-0.98742 0.65799-2.1113 1.1427-3.2597 1.4058-0.56708 0.13001-1.1858 0.21467-1.7522 0.24076-0.1903 8e-3 -0.75955 0.0113-0.89984 4e-3 -1.1217-0.0593-2.0552-0.2487-3.0522-0.61797-0.59876-0.22186-1.063-0.4463-1.6981-0.82086-0.1296-0.0763-0.24544-0.1387-0.25731-0.1387-0.01172 1.8e-4 -0.8525 0.21769-1.8682 0.48325-1.0157 0.26571-1.848 0.47987-1.8494 0.47635-0.0015-4e-3 0.21876-0.81145 0.48941-1.7954 0.15848-0.60661 0.34095-1.2077 0.49316-1.8158l-0.01814-0.0306c-6.57e-4 -1e-3 -0.01096-0.0178-0.01247-0.02-0.02986-0.0554-0.08451-0.14812-0.16241-0.27195-0.23418-0.37236-0.3521-0.57898-0.50595-0.88603-0.14169-0.2827-0.21328-0.43943-0.3202-0.7017-0.40034-0.98169-0.62612-1.9588-0.7087-3.0666-0.01663-0.22557-0.02305-0.99336-0.0098-1.2078 0.07574-1.2262 0.34125-2.3243 0.83038-3.4342 0.08031-0.18229 0.29458-0.60901 0.39988-0.79655 1.1329-2.0173 2.9244-3.5746 5.0773-4.4137 0.85-0.33128 1.7995-0.55321 2.7002-0.63091 0.30081-0.02608 0.60979-0.03889 0.91392-0.03889zm-4.2139 4.3555c-0.24366 4e-3 -0.31612 0.0261-0.47849 0.0998-0.18002 0.0818-0.32818 0.21238-0.61413 0.54156-0.4147 0.47737-0.67659 1.0468-0.76608 1.6658-0.11599 0.80242 0.02759 1.5669 0.46512 2.4745 0.1621 0.33639 0.43509 0.78974 0.64593 1.0726 0.03742 0.0504 0.12045 0.16498 0.1841 0.25478 0.51068 0.72036 1.0239 1.3319 1.6306 1.9428 0.96409 0.97085 1.8983 1.6702 2.9127 2.1806 0.55566 0.27958 1.503 0.64485 2.2373 0.86268 0.25013 0.0742 0.53345 0.12434 0.8197 0.14533 0.32341 0.0238 0.87302-0.0159 1.1326-0.0813 0.52445-0.13236 1.2192-0.53682 1.5725-0.91558 0.18214-0.19525 0.27364-0.34738 0.35002-0.5822 0.11924-0.36663 0.18123-0.70748 0.18282-1.0033 0.0012-0.25353-0.02305-0.32883-0.13459-0.41785-0.05843-0.0466-0.63229-0.33438-1.4978-0.75098-1.0477-0.50437-1.2361-0.57733-1.4166-0.54892-0.12748 0.02-0.20897 0.0848-0.34322 0.27289-0.20122 0.28189-0.8821 1.1015-0.99031 1.1921-0.07355 0.0616-0.13584 0.0844-0.22976 0.0842-0.04849-1.4e-4 -0.10401-7e-3 -0.13587-0.0166-0.08459-0.0253-0.57136-0.24001-0.83332-0.36738-0.66907-0.32531-1.286-0.75187-1.8786-1.299-0.49895-0.46064-1.0638-1.1686-1.4649-1.8357-0.08561-0.14238-0.10802-0.19046-0.12355-0.26495-0.02759-0.13311 0.0102-0.21831 0.17469-0.39284 0.15284-0.16204 0.50923-0.5877 0.58093-0.69387 0.03099-0.0458 0.09294-0.15694 0.13788-0.24708 0.09936-0.1993 0.11985-0.27863 0.10254-0.3967-0.01285-0.0875-0.03099-0.1434-0.07967-0.2459-0.0655-0.13777-0.17601-0.40272-0.85056-2.0402-0.04241-0.10295-0.09479-0.22337-0.11641-0.26764-0.08534-0.17487-0.192-0.30524-0.29484-0.36-0.09706-0.0517-0.11822-0.0539-0.57048-0.0601-0.12892-2e-3 -0.22912-3e-3 -0.31034-2e-3z" style="fill:#353534;stroke-width:.0096221"/>
 </g>
</svg>
